%TF.GenerationSoftware,KiCad,Pcbnew,6.0.7-f9a2dced07~116~ubuntu20.04.1*%
%TF.CreationDate,2022-09-20T13:31:56+02:00*%
%TF.ProjectId,MateLightPowerSupplyPcb,4d617465-4c69-4676-9874-506f77657253,rev?*%
%TF.SameCoordinates,Original*%
%TF.FileFunction,Copper,L2,Bot*%
%TF.FilePolarity,Positive*%
%FSLAX46Y46*%
G04 Gerber Fmt 4.6, Leading zero omitted, Abs format (unit mm)*
G04 Created by KiCad (PCBNEW 6.0.7-f9a2dced07~116~ubuntu20.04.1) date 2022-09-20 13:31:56*
%MOMM*%
%LPD*%
G01*
G04 APERTURE LIST*
%TA.AperFunction,ComponentPad*%
%ADD10R,4.400000X4.400000*%
%TD*%
%TA.AperFunction,ComponentPad*%
%ADD11C,4.400000*%
%TD*%
%TA.AperFunction,SMDPad,CuDef*%
%ADD12R,0.700000X2.500000*%
%TD*%
%TA.AperFunction,SMDPad,CuDef*%
%ADD13R,1.100000X1.900000*%
%TD*%
G04 APERTURE END LIST*
D10*
%TO.P,X1,1,Pin_1*%
%TO.N,GND*%
X111000000Y-113000000D03*
D11*
%TO.P,X1,2,Pin_2*%
%TO.N,+5V*%
X116000000Y-113000000D03*
%TD*%
D10*
%TO.P,X2,1,Pin_1*%
%TO.N,GND*%
X162000000Y-113000000D03*
D11*
%TO.P,X2,2,Pin_2*%
%TO.N,+5V*%
X157000000Y-113000000D03*
%TD*%
D12*
%TO.P,X20,1,Pin_1*%
%TO.N,+5V*%
X137250000Y-119850000D03*
%TO.P,X20,2,Pin_2*%
%TO.N,GND*%
X135750000Y-119850000D03*
D13*
%TO.P,X20,S1*%
%TO.N,N/C*%
X139200000Y-123450000D03*
%TO.P,X20,S2*%
X133800000Y-123450000D03*
%TD*%
D12*
%TO.P,X22,1,Pin_1*%
%TO.N,+5V*%
X115250000Y-119850000D03*
%TO.P,X22,2,Pin_2*%
%TO.N,GND*%
X113750000Y-119850000D03*
D13*
%TO.P,X22,S1*%
%TO.N,N/C*%
X117200000Y-123450000D03*
%TO.P,X22,S2*%
X111800000Y-123450000D03*
%TD*%
D12*
%TO.P,X21,1,Pin_1*%
%TO.N,+5V*%
X126250000Y-119850000D03*
%TO.P,X21,2,Pin_2*%
%TO.N,GND*%
X124750000Y-119850000D03*
D13*
%TO.P,X21,S1*%
%TO.N,N/C*%
X128200000Y-123450000D03*
%TO.P,X21,S2*%
X122800000Y-123450000D03*
%TD*%
%TO.P,X13,S2*%
%TO.N,N/C*%
X161200000Y-102550000D03*
%TO.P,X13,S1*%
X155800000Y-102550000D03*
D12*
%TO.P,X13,2,Pin_2*%
%TO.N,GND*%
X159250000Y-106150000D03*
%TO.P,X13,1,Pin_1*%
%TO.N,+5V*%
X157750000Y-106150000D03*
%TD*%
%TO.P,X15,1,Pin_1*%
%TO.N,+5V*%
X135750000Y-106150000D03*
%TO.P,X15,2,Pin_2*%
%TO.N,GND*%
X137250000Y-106150000D03*
D13*
%TO.P,X15,S1*%
%TO.N,N/C*%
X133800000Y-102550000D03*
%TO.P,X15,S2*%
X139200000Y-102550000D03*
%TD*%
D12*
%TO.P,X14,1,Pin_1*%
%TO.N,+5V*%
X146750000Y-106150000D03*
%TO.P,X14,2,Pin_2*%
%TO.N,GND*%
X148250000Y-106150000D03*
D13*
%TO.P,X14,S1*%
%TO.N,N/C*%
X144800000Y-102550000D03*
%TO.P,X14,S2*%
X150200000Y-102550000D03*
%TD*%
D12*
%TO.P,X18,1,Pin_1*%
%TO.N,+5V*%
X159250000Y-119850000D03*
%TO.P,X18,2,Pin_2*%
%TO.N,GND*%
X157750000Y-119850000D03*
D13*
%TO.P,X18,S1*%
%TO.N,N/C*%
X161200000Y-123450000D03*
%TO.P,X18,S2*%
X155800000Y-123450000D03*
%TD*%
D12*
%TO.P,X19,1,Pin_1*%
%TO.N,+5V*%
X148250000Y-119850000D03*
%TO.P,X19,2,Pin_2*%
%TO.N,GND*%
X146750000Y-119850000D03*
D13*
%TO.P,X19,S1*%
%TO.N,N/C*%
X150200000Y-123450000D03*
%TO.P,X19,S2*%
X144800000Y-123450000D03*
%TD*%
D12*
%TO.P,X17,1,Pin_1*%
%TO.N,+5V*%
X113750000Y-106150000D03*
%TO.P,X17,2,Pin_2*%
%TO.N,GND*%
X115250000Y-106150000D03*
D13*
%TO.P,X17,S1*%
%TO.N,N/C*%
X111800000Y-102550000D03*
%TO.P,X17,S2*%
X117200000Y-102550000D03*
%TD*%
D12*
%TO.P,X16,1,Pin_1*%
%TO.N,+5V*%
X124750000Y-106150000D03*
%TO.P,X16,2,Pin_2*%
%TO.N,GND*%
X126250000Y-106150000D03*
D13*
%TO.P,X16,S1*%
%TO.N,N/C*%
X122800000Y-102550000D03*
%TO.P,X16,S2*%
X128200000Y-102550000D03*
%TD*%
%TA.AperFunction,Conductor*%
%TO.N,GND*%
G36*
X102708691Y-100269407D02*
G01*
X102744655Y-100318907D01*
X102749500Y-100349500D01*
X102749500Y-101715574D01*
X102747598Y-101734888D01*
X102744592Y-101750000D01*
X102746495Y-101759566D01*
X102747793Y-101766092D01*
X102749074Y-101774324D01*
X102758961Y-101862076D01*
X102796212Y-101968533D01*
X102799171Y-101973242D01*
X102853258Y-102059323D01*
X102853262Y-102059328D01*
X102856217Y-102064031D01*
X102935969Y-102143783D01*
X102940672Y-102146738D01*
X102940677Y-102146742D01*
X103012388Y-102191800D01*
X103031467Y-102203788D01*
X103036717Y-102205625D01*
X103036719Y-102205626D01*
X103062975Y-102214813D01*
X103137924Y-102241039D01*
X103191675Y-102247095D01*
X103225676Y-102250926D01*
X103233908Y-102252207D01*
X103240434Y-102253505D01*
X103250000Y-102255408D01*
X103259562Y-102253506D01*
X103259563Y-102253506D01*
X103265112Y-102252402D01*
X103284426Y-102250500D01*
X106715574Y-102250500D01*
X106734888Y-102252402D01*
X106740437Y-102253506D01*
X106740438Y-102253506D01*
X106750000Y-102255408D01*
X106759566Y-102253505D01*
X106766092Y-102252207D01*
X106774324Y-102250926D01*
X106808325Y-102247095D01*
X106862076Y-102241039D01*
X106937025Y-102214813D01*
X106963281Y-102205626D01*
X106963283Y-102205625D01*
X106968533Y-102203788D01*
X106987612Y-102191800D01*
X107059323Y-102146742D01*
X107059328Y-102146738D01*
X107064031Y-102143783D01*
X107143783Y-102064031D01*
X107146738Y-102059328D01*
X107146742Y-102059323D01*
X107200829Y-101973242D01*
X107203788Y-101968533D01*
X107241039Y-101862076D01*
X107250926Y-101774324D01*
X107252207Y-101766092D01*
X107253505Y-101759566D01*
X107255408Y-101750000D01*
X107252402Y-101734888D01*
X107250500Y-101715574D01*
X107250500Y-100349500D01*
X107269407Y-100291309D01*
X107318907Y-100255345D01*
X107349500Y-100250500D01*
X165650500Y-100250500D01*
X165708691Y-100269407D01*
X165744655Y-100318907D01*
X165749500Y-100349500D01*
X165749500Y-101715574D01*
X165747598Y-101734888D01*
X165744592Y-101750000D01*
X165746495Y-101759566D01*
X165747793Y-101766092D01*
X165749074Y-101774324D01*
X165758961Y-101862076D01*
X165796212Y-101968533D01*
X165799171Y-101973242D01*
X165853258Y-102059323D01*
X165853262Y-102059328D01*
X165856217Y-102064031D01*
X165935969Y-102143783D01*
X165940672Y-102146738D01*
X165940677Y-102146742D01*
X166012388Y-102191800D01*
X166031467Y-102203788D01*
X166036717Y-102205625D01*
X166036719Y-102205626D01*
X166062975Y-102214813D01*
X166137924Y-102241039D01*
X166191675Y-102247095D01*
X166225676Y-102250926D01*
X166233908Y-102252207D01*
X166240434Y-102253505D01*
X166250000Y-102255408D01*
X166259562Y-102253506D01*
X166259563Y-102253506D01*
X166265112Y-102252402D01*
X166284426Y-102250500D01*
X169715574Y-102250500D01*
X169734888Y-102252402D01*
X169740437Y-102253506D01*
X169740438Y-102253506D01*
X169750000Y-102255408D01*
X169759566Y-102253505D01*
X169766092Y-102252207D01*
X169774324Y-102250926D01*
X169808325Y-102247095D01*
X169862076Y-102241039D01*
X169937025Y-102214813D01*
X169963281Y-102205626D01*
X169963283Y-102205625D01*
X169968533Y-102203788D01*
X169987612Y-102191800D01*
X170059323Y-102146742D01*
X170059328Y-102146738D01*
X170064031Y-102143783D01*
X170143783Y-102064031D01*
X170146738Y-102059328D01*
X170146742Y-102059323D01*
X170200829Y-101973242D01*
X170203788Y-101968533D01*
X170241039Y-101862076D01*
X170250926Y-101774324D01*
X170252207Y-101766092D01*
X170253505Y-101759566D01*
X170255408Y-101750000D01*
X170252402Y-101734888D01*
X170250500Y-101715574D01*
X170250500Y-100349500D01*
X170269407Y-100291309D01*
X170318907Y-100255345D01*
X170349500Y-100250500D01*
X171965574Y-100250500D01*
X171984888Y-100252402D01*
X171990437Y-100253506D01*
X171990438Y-100253506D01*
X172000000Y-100255408D01*
X172009564Y-100253505D01*
X172019313Y-100253505D01*
X172019313Y-100254144D01*
X172031118Y-100253565D01*
X172114907Y-100261817D01*
X172136516Y-100263945D01*
X172155546Y-100267730D01*
X172277490Y-100304722D01*
X172295419Y-100312148D01*
X172407805Y-100372220D01*
X172423940Y-100383002D01*
X172522439Y-100463837D01*
X172536163Y-100477561D01*
X172616998Y-100576060D01*
X172627780Y-100592195D01*
X172687852Y-100704581D01*
X172695278Y-100722510D01*
X172732270Y-100844454D01*
X172736055Y-100863485D01*
X172746435Y-100968882D01*
X172745856Y-100980687D01*
X172746495Y-100980687D01*
X172746495Y-100990436D01*
X172744592Y-101000000D01*
X172746494Y-101009562D01*
X172746494Y-101009563D01*
X172747598Y-101015112D01*
X172749500Y-101034426D01*
X172749500Y-124965574D01*
X172747598Y-124984888D01*
X172744592Y-125000000D01*
X172746495Y-125009564D01*
X172746495Y-125019313D01*
X172745856Y-125019313D01*
X172746435Y-125031118D01*
X172736055Y-125136515D01*
X172732270Y-125155546D01*
X172719930Y-125196226D01*
X172695279Y-125277489D01*
X172687852Y-125295419D01*
X172627780Y-125407805D01*
X172616998Y-125423940D01*
X172536163Y-125522439D01*
X172522439Y-125536163D01*
X172423940Y-125616998D01*
X172407805Y-125627780D01*
X172295419Y-125687852D01*
X172277490Y-125695278D01*
X172155546Y-125732270D01*
X172136516Y-125736055D01*
X172114907Y-125738183D01*
X172031118Y-125746435D01*
X172019313Y-125745856D01*
X172019313Y-125746495D01*
X172009564Y-125746495D01*
X172000000Y-125744592D01*
X171990438Y-125746494D01*
X171990437Y-125746494D01*
X171984888Y-125747598D01*
X171965574Y-125749500D01*
X170349500Y-125749500D01*
X170291309Y-125730593D01*
X170255345Y-125681093D01*
X170250500Y-125650500D01*
X170250500Y-124284426D01*
X170252402Y-124265112D01*
X170253506Y-124259563D01*
X170253506Y-124259562D01*
X170255408Y-124250000D01*
X170252207Y-124233908D01*
X170250926Y-124225676D01*
X170241661Y-124143446D01*
X170241039Y-124137924D01*
X170203788Y-124031467D01*
X170191800Y-124012388D01*
X170146742Y-123940677D01*
X170146738Y-123940672D01*
X170143783Y-123935969D01*
X170064031Y-123856217D01*
X170059328Y-123853262D01*
X170059323Y-123853258D01*
X169973242Y-123799171D01*
X169968533Y-123796212D01*
X169963283Y-123794375D01*
X169963281Y-123794374D01*
X169937025Y-123785187D01*
X169862076Y-123758961D01*
X169808325Y-123752905D01*
X169774324Y-123749074D01*
X169766092Y-123747793D01*
X169759566Y-123746495D01*
X169750000Y-123744592D01*
X169740438Y-123746494D01*
X169740437Y-123746494D01*
X169734888Y-123747598D01*
X169715574Y-123749500D01*
X166284426Y-123749500D01*
X166265112Y-123747598D01*
X166259563Y-123746494D01*
X166259562Y-123746494D01*
X166250000Y-123744592D01*
X166240434Y-123746495D01*
X166233908Y-123747793D01*
X166225676Y-123749074D01*
X166191675Y-123752905D01*
X166137924Y-123758961D01*
X166062975Y-123785187D01*
X166036719Y-123794374D01*
X166036717Y-123794375D01*
X166031467Y-123796212D01*
X166026758Y-123799171D01*
X165940677Y-123853258D01*
X165940672Y-123853262D01*
X165935969Y-123856217D01*
X165856217Y-123935969D01*
X165853262Y-123940672D01*
X165853258Y-123940677D01*
X165808200Y-124012388D01*
X165796212Y-124031467D01*
X165758961Y-124137924D01*
X165758339Y-124143446D01*
X165749074Y-124225676D01*
X165747793Y-124233908D01*
X165744592Y-124250000D01*
X165746494Y-124259562D01*
X165746494Y-124259563D01*
X165747598Y-124265112D01*
X165749500Y-124284426D01*
X165749500Y-125650500D01*
X165730593Y-125708691D01*
X165681093Y-125744655D01*
X165650500Y-125749500D01*
X107349500Y-125749500D01*
X107291309Y-125730593D01*
X107255345Y-125681093D01*
X107250500Y-125650500D01*
X107250500Y-124424674D01*
X110999500Y-124424674D01*
X111014034Y-124497740D01*
X111069399Y-124580601D01*
X111152260Y-124635966D01*
X111225326Y-124650500D01*
X112374674Y-124650500D01*
X112447740Y-124635966D01*
X112530601Y-124580601D01*
X112585966Y-124497740D01*
X112600500Y-124424674D01*
X116399500Y-124424674D01*
X116414034Y-124497740D01*
X116469399Y-124580601D01*
X116552260Y-124635966D01*
X116625326Y-124650500D01*
X117774674Y-124650500D01*
X117847740Y-124635966D01*
X117930601Y-124580601D01*
X117985966Y-124497740D01*
X118000500Y-124424674D01*
X121999500Y-124424674D01*
X122014034Y-124497740D01*
X122069399Y-124580601D01*
X122152260Y-124635966D01*
X122225326Y-124650500D01*
X123374674Y-124650500D01*
X123447740Y-124635966D01*
X123530601Y-124580601D01*
X123585966Y-124497740D01*
X123600500Y-124424674D01*
X127399500Y-124424674D01*
X127414034Y-124497740D01*
X127469399Y-124580601D01*
X127552260Y-124635966D01*
X127625326Y-124650500D01*
X128774674Y-124650500D01*
X128847740Y-124635966D01*
X128930601Y-124580601D01*
X128985966Y-124497740D01*
X129000500Y-124424674D01*
X132999500Y-124424674D01*
X133014034Y-124497740D01*
X133069399Y-124580601D01*
X133152260Y-124635966D01*
X133225326Y-124650500D01*
X134374674Y-124650500D01*
X134447740Y-124635966D01*
X134530601Y-124580601D01*
X134585966Y-124497740D01*
X134600500Y-124424674D01*
X138399500Y-124424674D01*
X138414034Y-124497740D01*
X138469399Y-124580601D01*
X138552260Y-124635966D01*
X138625326Y-124650500D01*
X139774674Y-124650500D01*
X139847740Y-124635966D01*
X139930601Y-124580601D01*
X139985966Y-124497740D01*
X140000500Y-124424674D01*
X143999500Y-124424674D01*
X144014034Y-124497740D01*
X144069399Y-124580601D01*
X144152260Y-124635966D01*
X144225326Y-124650500D01*
X145374674Y-124650500D01*
X145447740Y-124635966D01*
X145530601Y-124580601D01*
X145585966Y-124497740D01*
X145600500Y-124424674D01*
X149399500Y-124424674D01*
X149414034Y-124497740D01*
X149469399Y-124580601D01*
X149552260Y-124635966D01*
X149625326Y-124650500D01*
X150774674Y-124650500D01*
X150847740Y-124635966D01*
X150930601Y-124580601D01*
X150985966Y-124497740D01*
X151000500Y-124424674D01*
X154999500Y-124424674D01*
X155014034Y-124497740D01*
X155069399Y-124580601D01*
X155152260Y-124635966D01*
X155225326Y-124650500D01*
X156374674Y-124650500D01*
X156447740Y-124635966D01*
X156530601Y-124580601D01*
X156585966Y-124497740D01*
X156600500Y-124424674D01*
X160399500Y-124424674D01*
X160414034Y-124497740D01*
X160469399Y-124580601D01*
X160552260Y-124635966D01*
X160625326Y-124650500D01*
X161774674Y-124650500D01*
X161847740Y-124635966D01*
X161930601Y-124580601D01*
X161985966Y-124497740D01*
X162000500Y-124424674D01*
X162000500Y-122475326D01*
X161985966Y-122402260D01*
X161930601Y-122319399D01*
X161847740Y-122264034D01*
X161774674Y-122249500D01*
X160625326Y-122249500D01*
X160552260Y-122264034D01*
X160469399Y-122319399D01*
X160414034Y-122402260D01*
X160399500Y-122475326D01*
X160399500Y-124424674D01*
X156600500Y-124424674D01*
X156600500Y-122475326D01*
X156585966Y-122402260D01*
X156530601Y-122319399D01*
X156447740Y-122264034D01*
X156374674Y-122249500D01*
X155225326Y-122249500D01*
X155152260Y-122264034D01*
X155069399Y-122319399D01*
X155014034Y-122402260D01*
X154999500Y-122475326D01*
X154999500Y-124424674D01*
X151000500Y-124424674D01*
X151000500Y-122475326D01*
X150985966Y-122402260D01*
X150930601Y-122319399D01*
X150847740Y-122264034D01*
X150774674Y-122249500D01*
X149625326Y-122249500D01*
X149552260Y-122264034D01*
X149469399Y-122319399D01*
X149414034Y-122402260D01*
X149399500Y-122475326D01*
X149399500Y-124424674D01*
X145600500Y-124424674D01*
X145600500Y-122475326D01*
X145585966Y-122402260D01*
X145530601Y-122319399D01*
X145447740Y-122264034D01*
X145374674Y-122249500D01*
X144225326Y-122249500D01*
X144152260Y-122264034D01*
X144069399Y-122319399D01*
X144014034Y-122402260D01*
X143999500Y-122475326D01*
X143999500Y-124424674D01*
X140000500Y-124424674D01*
X140000500Y-122475326D01*
X139985966Y-122402260D01*
X139930601Y-122319399D01*
X139847740Y-122264034D01*
X139774674Y-122249500D01*
X138625326Y-122249500D01*
X138552260Y-122264034D01*
X138469399Y-122319399D01*
X138414034Y-122402260D01*
X138399500Y-122475326D01*
X138399500Y-124424674D01*
X134600500Y-124424674D01*
X134600500Y-122475326D01*
X134585966Y-122402260D01*
X134530601Y-122319399D01*
X134447740Y-122264034D01*
X134374674Y-122249500D01*
X133225326Y-122249500D01*
X133152260Y-122264034D01*
X133069399Y-122319399D01*
X133014034Y-122402260D01*
X132999500Y-122475326D01*
X132999500Y-124424674D01*
X129000500Y-124424674D01*
X129000500Y-122475326D01*
X128985966Y-122402260D01*
X128930601Y-122319399D01*
X128847740Y-122264034D01*
X128774674Y-122249500D01*
X127625326Y-122249500D01*
X127552260Y-122264034D01*
X127469399Y-122319399D01*
X127414034Y-122402260D01*
X127399500Y-122475326D01*
X127399500Y-124424674D01*
X123600500Y-124424674D01*
X123600500Y-122475326D01*
X123585966Y-122402260D01*
X123530601Y-122319399D01*
X123447740Y-122264034D01*
X123374674Y-122249500D01*
X122225326Y-122249500D01*
X122152260Y-122264034D01*
X122069399Y-122319399D01*
X122014034Y-122402260D01*
X121999500Y-122475326D01*
X121999500Y-124424674D01*
X118000500Y-124424674D01*
X118000500Y-122475326D01*
X117985966Y-122402260D01*
X117930601Y-122319399D01*
X117847740Y-122264034D01*
X117774674Y-122249500D01*
X116625326Y-122249500D01*
X116552260Y-122264034D01*
X116469399Y-122319399D01*
X116414034Y-122402260D01*
X116399500Y-122475326D01*
X116399500Y-124424674D01*
X112600500Y-124424674D01*
X112600500Y-122475326D01*
X112585966Y-122402260D01*
X112530601Y-122319399D01*
X112447740Y-122264034D01*
X112374674Y-122249500D01*
X111225326Y-122249500D01*
X111152260Y-122264034D01*
X111069399Y-122319399D01*
X111014034Y-122402260D01*
X110999500Y-122475326D01*
X110999500Y-124424674D01*
X107250500Y-124424674D01*
X107250500Y-124284426D01*
X107252402Y-124265112D01*
X107253506Y-124259563D01*
X107253506Y-124259562D01*
X107255408Y-124250000D01*
X107252207Y-124233908D01*
X107250926Y-124225676D01*
X107241661Y-124143446D01*
X107241039Y-124137924D01*
X107203788Y-124031467D01*
X107191800Y-124012388D01*
X107146742Y-123940677D01*
X107146738Y-123940672D01*
X107143783Y-123935969D01*
X107064031Y-123856217D01*
X107059328Y-123853262D01*
X107059323Y-123853258D01*
X106973242Y-123799171D01*
X106968533Y-123796212D01*
X106963283Y-123794375D01*
X106963281Y-123794374D01*
X106937025Y-123785187D01*
X106862076Y-123758961D01*
X106808325Y-123752905D01*
X106774324Y-123749074D01*
X106766092Y-123747793D01*
X106759566Y-123746495D01*
X106750000Y-123744592D01*
X106740438Y-123746494D01*
X106740437Y-123746494D01*
X106734888Y-123747598D01*
X106715574Y-123749500D01*
X103284426Y-123749500D01*
X103265112Y-123747598D01*
X103259563Y-123746494D01*
X103259562Y-123746494D01*
X103250000Y-123744592D01*
X103240434Y-123746495D01*
X103233908Y-123747793D01*
X103225676Y-123749074D01*
X103191675Y-123752905D01*
X103137924Y-123758961D01*
X103062975Y-123785187D01*
X103036719Y-123794374D01*
X103036717Y-123794375D01*
X103031467Y-123796212D01*
X103026758Y-123799171D01*
X102940677Y-123853258D01*
X102940672Y-123853262D01*
X102935969Y-123856217D01*
X102856217Y-123935969D01*
X102853262Y-123940672D01*
X102853258Y-123940677D01*
X102808200Y-124012388D01*
X102796212Y-124031467D01*
X102758961Y-124137924D01*
X102758339Y-124143446D01*
X102749074Y-124225676D01*
X102747793Y-124233908D01*
X102744592Y-124250000D01*
X102746494Y-124259562D01*
X102746494Y-124259563D01*
X102747598Y-124265112D01*
X102749500Y-124284426D01*
X102749500Y-125650500D01*
X102730593Y-125708691D01*
X102681093Y-125744655D01*
X102650500Y-125749500D01*
X101034426Y-125749500D01*
X101015112Y-125747598D01*
X101009563Y-125746494D01*
X101009562Y-125746494D01*
X101000000Y-125744592D01*
X100990436Y-125746495D01*
X100980687Y-125746495D01*
X100980687Y-125745856D01*
X100968882Y-125746435D01*
X100885093Y-125738183D01*
X100863484Y-125736055D01*
X100844454Y-125732270D01*
X100722510Y-125695278D01*
X100704581Y-125687852D01*
X100592195Y-125627780D01*
X100576060Y-125616998D01*
X100477561Y-125536163D01*
X100463837Y-125522439D01*
X100383002Y-125423940D01*
X100372220Y-125407805D01*
X100312148Y-125295419D01*
X100304721Y-125277489D01*
X100280070Y-125196226D01*
X100267730Y-125155546D01*
X100263945Y-125136515D01*
X100253565Y-125031118D01*
X100254144Y-125019313D01*
X100253505Y-125019313D01*
X100253505Y-125009564D01*
X100255408Y-125000000D01*
X100252402Y-124984888D01*
X100250500Y-124965574D01*
X100250500Y-121114840D01*
X113200000Y-121114840D01*
X113200948Y-121124462D01*
X113209702Y-121168474D01*
X113217021Y-121186142D01*
X113250389Y-121236082D01*
X113263918Y-121249611D01*
X113313858Y-121282979D01*
X113331526Y-121290298D01*
X113375538Y-121299052D01*
X113384515Y-121299936D01*
X113397005Y-121295878D01*
X113400000Y-121291757D01*
X113400000Y-120215680D01*
X113395878Y-120202995D01*
X113391757Y-120200000D01*
X113215680Y-120200000D01*
X113202995Y-120204122D01*
X113200000Y-120208243D01*
X113200000Y-121114840D01*
X100250500Y-121114840D01*
X100250500Y-119484320D01*
X113200000Y-119484320D01*
X113204122Y-119497005D01*
X113208243Y-119500000D01*
X113384320Y-119500000D01*
X113397005Y-119495878D01*
X113400000Y-119491757D01*
X113400000Y-118415680D01*
X113395878Y-118402995D01*
X113391757Y-118400000D01*
X113385160Y-118400000D01*
X113375538Y-118400948D01*
X113331526Y-118409702D01*
X113313858Y-118417021D01*
X113263918Y-118450389D01*
X113250389Y-118463918D01*
X113217021Y-118513858D01*
X113209702Y-118531526D01*
X113200948Y-118575538D01*
X113200000Y-118585160D01*
X113200000Y-119484320D01*
X100250500Y-119484320D01*
X100250500Y-115214840D01*
X108600000Y-115214840D01*
X108600948Y-115224462D01*
X108609702Y-115268474D01*
X108617021Y-115286142D01*
X108650389Y-115336082D01*
X108663918Y-115349611D01*
X108713858Y-115382979D01*
X108731526Y-115390298D01*
X108775538Y-115399052D01*
X108785160Y-115400000D01*
X110484320Y-115400000D01*
X110497005Y-115395878D01*
X110500000Y-115391757D01*
X110500000Y-115384320D01*
X111500000Y-115384320D01*
X111504122Y-115397005D01*
X111508243Y-115400000D01*
X112284687Y-115400000D01*
X112342878Y-115418907D01*
X112378842Y-115468407D01*
X112383668Y-115500943D01*
X112382099Y-115580852D01*
X112392855Y-115641084D01*
X112419045Y-115716609D01*
X112438602Y-115753198D01*
X112451494Y-115774708D01*
X112462276Y-115790844D01*
X112477211Y-115810981D01*
X112477963Y-115811897D01*
X112477976Y-115811914D01*
X112591901Y-115950731D01*
X112592300Y-115951217D01*
X112600481Y-115960701D01*
X112607005Y-115967900D01*
X112607438Y-115968355D01*
X112607440Y-115968357D01*
X112615267Y-115976580D01*
X112615303Y-115976616D01*
X112615662Y-115976994D01*
X114215504Y-117576836D01*
X114243281Y-117631353D01*
X114244500Y-117646840D01*
X114244500Y-118304193D01*
X114225593Y-118362384D01*
X114176093Y-118398348D01*
X114129342Y-118401103D01*
X114129310Y-118401425D01*
X114127274Y-118401224D01*
X114126179Y-118401289D01*
X114124464Y-118400948D01*
X114115485Y-118400064D01*
X114102995Y-118404122D01*
X114100000Y-118408243D01*
X114100000Y-121284320D01*
X114104122Y-121297005D01*
X114108243Y-121300000D01*
X114114840Y-121300000D01*
X114124462Y-121299052D01*
X114168474Y-121290298D01*
X114186142Y-121282979D01*
X114236082Y-121249611D01*
X114249611Y-121236082D01*
X114282979Y-121186142D01*
X114290298Y-121168474D01*
X114299052Y-121124462D01*
X114300000Y-121114840D01*
X114300000Y-120431892D01*
X114318907Y-120373701D01*
X114368407Y-120337737D01*
X114429593Y-120337737D01*
X114467416Y-120360336D01*
X114483148Y-120375378D01*
X114488602Y-120378432D01*
X114488603Y-120378433D01*
X114541578Y-120408099D01*
X114570129Y-120424088D01*
X114581092Y-120427650D01*
X114630592Y-120463614D01*
X114649500Y-120521805D01*
X114649500Y-121124674D01*
X114664034Y-121197740D01*
X114719399Y-121280601D01*
X114802260Y-121335966D01*
X114875326Y-121350500D01*
X115624674Y-121350500D01*
X115697740Y-121335966D01*
X115780601Y-121280601D01*
X115835966Y-121197740D01*
X115850500Y-121124674D01*
X115850500Y-121114840D01*
X124200000Y-121114840D01*
X124200948Y-121124462D01*
X124209702Y-121168474D01*
X124217021Y-121186142D01*
X124250389Y-121236082D01*
X124263918Y-121249611D01*
X124313858Y-121282979D01*
X124331526Y-121290298D01*
X124375538Y-121299052D01*
X124384515Y-121299936D01*
X124397005Y-121295878D01*
X124400000Y-121291757D01*
X124400000Y-120215680D01*
X124395878Y-120202995D01*
X124391757Y-120200000D01*
X124215680Y-120200000D01*
X124202995Y-120204122D01*
X124200000Y-120208243D01*
X124200000Y-121114840D01*
X115850500Y-121114840D01*
X115850500Y-120787925D01*
X115869407Y-120729734D01*
X115918907Y-120693770D01*
X115935923Y-120689861D01*
X116001900Y-120680736D01*
X116033305Y-120671210D01*
X116034440Y-120670804D01*
X116055806Y-120663159D01*
X116055812Y-120663157D01*
X116056929Y-120662757D01*
X116072552Y-120656285D01*
X116073745Y-120655791D01*
X116073756Y-120655786D01*
X116074857Y-120655330D01*
X116085897Y-120650108D01*
X116096382Y-120645149D01*
X116096398Y-120645141D01*
X116097512Y-120644614D01*
X116253198Y-120561398D01*
X116274701Y-120548510D01*
X116290838Y-120537728D01*
X116291821Y-120536999D01*
X116310008Y-120523511D01*
X116310018Y-120523503D01*
X116310981Y-120522789D01*
X116311910Y-120522027D01*
X116311921Y-120522018D01*
X116450731Y-120408099D01*
X116450738Y-120408093D01*
X116451217Y-120407700D01*
X116460701Y-120399519D01*
X116467900Y-120392995D01*
X116468357Y-120392560D01*
X116476580Y-120384733D01*
X116476616Y-120384697D01*
X116476994Y-120384338D01*
X117377012Y-119484320D01*
X124200000Y-119484320D01*
X124204122Y-119497005D01*
X124208243Y-119500000D01*
X124384320Y-119500000D01*
X124397005Y-119495878D01*
X124400000Y-119491757D01*
X124400000Y-118415680D01*
X124395878Y-118402995D01*
X124391757Y-118400000D01*
X124385160Y-118400000D01*
X124375538Y-118400948D01*
X124331526Y-118409702D01*
X124313858Y-118417021D01*
X124263918Y-118450389D01*
X124250389Y-118463918D01*
X124217021Y-118513858D01*
X124209702Y-118531526D01*
X124200948Y-118575538D01*
X124200000Y-118585160D01*
X124200000Y-119484320D01*
X117377012Y-119484320D01*
X119576836Y-117284496D01*
X119631353Y-117256719D01*
X119646840Y-117255500D01*
X124353160Y-117255500D01*
X124411351Y-117274407D01*
X124423164Y-117284496D01*
X125215504Y-118076836D01*
X125243281Y-118131353D01*
X125244500Y-118146840D01*
X125244500Y-118304193D01*
X125225593Y-118362384D01*
X125176093Y-118398348D01*
X125129342Y-118401103D01*
X125129310Y-118401425D01*
X125127274Y-118401224D01*
X125126179Y-118401289D01*
X125124464Y-118400948D01*
X125115485Y-118400064D01*
X125102995Y-118404122D01*
X125100000Y-118408243D01*
X125100000Y-121284320D01*
X125104122Y-121297005D01*
X125108243Y-121300000D01*
X125114840Y-121300000D01*
X125124462Y-121299052D01*
X125168474Y-121290298D01*
X125186142Y-121282979D01*
X125236082Y-121249611D01*
X125249611Y-121236082D01*
X125282979Y-121186142D01*
X125290298Y-121168474D01*
X125299052Y-121124462D01*
X125300000Y-121114840D01*
X125300000Y-120431892D01*
X125318907Y-120373701D01*
X125368407Y-120337737D01*
X125429593Y-120337737D01*
X125467416Y-120360336D01*
X125483148Y-120375378D01*
X125488602Y-120378432D01*
X125488603Y-120378433D01*
X125541578Y-120408099D01*
X125570129Y-120424088D01*
X125581092Y-120427650D01*
X125630592Y-120463614D01*
X125649500Y-120521805D01*
X125649500Y-121124674D01*
X125664034Y-121197740D01*
X125719399Y-121280601D01*
X125802260Y-121335966D01*
X125875326Y-121350500D01*
X126624674Y-121350500D01*
X126697740Y-121335966D01*
X126780601Y-121280601D01*
X126835966Y-121197740D01*
X126850500Y-121124674D01*
X126850500Y-121114840D01*
X135200000Y-121114840D01*
X135200948Y-121124462D01*
X135209702Y-121168474D01*
X135217021Y-121186142D01*
X135250389Y-121236082D01*
X135263918Y-121249611D01*
X135313858Y-121282979D01*
X135331526Y-121290298D01*
X135375538Y-121299052D01*
X135384515Y-121299936D01*
X135397005Y-121295878D01*
X135400000Y-121291757D01*
X135400000Y-120215680D01*
X135395878Y-120202995D01*
X135391757Y-120200000D01*
X135215680Y-120200000D01*
X135202995Y-120204122D01*
X135200000Y-120208243D01*
X135200000Y-121114840D01*
X126850500Y-121114840D01*
X126850500Y-120787925D01*
X126869407Y-120729734D01*
X126918907Y-120693770D01*
X126935923Y-120689861D01*
X127001900Y-120680736D01*
X127033305Y-120671210D01*
X127034440Y-120670804D01*
X127055806Y-120663159D01*
X127055812Y-120663157D01*
X127056929Y-120662757D01*
X127072552Y-120656285D01*
X127073745Y-120655791D01*
X127073756Y-120655786D01*
X127074857Y-120655330D01*
X127085897Y-120650108D01*
X127096382Y-120645149D01*
X127096398Y-120645141D01*
X127097512Y-120644614D01*
X127253198Y-120561398D01*
X127274701Y-120548510D01*
X127290838Y-120537728D01*
X127291821Y-120536999D01*
X127310008Y-120523511D01*
X127310018Y-120523503D01*
X127310981Y-120522789D01*
X127311910Y-120522027D01*
X127311921Y-120522018D01*
X127450731Y-120408099D01*
X127450738Y-120408093D01*
X127451217Y-120407700D01*
X127460701Y-120399519D01*
X127467900Y-120392995D01*
X127468357Y-120392560D01*
X127476580Y-120384733D01*
X127476616Y-120384697D01*
X127476994Y-120384338D01*
X128377012Y-119484320D01*
X135200000Y-119484320D01*
X135204122Y-119497005D01*
X135208243Y-119500000D01*
X135384320Y-119500000D01*
X135397005Y-119495878D01*
X135400000Y-119491757D01*
X135400000Y-118415680D01*
X135395878Y-118402995D01*
X135391757Y-118400000D01*
X135385160Y-118400000D01*
X135375538Y-118400948D01*
X135331526Y-118409702D01*
X135313858Y-118417021D01*
X135263918Y-118450389D01*
X135250389Y-118463918D01*
X135217021Y-118513858D01*
X135209702Y-118531526D01*
X135200948Y-118575538D01*
X135200000Y-118585160D01*
X135200000Y-119484320D01*
X128377012Y-119484320D01*
X130576836Y-117284496D01*
X130631353Y-117256719D01*
X130646840Y-117255500D01*
X135353160Y-117255500D01*
X135411351Y-117274407D01*
X135423164Y-117284496D01*
X136215504Y-118076836D01*
X136243281Y-118131353D01*
X136244500Y-118146840D01*
X136244500Y-118304193D01*
X136225593Y-118362384D01*
X136176093Y-118398348D01*
X136129342Y-118401103D01*
X136129310Y-118401425D01*
X136127274Y-118401224D01*
X136126179Y-118401289D01*
X136124464Y-118400948D01*
X136115485Y-118400064D01*
X136102995Y-118404122D01*
X136100000Y-118408243D01*
X136100000Y-121284320D01*
X136104122Y-121297005D01*
X136108243Y-121300000D01*
X136114840Y-121300000D01*
X136124462Y-121299052D01*
X136168474Y-121290298D01*
X136186142Y-121282979D01*
X136236082Y-121249611D01*
X136249611Y-121236082D01*
X136282979Y-121186142D01*
X136290298Y-121168474D01*
X136299052Y-121124462D01*
X136300000Y-121114840D01*
X136300000Y-120431892D01*
X136318907Y-120373701D01*
X136368407Y-120337737D01*
X136429593Y-120337737D01*
X136467416Y-120360336D01*
X136483148Y-120375378D01*
X136488602Y-120378432D01*
X136488603Y-120378433D01*
X136541578Y-120408099D01*
X136570129Y-120424088D01*
X136581092Y-120427650D01*
X136630592Y-120463614D01*
X136649500Y-120521805D01*
X136649500Y-121124674D01*
X136664034Y-121197740D01*
X136719399Y-121280601D01*
X136802260Y-121335966D01*
X136875326Y-121350500D01*
X137624674Y-121350500D01*
X137697740Y-121335966D01*
X137780601Y-121280601D01*
X137835966Y-121197740D01*
X137850500Y-121124674D01*
X137850500Y-121114840D01*
X146200000Y-121114840D01*
X146200948Y-121124462D01*
X146209702Y-121168474D01*
X146217021Y-121186142D01*
X146250389Y-121236082D01*
X146263918Y-121249611D01*
X146313858Y-121282979D01*
X146331526Y-121290298D01*
X146375538Y-121299052D01*
X146384515Y-121299936D01*
X146397005Y-121295878D01*
X146400000Y-121291757D01*
X146400000Y-120215680D01*
X146395878Y-120202995D01*
X146391757Y-120200000D01*
X146215680Y-120200000D01*
X146202995Y-120204122D01*
X146200000Y-120208243D01*
X146200000Y-121114840D01*
X137850500Y-121114840D01*
X137850500Y-120787925D01*
X137869407Y-120729734D01*
X137918907Y-120693770D01*
X137935923Y-120689861D01*
X138001900Y-120680736D01*
X138033305Y-120671210D01*
X138034440Y-120670804D01*
X138055806Y-120663159D01*
X138055812Y-120663157D01*
X138056929Y-120662757D01*
X138072552Y-120656285D01*
X138073745Y-120655791D01*
X138073756Y-120655786D01*
X138074857Y-120655330D01*
X138085897Y-120650108D01*
X138096382Y-120645149D01*
X138096398Y-120645141D01*
X138097512Y-120644614D01*
X138253198Y-120561398D01*
X138274701Y-120548510D01*
X138290838Y-120537728D01*
X138291821Y-120536999D01*
X138310008Y-120523511D01*
X138310018Y-120523503D01*
X138310981Y-120522789D01*
X138311910Y-120522027D01*
X138311921Y-120522018D01*
X138450731Y-120408099D01*
X138450738Y-120408093D01*
X138451217Y-120407700D01*
X138460701Y-120399519D01*
X138467900Y-120392995D01*
X138468357Y-120392560D01*
X138476580Y-120384733D01*
X138476616Y-120384697D01*
X138476994Y-120384338D01*
X139377012Y-119484320D01*
X146200000Y-119484320D01*
X146204122Y-119497005D01*
X146208243Y-119500000D01*
X146384320Y-119500000D01*
X146397005Y-119495878D01*
X146400000Y-119491757D01*
X146400000Y-118415680D01*
X146395878Y-118402995D01*
X146391757Y-118400000D01*
X146385160Y-118400000D01*
X146375538Y-118400948D01*
X146331526Y-118409702D01*
X146313858Y-118417021D01*
X146263918Y-118450389D01*
X146250389Y-118463918D01*
X146217021Y-118513858D01*
X146209702Y-118531526D01*
X146200948Y-118575538D01*
X146200000Y-118585160D01*
X146200000Y-119484320D01*
X139377012Y-119484320D01*
X141576836Y-117284496D01*
X141631353Y-117256719D01*
X141646840Y-117255500D01*
X146353160Y-117255500D01*
X146411351Y-117274407D01*
X146423164Y-117284496D01*
X147215504Y-118076836D01*
X147243281Y-118131353D01*
X147244500Y-118146840D01*
X147244500Y-118304193D01*
X147225593Y-118362384D01*
X147176093Y-118398348D01*
X147129342Y-118401103D01*
X147129310Y-118401425D01*
X147127274Y-118401224D01*
X147126179Y-118401289D01*
X147124464Y-118400948D01*
X147115485Y-118400064D01*
X147102995Y-118404122D01*
X147100000Y-118408243D01*
X147100000Y-121284320D01*
X147104122Y-121297005D01*
X147108243Y-121300000D01*
X147114840Y-121300000D01*
X147124462Y-121299052D01*
X147168474Y-121290298D01*
X147186142Y-121282979D01*
X147236082Y-121249611D01*
X147249611Y-121236082D01*
X147282979Y-121186142D01*
X147290298Y-121168474D01*
X147299052Y-121124462D01*
X147300000Y-121114840D01*
X147300000Y-120431892D01*
X147318907Y-120373701D01*
X147368407Y-120337737D01*
X147429593Y-120337737D01*
X147467416Y-120360336D01*
X147483148Y-120375378D01*
X147488602Y-120378432D01*
X147488603Y-120378433D01*
X147541578Y-120408099D01*
X147570129Y-120424088D01*
X147581092Y-120427650D01*
X147630592Y-120463614D01*
X147649500Y-120521805D01*
X147649500Y-121124674D01*
X147664034Y-121197740D01*
X147719399Y-121280601D01*
X147802260Y-121335966D01*
X147875326Y-121350500D01*
X148624674Y-121350500D01*
X148697740Y-121335966D01*
X148780601Y-121280601D01*
X148835966Y-121197740D01*
X148850500Y-121124674D01*
X148850500Y-121114840D01*
X157200000Y-121114840D01*
X157200948Y-121124462D01*
X157209702Y-121168474D01*
X157217021Y-121186142D01*
X157250389Y-121236082D01*
X157263918Y-121249611D01*
X157313858Y-121282979D01*
X157331526Y-121290298D01*
X157375538Y-121299052D01*
X157384515Y-121299936D01*
X157397005Y-121295878D01*
X157400000Y-121291757D01*
X157400000Y-120215680D01*
X157395878Y-120202995D01*
X157391757Y-120200000D01*
X157215680Y-120200000D01*
X157202995Y-120204122D01*
X157200000Y-120208243D01*
X157200000Y-121114840D01*
X148850500Y-121114840D01*
X148850500Y-120787925D01*
X148869407Y-120729734D01*
X148918907Y-120693770D01*
X148935923Y-120689861D01*
X149001900Y-120680736D01*
X149033305Y-120671210D01*
X149034440Y-120670804D01*
X149055806Y-120663159D01*
X149055812Y-120663157D01*
X149056929Y-120662757D01*
X149072552Y-120656285D01*
X149073745Y-120655791D01*
X149073756Y-120655786D01*
X149074857Y-120655330D01*
X149085897Y-120650108D01*
X149096382Y-120645149D01*
X149096398Y-120645141D01*
X149097512Y-120644614D01*
X149253198Y-120561398D01*
X149274701Y-120548510D01*
X149290838Y-120537728D01*
X149291821Y-120536999D01*
X149310008Y-120523511D01*
X149310018Y-120523503D01*
X149310981Y-120522789D01*
X149311910Y-120522027D01*
X149311921Y-120522018D01*
X149450731Y-120408099D01*
X149450738Y-120408093D01*
X149451217Y-120407700D01*
X149460701Y-120399519D01*
X149467900Y-120392995D01*
X149468357Y-120392560D01*
X149476580Y-120384733D01*
X149476616Y-120384697D01*
X149476994Y-120384338D01*
X150377012Y-119484320D01*
X157200000Y-119484320D01*
X157204122Y-119497005D01*
X157208243Y-119500000D01*
X157384320Y-119500000D01*
X157397005Y-119495878D01*
X157400000Y-119491757D01*
X157400000Y-118415680D01*
X157395878Y-118402995D01*
X157391757Y-118400000D01*
X157385160Y-118400000D01*
X157375538Y-118400948D01*
X157331526Y-118409702D01*
X157313858Y-118417021D01*
X157263918Y-118450389D01*
X157250389Y-118463918D01*
X157217021Y-118513858D01*
X157209702Y-118531526D01*
X157200948Y-118575538D01*
X157200000Y-118585160D01*
X157200000Y-119484320D01*
X150377012Y-119484320D01*
X152576836Y-117284496D01*
X152631353Y-117256719D01*
X152646840Y-117255500D01*
X157353160Y-117255500D01*
X157411351Y-117274407D01*
X157423164Y-117284496D01*
X158215504Y-118076836D01*
X158243281Y-118131353D01*
X158244500Y-118146840D01*
X158244500Y-118304193D01*
X158225593Y-118362384D01*
X158176093Y-118398348D01*
X158129342Y-118401103D01*
X158129310Y-118401425D01*
X158127274Y-118401224D01*
X158126179Y-118401289D01*
X158124464Y-118400948D01*
X158115485Y-118400064D01*
X158102995Y-118404122D01*
X158100000Y-118408243D01*
X158100000Y-121284320D01*
X158104122Y-121297005D01*
X158108243Y-121300000D01*
X158114840Y-121300000D01*
X158124462Y-121299052D01*
X158168474Y-121290298D01*
X158186142Y-121282979D01*
X158236082Y-121249611D01*
X158249611Y-121236082D01*
X158282979Y-121186142D01*
X158290298Y-121168474D01*
X158299052Y-121124462D01*
X158300000Y-121114840D01*
X158300000Y-120431892D01*
X158318907Y-120373701D01*
X158368407Y-120337737D01*
X158429593Y-120337737D01*
X158467416Y-120360336D01*
X158483148Y-120375378D01*
X158488602Y-120378432D01*
X158488603Y-120378433D01*
X158541578Y-120408099D01*
X158570129Y-120424088D01*
X158581092Y-120427650D01*
X158630592Y-120463614D01*
X158649500Y-120521805D01*
X158649500Y-121124674D01*
X158664034Y-121197740D01*
X158719399Y-121280601D01*
X158802260Y-121335966D01*
X158875326Y-121350500D01*
X159624674Y-121350500D01*
X159697740Y-121335966D01*
X159780601Y-121280601D01*
X159835966Y-121197740D01*
X159850500Y-121124674D01*
X159850500Y-120800473D01*
X159869407Y-120742282D01*
X159918907Y-120706318D01*
X159935932Y-120702408D01*
X160001904Y-120693282D01*
X160037929Y-120682354D01*
X160061551Y-120673902D01*
X160079476Y-120666476D01*
X160086489Y-120663159D01*
X160101022Y-120656285D01*
X160101034Y-120656279D01*
X160102129Y-120655761D01*
X160232496Y-120586078D01*
X160253996Y-120573192D01*
X160270132Y-120562411D01*
X160276350Y-120557799D01*
X160289300Y-120548196D01*
X160289311Y-120548187D01*
X160290277Y-120547471D01*
X160404553Y-120453688D01*
X160423132Y-120436849D01*
X160436849Y-120423132D01*
X160453688Y-120404553D01*
X160547471Y-120290277D01*
X160562411Y-120270132D01*
X160573192Y-120253996D01*
X160586078Y-120232496D01*
X160592336Y-120220789D01*
X160655175Y-120103226D01*
X160655181Y-120103214D01*
X160655761Y-120102129D01*
X160666479Y-120079469D01*
X160673906Y-120061540D01*
X160682355Y-120037926D01*
X160725268Y-119896461D01*
X160731361Y-119872135D01*
X160735146Y-119853105D01*
X160738825Y-119828306D01*
X160753793Y-119676333D01*
X160754715Y-119663834D01*
X160755192Y-119654130D01*
X160755500Y-119641586D01*
X160755500Y-115549500D01*
X160752355Y-115509535D01*
X160752636Y-115509513D01*
X160764338Y-115450638D01*
X160809262Y-115409100D01*
X160850722Y-115400000D01*
X161484320Y-115400000D01*
X161497005Y-115395878D01*
X161500000Y-115391757D01*
X161500000Y-115384320D01*
X162500000Y-115384320D01*
X162504122Y-115397005D01*
X162508243Y-115400000D01*
X164214840Y-115400000D01*
X164224462Y-115399052D01*
X164268474Y-115390298D01*
X164286142Y-115382979D01*
X164336082Y-115349611D01*
X164349611Y-115336082D01*
X164382979Y-115286142D01*
X164390298Y-115268474D01*
X164399052Y-115224462D01*
X164400000Y-115214840D01*
X164400000Y-113515680D01*
X164395878Y-113502995D01*
X164391757Y-113500000D01*
X162515680Y-113500000D01*
X162502995Y-113504122D01*
X162500000Y-113508243D01*
X162500000Y-115384320D01*
X161500000Y-115384320D01*
X161500000Y-113042095D01*
X167145028Y-113042095D01*
X167145368Y-113045657D01*
X167145368Y-113045664D01*
X167170193Y-113305861D01*
X167170534Y-113309431D01*
X167234364Y-113570285D01*
X167335182Y-113819192D01*
X167470875Y-114050938D01*
X167638601Y-114260669D01*
X167834846Y-114443991D01*
X168055499Y-114597064D01*
X168177066Y-114657542D01*
X168292723Y-114715081D01*
X168292728Y-114715083D01*
X168295938Y-114716680D01*
X168299349Y-114717798D01*
X168299351Y-114717799D01*
X168547721Y-114799219D01*
X168547724Y-114799220D01*
X168551126Y-114800335D01*
X168815717Y-114846276D01*
X168864761Y-114848717D01*
X168899335Y-114850439D01*
X168899348Y-114850439D01*
X168900567Y-114850500D01*
X169068223Y-114850500D01*
X169267846Y-114836016D01*
X169530080Y-114778120D01*
X169533429Y-114776851D01*
X169533433Y-114776850D01*
X169635087Y-114738337D01*
X169781211Y-114682975D01*
X169935879Y-114597064D01*
X170012837Y-114554318D01*
X170012841Y-114554315D01*
X170015976Y-114552574D01*
X170155575Y-114446036D01*
X170226607Y-114391826D01*
X170226609Y-114391825D01*
X170229458Y-114389650D01*
X170417185Y-114197614D01*
X170575225Y-113980491D01*
X170700265Y-113742828D01*
X170784959Y-113502995D01*
X170788491Y-113492993D01*
X170788491Y-113492991D01*
X170789688Y-113489603D01*
X170825904Y-113305861D01*
X170840925Y-113229648D01*
X170841620Y-113226122D01*
X170854972Y-112957905D01*
X170854632Y-112954343D01*
X170854632Y-112954336D01*
X170829807Y-112694139D01*
X170829806Y-112694134D01*
X170829466Y-112690569D01*
X170765636Y-112429715D01*
X170664818Y-112180808D01*
X170529125Y-111949062D01*
X170361399Y-111739331D01*
X170165154Y-111556009D01*
X169944501Y-111402936D01*
X169771812Y-111317025D01*
X169707277Y-111284919D01*
X169707272Y-111284917D01*
X169704062Y-111283320D01*
X169520515Y-111223150D01*
X169452279Y-111200781D01*
X169452276Y-111200780D01*
X169448874Y-111199665D01*
X169184283Y-111153724D01*
X169135239Y-111151283D01*
X169100665Y-111149561D01*
X169100652Y-111149561D01*
X169099433Y-111149500D01*
X168931777Y-111149500D01*
X168732154Y-111163984D01*
X168469920Y-111221880D01*
X168466571Y-111223149D01*
X168466567Y-111223150D01*
X168364913Y-111261663D01*
X168218789Y-111317025D01*
X168088411Y-111389444D01*
X167987163Y-111445682D01*
X167987159Y-111445685D01*
X167984024Y-111447426D01*
X167981174Y-111449601D01*
X167981171Y-111449603D01*
X167773393Y-111608174D01*
X167770542Y-111610350D01*
X167582815Y-111802386D01*
X167424775Y-112019509D01*
X167299735Y-112257172D01*
X167298539Y-112260559D01*
X167213984Y-112500000D01*
X167210312Y-112510397D01*
X167209618Y-112513919D01*
X167209617Y-112513922D01*
X167167701Y-112726587D01*
X167158380Y-112773878D01*
X167145028Y-113042095D01*
X161500000Y-113042095D01*
X161500000Y-112484320D01*
X162500000Y-112484320D01*
X162504122Y-112497005D01*
X162508243Y-112500000D01*
X164384320Y-112500000D01*
X164397005Y-112495878D01*
X164400000Y-112491757D01*
X164400000Y-110785160D01*
X164399052Y-110775538D01*
X164390298Y-110731526D01*
X164382979Y-110713858D01*
X164349611Y-110663918D01*
X164336082Y-110650389D01*
X164286142Y-110617021D01*
X164268474Y-110609702D01*
X164224462Y-110600948D01*
X164214840Y-110600000D01*
X162515680Y-110600000D01*
X162502995Y-110604122D01*
X162500000Y-110608243D01*
X162500000Y-112484320D01*
X161500000Y-112484320D01*
X161500000Y-110615680D01*
X161495878Y-110602995D01*
X161491757Y-110600000D01*
X160256741Y-110600000D01*
X160198550Y-110581093D01*
X160162586Y-110531593D01*
X160158959Y-110485517D01*
X160160172Y-110477859D01*
X160160628Y-110474980D01*
X160162986Y-110414970D01*
X160135927Y-110319021D01*
X160108150Y-110264504D01*
X160061162Y-110199830D01*
X158784496Y-108923164D01*
X158756719Y-108868647D01*
X158755500Y-108853160D01*
X158755500Y-107695807D01*
X158774407Y-107637616D01*
X158823907Y-107601652D01*
X158870658Y-107598897D01*
X158870690Y-107598575D01*
X158872726Y-107598776D01*
X158873821Y-107598711D01*
X158875536Y-107599052D01*
X158884515Y-107599936D01*
X158897005Y-107595878D01*
X158900000Y-107591757D01*
X158900000Y-107584320D01*
X159600000Y-107584320D01*
X159604122Y-107597005D01*
X159608243Y-107600000D01*
X159614840Y-107600000D01*
X159624462Y-107599052D01*
X159668474Y-107590298D01*
X159686142Y-107582979D01*
X159736082Y-107549611D01*
X159749611Y-107536082D01*
X159782979Y-107486142D01*
X159790298Y-107468474D01*
X159799052Y-107424462D01*
X159800000Y-107414840D01*
X159800000Y-106515680D01*
X159795878Y-106502995D01*
X159791757Y-106500000D01*
X159615680Y-106500000D01*
X159602995Y-106504122D01*
X159600000Y-106508243D01*
X159600000Y-107584320D01*
X158900000Y-107584320D01*
X158900000Y-105784320D01*
X159600000Y-105784320D01*
X159604122Y-105797005D01*
X159608243Y-105800000D01*
X159784320Y-105800000D01*
X159797005Y-105795878D01*
X159800000Y-105791757D01*
X159800000Y-104885160D01*
X159799052Y-104875538D01*
X159790298Y-104831526D01*
X159782979Y-104813858D01*
X159749611Y-104763918D01*
X159736082Y-104750389D01*
X159686142Y-104717021D01*
X159668474Y-104709702D01*
X159624462Y-104700948D01*
X159615485Y-104700064D01*
X159602995Y-104704122D01*
X159600000Y-104708243D01*
X159600000Y-105784320D01*
X158900000Y-105784320D01*
X158900000Y-104715680D01*
X158895878Y-104702995D01*
X158891757Y-104700000D01*
X158885160Y-104700000D01*
X158875538Y-104700948D01*
X158831526Y-104709702D01*
X158813858Y-104717021D01*
X158763918Y-104750389D01*
X158750389Y-104763918D01*
X158717021Y-104813858D01*
X158709702Y-104831526D01*
X158700948Y-104875538D01*
X158700000Y-104885160D01*
X158700000Y-105568108D01*
X158681093Y-105626299D01*
X158631593Y-105662263D01*
X158570407Y-105662263D01*
X158532583Y-105639663D01*
X158521371Y-105628943D01*
X158516852Y-105624622D01*
X158501554Y-105616055D01*
X158434116Y-105578289D01*
X158434114Y-105578288D01*
X158429871Y-105575912D01*
X158418908Y-105572350D01*
X158369408Y-105536386D01*
X158350500Y-105478195D01*
X158350500Y-104875326D01*
X158335966Y-104802260D01*
X158280601Y-104719399D01*
X158197740Y-104664034D01*
X158124674Y-104649500D01*
X157375326Y-104649500D01*
X157302260Y-104664034D01*
X157219399Y-104719399D01*
X157164034Y-104802260D01*
X157149500Y-104875326D01*
X157149500Y-105212075D01*
X157130593Y-105270266D01*
X157081093Y-105306230D01*
X157064067Y-105310140D01*
X157036936Y-105313893D01*
X157001955Y-105318731D01*
X157001950Y-105318732D01*
X156998097Y-105319265D01*
X156966693Y-105328791D01*
X156943077Y-105337241D01*
X156941984Y-105337694D01*
X156941973Y-105337698D01*
X156931616Y-105341989D01*
X156925148Y-105344668D01*
X156902488Y-105355386D01*
X156901403Y-105355966D01*
X156901391Y-105355972D01*
X156794071Y-105413336D01*
X156746802Y-105438602D01*
X156725299Y-105451490D01*
X156709162Y-105462272D01*
X156708180Y-105463000D01*
X156708179Y-105463001D01*
X156689992Y-105476489D01*
X156689982Y-105476497D01*
X156689019Y-105477211D01*
X156688090Y-105477973D01*
X156688079Y-105477982D01*
X156565855Y-105578289D01*
X156548783Y-105592300D01*
X156539299Y-105600481D01*
X156532100Y-105607005D01*
X156531645Y-105607438D01*
X156531643Y-105607440D01*
X156523420Y-105615267D01*
X156523384Y-105615303D01*
X156523006Y-105615662D01*
X153423164Y-108715504D01*
X153368647Y-108743281D01*
X153353160Y-108744500D01*
X148646840Y-108744500D01*
X148588649Y-108725593D01*
X148576836Y-108715504D01*
X147784496Y-107923164D01*
X147756719Y-107868647D01*
X147755500Y-107853160D01*
X147755500Y-107695807D01*
X147774407Y-107637616D01*
X147823907Y-107601652D01*
X147870658Y-107598897D01*
X147870690Y-107598575D01*
X147872726Y-107598776D01*
X147873821Y-107598711D01*
X147875536Y-107599052D01*
X147884515Y-107599936D01*
X147897005Y-107595878D01*
X147900000Y-107591757D01*
X147900000Y-107584320D01*
X148600000Y-107584320D01*
X148604122Y-107597005D01*
X148608243Y-107600000D01*
X148614840Y-107600000D01*
X148624462Y-107599052D01*
X148668474Y-107590298D01*
X148686142Y-107582979D01*
X148736082Y-107549611D01*
X148749611Y-107536082D01*
X148782979Y-107486142D01*
X148790298Y-107468474D01*
X148799052Y-107424462D01*
X148800000Y-107414840D01*
X148800000Y-106515680D01*
X148795878Y-106502995D01*
X148791757Y-106500000D01*
X148615680Y-106500000D01*
X148602995Y-106504122D01*
X148600000Y-106508243D01*
X148600000Y-107584320D01*
X147900000Y-107584320D01*
X147900000Y-105784320D01*
X148600000Y-105784320D01*
X148604122Y-105797005D01*
X148608243Y-105800000D01*
X148784320Y-105800000D01*
X148797005Y-105795878D01*
X148800000Y-105791757D01*
X148800000Y-104885160D01*
X148799052Y-104875538D01*
X148790298Y-104831526D01*
X148782979Y-104813858D01*
X148749611Y-104763918D01*
X148736082Y-104750389D01*
X148686142Y-104717021D01*
X148668474Y-104709702D01*
X148624462Y-104700948D01*
X148615485Y-104700064D01*
X148602995Y-104704122D01*
X148600000Y-104708243D01*
X148600000Y-105784320D01*
X147900000Y-105784320D01*
X147900000Y-104715680D01*
X147895878Y-104702995D01*
X147891757Y-104700000D01*
X147885160Y-104700000D01*
X147875538Y-104700948D01*
X147831526Y-104709702D01*
X147813858Y-104717021D01*
X147763918Y-104750389D01*
X147750389Y-104763918D01*
X147717021Y-104813858D01*
X147709702Y-104831526D01*
X147700948Y-104875538D01*
X147700000Y-104885160D01*
X147700000Y-105568108D01*
X147681093Y-105626299D01*
X147631593Y-105662263D01*
X147570407Y-105662263D01*
X147532583Y-105639663D01*
X147521371Y-105628943D01*
X147516852Y-105624622D01*
X147501554Y-105616055D01*
X147434116Y-105578289D01*
X147434114Y-105578288D01*
X147429871Y-105575912D01*
X147418908Y-105572350D01*
X147369408Y-105536386D01*
X147350500Y-105478195D01*
X147350500Y-104875326D01*
X147335966Y-104802260D01*
X147280601Y-104719399D01*
X147197740Y-104664034D01*
X147124674Y-104649500D01*
X146375326Y-104649500D01*
X146302260Y-104664034D01*
X146219399Y-104719399D01*
X146164034Y-104802260D01*
X146149500Y-104875326D01*
X146149500Y-105212075D01*
X146130593Y-105270266D01*
X146081093Y-105306230D01*
X146064067Y-105310140D01*
X146036936Y-105313893D01*
X146001955Y-105318731D01*
X146001950Y-105318732D01*
X145998097Y-105319265D01*
X145966693Y-105328791D01*
X145943077Y-105337241D01*
X145941984Y-105337694D01*
X145941973Y-105337698D01*
X145931616Y-105341989D01*
X145925148Y-105344668D01*
X145902488Y-105355386D01*
X145901403Y-105355966D01*
X145901391Y-105355972D01*
X145794071Y-105413336D01*
X145746802Y-105438602D01*
X145725299Y-105451490D01*
X145709162Y-105462272D01*
X145708180Y-105463000D01*
X145708179Y-105463001D01*
X145689992Y-105476489D01*
X145689982Y-105476497D01*
X145689019Y-105477211D01*
X145688090Y-105477973D01*
X145688079Y-105477982D01*
X145565855Y-105578289D01*
X145548783Y-105592300D01*
X145539299Y-105600481D01*
X145532100Y-105607005D01*
X145531645Y-105607438D01*
X145531643Y-105607440D01*
X145523420Y-105615267D01*
X145523384Y-105615303D01*
X145523006Y-105615662D01*
X142423164Y-108715504D01*
X142368647Y-108743281D01*
X142353160Y-108744500D01*
X137646840Y-108744500D01*
X137588649Y-108725593D01*
X137576836Y-108715504D01*
X136784496Y-107923164D01*
X136756719Y-107868647D01*
X136755500Y-107853160D01*
X136755500Y-107695807D01*
X136774407Y-107637616D01*
X136823907Y-107601652D01*
X136870658Y-107598897D01*
X136870690Y-107598575D01*
X136872726Y-107598776D01*
X136873821Y-107598711D01*
X136875536Y-107599052D01*
X136884515Y-107599936D01*
X136897005Y-107595878D01*
X136900000Y-107591757D01*
X136900000Y-107584320D01*
X137600000Y-107584320D01*
X137604122Y-107597005D01*
X137608243Y-107600000D01*
X137614840Y-107600000D01*
X137624462Y-107599052D01*
X137668474Y-107590298D01*
X137686142Y-107582979D01*
X137736082Y-107549611D01*
X137749611Y-107536082D01*
X137782979Y-107486142D01*
X137790298Y-107468474D01*
X137799052Y-107424462D01*
X137800000Y-107414840D01*
X137800000Y-106515680D01*
X137795878Y-106502995D01*
X137791757Y-106500000D01*
X137615680Y-106500000D01*
X137602995Y-106504122D01*
X137600000Y-106508243D01*
X137600000Y-107584320D01*
X136900000Y-107584320D01*
X136900000Y-105784320D01*
X137600000Y-105784320D01*
X137604122Y-105797005D01*
X137608243Y-105800000D01*
X137784320Y-105800000D01*
X137797005Y-105795878D01*
X137800000Y-105791757D01*
X137800000Y-104885160D01*
X137799052Y-104875538D01*
X137790298Y-104831526D01*
X137782979Y-104813858D01*
X137749611Y-104763918D01*
X137736082Y-104750389D01*
X137686142Y-104717021D01*
X137668474Y-104709702D01*
X137624462Y-104700948D01*
X137615485Y-104700064D01*
X137602995Y-104704122D01*
X137600000Y-104708243D01*
X137600000Y-105784320D01*
X136900000Y-105784320D01*
X136900000Y-104715680D01*
X136895878Y-104702995D01*
X136891757Y-104700000D01*
X136885160Y-104700000D01*
X136875538Y-104700948D01*
X136831526Y-104709702D01*
X136813858Y-104717021D01*
X136763918Y-104750389D01*
X136750389Y-104763918D01*
X136717021Y-104813858D01*
X136709702Y-104831526D01*
X136700948Y-104875538D01*
X136700000Y-104885160D01*
X136700000Y-105568108D01*
X136681093Y-105626299D01*
X136631593Y-105662263D01*
X136570407Y-105662263D01*
X136532583Y-105639663D01*
X136521371Y-105628943D01*
X136516852Y-105624622D01*
X136501554Y-105616055D01*
X136434116Y-105578289D01*
X136434114Y-105578288D01*
X136429871Y-105575912D01*
X136418908Y-105572350D01*
X136369408Y-105536386D01*
X136350500Y-105478195D01*
X136350500Y-104875326D01*
X136335966Y-104802260D01*
X136280601Y-104719399D01*
X136197740Y-104664034D01*
X136124674Y-104649500D01*
X135375326Y-104649500D01*
X135302260Y-104664034D01*
X135219399Y-104719399D01*
X135164034Y-104802260D01*
X135149500Y-104875326D01*
X135149500Y-105212075D01*
X135130593Y-105270266D01*
X135081093Y-105306230D01*
X135064067Y-105310140D01*
X135036936Y-105313893D01*
X135001955Y-105318731D01*
X135001950Y-105318732D01*
X134998097Y-105319265D01*
X134966693Y-105328791D01*
X134943077Y-105337241D01*
X134941984Y-105337694D01*
X134941973Y-105337698D01*
X134931616Y-105341989D01*
X134925148Y-105344668D01*
X134902488Y-105355386D01*
X134901403Y-105355966D01*
X134901391Y-105355972D01*
X134794071Y-105413336D01*
X134746802Y-105438602D01*
X134725299Y-105451490D01*
X134709162Y-105462272D01*
X134708180Y-105463000D01*
X134708179Y-105463001D01*
X134689992Y-105476489D01*
X134689982Y-105476497D01*
X134689019Y-105477211D01*
X134688090Y-105477973D01*
X134688079Y-105477982D01*
X134565855Y-105578289D01*
X134548783Y-105592300D01*
X134539299Y-105600481D01*
X134532100Y-105607005D01*
X134531645Y-105607438D01*
X134531643Y-105607440D01*
X134523420Y-105615267D01*
X134523384Y-105615303D01*
X134523006Y-105615662D01*
X131423164Y-108715504D01*
X131368647Y-108743281D01*
X131353160Y-108744500D01*
X126646840Y-108744500D01*
X126588649Y-108725593D01*
X126576836Y-108715504D01*
X125784496Y-107923164D01*
X125756719Y-107868647D01*
X125755500Y-107853160D01*
X125755500Y-107695807D01*
X125774407Y-107637616D01*
X125823907Y-107601652D01*
X125870658Y-107598897D01*
X125870690Y-107598575D01*
X125872726Y-107598776D01*
X125873821Y-107598711D01*
X125875536Y-107599052D01*
X125884515Y-107599936D01*
X125897005Y-107595878D01*
X125900000Y-107591757D01*
X125900000Y-107584320D01*
X126600000Y-107584320D01*
X126604122Y-107597005D01*
X126608243Y-107600000D01*
X126614840Y-107600000D01*
X126624462Y-107599052D01*
X126668474Y-107590298D01*
X126686142Y-107582979D01*
X126736082Y-107549611D01*
X126749611Y-107536082D01*
X126782979Y-107486142D01*
X126790298Y-107468474D01*
X126799052Y-107424462D01*
X126800000Y-107414840D01*
X126800000Y-106515680D01*
X126795878Y-106502995D01*
X126791757Y-106500000D01*
X126615680Y-106500000D01*
X126602995Y-106504122D01*
X126600000Y-106508243D01*
X126600000Y-107584320D01*
X125900000Y-107584320D01*
X125900000Y-105784320D01*
X126600000Y-105784320D01*
X126604122Y-105797005D01*
X126608243Y-105800000D01*
X126784320Y-105800000D01*
X126797005Y-105795878D01*
X126800000Y-105791757D01*
X126800000Y-104885160D01*
X126799052Y-104875538D01*
X126790298Y-104831526D01*
X126782979Y-104813858D01*
X126749611Y-104763918D01*
X126736082Y-104750389D01*
X126686142Y-104717021D01*
X126668474Y-104709702D01*
X126624462Y-104700948D01*
X126615485Y-104700064D01*
X126602995Y-104704122D01*
X126600000Y-104708243D01*
X126600000Y-105784320D01*
X125900000Y-105784320D01*
X125900000Y-104715680D01*
X125895878Y-104702995D01*
X125891757Y-104700000D01*
X125885160Y-104700000D01*
X125875538Y-104700948D01*
X125831526Y-104709702D01*
X125813858Y-104717021D01*
X125763918Y-104750389D01*
X125750389Y-104763918D01*
X125717021Y-104813858D01*
X125709702Y-104831526D01*
X125700948Y-104875538D01*
X125700000Y-104885160D01*
X125700000Y-105568108D01*
X125681093Y-105626299D01*
X125631593Y-105662263D01*
X125570407Y-105662263D01*
X125532583Y-105639663D01*
X125521371Y-105628943D01*
X125516852Y-105624622D01*
X125501554Y-105616055D01*
X125434116Y-105578289D01*
X125434114Y-105578288D01*
X125429871Y-105575912D01*
X125418908Y-105572350D01*
X125369408Y-105536386D01*
X125350500Y-105478195D01*
X125350500Y-104875326D01*
X125335966Y-104802260D01*
X125280601Y-104719399D01*
X125197740Y-104664034D01*
X125124674Y-104649500D01*
X124375326Y-104649500D01*
X124302260Y-104664034D01*
X124219399Y-104719399D01*
X124164034Y-104802260D01*
X124149500Y-104875326D01*
X124149500Y-105212075D01*
X124130593Y-105270266D01*
X124081093Y-105306230D01*
X124064067Y-105310140D01*
X124036936Y-105313893D01*
X124001955Y-105318731D01*
X124001950Y-105318732D01*
X123998097Y-105319265D01*
X123966693Y-105328791D01*
X123943077Y-105337241D01*
X123941984Y-105337694D01*
X123941973Y-105337698D01*
X123931616Y-105341989D01*
X123925148Y-105344668D01*
X123902488Y-105355386D01*
X123901403Y-105355966D01*
X123901391Y-105355972D01*
X123794071Y-105413336D01*
X123746802Y-105438602D01*
X123725299Y-105451490D01*
X123709162Y-105462272D01*
X123708180Y-105463000D01*
X123708179Y-105463001D01*
X123689992Y-105476489D01*
X123689982Y-105476497D01*
X123689019Y-105477211D01*
X123688090Y-105477973D01*
X123688079Y-105477982D01*
X123565855Y-105578289D01*
X123548783Y-105592300D01*
X123539299Y-105600481D01*
X123532100Y-105607005D01*
X123531645Y-105607438D01*
X123531643Y-105607440D01*
X123523420Y-105615267D01*
X123523384Y-105615303D01*
X123523006Y-105615662D01*
X120423164Y-108715504D01*
X120368647Y-108743281D01*
X120353160Y-108744500D01*
X115646840Y-108744500D01*
X115588649Y-108725593D01*
X115576836Y-108715504D01*
X114784496Y-107923164D01*
X114756719Y-107868647D01*
X114755500Y-107853160D01*
X114755500Y-107695807D01*
X114774407Y-107637616D01*
X114823907Y-107601652D01*
X114870658Y-107598897D01*
X114870690Y-107598575D01*
X114872726Y-107598776D01*
X114873821Y-107598711D01*
X114875536Y-107599052D01*
X114884515Y-107599936D01*
X114897005Y-107595878D01*
X114900000Y-107591757D01*
X114900000Y-107584320D01*
X115600000Y-107584320D01*
X115604122Y-107597005D01*
X115608243Y-107600000D01*
X115614840Y-107600000D01*
X115624462Y-107599052D01*
X115668474Y-107590298D01*
X115686142Y-107582979D01*
X115736082Y-107549611D01*
X115749611Y-107536082D01*
X115782979Y-107486142D01*
X115790298Y-107468474D01*
X115799052Y-107424462D01*
X115800000Y-107414840D01*
X115800000Y-106515680D01*
X115795878Y-106502995D01*
X115791757Y-106500000D01*
X115615680Y-106500000D01*
X115602995Y-106504122D01*
X115600000Y-106508243D01*
X115600000Y-107584320D01*
X114900000Y-107584320D01*
X114900000Y-105784320D01*
X115600000Y-105784320D01*
X115604122Y-105797005D01*
X115608243Y-105800000D01*
X115784320Y-105800000D01*
X115797005Y-105795878D01*
X115800000Y-105791757D01*
X115800000Y-104885160D01*
X115799052Y-104875538D01*
X115790298Y-104831526D01*
X115782979Y-104813858D01*
X115749611Y-104763918D01*
X115736082Y-104750389D01*
X115686142Y-104717021D01*
X115668474Y-104709702D01*
X115624462Y-104700948D01*
X115615485Y-104700064D01*
X115602995Y-104704122D01*
X115600000Y-104708243D01*
X115600000Y-105784320D01*
X114900000Y-105784320D01*
X114900000Y-104715680D01*
X114895878Y-104702995D01*
X114891757Y-104700000D01*
X114885160Y-104700000D01*
X114875538Y-104700948D01*
X114831526Y-104709702D01*
X114813858Y-104717021D01*
X114763918Y-104750389D01*
X114750389Y-104763918D01*
X114717021Y-104813858D01*
X114709702Y-104831526D01*
X114700948Y-104875538D01*
X114700000Y-104885160D01*
X114700000Y-105568108D01*
X114681093Y-105626299D01*
X114631593Y-105662263D01*
X114570407Y-105662263D01*
X114532583Y-105639663D01*
X114521371Y-105628943D01*
X114516852Y-105624622D01*
X114501554Y-105616055D01*
X114434116Y-105578289D01*
X114434114Y-105578288D01*
X114429871Y-105575912D01*
X114418908Y-105572350D01*
X114369408Y-105536386D01*
X114350500Y-105478195D01*
X114350500Y-104875326D01*
X114335966Y-104802260D01*
X114280601Y-104719399D01*
X114197740Y-104664034D01*
X114124674Y-104649500D01*
X113375326Y-104649500D01*
X113302260Y-104664034D01*
X113219399Y-104719399D01*
X113164034Y-104802260D01*
X113149500Y-104875326D01*
X113149500Y-105199527D01*
X113130593Y-105257718D01*
X113081093Y-105293682D01*
X113064068Y-105297592D01*
X112998096Y-105306718D01*
X112962071Y-105317646D01*
X112938449Y-105326098D01*
X112920524Y-105333524D01*
X112897871Y-105344239D01*
X112767504Y-105413922D01*
X112746004Y-105426808D01*
X112729868Y-105437589D01*
X112728892Y-105438313D01*
X112710700Y-105451804D01*
X112710689Y-105451813D01*
X112709723Y-105452529D01*
X112595447Y-105546312D01*
X112576868Y-105563151D01*
X112563151Y-105576868D01*
X112546312Y-105595447D01*
X112452529Y-105709723D01*
X112437589Y-105729868D01*
X112426808Y-105746004D01*
X112413922Y-105767504D01*
X112413339Y-105768595D01*
X112413336Y-105768600D01*
X112400958Y-105791757D01*
X112344239Y-105897871D01*
X112333523Y-105920526D01*
X112326096Y-105938454D01*
X112317645Y-105962074D01*
X112274732Y-106103540D01*
X112268639Y-106127865D01*
X112264854Y-106146895D01*
X112261175Y-106171694D01*
X112246207Y-106323667D01*
X112245285Y-106336166D01*
X112244808Y-106345870D01*
X112244500Y-106358414D01*
X112244500Y-110450500D01*
X112247567Y-110489468D01*
X112247645Y-110490465D01*
X112247364Y-110490487D01*
X112235662Y-110549362D01*
X112190738Y-110590900D01*
X112149278Y-110600000D01*
X111515680Y-110600000D01*
X111502995Y-110604122D01*
X111500000Y-110608243D01*
X111500000Y-115384320D01*
X110500000Y-115384320D01*
X110500000Y-113515680D01*
X110495878Y-113502995D01*
X110491757Y-113500000D01*
X108615680Y-113500000D01*
X108602995Y-113504122D01*
X108600000Y-113508243D01*
X108600000Y-115214840D01*
X100250500Y-115214840D01*
X100250500Y-113042095D01*
X102145028Y-113042095D01*
X102145368Y-113045657D01*
X102145368Y-113045664D01*
X102170193Y-113305861D01*
X102170534Y-113309431D01*
X102234364Y-113570285D01*
X102335182Y-113819192D01*
X102470875Y-114050938D01*
X102638601Y-114260669D01*
X102834846Y-114443991D01*
X103055499Y-114597064D01*
X103177066Y-114657542D01*
X103292723Y-114715081D01*
X103292728Y-114715083D01*
X103295938Y-114716680D01*
X103299349Y-114717798D01*
X103299351Y-114717799D01*
X103547721Y-114799219D01*
X103547724Y-114799220D01*
X103551126Y-114800335D01*
X103815717Y-114846276D01*
X103864761Y-114848717D01*
X103899335Y-114850439D01*
X103899348Y-114850439D01*
X103900567Y-114850500D01*
X104068223Y-114850500D01*
X104267846Y-114836016D01*
X104530080Y-114778120D01*
X104533429Y-114776851D01*
X104533433Y-114776850D01*
X104635087Y-114738337D01*
X104781211Y-114682975D01*
X104935879Y-114597064D01*
X105012837Y-114554318D01*
X105012841Y-114554315D01*
X105015976Y-114552574D01*
X105155575Y-114446036D01*
X105226607Y-114391826D01*
X105226609Y-114391825D01*
X105229458Y-114389650D01*
X105417185Y-114197614D01*
X105575225Y-113980491D01*
X105700265Y-113742828D01*
X105784959Y-113502995D01*
X105788491Y-113492993D01*
X105788491Y-113492991D01*
X105789688Y-113489603D01*
X105825904Y-113305861D01*
X105840925Y-113229648D01*
X105841620Y-113226122D01*
X105854972Y-112957905D01*
X105854632Y-112954343D01*
X105854632Y-112954336D01*
X105829807Y-112694139D01*
X105829806Y-112694134D01*
X105829466Y-112690569D01*
X105778998Y-112484320D01*
X108600000Y-112484320D01*
X108604122Y-112497005D01*
X108608243Y-112500000D01*
X110484320Y-112500000D01*
X110497005Y-112495878D01*
X110500000Y-112491757D01*
X110500000Y-110615680D01*
X110495878Y-110602995D01*
X110491757Y-110600000D01*
X108785160Y-110600000D01*
X108775538Y-110600948D01*
X108731526Y-110609702D01*
X108713858Y-110617021D01*
X108663918Y-110650389D01*
X108650389Y-110663918D01*
X108617021Y-110713858D01*
X108609702Y-110731526D01*
X108600948Y-110775538D01*
X108600000Y-110785160D01*
X108600000Y-112484320D01*
X105778998Y-112484320D01*
X105765636Y-112429715D01*
X105664818Y-112180808D01*
X105529125Y-111949062D01*
X105361399Y-111739331D01*
X105165154Y-111556009D01*
X104944501Y-111402936D01*
X104771812Y-111317025D01*
X104707277Y-111284919D01*
X104707272Y-111284917D01*
X104704062Y-111283320D01*
X104520515Y-111223150D01*
X104452279Y-111200781D01*
X104452276Y-111200780D01*
X104448874Y-111199665D01*
X104184283Y-111153724D01*
X104135239Y-111151283D01*
X104100665Y-111149561D01*
X104100652Y-111149561D01*
X104099433Y-111149500D01*
X103931777Y-111149500D01*
X103732154Y-111163984D01*
X103469920Y-111221880D01*
X103466571Y-111223149D01*
X103466567Y-111223150D01*
X103364913Y-111261663D01*
X103218789Y-111317025D01*
X103088411Y-111389444D01*
X102987163Y-111445682D01*
X102987159Y-111445685D01*
X102984024Y-111447426D01*
X102981174Y-111449601D01*
X102981171Y-111449603D01*
X102773393Y-111608174D01*
X102770542Y-111610350D01*
X102582815Y-111802386D01*
X102424775Y-112019509D01*
X102299735Y-112257172D01*
X102298539Y-112260559D01*
X102213984Y-112500000D01*
X102210312Y-112510397D01*
X102209618Y-112513919D01*
X102209617Y-112513922D01*
X102167701Y-112726587D01*
X102158380Y-112773878D01*
X102145028Y-113042095D01*
X100250500Y-113042095D01*
X100250500Y-103524674D01*
X110999500Y-103524674D01*
X111014034Y-103597740D01*
X111069399Y-103680601D01*
X111152260Y-103735966D01*
X111225326Y-103750500D01*
X112374674Y-103750500D01*
X112447740Y-103735966D01*
X112530601Y-103680601D01*
X112585966Y-103597740D01*
X112600500Y-103524674D01*
X116399500Y-103524674D01*
X116414034Y-103597740D01*
X116469399Y-103680601D01*
X116552260Y-103735966D01*
X116625326Y-103750500D01*
X117774674Y-103750500D01*
X117847740Y-103735966D01*
X117930601Y-103680601D01*
X117985966Y-103597740D01*
X118000500Y-103524674D01*
X121999500Y-103524674D01*
X122014034Y-103597740D01*
X122069399Y-103680601D01*
X122152260Y-103735966D01*
X122225326Y-103750500D01*
X123374674Y-103750500D01*
X123447740Y-103735966D01*
X123530601Y-103680601D01*
X123585966Y-103597740D01*
X123600500Y-103524674D01*
X127399500Y-103524674D01*
X127414034Y-103597740D01*
X127469399Y-103680601D01*
X127552260Y-103735966D01*
X127625326Y-103750500D01*
X128774674Y-103750500D01*
X128847740Y-103735966D01*
X128930601Y-103680601D01*
X128985966Y-103597740D01*
X129000500Y-103524674D01*
X132999500Y-103524674D01*
X133014034Y-103597740D01*
X133069399Y-103680601D01*
X133152260Y-103735966D01*
X133225326Y-103750500D01*
X134374674Y-103750500D01*
X134447740Y-103735966D01*
X134530601Y-103680601D01*
X134585966Y-103597740D01*
X134600500Y-103524674D01*
X138399500Y-103524674D01*
X138414034Y-103597740D01*
X138469399Y-103680601D01*
X138552260Y-103735966D01*
X138625326Y-103750500D01*
X139774674Y-103750500D01*
X139847740Y-103735966D01*
X139930601Y-103680601D01*
X139985966Y-103597740D01*
X140000500Y-103524674D01*
X143999500Y-103524674D01*
X144014034Y-103597740D01*
X144069399Y-103680601D01*
X144152260Y-103735966D01*
X144225326Y-103750500D01*
X145374674Y-103750500D01*
X145447740Y-103735966D01*
X145530601Y-103680601D01*
X145585966Y-103597740D01*
X145600500Y-103524674D01*
X149399500Y-103524674D01*
X149414034Y-103597740D01*
X149469399Y-103680601D01*
X149552260Y-103735966D01*
X149625326Y-103750500D01*
X150774674Y-103750500D01*
X150847740Y-103735966D01*
X150930601Y-103680601D01*
X150985966Y-103597740D01*
X151000500Y-103524674D01*
X154999500Y-103524674D01*
X155014034Y-103597740D01*
X155069399Y-103680601D01*
X155152260Y-103735966D01*
X155225326Y-103750500D01*
X156374674Y-103750500D01*
X156447740Y-103735966D01*
X156530601Y-103680601D01*
X156585966Y-103597740D01*
X156600500Y-103524674D01*
X160399500Y-103524674D01*
X160414034Y-103597740D01*
X160469399Y-103680601D01*
X160552260Y-103735966D01*
X160625326Y-103750500D01*
X161774674Y-103750500D01*
X161847740Y-103735966D01*
X161930601Y-103680601D01*
X161985966Y-103597740D01*
X162000500Y-103524674D01*
X162000500Y-101575326D01*
X161985966Y-101502260D01*
X161930601Y-101419399D01*
X161847740Y-101364034D01*
X161774674Y-101349500D01*
X160625326Y-101349500D01*
X160552260Y-101364034D01*
X160469399Y-101419399D01*
X160414034Y-101502260D01*
X160399500Y-101575326D01*
X160399500Y-103524674D01*
X156600500Y-103524674D01*
X156600500Y-101575326D01*
X156585966Y-101502260D01*
X156530601Y-101419399D01*
X156447740Y-101364034D01*
X156374674Y-101349500D01*
X155225326Y-101349500D01*
X155152260Y-101364034D01*
X155069399Y-101419399D01*
X155014034Y-101502260D01*
X154999500Y-101575326D01*
X154999500Y-103524674D01*
X151000500Y-103524674D01*
X151000500Y-101575326D01*
X150985966Y-101502260D01*
X150930601Y-101419399D01*
X150847740Y-101364034D01*
X150774674Y-101349500D01*
X149625326Y-101349500D01*
X149552260Y-101364034D01*
X149469399Y-101419399D01*
X149414034Y-101502260D01*
X149399500Y-101575326D01*
X149399500Y-103524674D01*
X145600500Y-103524674D01*
X145600500Y-101575326D01*
X145585966Y-101502260D01*
X145530601Y-101419399D01*
X145447740Y-101364034D01*
X145374674Y-101349500D01*
X144225326Y-101349500D01*
X144152260Y-101364034D01*
X144069399Y-101419399D01*
X144014034Y-101502260D01*
X143999500Y-101575326D01*
X143999500Y-103524674D01*
X140000500Y-103524674D01*
X140000500Y-101575326D01*
X139985966Y-101502260D01*
X139930601Y-101419399D01*
X139847740Y-101364034D01*
X139774674Y-101349500D01*
X138625326Y-101349500D01*
X138552260Y-101364034D01*
X138469399Y-101419399D01*
X138414034Y-101502260D01*
X138399500Y-101575326D01*
X138399500Y-103524674D01*
X134600500Y-103524674D01*
X134600500Y-101575326D01*
X134585966Y-101502260D01*
X134530601Y-101419399D01*
X134447740Y-101364034D01*
X134374674Y-101349500D01*
X133225326Y-101349500D01*
X133152260Y-101364034D01*
X133069399Y-101419399D01*
X133014034Y-101502260D01*
X132999500Y-101575326D01*
X132999500Y-103524674D01*
X129000500Y-103524674D01*
X129000500Y-101575326D01*
X128985966Y-101502260D01*
X128930601Y-101419399D01*
X128847740Y-101364034D01*
X128774674Y-101349500D01*
X127625326Y-101349500D01*
X127552260Y-101364034D01*
X127469399Y-101419399D01*
X127414034Y-101502260D01*
X127399500Y-101575326D01*
X127399500Y-103524674D01*
X123600500Y-103524674D01*
X123600500Y-101575326D01*
X123585966Y-101502260D01*
X123530601Y-101419399D01*
X123447740Y-101364034D01*
X123374674Y-101349500D01*
X122225326Y-101349500D01*
X122152260Y-101364034D01*
X122069399Y-101419399D01*
X122014034Y-101502260D01*
X121999500Y-101575326D01*
X121999500Y-103524674D01*
X118000500Y-103524674D01*
X118000500Y-101575326D01*
X117985966Y-101502260D01*
X117930601Y-101419399D01*
X117847740Y-101364034D01*
X117774674Y-101349500D01*
X116625326Y-101349500D01*
X116552260Y-101364034D01*
X116469399Y-101419399D01*
X116414034Y-101502260D01*
X116399500Y-101575326D01*
X116399500Y-103524674D01*
X112600500Y-103524674D01*
X112600500Y-101575326D01*
X112585966Y-101502260D01*
X112530601Y-101419399D01*
X112447740Y-101364034D01*
X112374674Y-101349500D01*
X111225326Y-101349500D01*
X111152260Y-101364034D01*
X111069399Y-101419399D01*
X111014034Y-101502260D01*
X110999500Y-101575326D01*
X110999500Y-103524674D01*
X100250500Y-103524674D01*
X100250500Y-101034426D01*
X100252402Y-101015112D01*
X100253506Y-101009563D01*
X100253506Y-101009562D01*
X100255408Y-101000000D01*
X100253505Y-100990436D01*
X100253505Y-100980687D01*
X100254144Y-100980687D01*
X100253565Y-100968882D01*
X100263945Y-100863485D01*
X100267730Y-100844454D01*
X100304722Y-100722510D01*
X100312148Y-100704581D01*
X100372220Y-100592195D01*
X100383002Y-100576060D01*
X100463837Y-100477561D01*
X100477561Y-100463837D01*
X100576060Y-100383002D01*
X100592195Y-100372220D01*
X100704581Y-100312148D01*
X100722510Y-100304722D01*
X100844454Y-100267730D01*
X100863484Y-100263945D01*
X100885093Y-100261817D01*
X100968882Y-100253565D01*
X100980687Y-100254144D01*
X100980687Y-100253505D01*
X100990436Y-100253505D01*
X101000000Y-100255408D01*
X101009562Y-100253506D01*
X101009563Y-100253506D01*
X101015112Y-100252402D01*
X101034426Y-100250500D01*
X102650500Y-100250500D01*
X102708691Y-100269407D01*
G37*
%TD.AperFunction*%
%TD*%
%TA.AperFunction,Conductor*%
%TO.N,+5V*%
G36*
X113133434Y-105552417D02*
G01*
X113182219Y-105589344D01*
X113200000Y-105645953D01*
X113200000Y-105784320D01*
X113204122Y-105797005D01*
X113208243Y-105800000D01*
X114292728Y-105800000D01*
X114350919Y-105818907D01*
X114376554Y-105846329D01*
X114419794Y-105915145D01*
X114429410Y-105935114D01*
X114477512Y-106072581D01*
X114482443Y-106094188D01*
X114499377Y-106244479D01*
X114500000Y-106255564D01*
X114500000Y-108000000D01*
X115500000Y-109000000D01*
X120500000Y-109000000D01*
X122085160Y-107414840D01*
X124200000Y-107414840D01*
X124200948Y-107424462D01*
X124209702Y-107468474D01*
X124217021Y-107486142D01*
X124250389Y-107536082D01*
X124263918Y-107549611D01*
X124313858Y-107582979D01*
X124331526Y-107590298D01*
X124375538Y-107599052D01*
X124384515Y-107599936D01*
X124397005Y-107595878D01*
X124400000Y-107591757D01*
X124400000Y-107584320D01*
X125100000Y-107584320D01*
X125104122Y-107597005D01*
X125108243Y-107600000D01*
X125114840Y-107600000D01*
X125124462Y-107599052D01*
X125168474Y-107590298D01*
X125186142Y-107582979D01*
X125236082Y-107549611D01*
X125249611Y-107536082D01*
X125282979Y-107486142D01*
X125290298Y-107468474D01*
X125299052Y-107424462D01*
X125300000Y-107414840D01*
X125300000Y-106515680D01*
X125295878Y-106502995D01*
X125291757Y-106500000D01*
X125115680Y-106500000D01*
X125102995Y-106504122D01*
X125100000Y-106508243D01*
X125100000Y-107584320D01*
X124400000Y-107584320D01*
X124400000Y-106515680D01*
X124395878Y-106502995D01*
X124391757Y-106500000D01*
X124215680Y-106500000D01*
X124202995Y-106504122D01*
X124200000Y-106508243D01*
X124200000Y-107414840D01*
X122085160Y-107414840D01*
X123703672Y-105796328D01*
X123710871Y-105789804D01*
X123851107Y-105674715D01*
X123867244Y-105663933D01*
X124022930Y-105580717D01*
X124040859Y-105573290D01*
X124072263Y-105563764D01*
X124133435Y-105564965D01*
X124182219Y-105601893D01*
X124200000Y-105658501D01*
X124200000Y-105784320D01*
X124204122Y-105797005D01*
X124208243Y-105800000D01*
X125292728Y-105800000D01*
X125350919Y-105818907D01*
X125376554Y-105846329D01*
X125419794Y-105915145D01*
X125429410Y-105935114D01*
X125477512Y-106072581D01*
X125482443Y-106094188D01*
X125499377Y-106244479D01*
X125500000Y-106255564D01*
X125500000Y-108000000D01*
X126500000Y-109000000D01*
X131500000Y-109000000D01*
X133085160Y-107414840D01*
X135200000Y-107414840D01*
X135200948Y-107424462D01*
X135209702Y-107468474D01*
X135217021Y-107486142D01*
X135250389Y-107536082D01*
X135263918Y-107549611D01*
X135313858Y-107582979D01*
X135331526Y-107590298D01*
X135375538Y-107599052D01*
X135384515Y-107599936D01*
X135397005Y-107595878D01*
X135400000Y-107591757D01*
X135400000Y-107584320D01*
X136100000Y-107584320D01*
X136104122Y-107597005D01*
X136108243Y-107600000D01*
X136114840Y-107600000D01*
X136124462Y-107599052D01*
X136168474Y-107590298D01*
X136186142Y-107582979D01*
X136236082Y-107549611D01*
X136249611Y-107536082D01*
X136282979Y-107486142D01*
X136290298Y-107468474D01*
X136299052Y-107424462D01*
X136300000Y-107414840D01*
X136300000Y-106515680D01*
X136295878Y-106502995D01*
X136291757Y-106500000D01*
X136115680Y-106500000D01*
X136102995Y-106504122D01*
X136100000Y-106508243D01*
X136100000Y-107584320D01*
X135400000Y-107584320D01*
X135400000Y-106515680D01*
X135395878Y-106502995D01*
X135391757Y-106500000D01*
X135215680Y-106500000D01*
X135202995Y-106504122D01*
X135200000Y-106508243D01*
X135200000Y-107414840D01*
X133085160Y-107414840D01*
X134703672Y-105796328D01*
X134710871Y-105789804D01*
X134851107Y-105674715D01*
X134867244Y-105663933D01*
X135022930Y-105580717D01*
X135040859Y-105573290D01*
X135072263Y-105563764D01*
X135133435Y-105564965D01*
X135182219Y-105601893D01*
X135200000Y-105658501D01*
X135200000Y-105784320D01*
X135204122Y-105797005D01*
X135208243Y-105800000D01*
X136292728Y-105800000D01*
X136350919Y-105818907D01*
X136376554Y-105846329D01*
X136419794Y-105915145D01*
X136429410Y-105935114D01*
X136477512Y-106072581D01*
X136482443Y-106094188D01*
X136499377Y-106244479D01*
X136500000Y-106255564D01*
X136500000Y-108000000D01*
X137500000Y-109000000D01*
X142500000Y-109000000D01*
X144085160Y-107414840D01*
X146200000Y-107414840D01*
X146200948Y-107424462D01*
X146209702Y-107468474D01*
X146217021Y-107486142D01*
X146250389Y-107536082D01*
X146263918Y-107549611D01*
X146313858Y-107582979D01*
X146331526Y-107590298D01*
X146375538Y-107599052D01*
X146384515Y-107599936D01*
X146397005Y-107595878D01*
X146400000Y-107591757D01*
X146400000Y-107584320D01*
X147100000Y-107584320D01*
X147104122Y-107597005D01*
X147108243Y-107600000D01*
X147114840Y-107600000D01*
X147124462Y-107599052D01*
X147168474Y-107590298D01*
X147186142Y-107582979D01*
X147236082Y-107549611D01*
X147249611Y-107536082D01*
X147282979Y-107486142D01*
X147290298Y-107468474D01*
X147299052Y-107424462D01*
X147300000Y-107414840D01*
X147300000Y-106515680D01*
X147295878Y-106502995D01*
X147291757Y-106500000D01*
X147115680Y-106500000D01*
X147102995Y-106504122D01*
X147100000Y-106508243D01*
X147100000Y-107584320D01*
X146400000Y-107584320D01*
X146400000Y-106515680D01*
X146395878Y-106502995D01*
X146391757Y-106500000D01*
X146215680Y-106500000D01*
X146202995Y-106504122D01*
X146200000Y-106508243D01*
X146200000Y-107414840D01*
X144085160Y-107414840D01*
X145703672Y-105796328D01*
X145710871Y-105789804D01*
X145851107Y-105674715D01*
X145867244Y-105663933D01*
X146022930Y-105580717D01*
X146040859Y-105573290D01*
X146072263Y-105563764D01*
X146133435Y-105564965D01*
X146182219Y-105601893D01*
X146200000Y-105658501D01*
X146200000Y-105784320D01*
X146204122Y-105797005D01*
X146208243Y-105800000D01*
X147292728Y-105800000D01*
X147350919Y-105818907D01*
X147376554Y-105846329D01*
X147419794Y-105915145D01*
X147429410Y-105935114D01*
X147477512Y-106072581D01*
X147482443Y-106094188D01*
X147499377Y-106244479D01*
X147500000Y-106255564D01*
X147500000Y-108000000D01*
X148500000Y-109000000D01*
X153500000Y-109000000D01*
X155085160Y-107414840D01*
X157200000Y-107414840D01*
X157200948Y-107424462D01*
X157209702Y-107468474D01*
X157217021Y-107486142D01*
X157250389Y-107536082D01*
X157263918Y-107549611D01*
X157313858Y-107582979D01*
X157331526Y-107590298D01*
X157375538Y-107599052D01*
X157384515Y-107599936D01*
X157397005Y-107595878D01*
X157400000Y-107591757D01*
X157400000Y-107584320D01*
X158100000Y-107584320D01*
X158104122Y-107597005D01*
X158108243Y-107600000D01*
X158114840Y-107600000D01*
X158124462Y-107599052D01*
X158168474Y-107590298D01*
X158186142Y-107582979D01*
X158236082Y-107549611D01*
X158249611Y-107536082D01*
X158282979Y-107486142D01*
X158290298Y-107468474D01*
X158299052Y-107424462D01*
X158300000Y-107414840D01*
X158300000Y-106515680D01*
X158295878Y-106502995D01*
X158291757Y-106500000D01*
X158115680Y-106500000D01*
X158102995Y-106504122D01*
X158100000Y-106508243D01*
X158100000Y-107584320D01*
X157400000Y-107584320D01*
X157400000Y-106515680D01*
X157395878Y-106502995D01*
X157391757Y-106500000D01*
X157215680Y-106500000D01*
X157202995Y-106504122D01*
X157200000Y-106508243D01*
X157200000Y-107414840D01*
X155085160Y-107414840D01*
X156703672Y-105796328D01*
X156710871Y-105789804D01*
X156851107Y-105674715D01*
X156867244Y-105663933D01*
X157022930Y-105580717D01*
X157040859Y-105573290D01*
X157072263Y-105563764D01*
X157133435Y-105564965D01*
X157182219Y-105601893D01*
X157200000Y-105658501D01*
X157200000Y-105784320D01*
X157204122Y-105797005D01*
X157208243Y-105800000D01*
X158292728Y-105800000D01*
X158350919Y-105818907D01*
X158376554Y-105846329D01*
X158419794Y-105915145D01*
X158429410Y-105935114D01*
X158477512Y-106072581D01*
X158482443Y-106094188D01*
X158499377Y-106244479D01*
X158500000Y-106255564D01*
X158500000Y-109000000D01*
X159880496Y-110380496D01*
X159908273Y-110435013D01*
X159898702Y-110495445D01*
X159855437Y-110538710D01*
X159810492Y-110549500D01*
X159775326Y-110549500D01*
X159702260Y-110564034D01*
X159619399Y-110619399D01*
X159564034Y-110702260D01*
X159549500Y-110775326D01*
X159549500Y-112509531D01*
X159530593Y-112567722D01*
X159481093Y-112603686D01*
X159419907Y-112603686D01*
X159370407Y-112567722D01*
X159353254Y-112528082D01*
X159329778Y-112405017D01*
X159328238Y-112399014D01*
X159236837Y-112117715D01*
X159234548Y-112111933D01*
X159108619Y-111844320D01*
X159105625Y-111838876D01*
X159021862Y-111706887D01*
X159011850Y-111698604D01*
X159004058Y-111703049D01*
X157718193Y-112988914D01*
X157712139Y-113000797D01*
X157712935Y-113005828D01*
X159002374Y-114295267D01*
X159013949Y-114301164D01*
X159020586Y-114295125D01*
X159105625Y-114161124D01*
X159108619Y-114155680D01*
X159234548Y-113888067D01*
X159236837Y-113882285D01*
X159328238Y-113600986D01*
X159329778Y-113594983D01*
X159353254Y-113471918D01*
X159382730Y-113418301D01*
X159438092Y-113392250D01*
X159498193Y-113403715D01*
X159540078Y-113448317D01*
X159549500Y-113490469D01*
X159549500Y-115224674D01*
X159564034Y-115297740D01*
X159619399Y-115380601D01*
X159702260Y-115435966D01*
X159775326Y-115450500D01*
X160401000Y-115450500D01*
X160459191Y-115469407D01*
X160495155Y-115518907D01*
X160500000Y-115549500D01*
X160500000Y-119641586D01*
X160499523Y-119651290D01*
X160484555Y-119803263D01*
X160480770Y-119822293D01*
X160455435Y-119905812D01*
X160437857Y-119963758D01*
X160430430Y-119981687D01*
X160360747Y-120112054D01*
X160349966Y-120128190D01*
X160256183Y-120242466D01*
X160242466Y-120256183D01*
X160158264Y-120325285D01*
X160128190Y-120349966D01*
X160112054Y-120360747D01*
X159981687Y-120430430D01*
X159963762Y-120437856D01*
X159927737Y-120448784D01*
X159866566Y-120447583D01*
X159817781Y-120410656D01*
X159800000Y-120354047D01*
X159800000Y-120215680D01*
X159795878Y-120202995D01*
X159791757Y-120200000D01*
X158707272Y-120200000D01*
X158649081Y-120181093D01*
X158623446Y-120153671D01*
X158580206Y-120084855D01*
X158570590Y-120064886D01*
X158522488Y-119927419D01*
X158517557Y-119905812D01*
X158500623Y-119755521D01*
X158500000Y-119744436D01*
X158500000Y-119484320D01*
X158700000Y-119484320D01*
X158704122Y-119497005D01*
X158708243Y-119500000D01*
X158884320Y-119500000D01*
X158897005Y-119495878D01*
X158900000Y-119491757D01*
X158900000Y-119484320D01*
X159600000Y-119484320D01*
X159604122Y-119497005D01*
X159608243Y-119500000D01*
X159784320Y-119500000D01*
X159797005Y-119495878D01*
X159800000Y-119491757D01*
X159800000Y-118585160D01*
X159799052Y-118575538D01*
X159790298Y-118531526D01*
X159782979Y-118513858D01*
X159749611Y-118463918D01*
X159736082Y-118450389D01*
X159686142Y-118417021D01*
X159668474Y-118409702D01*
X159624462Y-118400948D01*
X159615485Y-118400064D01*
X159602995Y-118404122D01*
X159600000Y-118408243D01*
X159600000Y-119484320D01*
X158900000Y-119484320D01*
X158900000Y-118415680D01*
X158895878Y-118402995D01*
X158891757Y-118400000D01*
X158885160Y-118400000D01*
X158875538Y-118400948D01*
X158831526Y-118409702D01*
X158813858Y-118417021D01*
X158763918Y-118450389D01*
X158750389Y-118463918D01*
X158717021Y-118513858D01*
X158709702Y-118531526D01*
X158700948Y-118575538D01*
X158700000Y-118585160D01*
X158700000Y-119484320D01*
X158500000Y-119484320D01*
X158500000Y-118000000D01*
X157500000Y-117000000D01*
X152500000Y-117000000D01*
X149296328Y-120203672D01*
X149289129Y-120210196D01*
X149148893Y-120325285D01*
X149132756Y-120336067D01*
X148977070Y-120419283D01*
X148959142Y-120426710D01*
X148927737Y-120436236D01*
X148866565Y-120435035D01*
X148817781Y-120398107D01*
X148800000Y-120341499D01*
X148800000Y-120215680D01*
X148795878Y-120202995D01*
X148791757Y-120200000D01*
X147707272Y-120200000D01*
X147649081Y-120181093D01*
X147623446Y-120153671D01*
X147580206Y-120084855D01*
X147570590Y-120064886D01*
X147522488Y-119927419D01*
X147517557Y-119905812D01*
X147500623Y-119755521D01*
X147500000Y-119744436D01*
X147500000Y-119484320D01*
X147700000Y-119484320D01*
X147704122Y-119497005D01*
X147708243Y-119500000D01*
X147884320Y-119500000D01*
X147897005Y-119495878D01*
X147900000Y-119491757D01*
X147900000Y-119484320D01*
X148600000Y-119484320D01*
X148604122Y-119497005D01*
X148608243Y-119500000D01*
X148784320Y-119500000D01*
X148797005Y-119495878D01*
X148800000Y-119491757D01*
X148800000Y-118585160D01*
X148799052Y-118575538D01*
X148790298Y-118531526D01*
X148782979Y-118513858D01*
X148749611Y-118463918D01*
X148736082Y-118450389D01*
X148686142Y-118417021D01*
X148668474Y-118409702D01*
X148624462Y-118400948D01*
X148615485Y-118400064D01*
X148602995Y-118404122D01*
X148600000Y-118408243D01*
X148600000Y-119484320D01*
X147900000Y-119484320D01*
X147900000Y-118415680D01*
X147895878Y-118402995D01*
X147891757Y-118400000D01*
X147885160Y-118400000D01*
X147875538Y-118400948D01*
X147831526Y-118409702D01*
X147813858Y-118417021D01*
X147763918Y-118450389D01*
X147750389Y-118463918D01*
X147717021Y-118513858D01*
X147709702Y-118531526D01*
X147700948Y-118575538D01*
X147700000Y-118585160D01*
X147700000Y-119484320D01*
X147500000Y-119484320D01*
X147500000Y-118000000D01*
X146500000Y-117000000D01*
X141500000Y-117000000D01*
X138296328Y-120203672D01*
X138289129Y-120210196D01*
X138148893Y-120325285D01*
X138132756Y-120336067D01*
X137977070Y-120419283D01*
X137959142Y-120426710D01*
X137927737Y-120436236D01*
X137866565Y-120435035D01*
X137817781Y-120398107D01*
X137800000Y-120341499D01*
X137800000Y-120215680D01*
X137795878Y-120202995D01*
X137791757Y-120200000D01*
X136707272Y-120200000D01*
X136649081Y-120181093D01*
X136623446Y-120153671D01*
X136580206Y-120084855D01*
X136570590Y-120064886D01*
X136522488Y-119927419D01*
X136517557Y-119905812D01*
X136500623Y-119755521D01*
X136500000Y-119744436D01*
X136500000Y-119484320D01*
X136700000Y-119484320D01*
X136704122Y-119497005D01*
X136708243Y-119500000D01*
X136884320Y-119500000D01*
X136897005Y-119495878D01*
X136900000Y-119491757D01*
X136900000Y-119484320D01*
X137600000Y-119484320D01*
X137604122Y-119497005D01*
X137608243Y-119500000D01*
X137784320Y-119500000D01*
X137797005Y-119495878D01*
X137800000Y-119491757D01*
X137800000Y-118585160D01*
X137799052Y-118575538D01*
X137790298Y-118531526D01*
X137782979Y-118513858D01*
X137749611Y-118463918D01*
X137736082Y-118450389D01*
X137686142Y-118417021D01*
X137668474Y-118409702D01*
X137624462Y-118400948D01*
X137615485Y-118400064D01*
X137602995Y-118404122D01*
X137600000Y-118408243D01*
X137600000Y-119484320D01*
X136900000Y-119484320D01*
X136900000Y-118415680D01*
X136895878Y-118402995D01*
X136891757Y-118400000D01*
X136885160Y-118400000D01*
X136875538Y-118400948D01*
X136831526Y-118409702D01*
X136813858Y-118417021D01*
X136763918Y-118450389D01*
X136750389Y-118463918D01*
X136717021Y-118513858D01*
X136709702Y-118531526D01*
X136700948Y-118575538D01*
X136700000Y-118585160D01*
X136700000Y-119484320D01*
X136500000Y-119484320D01*
X136500000Y-118000000D01*
X135500000Y-117000000D01*
X130500000Y-117000000D01*
X127296328Y-120203672D01*
X127289129Y-120210196D01*
X127148893Y-120325285D01*
X127132756Y-120336067D01*
X126977070Y-120419283D01*
X126959142Y-120426710D01*
X126927737Y-120436236D01*
X126866565Y-120435035D01*
X126817781Y-120398107D01*
X126800000Y-120341499D01*
X126800000Y-120215680D01*
X126795878Y-120202995D01*
X126791757Y-120200000D01*
X125707272Y-120200000D01*
X125649081Y-120181093D01*
X125623446Y-120153671D01*
X125580206Y-120084855D01*
X125570590Y-120064886D01*
X125522488Y-119927419D01*
X125517557Y-119905812D01*
X125500623Y-119755521D01*
X125500000Y-119744436D01*
X125500000Y-119484320D01*
X125700000Y-119484320D01*
X125704122Y-119497005D01*
X125708243Y-119500000D01*
X125884320Y-119500000D01*
X125897005Y-119495878D01*
X125900000Y-119491757D01*
X125900000Y-119484320D01*
X126600000Y-119484320D01*
X126604122Y-119497005D01*
X126608243Y-119500000D01*
X126784320Y-119500000D01*
X126797005Y-119495878D01*
X126800000Y-119491757D01*
X126800000Y-118585160D01*
X126799052Y-118575538D01*
X126790298Y-118531526D01*
X126782979Y-118513858D01*
X126749611Y-118463918D01*
X126736082Y-118450389D01*
X126686142Y-118417021D01*
X126668474Y-118409702D01*
X126624462Y-118400948D01*
X126615485Y-118400064D01*
X126602995Y-118404122D01*
X126600000Y-118408243D01*
X126600000Y-119484320D01*
X125900000Y-119484320D01*
X125900000Y-118415680D01*
X125895878Y-118402995D01*
X125891757Y-118400000D01*
X125885160Y-118400000D01*
X125875538Y-118400948D01*
X125831526Y-118409702D01*
X125813858Y-118417021D01*
X125763918Y-118450389D01*
X125750389Y-118463918D01*
X125717021Y-118513858D01*
X125709702Y-118531526D01*
X125700948Y-118575538D01*
X125700000Y-118585160D01*
X125700000Y-119484320D01*
X125500000Y-119484320D01*
X125500000Y-118000000D01*
X124500000Y-117000000D01*
X119500000Y-117000000D01*
X116296328Y-120203672D01*
X116289129Y-120210196D01*
X116148893Y-120325285D01*
X116132756Y-120336067D01*
X115977070Y-120419283D01*
X115959142Y-120426710D01*
X115927737Y-120436236D01*
X115866565Y-120435035D01*
X115817781Y-120398107D01*
X115800000Y-120341499D01*
X115800000Y-120215680D01*
X115795878Y-120202995D01*
X115791757Y-120200000D01*
X114707272Y-120200000D01*
X114649081Y-120181093D01*
X114623446Y-120153671D01*
X114580206Y-120084855D01*
X114570590Y-120064886D01*
X114522488Y-119927419D01*
X114517557Y-119905812D01*
X114500623Y-119755521D01*
X114500000Y-119744436D01*
X114500000Y-119484320D01*
X114700000Y-119484320D01*
X114704122Y-119497005D01*
X114708243Y-119500000D01*
X114884320Y-119500000D01*
X114897005Y-119495878D01*
X114900000Y-119491757D01*
X114900000Y-119484320D01*
X115600000Y-119484320D01*
X115604122Y-119497005D01*
X115608243Y-119500000D01*
X115784320Y-119500000D01*
X115797005Y-119495878D01*
X115800000Y-119491757D01*
X115800000Y-118585160D01*
X115799052Y-118575538D01*
X115790298Y-118531526D01*
X115782979Y-118513858D01*
X115749611Y-118463918D01*
X115736082Y-118450389D01*
X115686142Y-118417021D01*
X115668474Y-118409702D01*
X115624462Y-118400948D01*
X115615485Y-118400064D01*
X115602995Y-118404122D01*
X115600000Y-118408243D01*
X115600000Y-119484320D01*
X114900000Y-119484320D01*
X114900000Y-118415680D01*
X114895878Y-118402995D01*
X114891757Y-118400000D01*
X114885160Y-118400000D01*
X114875538Y-118400948D01*
X114831526Y-118409702D01*
X114813858Y-118417021D01*
X114763918Y-118450389D01*
X114750389Y-118463918D01*
X114717021Y-118513858D01*
X114709702Y-118531526D01*
X114700948Y-118575538D01*
X114700000Y-118585160D01*
X114700000Y-119484320D01*
X114500000Y-119484320D01*
X114500000Y-117500000D01*
X112796328Y-115796328D01*
X112789804Y-115789129D01*
X112674715Y-115648893D01*
X112663933Y-115632757D01*
X112644376Y-115596168D01*
X112633620Y-115535936D01*
X112660321Y-115480885D01*
X112714282Y-115452042D01*
X112731686Y-115450500D01*
X113224674Y-115450500D01*
X113297740Y-115435966D01*
X113380601Y-115380601D01*
X113435966Y-115297740D01*
X113450500Y-115224674D01*
X113450500Y-115016563D01*
X114696373Y-115016563D01*
X114696544Y-115017646D01*
X114700822Y-115022655D01*
X114708953Y-115028562D01*
X114714201Y-115031893D01*
X114973387Y-115174382D01*
X114978996Y-115177021D01*
X115254003Y-115285904D01*
X115259902Y-115287821D01*
X115546389Y-115361378D01*
X115552481Y-115362540D01*
X115845922Y-115399610D01*
X115852110Y-115400000D01*
X116147890Y-115400000D01*
X116154078Y-115399610D01*
X116447519Y-115362540D01*
X116453611Y-115361378D01*
X116740098Y-115287821D01*
X116745997Y-115285904D01*
X117021004Y-115177021D01*
X117026613Y-115174382D01*
X117285799Y-115031893D01*
X117291047Y-115028562D01*
X117295972Y-115024984D01*
X117302090Y-115016563D01*
X155696373Y-115016563D01*
X155696544Y-115017646D01*
X155700822Y-115022655D01*
X155708953Y-115028562D01*
X155714201Y-115031893D01*
X155973387Y-115174382D01*
X155978996Y-115177021D01*
X156254003Y-115285904D01*
X156259902Y-115287821D01*
X156546389Y-115361378D01*
X156552481Y-115362540D01*
X156845922Y-115399610D01*
X156852110Y-115400000D01*
X157147890Y-115400000D01*
X157154078Y-115399610D01*
X157447519Y-115362540D01*
X157453611Y-115361378D01*
X157740098Y-115287821D01*
X157745997Y-115285904D01*
X158021004Y-115177021D01*
X158026613Y-115174382D01*
X158285799Y-115031893D01*
X158291047Y-115028562D01*
X158295972Y-115024984D01*
X158303813Y-115014191D01*
X158303813Y-115013093D01*
X158300375Y-115007482D01*
X157011086Y-113718193D01*
X156999203Y-113712139D01*
X156994172Y-113712935D01*
X155702427Y-115004680D01*
X155696373Y-115016563D01*
X117302090Y-115016563D01*
X117303813Y-115014191D01*
X117303813Y-115013093D01*
X117300375Y-115007482D01*
X116011086Y-113718193D01*
X115999203Y-113712139D01*
X115994172Y-113712935D01*
X114702427Y-115004680D01*
X114696373Y-115016563D01*
X113450500Y-115016563D01*
X113450500Y-113490469D01*
X113469407Y-113432278D01*
X113518907Y-113396314D01*
X113580093Y-113396314D01*
X113629593Y-113432278D01*
X113646746Y-113471918D01*
X113670222Y-113594983D01*
X113671762Y-113600986D01*
X113763163Y-113882285D01*
X113765452Y-113888067D01*
X113891381Y-114155680D01*
X113894375Y-114161124D01*
X113978138Y-114293113D01*
X113988150Y-114301396D01*
X113995942Y-114296951D01*
X115281807Y-113011086D01*
X115287049Y-113000797D01*
X116712139Y-113000797D01*
X116712935Y-113005828D01*
X118002374Y-114295267D01*
X118013949Y-114301164D01*
X118020586Y-114295125D01*
X118105625Y-114161124D01*
X118108619Y-114155680D01*
X118234548Y-113888067D01*
X118236837Y-113882285D01*
X118328238Y-113600986D01*
X118329778Y-113594983D01*
X118385198Y-113304460D01*
X118385979Y-113298285D01*
X118402097Y-113042095D01*
X134645028Y-113042095D01*
X134645368Y-113045657D01*
X134645368Y-113045664D01*
X134670193Y-113305861D01*
X134670534Y-113309431D01*
X134734364Y-113570285D01*
X134835182Y-113819192D01*
X134836993Y-113822285D01*
X134836994Y-113822287D01*
X134875510Y-113888067D01*
X134970875Y-114050938D01*
X135138601Y-114260669D01*
X135334846Y-114443991D01*
X135555499Y-114597064D01*
X135677066Y-114657542D01*
X135792723Y-114715081D01*
X135792728Y-114715083D01*
X135795938Y-114716680D01*
X135799349Y-114717798D01*
X135799351Y-114717799D01*
X136047721Y-114799219D01*
X136047724Y-114799220D01*
X136051126Y-114800335D01*
X136315717Y-114846276D01*
X136364761Y-114848717D01*
X136399335Y-114850439D01*
X136399348Y-114850439D01*
X136400567Y-114850500D01*
X136568223Y-114850500D01*
X136767846Y-114836016D01*
X137030080Y-114778120D01*
X137033429Y-114776851D01*
X137033433Y-114776850D01*
X137135087Y-114738337D01*
X137281211Y-114682975D01*
X137435879Y-114597064D01*
X137512837Y-114554318D01*
X137512841Y-114554315D01*
X137515976Y-114552574D01*
X137655575Y-114446036D01*
X137726607Y-114391826D01*
X137726609Y-114391825D01*
X137729458Y-114389650D01*
X137917185Y-114197614D01*
X138075225Y-113980491D01*
X138123852Y-113888067D01*
X138198595Y-113746002D01*
X138200265Y-113742828D01*
X138250355Y-113600986D01*
X138288491Y-113492993D01*
X138288491Y-113492991D01*
X138289688Y-113489603D01*
X138297826Y-113448317D01*
X138340925Y-113229648D01*
X138341620Y-113226122D01*
X138352722Y-113003099D01*
X154595450Y-113003099D01*
X154614021Y-113298285D01*
X154614802Y-113304460D01*
X154670222Y-113594983D01*
X154671762Y-113600986D01*
X154763163Y-113882285D01*
X154765452Y-113888067D01*
X154891381Y-114155680D01*
X154894375Y-114161124D01*
X154978138Y-114293113D01*
X154988150Y-114301396D01*
X154995942Y-114296951D01*
X156281807Y-113011086D01*
X156287861Y-112999203D01*
X156287065Y-112994172D01*
X154997626Y-111704733D01*
X154986051Y-111698836D01*
X154979414Y-111704875D01*
X154894375Y-111838876D01*
X154891381Y-111844320D01*
X154765452Y-112111933D01*
X154763163Y-112117715D01*
X154671762Y-112399014D01*
X154670222Y-112405017D01*
X154614802Y-112695540D01*
X154614021Y-112701715D01*
X154595450Y-112996901D01*
X154595450Y-113003099D01*
X138352722Y-113003099D01*
X138354972Y-112957905D01*
X138354632Y-112954343D01*
X138354632Y-112954336D01*
X138329807Y-112694139D01*
X138329806Y-112694134D01*
X138329466Y-112690569D01*
X138265636Y-112429715D01*
X138164818Y-112180808D01*
X138127876Y-112117715D01*
X138030936Y-111952155D01*
X138029125Y-111949062D01*
X137861399Y-111739331D01*
X137665154Y-111556009D01*
X137444501Y-111402936D01*
X137271812Y-111317025D01*
X137207277Y-111284919D01*
X137207272Y-111284917D01*
X137204062Y-111283320D01*
X137020515Y-111223150D01*
X136952279Y-111200781D01*
X136952276Y-111200780D01*
X136948874Y-111199665D01*
X136684283Y-111153724D01*
X136635239Y-111151283D01*
X136600665Y-111149561D01*
X136600652Y-111149561D01*
X136599433Y-111149500D01*
X136431777Y-111149500D01*
X136232154Y-111163984D01*
X135969920Y-111221880D01*
X135966571Y-111223149D01*
X135966567Y-111223150D01*
X135864913Y-111261663D01*
X135718789Y-111317025D01*
X135588411Y-111389444D01*
X135487163Y-111445682D01*
X135487159Y-111445685D01*
X135484024Y-111447426D01*
X135481174Y-111449601D01*
X135481171Y-111449603D01*
X135273393Y-111608174D01*
X135270542Y-111610350D01*
X135082815Y-111802386D01*
X134924775Y-112019509D01*
X134923111Y-112022672D01*
X134923109Y-112022675D01*
X134841540Y-112177713D01*
X134799735Y-112257172D01*
X134789179Y-112287065D01*
X134747526Y-112405017D01*
X134710312Y-112510397D01*
X134709618Y-112513919D01*
X134709617Y-112513922D01*
X134673820Y-112695540D01*
X134658380Y-112773878D01*
X134645028Y-113042095D01*
X118402097Y-113042095D01*
X118404550Y-113003099D01*
X118404550Y-112996901D01*
X118385979Y-112701715D01*
X118385198Y-112695540D01*
X118329778Y-112405017D01*
X118328238Y-112399014D01*
X118236837Y-112117715D01*
X118234548Y-112111933D01*
X118108619Y-111844320D01*
X118105625Y-111838876D01*
X118021862Y-111706887D01*
X118011850Y-111698604D01*
X118004058Y-111703049D01*
X116718193Y-112988914D01*
X116712139Y-113000797D01*
X115287049Y-113000797D01*
X115287861Y-112999203D01*
X115287065Y-112994172D01*
X113997626Y-111704733D01*
X113986051Y-111698836D01*
X113979414Y-111704875D01*
X113894375Y-111838876D01*
X113891381Y-111844320D01*
X113765452Y-112111933D01*
X113763163Y-112117715D01*
X113671762Y-112399014D01*
X113670222Y-112405017D01*
X113646746Y-112528082D01*
X113617270Y-112581699D01*
X113561908Y-112607750D01*
X113501807Y-112596285D01*
X113459922Y-112551683D01*
X113450500Y-112509531D01*
X113450500Y-110986907D01*
X114696187Y-110986907D01*
X114699625Y-110992518D01*
X115988914Y-112281807D01*
X116000797Y-112287861D01*
X116005828Y-112287065D01*
X117297573Y-110995320D01*
X117301859Y-110986907D01*
X155696187Y-110986907D01*
X155699625Y-110992518D01*
X156988914Y-112281807D01*
X157000797Y-112287861D01*
X157005828Y-112287065D01*
X158297573Y-110995320D01*
X158303627Y-110983437D01*
X158303456Y-110982354D01*
X158299178Y-110977345D01*
X158291047Y-110971438D01*
X158285799Y-110968107D01*
X158026613Y-110825618D01*
X158021004Y-110822979D01*
X157745997Y-110714096D01*
X157740098Y-110712179D01*
X157453611Y-110638622D01*
X157447519Y-110637460D01*
X157154078Y-110600390D01*
X157147890Y-110600000D01*
X156852110Y-110600000D01*
X156845922Y-110600390D01*
X156552481Y-110637460D01*
X156546389Y-110638622D01*
X156259902Y-110712179D01*
X156254003Y-110714096D01*
X155978996Y-110822979D01*
X155973387Y-110825618D01*
X155714201Y-110968107D01*
X155708953Y-110971438D01*
X155704028Y-110975016D01*
X155696187Y-110985809D01*
X155696187Y-110986907D01*
X117301859Y-110986907D01*
X117303627Y-110983437D01*
X117303456Y-110982354D01*
X117299178Y-110977345D01*
X117291047Y-110971438D01*
X117285799Y-110968107D01*
X117026613Y-110825618D01*
X117021004Y-110822979D01*
X116745997Y-110714096D01*
X116740098Y-110712179D01*
X116453611Y-110638622D01*
X116447519Y-110637460D01*
X116154078Y-110600390D01*
X116147890Y-110600000D01*
X115852110Y-110600000D01*
X115845922Y-110600390D01*
X115552481Y-110637460D01*
X115546389Y-110638622D01*
X115259902Y-110712179D01*
X115254003Y-110714096D01*
X114978996Y-110822979D01*
X114973387Y-110825618D01*
X114714201Y-110968107D01*
X114708953Y-110971438D01*
X114704028Y-110975016D01*
X114696187Y-110985809D01*
X114696187Y-110986907D01*
X113450500Y-110986907D01*
X113450500Y-110775326D01*
X113435966Y-110702260D01*
X113380601Y-110619399D01*
X113297740Y-110564034D01*
X113224674Y-110549500D01*
X112599000Y-110549500D01*
X112540809Y-110530593D01*
X112504845Y-110481093D01*
X112500000Y-110450500D01*
X112500000Y-107414840D01*
X113200000Y-107414840D01*
X113200948Y-107424462D01*
X113209702Y-107468474D01*
X113217021Y-107486142D01*
X113250389Y-107536082D01*
X113263918Y-107549611D01*
X113313858Y-107582979D01*
X113331526Y-107590298D01*
X113375538Y-107599052D01*
X113384515Y-107599936D01*
X113397005Y-107595878D01*
X113400000Y-107591757D01*
X113400000Y-107584320D01*
X114100000Y-107584320D01*
X114104122Y-107597005D01*
X114108243Y-107600000D01*
X114114840Y-107600000D01*
X114124462Y-107599052D01*
X114168474Y-107590298D01*
X114186142Y-107582979D01*
X114236082Y-107549611D01*
X114249611Y-107536082D01*
X114282979Y-107486142D01*
X114290298Y-107468474D01*
X114299052Y-107424462D01*
X114300000Y-107414840D01*
X114300000Y-106515680D01*
X114295878Y-106502995D01*
X114291757Y-106500000D01*
X114115680Y-106500000D01*
X114102995Y-106504122D01*
X114100000Y-106508243D01*
X114100000Y-107584320D01*
X113400000Y-107584320D01*
X113400000Y-106515680D01*
X113395878Y-106502995D01*
X113391757Y-106500000D01*
X113215680Y-106500000D01*
X113202995Y-106504122D01*
X113200000Y-106508243D01*
X113200000Y-107414840D01*
X112500000Y-107414840D01*
X112500000Y-106358414D01*
X112500477Y-106348710D01*
X112515445Y-106196737D01*
X112519230Y-106177707D01*
X112562143Y-106036241D01*
X112569570Y-106018313D01*
X112639253Y-105887946D01*
X112650034Y-105871810D01*
X112711424Y-105797005D01*
X112743817Y-105757534D01*
X112757534Y-105743817D01*
X112871810Y-105650034D01*
X112887946Y-105639253D01*
X113018313Y-105569570D01*
X113036238Y-105562144D01*
X113072263Y-105551216D01*
X113133434Y-105552417D01*
G37*
%TD.AperFunction*%
%TD*%
M02*
