%TF.GenerationSoftware,KiCad,Pcbnew,6.0.7-f9a2dced07~116~ubuntu20.04.1*%
%TF.CreationDate,2022-09-20T13:31:56+02:00*%
%TF.ProjectId,MateLightPowerSupplyPcb,4d617465-4c69-4676-9874-506f77657253,rev?*%
%TF.SameCoordinates,Original*%
%TF.FileFunction,Profile,NP*%
%FSLAX46Y46*%
G04 Gerber Fmt 4.6, Leading zero omitted, Abs format (unit mm)*
G04 Created by KiCad (PCBNEW 6.0.7-f9a2dced07~116~ubuntu20.04.1) date 2022-09-20 13:31:56*
%MOMM*%
%LPD*%
G01*
G04 APERTURE LIST*
%TA.AperFunction,Profile*%
%ADD10C,0.100000*%
%TD*%
G04 APERTURE END LIST*
D10*
X172000000Y-126000000D02*
G75*
G03*
X173000000Y-125000000I0J1000000D01*
G01*
X100000000Y-125000000D02*
X100000000Y-101000000D01*
X165750000Y-126000000D02*
X107250000Y-126000000D01*
X166250000Y-124000000D02*
G75*
G03*
X166000000Y-124250000I0J-250000D01*
G01*
X170250000Y-100000000D02*
G75*
G03*
X170000000Y-100250000I0J-250000D01*
G01*
X165750000Y-126000000D02*
G75*
G03*
X166000000Y-125750000I0J250000D01*
G01*
X107000000Y-125750000D02*
G75*
G03*
X107250000Y-126000000I250000J0D01*
G01*
X173000000Y-101000000D02*
G75*
G03*
X172000000Y-100000000I-1000000J0D01*
G01*
X173000000Y-101000000D02*
X173000000Y-125000000D01*
X166000000Y-100250000D02*
G75*
G03*
X165750000Y-100000000I-250000J0D01*
G01*
X103250000Y-124000000D02*
G75*
G03*
X103000000Y-124250000I0J-250000D01*
G01*
X170000000Y-101750000D02*
X170000000Y-100250000D01*
X103000000Y-100250000D02*
X103000000Y-101750000D01*
X166000000Y-124250000D02*
X166000000Y-125750000D01*
X103000000Y-124250000D02*
X103000000Y-125750000D01*
X107250000Y-100000000D02*
G75*
G03*
X107000000Y-100250000I0J-250000D01*
G01*
X166000000Y-100250000D02*
X166000000Y-101750000D01*
X106750000Y-124000000D02*
X103250000Y-124000000D01*
X103000000Y-101750000D02*
G75*
G03*
X103250000Y-102000000I250000J0D01*
G01*
X107000000Y-124250000D02*
G75*
G03*
X106750000Y-124000000I-250000J0D01*
G01*
X169750000Y-102000000D02*
G75*
G03*
X170000000Y-101750000I0J250000D01*
G01*
X102750000Y-126000000D02*
X101000000Y-126000000D01*
X166000000Y-101750000D02*
G75*
G03*
X166250000Y-102000000I250000J0D01*
G01*
X107000000Y-125750000D02*
X107000000Y-124250000D01*
X172000000Y-126000000D02*
X170250000Y-126000000D01*
X170000000Y-125750000D02*
X170000000Y-124250000D01*
X101000000Y-100000000D02*
G75*
G03*
X100000000Y-101000000I0J-1000000D01*
G01*
X107000000Y-101750000D02*
X107000000Y-100250000D01*
X170000000Y-125750000D02*
G75*
G03*
X170250000Y-126000000I250000J0D01*
G01*
X169750000Y-124000000D02*
X166250000Y-124000000D01*
X170000000Y-124250000D02*
G75*
G03*
X169750000Y-124000000I-250000J0D01*
G01*
X102750000Y-100000000D02*
X101000000Y-100000000D01*
X103000000Y-100250000D02*
G75*
G03*
X102750000Y-100000000I-250000J0D01*
G01*
X107250000Y-100000000D02*
X165750000Y-100000000D01*
X172000000Y-100000000D02*
X170250000Y-100000000D01*
X100000000Y-125000000D02*
G75*
G03*
X101000000Y-126000000I1000000J0D01*
G01*
X103250000Y-102000000D02*
X106750000Y-102000000D01*
X166250000Y-102000000D02*
X169750000Y-102000000D01*
X102750000Y-126000000D02*
G75*
G03*
X103000000Y-125750000I0J250000D01*
G01*
X106750000Y-102000000D02*
G75*
G03*
X107000000Y-101750000I0J250000D01*
G01*
M02*
