%TF.GenerationSoftware,KiCad,Pcbnew,6.0.7-f9a2dced07~116~ubuntu20.04.1*%
%TF.CreationDate,2022-09-20T13:31:56+02:00*%
%TF.ProjectId,MateLightPowerSupplyPcb,4d617465-4c69-4676-9874-506f77657253,rev?*%
%TF.SameCoordinates,Original*%
%TF.FileFunction,Soldermask,Bot*%
%TF.FilePolarity,Negative*%
%FSLAX46Y46*%
G04 Gerber Fmt 4.6, Leading zero omitted, Abs format (unit mm)*
G04 Created by KiCad (PCBNEW 6.0.7-f9a2dced07~116~ubuntu20.04.1) date 2022-09-20 13:31:56*
%MOMM*%
%LPD*%
G01*
G04 APERTURE LIST*
%ADD10C,3.200000*%
%ADD11R,4.400000X4.400000*%
%ADD12C,4.400000*%
%ADD13R,0.700000X2.500000*%
%ADD14R,1.100000X1.900000*%
G04 APERTURE END LIST*
D10*
%TO.C,H1*%
X104000000Y-113000000D03*
%TD*%
D11*
%TO.C,X1*%
X111000000Y-113000000D03*
D12*
X116000000Y-113000000D03*
%TD*%
D11*
%TO.C,X2*%
X162000000Y-113000000D03*
D12*
X157000000Y-113000000D03*
%TD*%
D10*
%TO.C,H3*%
X169000000Y-113000000D03*
%TD*%
%TO.C,H2*%
X136500000Y-113000000D03*
%TD*%
D13*
%TO.C,X20*%
X137250000Y-119850000D03*
X135750000Y-119850000D03*
D14*
X139200000Y-123450000D03*
X133800000Y-123450000D03*
%TD*%
D13*
%TO.C,X22*%
X115250000Y-119850000D03*
X113750000Y-119850000D03*
D14*
X117200000Y-123450000D03*
X111800000Y-123450000D03*
%TD*%
D13*
%TO.C,X21*%
X126250000Y-119850000D03*
X124750000Y-119850000D03*
D14*
X128200000Y-123450000D03*
X122800000Y-123450000D03*
%TD*%
%TO.C,X13*%
X161200000Y-102550000D03*
X155800000Y-102550000D03*
D13*
X159250000Y-106150000D03*
X157750000Y-106150000D03*
%TD*%
%TO.C,X15*%
X135750000Y-106150000D03*
X137250000Y-106150000D03*
D14*
X133800000Y-102550000D03*
X139200000Y-102550000D03*
%TD*%
D13*
%TO.C,X14*%
X146750000Y-106150000D03*
X148250000Y-106150000D03*
D14*
X144800000Y-102550000D03*
X150200000Y-102550000D03*
%TD*%
D13*
%TO.C,X18*%
X159250000Y-119850000D03*
X157750000Y-119850000D03*
D14*
X161200000Y-123450000D03*
X155800000Y-123450000D03*
%TD*%
D13*
%TO.C,X19*%
X148250000Y-119850000D03*
X146750000Y-119850000D03*
D14*
X150200000Y-123450000D03*
X144800000Y-123450000D03*
%TD*%
D13*
%TO.C,X17*%
X113750000Y-106150000D03*
X115250000Y-106150000D03*
D14*
X111800000Y-102550000D03*
X117200000Y-102550000D03*
%TD*%
D13*
%TO.C,X16*%
X124750000Y-106150000D03*
X126250000Y-106150000D03*
D14*
X122800000Y-102550000D03*
X128200000Y-102550000D03*
%TD*%
M02*
