%TF.GenerationSoftware,KiCad,Pcbnew,6.0.7-f9a2dced07~116~ubuntu20.04.1*%
%TF.CreationDate,2022-09-20T13:31:56+02:00*%
%TF.ProjectId,MateLightPowerSupplyPcb,4d617465-4c69-4676-9874-506f77657253,rev?*%
%TF.SameCoordinates,Original*%
%TF.FileFunction,Legend,Bot*%
%TF.FilePolarity,Positive*%
%FSLAX46Y46*%
G04 Gerber Fmt 4.6, Leading zero omitted, Abs format (unit mm)*
G04 Created by KiCad (PCBNEW 6.0.7-f9a2dced07~116~ubuntu20.04.1) date 2022-09-20 13:31:56*
%MOMM*%
%LPD*%
G01*
G04 APERTURE LIST*
%ADD10C,0.150000*%
%ADD11C,0.010000*%
%ADD12C,0.127000*%
%ADD13C,0.300000*%
G04 APERTURE END LIST*
D10*
%TO.C,X20*%
X142811785Y-123452380D02*
X142145119Y-124452380D01*
X142145119Y-123452380D02*
X142811785Y-124452380D01*
X141811785Y-123547619D02*
X141764166Y-123500000D01*
X141668928Y-123452380D01*
X141430833Y-123452380D01*
X141335595Y-123500000D01*
X141287976Y-123547619D01*
X141240357Y-123642857D01*
X141240357Y-123738095D01*
X141287976Y-123880952D01*
X141859404Y-124452380D01*
X141240357Y-124452380D01*
X140621309Y-123452380D02*
X140526071Y-123452380D01*
X140430833Y-123500000D01*
X140383214Y-123547619D01*
X140335595Y-123642857D01*
X140287976Y-123833333D01*
X140287976Y-124071428D01*
X140335595Y-124261904D01*
X140383214Y-124357142D01*
X140430833Y-124404761D01*
X140526071Y-124452380D01*
X140621309Y-124452380D01*
X140716547Y-124404761D01*
X140764166Y-124357142D01*
X140811785Y-124261904D01*
X140859404Y-124071428D01*
X140859404Y-123833333D01*
X140811785Y-123642857D01*
X140764166Y-123547619D01*
X140716547Y-123500000D01*
X140621309Y-123452380D01*
%TO.C,X22*%
X120811785Y-123452380D02*
X120145119Y-124452380D01*
X120145119Y-123452380D02*
X120811785Y-124452380D01*
X119811785Y-123547619D02*
X119764166Y-123500000D01*
X119668928Y-123452380D01*
X119430833Y-123452380D01*
X119335595Y-123500000D01*
X119287976Y-123547619D01*
X119240357Y-123642857D01*
X119240357Y-123738095D01*
X119287976Y-123880952D01*
X119859404Y-124452380D01*
X119240357Y-124452380D01*
X118859404Y-123547619D02*
X118811785Y-123500000D01*
X118716547Y-123452380D01*
X118478452Y-123452380D01*
X118383214Y-123500000D01*
X118335595Y-123547619D01*
X118287976Y-123642857D01*
X118287976Y-123738095D01*
X118335595Y-123880952D01*
X118907023Y-124452380D01*
X118287976Y-124452380D01*
%TO.C,X21*%
X131811785Y-123452380D02*
X131145119Y-124452380D01*
X131145119Y-123452380D02*
X131811785Y-124452380D01*
X130811785Y-123547619D02*
X130764166Y-123500000D01*
X130668928Y-123452380D01*
X130430833Y-123452380D01*
X130335595Y-123500000D01*
X130287976Y-123547619D01*
X130240357Y-123642857D01*
X130240357Y-123738095D01*
X130287976Y-123880952D01*
X130859404Y-124452380D01*
X130240357Y-124452380D01*
X129287976Y-124452380D02*
X129859404Y-124452380D01*
X129573690Y-124452380D02*
X129573690Y-123452380D01*
X129668928Y-123595238D01*
X129764166Y-123690476D01*
X129859404Y-123738095D01*
%TO.C,X13*%
X164811785Y-101452380D02*
X164145119Y-102452380D01*
X164145119Y-101452380D02*
X164811785Y-102452380D01*
X163240357Y-102452380D02*
X163811785Y-102452380D01*
X163526071Y-102452380D02*
X163526071Y-101452380D01*
X163621309Y-101595238D01*
X163716547Y-101690476D01*
X163811785Y-101738095D01*
X162907023Y-101452380D02*
X162287976Y-101452380D01*
X162621309Y-101833333D01*
X162478452Y-101833333D01*
X162383214Y-101880952D01*
X162335595Y-101928571D01*
X162287976Y-102023809D01*
X162287976Y-102261904D01*
X162335595Y-102357142D01*
X162383214Y-102404761D01*
X162478452Y-102452380D01*
X162764166Y-102452380D01*
X162859404Y-102404761D01*
X162907023Y-102357142D01*
%TO.C,X15*%
X142811785Y-101452380D02*
X142145119Y-102452380D01*
X142145119Y-101452380D02*
X142811785Y-102452380D01*
X141240357Y-102452380D02*
X141811785Y-102452380D01*
X141526071Y-102452380D02*
X141526071Y-101452380D01*
X141621309Y-101595238D01*
X141716547Y-101690476D01*
X141811785Y-101738095D01*
X140335595Y-101452380D02*
X140811785Y-101452380D01*
X140859404Y-101928571D01*
X140811785Y-101880952D01*
X140716547Y-101833333D01*
X140478452Y-101833333D01*
X140383214Y-101880952D01*
X140335595Y-101928571D01*
X140287976Y-102023809D01*
X140287976Y-102261904D01*
X140335595Y-102357142D01*
X140383214Y-102404761D01*
X140478452Y-102452380D01*
X140716547Y-102452380D01*
X140811785Y-102404761D01*
X140859404Y-102357142D01*
%TO.C,X14*%
X153811785Y-101452380D02*
X153145119Y-102452380D01*
X153145119Y-101452380D02*
X153811785Y-102452380D01*
X152240357Y-102452380D02*
X152811785Y-102452380D01*
X152526071Y-102452380D02*
X152526071Y-101452380D01*
X152621309Y-101595238D01*
X152716547Y-101690476D01*
X152811785Y-101738095D01*
X151383214Y-101785714D02*
X151383214Y-102452380D01*
X151621309Y-101404761D02*
X151859404Y-102119047D01*
X151240357Y-102119047D01*
%TO.C,X18*%
X164811785Y-123452380D02*
X164145119Y-124452380D01*
X164145119Y-123452380D02*
X164811785Y-124452380D01*
X163240357Y-124452380D02*
X163811785Y-124452380D01*
X163526071Y-124452380D02*
X163526071Y-123452380D01*
X163621309Y-123595238D01*
X163716547Y-123690476D01*
X163811785Y-123738095D01*
X162668928Y-123880952D02*
X162764166Y-123833333D01*
X162811785Y-123785714D01*
X162859404Y-123690476D01*
X162859404Y-123642857D01*
X162811785Y-123547619D01*
X162764166Y-123500000D01*
X162668928Y-123452380D01*
X162478452Y-123452380D01*
X162383214Y-123500000D01*
X162335595Y-123547619D01*
X162287976Y-123642857D01*
X162287976Y-123690476D01*
X162335595Y-123785714D01*
X162383214Y-123833333D01*
X162478452Y-123880952D01*
X162668928Y-123880952D01*
X162764166Y-123928571D01*
X162811785Y-123976190D01*
X162859404Y-124071428D01*
X162859404Y-124261904D01*
X162811785Y-124357142D01*
X162764166Y-124404761D01*
X162668928Y-124452380D01*
X162478452Y-124452380D01*
X162383214Y-124404761D01*
X162335595Y-124357142D01*
X162287976Y-124261904D01*
X162287976Y-124071428D01*
X162335595Y-123976190D01*
X162383214Y-123928571D01*
X162478452Y-123880952D01*
%TO.C,X19*%
X153811785Y-123452380D02*
X153145119Y-124452380D01*
X153145119Y-123452380D02*
X153811785Y-124452380D01*
X152240357Y-124452380D02*
X152811785Y-124452380D01*
X152526071Y-124452380D02*
X152526071Y-123452380D01*
X152621309Y-123595238D01*
X152716547Y-123690476D01*
X152811785Y-123738095D01*
X151764166Y-124452380D02*
X151573690Y-124452380D01*
X151478452Y-124404761D01*
X151430833Y-124357142D01*
X151335595Y-124214285D01*
X151287976Y-124023809D01*
X151287976Y-123642857D01*
X151335595Y-123547619D01*
X151383214Y-123500000D01*
X151478452Y-123452380D01*
X151668928Y-123452380D01*
X151764166Y-123500000D01*
X151811785Y-123547619D01*
X151859404Y-123642857D01*
X151859404Y-123880952D01*
X151811785Y-123976190D01*
X151764166Y-124023809D01*
X151668928Y-124071428D01*
X151478452Y-124071428D01*
X151383214Y-124023809D01*
X151335595Y-123976190D01*
X151287976Y-123880952D01*
%TO.C,X17*%
X120811785Y-101452380D02*
X120145119Y-102452380D01*
X120145119Y-101452380D02*
X120811785Y-102452380D01*
X119240357Y-102452380D02*
X119811785Y-102452380D01*
X119526071Y-102452380D02*
X119526071Y-101452380D01*
X119621309Y-101595238D01*
X119716547Y-101690476D01*
X119811785Y-101738095D01*
X118907023Y-101452380D02*
X118240357Y-101452380D01*
X118668928Y-102452380D01*
%TO.C,X16*%
X131811785Y-101452380D02*
X131145119Y-102452380D01*
X131145119Y-101452380D02*
X131811785Y-102452380D01*
X130240357Y-102452380D02*
X130811785Y-102452380D01*
X130526071Y-102452380D02*
X130526071Y-101452380D01*
X130621309Y-101595238D01*
X130716547Y-101690476D01*
X130811785Y-101738095D01*
X129383214Y-101452380D02*
X129573690Y-101452380D01*
X129668928Y-101500000D01*
X129716547Y-101547619D01*
X129811785Y-101690476D01*
X129859404Y-101880952D01*
X129859404Y-102261904D01*
X129811785Y-102357142D01*
X129764166Y-102404761D01*
X129668928Y-102452380D01*
X129478452Y-102452380D01*
X129383214Y-102404761D01*
X129335595Y-102357142D01*
X129287976Y-102261904D01*
X129287976Y-102023809D01*
X129335595Y-101928571D01*
X129383214Y-101880952D01*
X129478452Y-101833333D01*
X129668928Y-101833333D01*
X129764166Y-101880952D01*
X129811785Y-101928571D01*
X129859404Y-102023809D01*
%TO.C,REF\u002A\u002A*%
G36*
X143185268Y-113320158D02*
G01*
X143176689Y-113471594D01*
X143157833Y-113608283D01*
X143127837Y-113734276D01*
X143085836Y-113853625D01*
X143030969Y-113970381D01*
X142964167Y-114081179D01*
X142873363Y-114194739D01*
X142769708Y-114290211D01*
X142653887Y-114367073D01*
X142526586Y-114424797D01*
X142388489Y-114462858D01*
X142350793Y-114468666D01*
X142271752Y-114474396D01*
X142183629Y-114474583D01*
X142094236Y-114469539D01*
X142011384Y-114459578D01*
X141942887Y-114445012D01*
X141912035Y-114435364D01*
X141834730Y-114405123D01*
X141757679Y-114367617D01*
X141688200Y-114326614D01*
X141633615Y-114285879D01*
X141610916Y-114266505D01*
X141588201Y-114248662D01*
X141576779Y-114241778D01*
X141575537Y-114243424D01*
X141572728Y-114261205D01*
X141570776Y-114294370D01*
X141570045Y-114337733D01*
X141570045Y-114433689D01*
X140711896Y-114433689D01*
X140746161Y-114372974D01*
X140751355Y-114363868D01*
X140759715Y-114349249D01*
X140767288Y-114335173D01*
X140774112Y-114320540D01*
X140780227Y-114304249D01*
X140785673Y-114285198D01*
X140790487Y-114262286D01*
X140794708Y-114234413D01*
X140798377Y-114200478D01*
X140801531Y-114159379D01*
X140804211Y-114110015D01*
X140806454Y-114051286D01*
X140808299Y-113982090D01*
X140809787Y-113901326D01*
X140810955Y-113807894D01*
X140811678Y-113720721D01*
X141615200Y-113720721D01*
X141685756Y-113767089D01*
X141726417Y-113790791D01*
X141780546Y-113816639D01*
X141829689Y-113834829D01*
X141893165Y-113850551D01*
X141989331Y-113861541D01*
X142073900Y-113853365D01*
X142147219Y-113825805D01*
X142209637Y-113778642D01*
X142261502Y-113711658D01*
X142303160Y-113624633D01*
X142334962Y-113517350D01*
X142337545Y-113505009D01*
X142346000Y-113443772D01*
X142351663Y-113366692D01*
X142354576Y-113279002D01*
X142354783Y-113185934D01*
X142352330Y-113092720D01*
X142347261Y-113004594D01*
X142339619Y-112926788D01*
X142329448Y-112864533D01*
X142328167Y-112858666D01*
X142299126Y-112748121D01*
X142264610Y-112657575D01*
X142223456Y-112584953D01*
X142174499Y-112528181D01*
X142116574Y-112485184D01*
X142084620Y-112469615D01*
X142011784Y-112450722D01*
X141930443Y-112447465D01*
X141845319Y-112459389D01*
X141761133Y-112486040D01*
X141682608Y-112526962D01*
X141615200Y-112570530D01*
X141615200Y-113720721D01*
X140811678Y-113720721D01*
X140811844Y-113700692D01*
X140812491Y-113578620D01*
X140812936Y-113440576D01*
X140813218Y-113285459D01*
X140813375Y-113112168D01*
X140813448Y-112919603D01*
X140813474Y-112706662D01*
X140813493Y-112472245D01*
X140813689Y-110787378D01*
X141719017Y-110787378D01*
X141694585Y-110824067D01*
X141688318Y-110833647D01*
X141662208Y-110879981D01*
X141644469Y-110927102D01*
X141632908Y-110982251D01*
X141625331Y-111052667D01*
X141624839Y-111059650D01*
X141623062Y-111097641D01*
X141621444Y-111151576D01*
X141619999Y-111218703D01*
X141618740Y-111296271D01*
X141617680Y-111381528D01*
X141616829Y-111471724D01*
X141616203Y-111564107D01*
X141615812Y-111655925D01*
X141615670Y-111744427D01*
X141615790Y-111826862D01*
X141616183Y-111900479D01*
X141616862Y-111962526D01*
X141617841Y-112010251D01*
X141619132Y-112040904D01*
X141620747Y-112051733D01*
X141628957Y-112047333D01*
X141650647Y-112032362D01*
X141680014Y-112010448D01*
X141728879Y-111976236D01*
X141817125Y-111929714D01*
X141915916Y-111896046D01*
X142028510Y-111874231D01*
X142158164Y-111863265D01*
X142250670Y-111862219D01*
X142372011Y-111872014D01*
X142482099Y-111896174D01*
X142585389Y-111935785D01*
X142686338Y-111991932D01*
X142731503Y-112022883D01*
X142836911Y-112114115D01*
X142928538Y-112223106D01*
X143006332Y-112349726D01*
X143070241Y-112493845D01*
X143120214Y-112655332D01*
X143156198Y-112834059D01*
X143178143Y-113029895D01*
X143183900Y-113185934D01*
X143185994Y-113242711D01*
X143185268Y-113320158D01*
G37*
D11*
X143185268Y-113320158D02*
X143176689Y-113471594D01*
X143157833Y-113608283D01*
X143127837Y-113734276D01*
X143085836Y-113853625D01*
X143030969Y-113970381D01*
X142964167Y-114081179D01*
X142873363Y-114194739D01*
X142769708Y-114290211D01*
X142653887Y-114367073D01*
X142526586Y-114424797D01*
X142388489Y-114462858D01*
X142350793Y-114468666D01*
X142271752Y-114474396D01*
X142183629Y-114474583D01*
X142094236Y-114469539D01*
X142011384Y-114459578D01*
X141942887Y-114445012D01*
X141912035Y-114435364D01*
X141834730Y-114405123D01*
X141757679Y-114367617D01*
X141688200Y-114326614D01*
X141633615Y-114285879D01*
X141610916Y-114266505D01*
X141588201Y-114248662D01*
X141576779Y-114241778D01*
X141575537Y-114243424D01*
X141572728Y-114261205D01*
X141570776Y-114294370D01*
X141570045Y-114337733D01*
X141570045Y-114433689D01*
X140711896Y-114433689D01*
X140746161Y-114372974D01*
X140751355Y-114363868D01*
X140759715Y-114349249D01*
X140767288Y-114335173D01*
X140774112Y-114320540D01*
X140780227Y-114304249D01*
X140785673Y-114285198D01*
X140790487Y-114262286D01*
X140794708Y-114234413D01*
X140798377Y-114200478D01*
X140801531Y-114159379D01*
X140804211Y-114110015D01*
X140806454Y-114051286D01*
X140808299Y-113982090D01*
X140809787Y-113901326D01*
X140810955Y-113807894D01*
X140811678Y-113720721D01*
X141615200Y-113720721D01*
X141685756Y-113767089D01*
X141726417Y-113790791D01*
X141780546Y-113816639D01*
X141829689Y-113834829D01*
X141893165Y-113850551D01*
X141989331Y-113861541D01*
X142073900Y-113853365D01*
X142147219Y-113825805D01*
X142209637Y-113778642D01*
X142261502Y-113711658D01*
X142303160Y-113624633D01*
X142334962Y-113517350D01*
X142337545Y-113505009D01*
X142346000Y-113443772D01*
X142351663Y-113366692D01*
X142354576Y-113279002D01*
X142354783Y-113185934D01*
X142352330Y-113092720D01*
X142347261Y-113004594D01*
X142339619Y-112926788D01*
X142329448Y-112864533D01*
X142328167Y-112858666D01*
X142299126Y-112748121D01*
X142264610Y-112657575D01*
X142223456Y-112584953D01*
X142174499Y-112528181D01*
X142116574Y-112485184D01*
X142084620Y-112469615D01*
X142011784Y-112450722D01*
X141930443Y-112447465D01*
X141845319Y-112459389D01*
X141761133Y-112486040D01*
X141682608Y-112526962D01*
X141615200Y-112570530D01*
X141615200Y-113720721D01*
X140811678Y-113720721D01*
X140811844Y-113700692D01*
X140812491Y-113578620D01*
X140812936Y-113440576D01*
X140813218Y-113285459D01*
X140813375Y-113112168D01*
X140813448Y-112919603D01*
X140813474Y-112706662D01*
X140813493Y-112472245D01*
X140813689Y-110787378D01*
X141719017Y-110787378D01*
X141694585Y-110824067D01*
X141688318Y-110833647D01*
X141662208Y-110879981D01*
X141644469Y-110927102D01*
X141632908Y-110982251D01*
X141625331Y-111052667D01*
X141624839Y-111059650D01*
X141623062Y-111097641D01*
X141621444Y-111151576D01*
X141619999Y-111218703D01*
X141618740Y-111296271D01*
X141617680Y-111381528D01*
X141616829Y-111471724D01*
X141616203Y-111564107D01*
X141615812Y-111655925D01*
X141615670Y-111744427D01*
X141615790Y-111826862D01*
X141616183Y-111900479D01*
X141616862Y-111962526D01*
X141617841Y-112010251D01*
X141619132Y-112040904D01*
X141620747Y-112051733D01*
X141628957Y-112047333D01*
X141650647Y-112032362D01*
X141680014Y-112010448D01*
X141728879Y-111976236D01*
X141817125Y-111929714D01*
X141915916Y-111896046D01*
X142028510Y-111874231D01*
X142158164Y-111863265D01*
X142250670Y-111862219D01*
X142372011Y-111872014D01*
X142482099Y-111896174D01*
X142585389Y-111935785D01*
X142686338Y-111991932D01*
X142731503Y-112022883D01*
X142836911Y-112114115D01*
X142928538Y-112223106D01*
X143006332Y-112349726D01*
X143070241Y-112493845D01*
X143120214Y-112655332D01*
X143156198Y-112834059D01*
X143178143Y-113029895D01*
X143183900Y-113185934D01*
X143185994Y-113242711D01*
X143185268Y-113320158D01*
G36*
X142155767Y-115269068D02*
G01*
X142249890Y-115269158D01*
X142324405Y-115269498D01*
X142381811Y-115270239D01*
X142424611Y-115271535D01*
X142455304Y-115273537D01*
X142476391Y-115276396D01*
X142490373Y-115280266D01*
X142499750Y-115285298D01*
X142507022Y-115291645D01*
X142525828Y-115324362D01*
X142527275Y-115361939D01*
X142510917Y-115395178D01*
X142509557Y-115396631D01*
X142498354Y-115404992D01*
X142481252Y-115410547D01*
X142454082Y-115413840D01*
X142412678Y-115415418D01*
X142352873Y-115415822D01*
X142213511Y-115415822D01*
X142213511Y-115679589D01*
X142213436Y-115755417D01*
X142213028Y-115822083D01*
X142212046Y-115871867D01*
X142210250Y-115907784D01*
X142207399Y-115932850D01*
X142203253Y-115950081D01*
X142197571Y-115962492D01*
X142190114Y-115973100D01*
X142187824Y-115975906D01*
X142156646Y-115998548D01*
X142122266Y-116000112D01*
X142089334Y-115980267D01*
X142082355Y-115972191D01*
X142076883Y-115961593D01*
X142072863Y-115945749D01*
X142070072Y-115921773D01*
X142068288Y-115886774D01*
X142067289Y-115837864D01*
X142066852Y-115772154D01*
X142066756Y-115686756D01*
X142066756Y-115415822D01*
X141920820Y-115415822D01*
X141909720Y-115415821D01*
X141853202Y-115415596D01*
X141814358Y-115414457D01*
X141788965Y-115411657D01*
X141772804Y-115406450D01*
X141761652Y-115398089D01*
X141751289Y-115385826D01*
X141735441Y-115355138D01*
X141738543Y-115321358D01*
X141764187Y-115288822D01*
X141769129Y-115285105D01*
X141779338Y-115280269D01*
X141794764Y-115276506D01*
X141817886Y-115273683D01*
X141851183Y-115271670D01*
X141897137Y-115270333D01*
X141958228Y-115269542D01*
X142036935Y-115269163D01*
X142135740Y-115269067D01*
X142155767Y-115269068D01*
G37*
X142155767Y-115269068D02*
X142249890Y-115269158D01*
X142324405Y-115269498D01*
X142381811Y-115270239D01*
X142424611Y-115271535D01*
X142455304Y-115273537D01*
X142476391Y-115276396D01*
X142490373Y-115280266D01*
X142499750Y-115285298D01*
X142507022Y-115291645D01*
X142525828Y-115324362D01*
X142527275Y-115361939D01*
X142510917Y-115395178D01*
X142509557Y-115396631D01*
X142498354Y-115404992D01*
X142481252Y-115410547D01*
X142454082Y-115413840D01*
X142412678Y-115415418D01*
X142352873Y-115415822D01*
X142213511Y-115415822D01*
X142213511Y-115679589D01*
X142213436Y-115755417D01*
X142213028Y-115822083D01*
X142212046Y-115871867D01*
X142210250Y-115907784D01*
X142207399Y-115932850D01*
X142203253Y-115950081D01*
X142197571Y-115962492D01*
X142190114Y-115973100D01*
X142187824Y-115975906D01*
X142156646Y-115998548D01*
X142122266Y-116000112D01*
X142089334Y-115980267D01*
X142082355Y-115972191D01*
X142076883Y-115961593D01*
X142072863Y-115945749D01*
X142070072Y-115921773D01*
X142068288Y-115886774D01*
X142067289Y-115837864D01*
X142066852Y-115772154D01*
X142066756Y-115686756D01*
X142066756Y-115415822D01*
X141920820Y-115415822D01*
X141909720Y-115415821D01*
X141853202Y-115415596D01*
X141814358Y-115414457D01*
X141788965Y-115411657D01*
X141772804Y-115406450D01*
X141761652Y-115398089D01*
X141751289Y-115385826D01*
X141735441Y-115355138D01*
X141738543Y-115321358D01*
X141764187Y-115288822D01*
X141769129Y-115285105D01*
X141779338Y-115280269D01*
X141794764Y-115276506D01*
X141817886Y-115273683D01*
X141851183Y-115271670D01*
X141897137Y-115270333D01*
X141958228Y-115269542D01*
X142036935Y-115269163D01*
X142135740Y-115269067D01*
X142155767Y-115269068D01*
G36*
X153276870Y-115535041D02*
G01*
X153276622Y-115635956D01*
X153276583Y-115711617D01*
X153276328Y-115789526D01*
X153275684Y-115849536D01*
X153274480Y-115894264D01*
X153272543Y-115926326D01*
X153269703Y-115948340D01*
X153265788Y-115962924D01*
X153260626Y-115972694D01*
X153254045Y-115980267D01*
X153247077Y-115986501D01*
X153234079Y-115993801D01*
X153214931Y-115998554D01*
X153185528Y-116001292D01*
X153141762Y-116002545D01*
X153079528Y-116002845D01*
X153030582Y-116002469D01*
X152923722Y-115998041D01*
X152834494Y-115987953D01*
X152759696Y-115971365D01*
X152696125Y-115947435D01*
X152640579Y-115915321D01*
X152589854Y-115874182D01*
X152583866Y-115868330D01*
X152546999Y-115819821D01*
X152515899Y-115759013D01*
X152494417Y-115694769D01*
X152489136Y-115656026D01*
X152636353Y-115656026D01*
X152654635Y-115706961D01*
X152684305Y-115752878D01*
X152731002Y-115795287D01*
X152792392Y-115825090D01*
X152871538Y-115844226D01*
X152873028Y-115844464D01*
X152921999Y-115850256D01*
X152980693Y-115854396D01*
X153036734Y-115856004D01*
X153129867Y-115856089D01*
X153129867Y-115415822D01*
X153053667Y-115415808D01*
X153050639Y-115415817D01*
X152999519Y-115417782D01*
X152939416Y-115422507D01*
X152882708Y-115429035D01*
X152832750Y-115438331D01*
X152757998Y-115464600D01*
X152700489Y-115503899D01*
X152658988Y-115556933D01*
X152637771Y-115608200D01*
X152636353Y-115656026D01*
X152489136Y-115656026D01*
X152486400Y-115635956D01*
X152487679Y-115614739D01*
X152499991Y-115557323D01*
X152522520Y-115497413D01*
X152551750Y-115443363D01*
X152584167Y-115403532D01*
X152603708Y-115386510D01*
X152658420Y-115347322D01*
X152718723Y-115317193D01*
X152787919Y-115295232D01*
X152869311Y-115280550D01*
X152966200Y-115272259D01*
X153081889Y-115269467D01*
X153121371Y-115269066D01*
X153167082Y-115268653D01*
X153202883Y-115270457D01*
X153229974Y-115276739D01*
X153249556Y-115289759D01*
X153262830Y-115311778D01*
X153270998Y-115345055D01*
X153275260Y-115391851D01*
X153275857Y-115415822D01*
X153276817Y-115454427D01*
X153276870Y-115535041D01*
G37*
X153276870Y-115535041D02*
X153276622Y-115635956D01*
X153276583Y-115711617D01*
X153276328Y-115789526D01*
X153275684Y-115849536D01*
X153274480Y-115894264D01*
X153272543Y-115926326D01*
X153269703Y-115948340D01*
X153265788Y-115962924D01*
X153260626Y-115972694D01*
X153254045Y-115980267D01*
X153247077Y-115986501D01*
X153234079Y-115993801D01*
X153214931Y-115998554D01*
X153185528Y-116001292D01*
X153141762Y-116002545D01*
X153079528Y-116002845D01*
X153030582Y-116002469D01*
X152923722Y-115998041D01*
X152834494Y-115987953D01*
X152759696Y-115971365D01*
X152696125Y-115947435D01*
X152640579Y-115915321D01*
X152589854Y-115874182D01*
X152583866Y-115868330D01*
X152546999Y-115819821D01*
X152515899Y-115759013D01*
X152494417Y-115694769D01*
X152489136Y-115656026D01*
X152636353Y-115656026D01*
X152654635Y-115706961D01*
X152684305Y-115752878D01*
X152731002Y-115795287D01*
X152792392Y-115825090D01*
X152871538Y-115844226D01*
X152873028Y-115844464D01*
X152921999Y-115850256D01*
X152980693Y-115854396D01*
X153036734Y-115856004D01*
X153129867Y-115856089D01*
X153129867Y-115415822D01*
X153053667Y-115415808D01*
X153050639Y-115415817D01*
X152999519Y-115417782D01*
X152939416Y-115422507D01*
X152882708Y-115429035D01*
X152832750Y-115438331D01*
X152757998Y-115464600D01*
X152700489Y-115503899D01*
X152658988Y-115556933D01*
X152637771Y-115608200D01*
X152636353Y-115656026D01*
X152489136Y-115656026D01*
X152486400Y-115635956D01*
X152487679Y-115614739D01*
X152499991Y-115557323D01*
X152522520Y-115497413D01*
X152551750Y-115443363D01*
X152584167Y-115403532D01*
X152603708Y-115386510D01*
X152658420Y-115347322D01*
X152718723Y-115317193D01*
X152787919Y-115295232D01*
X152869311Y-115280550D01*
X152966200Y-115272259D01*
X153081889Y-115269467D01*
X153121371Y-115269066D01*
X153167082Y-115268653D01*
X153202883Y-115270457D01*
X153229974Y-115276739D01*
X153249556Y-115289759D01*
X153262830Y-115311778D01*
X153270998Y-115345055D01*
X153275260Y-115391851D01*
X153275857Y-115415822D01*
X153276817Y-115454427D01*
X153276870Y-115535041D01*
G36*
X143289702Y-115278478D02*
G01*
X143307663Y-115296989D01*
X143328263Y-115328071D01*
X143353095Y-115373756D01*
X143383750Y-115436078D01*
X143421820Y-115517071D01*
X143436454Y-115548454D01*
X143466203Y-115611638D01*
X143492297Y-115666244D01*
X143513292Y-115709290D01*
X143527739Y-115737793D01*
X143534191Y-115748770D01*
X143535550Y-115748189D01*
X143545542Y-115734242D01*
X143562833Y-115704704D01*
X143585430Y-115663087D01*
X143611338Y-115612903D01*
X143627311Y-115581414D01*
X143656261Y-115526061D01*
X143678749Y-115487044D01*
X143696965Y-115461566D01*
X143713096Y-115446831D01*
X143729330Y-115440042D01*
X143747857Y-115438400D01*
X143758360Y-115438875D01*
X143774476Y-115443082D01*
X143789790Y-115453946D01*
X143806388Y-115474219D01*
X143826357Y-115506654D01*
X143851783Y-115554004D01*
X143884752Y-115619022D01*
X143894485Y-115638277D01*
X143918943Y-115684946D01*
X143939178Y-115721109D01*
X143953311Y-115743497D01*
X143959460Y-115748845D01*
X143960827Y-115745573D01*
X143970202Y-115724664D01*
X143987062Y-115687725D01*
X144009979Y-115637874D01*
X144037520Y-115578226D01*
X144068255Y-115511898D01*
X144094970Y-115454677D01*
X144124593Y-115392688D01*
X144147664Y-115346949D01*
X144165643Y-115314908D01*
X144179990Y-115294014D01*
X144192166Y-115281718D01*
X144203632Y-115275466D01*
X144213042Y-115272574D01*
X144238147Y-115272425D01*
X144265290Y-115287768D01*
X144266590Y-115288753D01*
X144288674Y-115311388D01*
X144299723Y-115333613D01*
X144299769Y-115334253D01*
X144295228Y-115351915D01*
X144282364Y-115386481D01*
X144262605Y-115434826D01*
X144237381Y-115493825D01*
X144208119Y-115560355D01*
X144176250Y-115631291D01*
X144143201Y-115703507D01*
X144110401Y-115773880D01*
X144079280Y-115839285D01*
X144051265Y-115896597D01*
X144027786Y-115942692D01*
X144010272Y-115974446D01*
X144000151Y-115988733D01*
X143965743Y-116002102D01*
X143924046Y-115995741D01*
X143918681Y-115991044D01*
X143902852Y-115968893D01*
X143880650Y-115932132D01*
X143854233Y-115884415D01*
X143825760Y-115829393D01*
X143745986Y-115670150D01*
X143672799Y-115816742D01*
X143663103Y-115836032D01*
X143636125Y-115888380D01*
X143612096Y-115933170D01*
X143593332Y-115966154D01*
X143582146Y-115983089D01*
X143581000Y-115984332D01*
X143552879Y-115999619D01*
X143517817Y-116001302D01*
X143486776Y-115988733D01*
X143484350Y-115985884D01*
X143472090Y-115965259D01*
X143452352Y-115927708D01*
X143426448Y-115875880D01*
X143395685Y-115812423D01*
X143361375Y-115739985D01*
X143324825Y-115661216D01*
X143304585Y-115617093D01*
X143267812Y-115536365D01*
X143239355Y-115472687D01*
X143218331Y-115423752D01*
X143203854Y-115387257D01*
X143195039Y-115360895D01*
X143191004Y-115342361D01*
X143190862Y-115329352D01*
X143193730Y-115319561D01*
X143208387Y-115298678D01*
X143234990Y-115278377D01*
X143235745Y-115278035D01*
X143255335Y-115271034D01*
X143272790Y-115270504D01*
X143289702Y-115278478D01*
G37*
X143289702Y-115278478D02*
X143307663Y-115296989D01*
X143328263Y-115328071D01*
X143353095Y-115373756D01*
X143383750Y-115436078D01*
X143421820Y-115517071D01*
X143436454Y-115548454D01*
X143466203Y-115611638D01*
X143492297Y-115666244D01*
X143513292Y-115709290D01*
X143527739Y-115737793D01*
X143534191Y-115748770D01*
X143535550Y-115748189D01*
X143545542Y-115734242D01*
X143562833Y-115704704D01*
X143585430Y-115663087D01*
X143611338Y-115612903D01*
X143627311Y-115581414D01*
X143656261Y-115526061D01*
X143678749Y-115487044D01*
X143696965Y-115461566D01*
X143713096Y-115446831D01*
X143729330Y-115440042D01*
X143747857Y-115438400D01*
X143758360Y-115438875D01*
X143774476Y-115443082D01*
X143789790Y-115453946D01*
X143806388Y-115474219D01*
X143826357Y-115506654D01*
X143851783Y-115554004D01*
X143884752Y-115619022D01*
X143894485Y-115638277D01*
X143918943Y-115684946D01*
X143939178Y-115721109D01*
X143953311Y-115743497D01*
X143959460Y-115748845D01*
X143960827Y-115745573D01*
X143970202Y-115724664D01*
X143987062Y-115687725D01*
X144009979Y-115637874D01*
X144037520Y-115578226D01*
X144068255Y-115511898D01*
X144094970Y-115454677D01*
X144124593Y-115392688D01*
X144147664Y-115346949D01*
X144165643Y-115314908D01*
X144179990Y-115294014D01*
X144192166Y-115281718D01*
X144203632Y-115275466D01*
X144213042Y-115272574D01*
X144238147Y-115272425D01*
X144265290Y-115287768D01*
X144266590Y-115288753D01*
X144288674Y-115311388D01*
X144299723Y-115333613D01*
X144299769Y-115334253D01*
X144295228Y-115351915D01*
X144282364Y-115386481D01*
X144262605Y-115434826D01*
X144237381Y-115493825D01*
X144208119Y-115560355D01*
X144176250Y-115631291D01*
X144143201Y-115703507D01*
X144110401Y-115773880D01*
X144079280Y-115839285D01*
X144051265Y-115896597D01*
X144027786Y-115942692D01*
X144010272Y-115974446D01*
X144000151Y-115988733D01*
X143965743Y-116002102D01*
X143924046Y-115995741D01*
X143918681Y-115991044D01*
X143902852Y-115968893D01*
X143880650Y-115932132D01*
X143854233Y-115884415D01*
X143825760Y-115829393D01*
X143745986Y-115670150D01*
X143672799Y-115816742D01*
X143663103Y-115836032D01*
X143636125Y-115888380D01*
X143612096Y-115933170D01*
X143593332Y-115966154D01*
X143582146Y-115983089D01*
X143581000Y-115984332D01*
X143552879Y-115999619D01*
X143517817Y-116001302D01*
X143486776Y-115988733D01*
X143484350Y-115985884D01*
X143472090Y-115965259D01*
X143452352Y-115927708D01*
X143426448Y-115875880D01*
X143395685Y-115812423D01*
X143361375Y-115739985D01*
X143324825Y-115661216D01*
X143304585Y-115617093D01*
X143267812Y-115536365D01*
X143239355Y-115472687D01*
X143218331Y-115423752D01*
X143203854Y-115387257D01*
X143195039Y-115360895D01*
X143191004Y-115342361D01*
X143190862Y-115329352D01*
X143193730Y-115319561D01*
X143208387Y-115298678D01*
X143234990Y-115278377D01*
X143235745Y-115278035D01*
X143255335Y-115271034D01*
X143272790Y-115270504D01*
X143289702Y-115278478D01*
G36*
X153276059Y-111243011D02*
G01*
X153276362Y-111390216D01*
X153276548Y-111554349D01*
X153276642Y-111736352D01*
X153276671Y-111937165D01*
X153276661Y-112157732D01*
X153276636Y-112398992D01*
X153276622Y-112661889D01*
X153276622Y-112704040D01*
X153276646Y-112964668D01*
X153276685Y-113203796D01*
X153276708Y-113422360D01*
X153276687Y-113621295D01*
X153276593Y-113801535D01*
X153276395Y-113964015D01*
X153276063Y-114109670D01*
X153275569Y-114239434D01*
X153274883Y-114354243D01*
X153273976Y-114455030D01*
X153272817Y-114542730D01*
X153271378Y-114618279D01*
X153269629Y-114682611D01*
X153267540Y-114736661D01*
X153265083Y-114781363D01*
X153262227Y-114817652D01*
X153258943Y-114846463D01*
X153255202Y-114868731D01*
X153250974Y-114885390D01*
X153246229Y-114897375D01*
X153240939Y-114905621D01*
X153235073Y-114911062D01*
X153228602Y-114914634D01*
X153221497Y-114917270D01*
X153213728Y-114919906D01*
X153205266Y-114923477D01*
X153200908Y-114925145D01*
X153192395Y-114927111D01*
X153179694Y-114928911D01*
X153161885Y-114930555D01*
X153138049Y-114932047D01*
X153107266Y-114933397D01*
X153068617Y-114934611D01*
X153021182Y-114935697D01*
X152964043Y-114936661D01*
X152896279Y-114937511D01*
X152816971Y-114938253D01*
X152725199Y-114938897D01*
X152620044Y-114939447D01*
X152500587Y-114939913D01*
X152365908Y-114940300D01*
X152215088Y-114940616D01*
X152047206Y-114940869D01*
X151861345Y-114941066D01*
X151656583Y-114941213D01*
X151432002Y-114941318D01*
X151186682Y-114941389D01*
X150919704Y-114941432D01*
X150881321Y-114941437D01*
X150615922Y-114941480D01*
X150372050Y-114941525D01*
X150148783Y-114941548D01*
X149945196Y-114941524D01*
X149760367Y-114941430D01*
X149593373Y-114941243D01*
X149443290Y-114940939D01*
X149309196Y-114940494D01*
X149190166Y-114939885D01*
X149085279Y-114939089D01*
X148993610Y-114938080D01*
X148914237Y-114936837D01*
X148846237Y-114935335D01*
X148788686Y-114933551D01*
X148740662Y-114931461D01*
X148701240Y-114929042D01*
X148669499Y-114926270D01*
X148644514Y-114923121D01*
X148625364Y-114919572D01*
X148611123Y-114915598D01*
X148600871Y-114911178D01*
X148593682Y-114906286D01*
X148588635Y-114900900D01*
X148584805Y-114894996D01*
X148581271Y-114888549D01*
X148577108Y-114881537D01*
X148576025Y-114879687D01*
X148573813Y-114874180D01*
X148571786Y-114865868D01*
X148569938Y-114853809D01*
X148568261Y-114837063D01*
X148566745Y-114814687D01*
X148565383Y-114785740D01*
X148564167Y-114749280D01*
X148563089Y-114704367D01*
X148562140Y-114650057D01*
X148561312Y-114585410D01*
X148560597Y-114509484D01*
X148559987Y-114421338D01*
X148559942Y-114412493D01*
X148851378Y-114412493D01*
X148855260Y-114413765D01*
X148878520Y-114415791D01*
X148920874Y-114417626D01*
X148980132Y-114419227D01*
X149054107Y-114420549D01*
X149140610Y-114421548D01*
X149237452Y-114422180D01*
X149342445Y-114422400D01*
X150040651Y-114422400D01*
X151195090Y-114422400D01*
X151194456Y-114346200D01*
X151195574Y-114304160D01*
X151201304Y-114268334D01*
X151213890Y-114230772D01*
X151235568Y-114182577D01*
X151238789Y-114175897D01*
X151264188Y-114126359D01*
X151290996Y-114078369D01*
X151313917Y-114041466D01*
X151318485Y-114034834D01*
X151340516Y-114003593D01*
X151372693Y-113958654D01*
X151413457Y-113902147D01*
X151461245Y-113836204D01*
X151514498Y-113762957D01*
X151571655Y-113684536D01*
X151631155Y-113603072D01*
X151691437Y-113520698D01*
X151750940Y-113439544D01*
X151808105Y-113361742D01*
X151861370Y-113289423D01*
X151909174Y-113224718D01*
X151949957Y-113169759D01*
X151982158Y-113126676D01*
X152004216Y-113097602D01*
X152014571Y-113084667D01*
X152019044Y-113080351D01*
X152023236Y-113078312D01*
X152026643Y-113080926D01*
X152029325Y-113089986D01*
X152031341Y-113107285D01*
X152032748Y-113134614D01*
X152033605Y-113173765D01*
X152033970Y-113226533D01*
X152033903Y-113294707D01*
X152033460Y-113380082D01*
X152032702Y-113484449D01*
X152031685Y-113609600D01*
X152031308Y-113654300D01*
X152030169Y-113775395D01*
X152028972Y-113876688D01*
X152027636Y-113960262D01*
X152026077Y-114028204D01*
X152024215Y-114082599D01*
X152021966Y-114125532D01*
X152019248Y-114159089D01*
X152015979Y-114185355D01*
X152012078Y-114206416D01*
X152007461Y-114224357D01*
X151999192Y-114250770D01*
X151975583Y-114312772D01*
X151949685Y-114365573D01*
X151924535Y-114402645D01*
X151923339Y-114404075D01*
X151921168Y-114408424D01*
X151923328Y-114412026D01*
X151931644Y-114414951D01*
X151947940Y-114417269D01*
X151974041Y-114419051D01*
X152011771Y-114420367D01*
X152062956Y-114421286D01*
X152129420Y-114421878D01*
X152212987Y-114422215D01*
X152315483Y-114422365D01*
X152438732Y-114422400D01*
X152970296Y-114422400D01*
X152931523Y-114364783D01*
X152925432Y-114355893D01*
X152914976Y-114341069D01*
X152905579Y-114327422D01*
X152897183Y-114313765D01*
X152889733Y-114298911D01*
X152883173Y-114281670D01*
X152877446Y-114260855D01*
X152872495Y-114235280D01*
X152868266Y-114203755D01*
X152864701Y-114165093D01*
X152861744Y-114118107D01*
X152859340Y-114061608D01*
X152857431Y-113994409D01*
X152855962Y-113915322D01*
X152854876Y-113823160D01*
X152854118Y-113716734D01*
X152853630Y-113594857D01*
X152853358Y-113456341D01*
X152853243Y-113299999D01*
X152853231Y-113124642D01*
X152853265Y-112929082D01*
X152853289Y-112712133D01*
X152853280Y-112589513D01*
X152853243Y-112384447D01*
X152853227Y-112200116D01*
X152853288Y-112035334D01*
X152853484Y-111888916D01*
X152853870Y-111759674D01*
X152854505Y-111646422D01*
X152855444Y-111547975D01*
X152856745Y-111463144D01*
X152858464Y-111390744D01*
X152860659Y-111329589D01*
X152863385Y-111278492D01*
X152866701Y-111236267D01*
X152870662Y-111201727D01*
X152875325Y-111173686D01*
X152880747Y-111150958D01*
X152886986Y-111132356D01*
X152894097Y-111116693D01*
X152902138Y-111102784D01*
X152911166Y-111089441D01*
X152921236Y-111075479D01*
X152932407Y-111059711D01*
X152972197Y-111001867D01*
X151912314Y-111001867D01*
X151950311Y-111064966D01*
X151964993Y-111090005D01*
X151979531Y-111117586D01*
X151991627Y-111145700D01*
X152001532Y-111176551D01*
X152009494Y-111212344D01*
X152015761Y-111255283D01*
X152020582Y-111307574D01*
X152024206Y-111371419D01*
X152026881Y-111449025D01*
X152028857Y-111542594D01*
X152030382Y-111654333D01*
X152031704Y-111786445D01*
X152032613Y-111906434D01*
X152033020Y-112023063D01*
X152032767Y-112118531D01*
X152031857Y-112192556D01*
X152030293Y-112244855D01*
X152028079Y-112275149D01*
X152025220Y-112283156D01*
X152022161Y-112279858D01*
X152004006Y-112258408D01*
X151974275Y-112221889D01*
X151934639Y-112172442D01*
X151886771Y-112112207D01*
X151832343Y-112043327D01*
X151773027Y-111967943D01*
X151710495Y-111888196D01*
X151646421Y-111806228D01*
X151582475Y-111724180D01*
X151520331Y-111644194D01*
X151461661Y-111568411D01*
X151408137Y-111498973D01*
X151361430Y-111438021D01*
X151323214Y-111387696D01*
X151295161Y-111350140D01*
X151278943Y-111327495D01*
X151233635Y-111255212D01*
X151193661Y-111175463D01*
X151172130Y-111107188D01*
X151168827Y-111049844D01*
X151174116Y-111001867D01*
X150042356Y-111002117D01*
X150081867Y-111032722D01*
X150091248Y-111040089D01*
X150154183Y-111094438D01*
X150222997Y-111162259D01*
X150299596Y-111245516D01*
X150385888Y-111346178D01*
X150403052Y-111366847D01*
X150443833Y-111416409D01*
X150493588Y-111477326D01*
X150550955Y-111547898D01*
X150614569Y-111626424D01*
X150683069Y-111711204D01*
X150755090Y-111800537D01*
X150829270Y-111892722D01*
X150844517Y-111911702D01*
X150904246Y-111986060D01*
X150978653Y-112078848D01*
X151051131Y-112169388D01*
X151120314Y-112255978D01*
X151184841Y-112336918D01*
X151243347Y-112410506D01*
X151294470Y-112475044D01*
X151336847Y-112528829D01*
X151369115Y-112570162D01*
X151389910Y-112597342D01*
X151397869Y-112608668D01*
X151396111Y-112612771D01*
X151383230Y-112633334D01*
X151358885Y-112669561D01*
X151324247Y-112719824D01*
X151280486Y-112782492D01*
X151228775Y-112855936D01*
X151170284Y-112938527D01*
X151106184Y-113028636D01*
X151037646Y-113124631D01*
X150965843Y-113224885D01*
X150891944Y-113327768D01*
X150817121Y-113431650D01*
X150742545Y-113534901D01*
X150669387Y-113635892D01*
X150598819Y-113732994D01*
X150532011Y-113824577D01*
X150470135Y-113909011D01*
X150414361Y-113984667D01*
X150365862Y-114049916D01*
X150325807Y-114103128D01*
X150295369Y-114142673D01*
X150274944Y-114168026D01*
X150228899Y-114222295D01*
X150178612Y-114278775D01*
X150131815Y-114328669D01*
X150040651Y-114422400D01*
X149342445Y-114422400D01*
X149411356Y-114422349D01*
X149509607Y-114422091D01*
X149599030Y-114421637D01*
X149677333Y-114421010D01*
X149742223Y-114420235D01*
X149791411Y-114419335D01*
X149822604Y-114418334D01*
X149833511Y-114417257D01*
X149832322Y-114414037D01*
X149822176Y-114396452D01*
X149805040Y-114370158D01*
X149796540Y-114357691D01*
X149787329Y-114343622D01*
X149779233Y-114329351D01*
X149772185Y-114313479D01*
X149766117Y-114294609D01*
X149760961Y-114271341D01*
X149756651Y-114242278D01*
X149753119Y-114206021D01*
X149750297Y-114161170D01*
X149748118Y-114106328D01*
X149746514Y-114040097D01*
X149745419Y-113961077D01*
X149744765Y-113867871D01*
X149744484Y-113759079D01*
X149744509Y-113633303D01*
X149744772Y-113489145D01*
X149745206Y-113325207D01*
X149745745Y-113140089D01*
X149746279Y-112961232D01*
X149746805Y-112802374D01*
X149747350Y-112663316D01*
X149747945Y-112542665D01*
X149748619Y-112439028D01*
X149749403Y-112351011D01*
X149750326Y-112277223D01*
X149751419Y-112216269D01*
X149752712Y-112166757D01*
X149754235Y-112127293D01*
X149756019Y-112096484D01*
X149758092Y-112072938D01*
X149760486Y-112055260D01*
X149763230Y-112042059D01*
X149766356Y-112031940D01*
X149769892Y-112023511D01*
X149773791Y-112015375D01*
X149793438Y-111978544D01*
X149812225Y-111948391D01*
X149813272Y-111946908D01*
X149827602Y-111924659D01*
X149833511Y-111911702D01*
X149832504Y-111911249D01*
X149815305Y-111909803D01*
X149778656Y-111908480D01*
X149724962Y-111907316D01*
X149656630Y-111906347D01*
X149576064Y-111905611D01*
X149485670Y-111905142D01*
X149387853Y-111904978D01*
X148942195Y-111904978D01*
X148939120Y-113081845D01*
X148936045Y-114258711D01*
X148909407Y-114317622D01*
X148897485Y-114342183D01*
X148880246Y-114372434D01*
X148867074Y-114389560D01*
X148859076Y-114397591D01*
X148851378Y-114412493D01*
X148559942Y-114412493D01*
X148559474Y-114320029D01*
X148559050Y-114204617D01*
X148558706Y-114074160D01*
X148558434Y-113927716D01*
X148558227Y-113764344D01*
X148558076Y-113583101D01*
X148557972Y-113383048D01*
X148557908Y-113163241D01*
X148557876Y-112922739D01*
X148557867Y-112660602D01*
X148557867Y-110469031D01*
X148596249Y-110430649D01*
X148623355Y-110406911D01*
X148650253Y-110395111D01*
X148686560Y-110392267D01*
X148738489Y-110392267D01*
X148738489Y-110480206D01*
X148740427Y-110530102D01*
X148759199Y-110640523D01*
X148796217Y-110741987D01*
X148849369Y-110833152D01*
X148916546Y-110912673D01*
X148995638Y-110979205D01*
X149084534Y-111031406D01*
X149181125Y-111067930D01*
X149283300Y-111087434D01*
X149388950Y-111088573D01*
X149495964Y-111070005D01*
X149602232Y-111030384D01*
X149699219Y-110972516D01*
X149784293Y-110897684D01*
X149853015Y-110809615D01*
X149903918Y-110710616D01*
X149935535Y-110602993D01*
X149946400Y-110489054D01*
X149946400Y-110392267D01*
X151566753Y-110392267D01*
X151777897Y-110392280D01*
X151982020Y-110392330D01*
X152165686Y-110392430D01*
X152329991Y-110392592D01*
X152476029Y-110392829D01*
X152604894Y-110393153D01*
X152717683Y-110393575D01*
X152815488Y-110394109D01*
X152899404Y-110394767D01*
X152970527Y-110395561D01*
X153029950Y-110396504D01*
X153078768Y-110397608D01*
X153118077Y-110398884D01*
X153148969Y-110400347D01*
X153172541Y-110402007D01*
X153189886Y-110403878D01*
X153202099Y-110405972D01*
X153210275Y-110408300D01*
X153215508Y-110410876D01*
X153221504Y-110414445D01*
X153228279Y-110417978D01*
X153234478Y-110421488D01*
X153240126Y-110425918D01*
X153245247Y-110432208D01*
X153249869Y-110441301D01*
X153254015Y-110454139D01*
X153257713Y-110471662D01*
X153260987Y-110494813D01*
X153263863Y-110524534D01*
X153266367Y-110561765D01*
X153268524Y-110607449D01*
X153270360Y-110662527D01*
X153271900Y-110727941D01*
X153273170Y-110804633D01*
X153274195Y-110893544D01*
X153275001Y-110995617D01*
X153275034Y-111001867D01*
X153275614Y-111111792D01*
X153276059Y-111243011D01*
G37*
X153276059Y-111243011D02*
X153276362Y-111390216D01*
X153276548Y-111554349D01*
X153276642Y-111736352D01*
X153276671Y-111937165D01*
X153276661Y-112157732D01*
X153276636Y-112398992D01*
X153276622Y-112661889D01*
X153276622Y-112704040D01*
X153276646Y-112964668D01*
X153276685Y-113203796D01*
X153276708Y-113422360D01*
X153276687Y-113621295D01*
X153276593Y-113801535D01*
X153276395Y-113964015D01*
X153276063Y-114109670D01*
X153275569Y-114239434D01*
X153274883Y-114354243D01*
X153273976Y-114455030D01*
X153272817Y-114542730D01*
X153271378Y-114618279D01*
X153269629Y-114682611D01*
X153267540Y-114736661D01*
X153265083Y-114781363D01*
X153262227Y-114817652D01*
X153258943Y-114846463D01*
X153255202Y-114868731D01*
X153250974Y-114885390D01*
X153246229Y-114897375D01*
X153240939Y-114905621D01*
X153235073Y-114911062D01*
X153228602Y-114914634D01*
X153221497Y-114917270D01*
X153213728Y-114919906D01*
X153205266Y-114923477D01*
X153200908Y-114925145D01*
X153192395Y-114927111D01*
X153179694Y-114928911D01*
X153161885Y-114930555D01*
X153138049Y-114932047D01*
X153107266Y-114933397D01*
X153068617Y-114934611D01*
X153021182Y-114935697D01*
X152964043Y-114936661D01*
X152896279Y-114937511D01*
X152816971Y-114938253D01*
X152725199Y-114938897D01*
X152620044Y-114939447D01*
X152500587Y-114939913D01*
X152365908Y-114940300D01*
X152215088Y-114940616D01*
X152047206Y-114940869D01*
X151861345Y-114941066D01*
X151656583Y-114941213D01*
X151432002Y-114941318D01*
X151186682Y-114941389D01*
X150919704Y-114941432D01*
X150881321Y-114941437D01*
X150615922Y-114941480D01*
X150372050Y-114941525D01*
X150148783Y-114941548D01*
X149945196Y-114941524D01*
X149760367Y-114941430D01*
X149593373Y-114941243D01*
X149443290Y-114940939D01*
X149309196Y-114940494D01*
X149190166Y-114939885D01*
X149085279Y-114939089D01*
X148993610Y-114938080D01*
X148914237Y-114936837D01*
X148846237Y-114935335D01*
X148788686Y-114933551D01*
X148740662Y-114931461D01*
X148701240Y-114929042D01*
X148669499Y-114926270D01*
X148644514Y-114923121D01*
X148625364Y-114919572D01*
X148611123Y-114915598D01*
X148600871Y-114911178D01*
X148593682Y-114906286D01*
X148588635Y-114900900D01*
X148584805Y-114894996D01*
X148581271Y-114888549D01*
X148577108Y-114881537D01*
X148576025Y-114879687D01*
X148573813Y-114874180D01*
X148571786Y-114865868D01*
X148569938Y-114853809D01*
X148568261Y-114837063D01*
X148566745Y-114814687D01*
X148565383Y-114785740D01*
X148564167Y-114749280D01*
X148563089Y-114704367D01*
X148562140Y-114650057D01*
X148561312Y-114585410D01*
X148560597Y-114509484D01*
X148559987Y-114421338D01*
X148559942Y-114412493D01*
X148851378Y-114412493D01*
X148855260Y-114413765D01*
X148878520Y-114415791D01*
X148920874Y-114417626D01*
X148980132Y-114419227D01*
X149054107Y-114420549D01*
X149140610Y-114421548D01*
X149237452Y-114422180D01*
X149342445Y-114422400D01*
X150040651Y-114422400D01*
X151195090Y-114422400D01*
X151194456Y-114346200D01*
X151195574Y-114304160D01*
X151201304Y-114268334D01*
X151213890Y-114230772D01*
X151235568Y-114182577D01*
X151238789Y-114175897D01*
X151264188Y-114126359D01*
X151290996Y-114078369D01*
X151313917Y-114041466D01*
X151318485Y-114034834D01*
X151340516Y-114003593D01*
X151372693Y-113958654D01*
X151413457Y-113902147D01*
X151461245Y-113836204D01*
X151514498Y-113762957D01*
X151571655Y-113684536D01*
X151631155Y-113603072D01*
X151691437Y-113520698D01*
X151750940Y-113439544D01*
X151808105Y-113361742D01*
X151861370Y-113289423D01*
X151909174Y-113224718D01*
X151949957Y-113169759D01*
X151982158Y-113126676D01*
X152004216Y-113097602D01*
X152014571Y-113084667D01*
X152019044Y-113080351D01*
X152023236Y-113078312D01*
X152026643Y-113080926D01*
X152029325Y-113089986D01*
X152031341Y-113107285D01*
X152032748Y-113134614D01*
X152033605Y-113173765D01*
X152033970Y-113226533D01*
X152033903Y-113294707D01*
X152033460Y-113380082D01*
X152032702Y-113484449D01*
X152031685Y-113609600D01*
X152031308Y-113654300D01*
X152030169Y-113775395D01*
X152028972Y-113876688D01*
X152027636Y-113960262D01*
X152026077Y-114028204D01*
X152024215Y-114082599D01*
X152021966Y-114125532D01*
X152019248Y-114159089D01*
X152015979Y-114185355D01*
X152012078Y-114206416D01*
X152007461Y-114224357D01*
X151999192Y-114250770D01*
X151975583Y-114312772D01*
X151949685Y-114365573D01*
X151924535Y-114402645D01*
X151923339Y-114404075D01*
X151921168Y-114408424D01*
X151923328Y-114412026D01*
X151931644Y-114414951D01*
X151947940Y-114417269D01*
X151974041Y-114419051D01*
X152011771Y-114420367D01*
X152062956Y-114421286D01*
X152129420Y-114421878D01*
X152212987Y-114422215D01*
X152315483Y-114422365D01*
X152438732Y-114422400D01*
X152970296Y-114422400D01*
X152931523Y-114364783D01*
X152925432Y-114355893D01*
X152914976Y-114341069D01*
X152905579Y-114327422D01*
X152897183Y-114313765D01*
X152889733Y-114298911D01*
X152883173Y-114281670D01*
X152877446Y-114260855D01*
X152872495Y-114235280D01*
X152868266Y-114203755D01*
X152864701Y-114165093D01*
X152861744Y-114118107D01*
X152859340Y-114061608D01*
X152857431Y-113994409D01*
X152855962Y-113915322D01*
X152854876Y-113823160D01*
X152854118Y-113716734D01*
X152853630Y-113594857D01*
X152853358Y-113456341D01*
X152853243Y-113299999D01*
X152853231Y-113124642D01*
X152853265Y-112929082D01*
X152853289Y-112712133D01*
X152853280Y-112589513D01*
X152853243Y-112384447D01*
X152853227Y-112200116D01*
X152853288Y-112035334D01*
X152853484Y-111888916D01*
X152853870Y-111759674D01*
X152854505Y-111646422D01*
X152855444Y-111547975D01*
X152856745Y-111463144D01*
X152858464Y-111390744D01*
X152860659Y-111329589D01*
X152863385Y-111278492D01*
X152866701Y-111236267D01*
X152870662Y-111201727D01*
X152875325Y-111173686D01*
X152880747Y-111150958D01*
X152886986Y-111132356D01*
X152894097Y-111116693D01*
X152902138Y-111102784D01*
X152911166Y-111089441D01*
X152921236Y-111075479D01*
X152932407Y-111059711D01*
X152972197Y-111001867D01*
X151912314Y-111001867D01*
X151950311Y-111064966D01*
X151964993Y-111090005D01*
X151979531Y-111117586D01*
X151991627Y-111145700D01*
X152001532Y-111176551D01*
X152009494Y-111212344D01*
X152015761Y-111255283D01*
X152020582Y-111307574D01*
X152024206Y-111371419D01*
X152026881Y-111449025D01*
X152028857Y-111542594D01*
X152030382Y-111654333D01*
X152031704Y-111786445D01*
X152032613Y-111906434D01*
X152033020Y-112023063D01*
X152032767Y-112118531D01*
X152031857Y-112192556D01*
X152030293Y-112244855D01*
X152028079Y-112275149D01*
X152025220Y-112283156D01*
X152022161Y-112279858D01*
X152004006Y-112258408D01*
X151974275Y-112221889D01*
X151934639Y-112172442D01*
X151886771Y-112112207D01*
X151832343Y-112043327D01*
X151773027Y-111967943D01*
X151710495Y-111888196D01*
X151646421Y-111806228D01*
X151582475Y-111724180D01*
X151520331Y-111644194D01*
X151461661Y-111568411D01*
X151408137Y-111498973D01*
X151361430Y-111438021D01*
X151323214Y-111387696D01*
X151295161Y-111350140D01*
X151278943Y-111327495D01*
X151233635Y-111255212D01*
X151193661Y-111175463D01*
X151172130Y-111107188D01*
X151168827Y-111049844D01*
X151174116Y-111001867D01*
X150042356Y-111002117D01*
X150081867Y-111032722D01*
X150091248Y-111040089D01*
X150154183Y-111094438D01*
X150222997Y-111162259D01*
X150299596Y-111245516D01*
X150385888Y-111346178D01*
X150403052Y-111366847D01*
X150443833Y-111416409D01*
X150493588Y-111477326D01*
X150550955Y-111547898D01*
X150614569Y-111626424D01*
X150683069Y-111711204D01*
X150755090Y-111800537D01*
X150829270Y-111892722D01*
X150844517Y-111911702D01*
X150904246Y-111986060D01*
X150978653Y-112078848D01*
X151051131Y-112169388D01*
X151120314Y-112255978D01*
X151184841Y-112336918D01*
X151243347Y-112410506D01*
X151294470Y-112475044D01*
X151336847Y-112528829D01*
X151369115Y-112570162D01*
X151389910Y-112597342D01*
X151397869Y-112608668D01*
X151396111Y-112612771D01*
X151383230Y-112633334D01*
X151358885Y-112669561D01*
X151324247Y-112719824D01*
X151280486Y-112782492D01*
X151228775Y-112855936D01*
X151170284Y-112938527D01*
X151106184Y-113028636D01*
X151037646Y-113124631D01*
X150965843Y-113224885D01*
X150891944Y-113327768D01*
X150817121Y-113431650D01*
X150742545Y-113534901D01*
X150669387Y-113635892D01*
X150598819Y-113732994D01*
X150532011Y-113824577D01*
X150470135Y-113909011D01*
X150414361Y-113984667D01*
X150365862Y-114049916D01*
X150325807Y-114103128D01*
X150295369Y-114142673D01*
X150274944Y-114168026D01*
X150228899Y-114222295D01*
X150178612Y-114278775D01*
X150131815Y-114328669D01*
X150040651Y-114422400D01*
X149342445Y-114422400D01*
X149411356Y-114422349D01*
X149509607Y-114422091D01*
X149599030Y-114421637D01*
X149677333Y-114421010D01*
X149742223Y-114420235D01*
X149791411Y-114419335D01*
X149822604Y-114418334D01*
X149833511Y-114417257D01*
X149832322Y-114414037D01*
X149822176Y-114396452D01*
X149805040Y-114370158D01*
X149796540Y-114357691D01*
X149787329Y-114343622D01*
X149779233Y-114329351D01*
X149772185Y-114313479D01*
X149766117Y-114294609D01*
X149760961Y-114271341D01*
X149756651Y-114242278D01*
X149753119Y-114206021D01*
X149750297Y-114161170D01*
X149748118Y-114106328D01*
X149746514Y-114040097D01*
X149745419Y-113961077D01*
X149744765Y-113867871D01*
X149744484Y-113759079D01*
X149744509Y-113633303D01*
X149744772Y-113489145D01*
X149745206Y-113325207D01*
X149745745Y-113140089D01*
X149746279Y-112961232D01*
X149746805Y-112802374D01*
X149747350Y-112663316D01*
X149747945Y-112542665D01*
X149748619Y-112439028D01*
X149749403Y-112351011D01*
X149750326Y-112277223D01*
X149751419Y-112216269D01*
X149752712Y-112166757D01*
X149754235Y-112127293D01*
X149756019Y-112096484D01*
X149758092Y-112072938D01*
X149760486Y-112055260D01*
X149763230Y-112042059D01*
X149766356Y-112031940D01*
X149769892Y-112023511D01*
X149773791Y-112015375D01*
X149793438Y-111978544D01*
X149812225Y-111948391D01*
X149813272Y-111946908D01*
X149827602Y-111924659D01*
X149833511Y-111911702D01*
X149832504Y-111911249D01*
X149815305Y-111909803D01*
X149778656Y-111908480D01*
X149724962Y-111907316D01*
X149656630Y-111906347D01*
X149576064Y-111905611D01*
X149485670Y-111905142D01*
X149387853Y-111904978D01*
X148942195Y-111904978D01*
X148939120Y-113081845D01*
X148936045Y-114258711D01*
X148909407Y-114317622D01*
X148897485Y-114342183D01*
X148880246Y-114372434D01*
X148867074Y-114389560D01*
X148859076Y-114397591D01*
X148851378Y-114412493D01*
X148559942Y-114412493D01*
X148559474Y-114320029D01*
X148559050Y-114204617D01*
X148558706Y-114074160D01*
X148558434Y-113927716D01*
X148558227Y-113764344D01*
X148558076Y-113583101D01*
X148557972Y-113383048D01*
X148557908Y-113163241D01*
X148557876Y-112922739D01*
X148557867Y-112660602D01*
X148557867Y-110469031D01*
X148596249Y-110430649D01*
X148623355Y-110406911D01*
X148650253Y-110395111D01*
X148686560Y-110392267D01*
X148738489Y-110392267D01*
X148738489Y-110480206D01*
X148740427Y-110530102D01*
X148759199Y-110640523D01*
X148796217Y-110741987D01*
X148849369Y-110833152D01*
X148916546Y-110912673D01*
X148995638Y-110979205D01*
X149084534Y-111031406D01*
X149181125Y-111067930D01*
X149283300Y-111087434D01*
X149388950Y-111088573D01*
X149495964Y-111070005D01*
X149602232Y-111030384D01*
X149699219Y-110972516D01*
X149784293Y-110897684D01*
X149853015Y-110809615D01*
X149903918Y-110710616D01*
X149935535Y-110602993D01*
X149946400Y-110489054D01*
X149946400Y-110392267D01*
X151566753Y-110392267D01*
X151777897Y-110392280D01*
X151982020Y-110392330D01*
X152165686Y-110392430D01*
X152329991Y-110392592D01*
X152476029Y-110392829D01*
X152604894Y-110393153D01*
X152717683Y-110393575D01*
X152815488Y-110394109D01*
X152899404Y-110394767D01*
X152970527Y-110395561D01*
X153029950Y-110396504D01*
X153078768Y-110397608D01*
X153118077Y-110398884D01*
X153148969Y-110400347D01*
X153172541Y-110402007D01*
X153189886Y-110403878D01*
X153202099Y-110405972D01*
X153210275Y-110408300D01*
X153215508Y-110410876D01*
X153221504Y-110414445D01*
X153228279Y-110417978D01*
X153234478Y-110421488D01*
X153240126Y-110425918D01*
X153245247Y-110432208D01*
X153249869Y-110441301D01*
X153254015Y-110454139D01*
X153257713Y-110471662D01*
X153260987Y-110494813D01*
X153263863Y-110524534D01*
X153266367Y-110561765D01*
X153268524Y-110607449D01*
X153270360Y-110662527D01*
X153271900Y-110727941D01*
X153273170Y-110804633D01*
X153274195Y-110893544D01*
X153275001Y-110995617D01*
X153275034Y-111001867D01*
X153275614Y-111111792D01*
X153276059Y-111243011D01*
G36*
X149454562Y-110032850D02*
G01*
X149537313Y-110060053D01*
X149612406Y-110105484D01*
X149684298Y-110171302D01*
X149722846Y-110215567D01*
X149762256Y-110273961D01*
X149787446Y-110334586D01*
X149800861Y-110403865D01*
X149804948Y-110488222D01*
X149804669Y-110534307D01*
X149802460Y-110575450D01*
X149796894Y-110607582D01*
X149786586Y-110638122D01*
X149770148Y-110674489D01*
X149756200Y-110701728D01*
X149697665Y-110787429D01*
X149625619Y-110856617D01*
X149541947Y-110907741D01*
X149448531Y-110939250D01*
X149415434Y-110946225D01*
X149374960Y-110953094D01*
X149341999Y-110954919D01*
X149307698Y-110951947D01*
X149263200Y-110944426D01*
X149211934Y-110932002D01*
X149121434Y-110894112D01*
X149042345Y-110839836D01*
X148976528Y-110771770D01*
X148925840Y-110692511D01*
X148892140Y-110604654D01*
X148877286Y-110510795D01*
X148883136Y-110413530D01*
X148909399Y-110317220D01*
X148954418Y-110228494D01*
X149015373Y-110153419D01*
X149090184Y-110093641D01*
X149176768Y-110050809D01*
X149273043Y-110026571D01*
X149376928Y-110022576D01*
X149454562Y-110032850D01*
G37*
X149454562Y-110032850D02*
X149537313Y-110060053D01*
X149612406Y-110105484D01*
X149684298Y-110171302D01*
X149722846Y-110215567D01*
X149762256Y-110273961D01*
X149787446Y-110334586D01*
X149800861Y-110403865D01*
X149804948Y-110488222D01*
X149804669Y-110534307D01*
X149802460Y-110575450D01*
X149796894Y-110607582D01*
X149786586Y-110638122D01*
X149770148Y-110674489D01*
X149756200Y-110701728D01*
X149697665Y-110787429D01*
X149625619Y-110856617D01*
X149541947Y-110907741D01*
X149448531Y-110939250D01*
X149415434Y-110946225D01*
X149374960Y-110953094D01*
X149341999Y-110954919D01*
X149307698Y-110951947D01*
X149263200Y-110944426D01*
X149211934Y-110932002D01*
X149121434Y-110894112D01*
X149042345Y-110839836D01*
X148976528Y-110771770D01*
X148925840Y-110692511D01*
X148892140Y-110604654D01*
X148877286Y-110510795D01*
X148883136Y-110413530D01*
X148909399Y-110317220D01*
X148954418Y-110228494D01*
X149015373Y-110153419D01*
X149090184Y-110093641D01*
X149176768Y-110050809D01*
X149273043Y-110026571D01*
X149376928Y-110022576D01*
X149454562Y-110032850D01*
G36*
X148331893Y-115267892D02*
G01*
X148343301Y-115274029D01*
X148353850Y-115284691D01*
X148365136Y-115298811D01*
X148369589Y-115304772D01*
X148375588Y-115315268D01*
X148380167Y-115329093D01*
X148383519Y-115348998D01*
X148385833Y-115377732D01*
X148387301Y-115418045D01*
X148388113Y-115472687D01*
X148388460Y-115544407D01*
X148388534Y-115635956D01*
X148388511Y-115694486D01*
X148388292Y-115773573D01*
X148387683Y-115834516D01*
X148386492Y-115880062D01*
X148384529Y-115912963D01*
X148381603Y-115935968D01*
X148377523Y-115951826D01*
X148372097Y-115963286D01*
X148365136Y-115973100D01*
X148334708Y-115997493D01*
X148299765Y-116000372D01*
X148262784Y-115981282D01*
X148258600Y-115977807D01*
X148250424Y-115969279D01*
X148244364Y-115957728D01*
X148239981Y-115939896D01*
X148236839Y-115912524D01*
X148234502Y-115872354D01*
X148232531Y-115816128D01*
X148230489Y-115740589D01*
X148224845Y-115521458D01*
X147959556Y-115762099D01*
X147885722Y-115828875D01*
X147820542Y-115886991D01*
X147768348Y-115931949D01*
X147727273Y-115964871D01*
X147695455Y-115986879D01*
X147671026Y-115999094D01*
X147652124Y-116002639D01*
X147636883Y-115998636D01*
X147623439Y-115988207D01*
X147609927Y-115972474D01*
X147603682Y-115963991D01*
X147598050Y-115953413D01*
X147593839Y-115939255D01*
X147590887Y-115918803D01*
X147589032Y-115889342D01*
X147588113Y-115848161D01*
X147587968Y-115792544D01*
X147588435Y-115719779D01*
X147589352Y-115627151D01*
X147592667Y-115312199D01*
X147619318Y-115290633D01*
X147645383Y-115274441D01*
X147678241Y-115271670D01*
X147712772Y-115290623D01*
X147717084Y-115294208D01*
X147725216Y-115302737D01*
X147731245Y-115314329D01*
X147735606Y-115332235D01*
X147738734Y-115359706D01*
X147741063Y-115399994D01*
X147743029Y-115456351D01*
X147745067Y-115532029D01*
X147750711Y-115751878D01*
X147931334Y-115588084D01*
X148018072Y-115509451D01*
X148093843Y-115441058D01*
X148155980Y-115385708D01*
X148206078Y-115342338D01*
X148245735Y-115309881D01*
X148276548Y-115287273D01*
X148300114Y-115273448D01*
X148318030Y-115267343D01*
X148331893Y-115267892D01*
G37*
X148331893Y-115267892D02*
X148343301Y-115274029D01*
X148353850Y-115284691D01*
X148365136Y-115298811D01*
X148369589Y-115304772D01*
X148375588Y-115315268D01*
X148380167Y-115329093D01*
X148383519Y-115348998D01*
X148385833Y-115377732D01*
X148387301Y-115418045D01*
X148388113Y-115472687D01*
X148388460Y-115544407D01*
X148388534Y-115635956D01*
X148388511Y-115694486D01*
X148388292Y-115773573D01*
X148387683Y-115834516D01*
X148386492Y-115880062D01*
X148384529Y-115912963D01*
X148381603Y-115935968D01*
X148377523Y-115951826D01*
X148372097Y-115963286D01*
X148365136Y-115973100D01*
X148334708Y-115997493D01*
X148299765Y-116000372D01*
X148262784Y-115981282D01*
X148258600Y-115977807D01*
X148250424Y-115969279D01*
X148244364Y-115957728D01*
X148239981Y-115939896D01*
X148236839Y-115912524D01*
X148234502Y-115872354D01*
X148232531Y-115816128D01*
X148230489Y-115740589D01*
X148224845Y-115521458D01*
X147959556Y-115762099D01*
X147885722Y-115828875D01*
X147820542Y-115886991D01*
X147768348Y-115931949D01*
X147727273Y-115964871D01*
X147695455Y-115986879D01*
X147671026Y-115999094D01*
X147652124Y-116002639D01*
X147636883Y-115998636D01*
X147623439Y-115988207D01*
X147609927Y-115972474D01*
X147603682Y-115963991D01*
X147598050Y-115953413D01*
X147593839Y-115939255D01*
X147590887Y-115918803D01*
X147589032Y-115889342D01*
X147588113Y-115848161D01*
X147587968Y-115792544D01*
X147588435Y-115719779D01*
X147589352Y-115627151D01*
X147592667Y-115312199D01*
X147619318Y-115290633D01*
X147645383Y-115274441D01*
X147678241Y-115271670D01*
X147712772Y-115290623D01*
X147717084Y-115294208D01*
X147725216Y-115302737D01*
X147731245Y-115314329D01*
X147735606Y-115332235D01*
X147738734Y-115359706D01*
X147741063Y-115399994D01*
X147743029Y-115456351D01*
X147745067Y-115532029D01*
X147750711Y-115751878D01*
X147931334Y-115588084D01*
X148018072Y-115509451D01*
X148093843Y-115441058D01*
X148155980Y-115385708D01*
X148206078Y-115342338D01*
X148245735Y-115309881D01*
X148276548Y-115287273D01*
X148300114Y-115273448D01*
X148318030Y-115267343D01*
X148331893Y-115267892D01*
G36*
X151856734Y-115269083D02*
G01*
X151933831Y-115269275D01*
X151992777Y-115269860D01*
X152036364Y-115271051D01*
X152067383Y-115273064D01*
X152088625Y-115276112D01*
X152102882Y-115280409D01*
X152112945Y-115286172D01*
X152121606Y-115293612D01*
X152123391Y-115295293D01*
X152130635Y-115302832D01*
X152136277Y-115311850D01*
X152140517Y-115324984D01*
X152143556Y-115344872D01*
X152145594Y-115374151D01*
X152146830Y-115415458D01*
X152147465Y-115471431D01*
X152147700Y-115544707D01*
X152147734Y-115637923D01*
X152147697Y-115710713D01*
X152147448Y-115788889D01*
X152146812Y-115849103D01*
X152145615Y-115893982D01*
X152143684Y-115926152D01*
X152140846Y-115948239D01*
X152136927Y-115962870D01*
X152131755Y-115972670D01*
X152125156Y-115980267D01*
X152121822Y-115983444D01*
X152113300Y-115989554D01*
X152101298Y-115994229D01*
X152083087Y-115997659D01*
X152055940Y-116000036D01*
X152017129Y-116001552D01*
X151963924Y-116002398D01*
X151893598Y-116002765D01*
X151803422Y-116002845D01*
X151761314Y-116002833D01*
X151680167Y-116002651D01*
X151617675Y-116002098D01*
X151571109Y-116000982D01*
X151537741Y-115999113D01*
X151514844Y-115996298D01*
X151499688Y-115992346D01*
X151489546Y-115987066D01*
X151481689Y-115980267D01*
X151466963Y-115958667D01*
X151459111Y-115929467D01*
X151464610Y-115905560D01*
X151481689Y-115878667D01*
X151486668Y-115874059D01*
X151496443Y-115867772D01*
X151510559Y-115863146D01*
X151532054Y-115859930D01*
X151563968Y-115857870D01*
X151609342Y-115856712D01*
X151671213Y-115856202D01*
X151752622Y-115856089D01*
X152000978Y-115856089D01*
X152000978Y-115698045D01*
X151839801Y-115698045D01*
X151803983Y-115697899D01*
X151738359Y-115696176D01*
X151691118Y-115691741D01*
X151659383Y-115683637D01*
X151640277Y-115670906D01*
X151630923Y-115652592D01*
X151628445Y-115627738D01*
X151629242Y-115607482D01*
X151634494Y-115585656D01*
X151647288Y-115570304D01*
X151670628Y-115560309D01*
X151707517Y-115554553D01*
X151760959Y-115551919D01*
X151833958Y-115551289D01*
X152002105Y-115551289D01*
X151998719Y-115486378D01*
X151995334Y-115421467D01*
X151747617Y-115418418D01*
X151685026Y-115417539D01*
X151616565Y-115416095D01*
X151565661Y-115414164D01*
X151529408Y-115411514D01*
X151504901Y-115407910D01*
X151489235Y-115403121D01*
X151479506Y-115396913D01*
X151473491Y-115390510D01*
X151460482Y-115358828D01*
X151464043Y-115323142D01*
X151483818Y-115292084D01*
X151487069Y-115289161D01*
X151496049Y-115282810D01*
X151508153Y-115277957D01*
X151526159Y-115274403D01*
X151552847Y-115271946D01*
X151590997Y-115270385D01*
X151643386Y-115269518D01*
X151712794Y-115269146D01*
X151802001Y-115269067D01*
X151856734Y-115269083D01*
G37*
X151856734Y-115269083D02*
X151933831Y-115269275D01*
X151992777Y-115269860D01*
X152036364Y-115271051D01*
X152067383Y-115273064D01*
X152088625Y-115276112D01*
X152102882Y-115280409D01*
X152112945Y-115286172D01*
X152121606Y-115293612D01*
X152123391Y-115295293D01*
X152130635Y-115302832D01*
X152136277Y-115311850D01*
X152140517Y-115324984D01*
X152143556Y-115344872D01*
X152145594Y-115374151D01*
X152146830Y-115415458D01*
X152147465Y-115471431D01*
X152147700Y-115544707D01*
X152147734Y-115637923D01*
X152147697Y-115710713D01*
X152147448Y-115788889D01*
X152146812Y-115849103D01*
X152145615Y-115893982D01*
X152143684Y-115926152D01*
X152140846Y-115948239D01*
X152136927Y-115962870D01*
X152131755Y-115972670D01*
X152125156Y-115980267D01*
X152121822Y-115983444D01*
X152113300Y-115989554D01*
X152101298Y-115994229D01*
X152083087Y-115997659D01*
X152055940Y-116000036D01*
X152017129Y-116001552D01*
X151963924Y-116002398D01*
X151893598Y-116002765D01*
X151803422Y-116002845D01*
X151761314Y-116002833D01*
X151680167Y-116002651D01*
X151617675Y-116002098D01*
X151571109Y-116000982D01*
X151537741Y-115999113D01*
X151514844Y-115996298D01*
X151499688Y-115992346D01*
X151489546Y-115987066D01*
X151481689Y-115980267D01*
X151466963Y-115958667D01*
X151459111Y-115929467D01*
X151464610Y-115905560D01*
X151481689Y-115878667D01*
X151486668Y-115874059D01*
X151496443Y-115867772D01*
X151510559Y-115863146D01*
X151532054Y-115859930D01*
X151563968Y-115857870D01*
X151609342Y-115856712D01*
X151671213Y-115856202D01*
X151752622Y-115856089D01*
X152000978Y-115856089D01*
X152000978Y-115698045D01*
X151839801Y-115698045D01*
X151803983Y-115697899D01*
X151738359Y-115696176D01*
X151691118Y-115691741D01*
X151659383Y-115683637D01*
X151640277Y-115670906D01*
X151630923Y-115652592D01*
X151628445Y-115627738D01*
X151629242Y-115607482D01*
X151634494Y-115585656D01*
X151647288Y-115570304D01*
X151670628Y-115560309D01*
X151707517Y-115554553D01*
X151760959Y-115551919D01*
X151833958Y-115551289D01*
X152002105Y-115551289D01*
X151998719Y-115486378D01*
X151995334Y-115421467D01*
X151747617Y-115418418D01*
X151685026Y-115417539D01*
X151616565Y-115416095D01*
X151565661Y-115414164D01*
X151529408Y-115411514D01*
X151504901Y-115407910D01*
X151489235Y-115403121D01*
X151479506Y-115396913D01*
X151473491Y-115390510D01*
X151460482Y-115358828D01*
X151464043Y-115323142D01*
X151483818Y-115292084D01*
X151487069Y-115289161D01*
X151496049Y-115282810D01*
X151508153Y-115277957D01*
X151526159Y-115274403D01*
X151552847Y-115271946D01*
X151590997Y-115270385D01*
X151643386Y-115269518D01*
X151712794Y-115269146D01*
X151802001Y-115269067D01*
X151856734Y-115269083D01*
G36*
X147179803Y-115298811D02*
G01*
X147184752Y-115305495D01*
X147190596Y-115316066D01*
X147195057Y-115330153D01*
X147198321Y-115350478D01*
X147200574Y-115379765D01*
X147202002Y-115420737D01*
X147202792Y-115476117D01*
X147203129Y-115548628D01*
X147203200Y-115640994D01*
X147203171Y-115706911D01*
X147202939Y-115785228D01*
X147202319Y-115845496D01*
X147201126Y-115890393D01*
X147199179Y-115922602D01*
X147196294Y-115944800D01*
X147192288Y-115959669D01*
X147186979Y-115969889D01*
X147180183Y-115978138D01*
X147175668Y-115982795D01*
X147167438Y-115989282D01*
X147156078Y-115994194D01*
X147138810Y-115997749D01*
X147112855Y-116000167D01*
X147075436Y-116001667D01*
X147023773Y-116002467D01*
X146955089Y-116002787D01*
X146866606Y-116002845D01*
X146846931Y-116002838D01*
X146759906Y-116002572D01*
X146692254Y-116001806D01*
X146641299Y-116000392D01*
X146604367Y-115998180D01*
X146578783Y-115995022D01*
X146561871Y-115990769D01*
X146550957Y-115985271D01*
X146540464Y-115975285D01*
X146527203Y-115944168D01*
X146528386Y-115908280D01*
X146544550Y-115876733D01*
X146546739Y-115874457D01*
X146555427Y-115868189D01*
X146568769Y-115863523D01*
X146589752Y-115860227D01*
X146621363Y-115858068D01*
X146666590Y-115856814D01*
X146728420Y-115856231D01*
X146809839Y-115856089D01*
X147056445Y-115856089D01*
X147056445Y-115698045D01*
X146894006Y-115698045D01*
X146858338Y-115697964D01*
X146802568Y-115697167D01*
X146763430Y-115695162D01*
X146736976Y-115691521D01*
X146719259Y-115685812D01*
X146706329Y-115677607D01*
X146702686Y-115674423D01*
X146684278Y-115643448D01*
X146683644Y-115607112D01*
X146701183Y-115573493D01*
X146701245Y-115573424D01*
X146710916Y-115564798D01*
X146724209Y-115558742D01*
X146744917Y-115554811D01*
X146776828Y-115552556D01*
X146823734Y-115551531D01*
X146889424Y-115551289D01*
X147057571Y-115551289D01*
X147054186Y-115486378D01*
X147050800Y-115421467D01*
X146808723Y-115418414D01*
X146783707Y-115418086D01*
X146702087Y-115416606D01*
X146639768Y-115414222D01*
X146594154Y-115410227D01*
X146562652Y-115403913D01*
X146542667Y-115394574D01*
X146531604Y-115381503D01*
X146526869Y-115363992D01*
X146525867Y-115341335D01*
X146525873Y-115338970D01*
X146527027Y-115318939D01*
X146531824Y-115303146D01*
X146542632Y-115291090D01*
X146561817Y-115282267D01*
X146591745Y-115276175D01*
X146634783Y-115272311D01*
X146693299Y-115270174D01*
X146769657Y-115269260D01*
X146866226Y-115269067D01*
X147156406Y-115269067D01*
X147179803Y-115298811D01*
G37*
X147179803Y-115298811D02*
X147184752Y-115305495D01*
X147190596Y-115316066D01*
X147195057Y-115330153D01*
X147198321Y-115350478D01*
X147200574Y-115379765D01*
X147202002Y-115420737D01*
X147202792Y-115476117D01*
X147203129Y-115548628D01*
X147203200Y-115640994D01*
X147203171Y-115706911D01*
X147202939Y-115785228D01*
X147202319Y-115845496D01*
X147201126Y-115890393D01*
X147199179Y-115922602D01*
X147196294Y-115944800D01*
X147192288Y-115959669D01*
X147186979Y-115969889D01*
X147180183Y-115978138D01*
X147175668Y-115982795D01*
X147167438Y-115989282D01*
X147156078Y-115994194D01*
X147138810Y-115997749D01*
X147112855Y-116000167D01*
X147075436Y-116001667D01*
X147023773Y-116002467D01*
X146955089Y-116002787D01*
X146866606Y-116002845D01*
X146846931Y-116002838D01*
X146759906Y-116002572D01*
X146692254Y-116001806D01*
X146641299Y-116000392D01*
X146604367Y-115998180D01*
X146578783Y-115995022D01*
X146561871Y-115990769D01*
X146550957Y-115985271D01*
X146540464Y-115975285D01*
X146527203Y-115944168D01*
X146528386Y-115908280D01*
X146544550Y-115876733D01*
X146546739Y-115874457D01*
X146555427Y-115868189D01*
X146568769Y-115863523D01*
X146589752Y-115860227D01*
X146621363Y-115858068D01*
X146666590Y-115856814D01*
X146728420Y-115856231D01*
X146809839Y-115856089D01*
X147056445Y-115856089D01*
X147056445Y-115698045D01*
X146894006Y-115698045D01*
X146858338Y-115697964D01*
X146802568Y-115697167D01*
X146763430Y-115695162D01*
X146736976Y-115691521D01*
X146719259Y-115685812D01*
X146706329Y-115677607D01*
X146702686Y-115674423D01*
X146684278Y-115643448D01*
X146683644Y-115607112D01*
X146701183Y-115573493D01*
X146701245Y-115573424D01*
X146710916Y-115564798D01*
X146724209Y-115558742D01*
X146744917Y-115554811D01*
X146776828Y-115552556D01*
X146823734Y-115551531D01*
X146889424Y-115551289D01*
X147057571Y-115551289D01*
X147054186Y-115486378D01*
X147050800Y-115421467D01*
X146808723Y-115418414D01*
X146783707Y-115418086D01*
X146702087Y-115416606D01*
X146639768Y-115414222D01*
X146594154Y-115410227D01*
X146562652Y-115403913D01*
X146542667Y-115394574D01*
X146531604Y-115381503D01*
X146526869Y-115363992D01*
X146525867Y-115341335D01*
X146525873Y-115338970D01*
X146527027Y-115318939D01*
X146531824Y-115303146D01*
X146542632Y-115291090D01*
X146561817Y-115282267D01*
X146591745Y-115276175D01*
X146634783Y-115272311D01*
X146693299Y-115270174D01*
X146769657Y-115269260D01*
X146866226Y-115269067D01*
X147156406Y-115269067D01*
X147179803Y-115298811D01*
G36*
X142855406Y-115274949D02*
G01*
X142881127Y-115290647D01*
X142907778Y-115312227D01*
X142907778Y-115959684D01*
X142881127Y-115981264D01*
X142849767Y-115998739D01*
X142813966Y-115999575D01*
X142782528Y-115979082D01*
X142778652Y-115974416D01*
X142773186Y-115964949D01*
X142768979Y-115951267D01*
X142765867Y-115930748D01*
X142763687Y-115900768D01*
X142762276Y-115858704D01*
X142761471Y-115801932D01*
X142761107Y-115727830D01*
X142761022Y-115633773D01*
X142761022Y-115312227D01*
X142787673Y-115290647D01*
X142811386Y-115275877D01*
X142834400Y-115269067D01*
X142855406Y-115274949D01*
G37*
X142855406Y-115274949D02*
X142881127Y-115290647D01*
X142907778Y-115312227D01*
X142907778Y-115959684D01*
X142881127Y-115981264D01*
X142849767Y-115998739D01*
X142813966Y-115999575D01*
X142782528Y-115979082D01*
X142778652Y-115974416D01*
X142773186Y-115964949D01*
X142768979Y-115951267D01*
X142765867Y-115930748D01*
X142763687Y-115900768D01*
X142762276Y-115858704D01*
X142761471Y-115801932D01*
X142761107Y-115727830D01*
X142761022Y-115633773D01*
X142761022Y-115312227D01*
X142787673Y-115290647D01*
X142811386Y-115275877D01*
X142834400Y-115269067D01*
X142855406Y-115274949D01*
G36*
X141479734Y-115291645D02*
G01*
X141485366Y-115297835D01*
X141490456Y-115306041D01*
X141494543Y-115317817D01*
X141497721Y-115335276D01*
X141500087Y-115360530D01*
X141501738Y-115395690D01*
X141502769Y-115442869D01*
X141503277Y-115504177D01*
X141503359Y-115581727D01*
X141503109Y-115677631D01*
X141502625Y-115794000D01*
X141502557Y-115808175D01*
X141501971Y-115869937D01*
X141500648Y-115913620D01*
X141498103Y-115943001D01*
X141493848Y-115961855D01*
X141487396Y-115973959D01*
X141478262Y-115983089D01*
X141444804Y-116000506D01*
X141409856Y-115997604D01*
X141378953Y-115973100D01*
X141369944Y-115959897D01*
X141362492Y-115941361D01*
X141358124Y-115915333D01*
X141356069Y-115876787D01*
X141355556Y-115820700D01*
X141355556Y-115698045D01*
X140858845Y-115698045D01*
X140858845Y-115832871D01*
X140858772Y-115868662D01*
X140858009Y-115914992D01*
X140855833Y-115945526D01*
X140851536Y-115964557D01*
X140844412Y-115976374D01*
X140833755Y-115985271D01*
X140801504Y-116000341D01*
X140766217Y-115997673D01*
X140735486Y-115973100D01*
X140730831Y-115966845D01*
X140724895Y-115956321D01*
X140720364Y-115942391D01*
X140717048Y-115922317D01*
X140714759Y-115893360D01*
X140713308Y-115852780D01*
X140712505Y-115797840D01*
X140712162Y-115725799D01*
X140712089Y-115633920D01*
X140712089Y-115324485D01*
X140739798Y-115296776D01*
X140771177Y-115274533D01*
X140804406Y-115271844D01*
X140836267Y-115291645D01*
X140844553Y-115301415D01*
X140851965Y-115317307D01*
X140856302Y-115341275D01*
X140858338Y-115378148D01*
X140858845Y-115432756D01*
X140858845Y-115551289D01*
X141355556Y-115551289D01*
X141355556Y-115435776D01*
X141355994Y-115384078D01*
X141357958Y-115349554D01*
X141362474Y-115326978D01*
X141370567Y-115311126D01*
X141383265Y-115296776D01*
X141414643Y-115274533D01*
X141447872Y-115271844D01*
X141479734Y-115291645D01*
G37*
X141479734Y-115291645D02*
X141485366Y-115297835D01*
X141490456Y-115306041D01*
X141494543Y-115317817D01*
X141497721Y-115335276D01*
X141500087Y-115360530D01*
X141501738Y-115395690D01*
X141502769Y-115442869D01*
X141503277Y-115504177D01*
X141503359Y-115581727D01*
X141503109Y-115677631D01*
X141502625Y-115794000D01*
X141502557Y-115808175D01*
X141501971Y-115869937D01*
X141500648Y-115913620D01*
X141498103Y-115943001D01*
X141493848Y-115961855D01*
X141487396Y-115973959D01*
X141478262Y-115983089D01*
X141444804Y-116000506D01*
X141409856Y-115997604D01*
X141378953Y-115973100D01*
X141369944Y-115959897D01*
X141362492Y-115941361D01*
X141358124Y-115915333D01*
X141356069Y-115876787D01*
X141355556Y-115820700D01*
X141355556Y-115698045D01*
X140858845Y-115698045D01*
X140858845Y-115832871D01*
X140858772Y-115868662D01*
X140858009Y-115914992D01*
X140855833Y-115945526D01*
X140851536Y-115964557D01*
X140844412Y-115976374D01*
X140833755Y-115985271D01*
X140801504Y-116000341D01*
X140766217Y-115997673D01*
X140735486Y-115973100D01*
X140730831Y-115966845D01*
X140724895Y-115956321D01*
X140720364Y-115942391D01*
X140717048Y-115922317D01*
X140714759Y-115893360D01*
X140713308Y-115852780D01*
X140712505Y-115797840D01*
X140712162Y-115725799D01*
X140712089Y-115633920D01*
X140712089Y-115324485D01*
X140739798Y-115296776D01*
X140771177Y-115274533D01*
X140804406Y-115271844D01*
X140836267Y-115291645D01*
X140844553Y-115301415D01*
X140851965Y-115317307D01*
X140856302Y-115341275D01*
X140858338Y-115378148D01*
X140858845Y-115432756D01*
X140858845Y-115551289D01*
X141355556Y-115551289D01*
X141355556Y-115435776D01*
X141355994Y-115384078D01*
X141357958Y-115349554D01*
X141362474Y-115326978D01*
X141370567Y-115311126D01*
X141383265Y-115296776D01*
X141414643Y-115274533D01*
X141447872Y-115271844D01*
X141479734Y-115291645D01*
G36*
X149129150Y-115274179D02*
G01*
X149235157Y-115290494D01*
X149328969Y-115318545D01*
X149407765Y-115357452D01*
X149468719Y-115406334D01*
X149494789Y-115439195D01*
X149524297Y-115488394D01*
X149549568Y-115542252D01*
X149567218Y-115593419D01*
X149573858Y-115634544D01*
X149572298Y-115654259D01*
X149559357Y-115705592D01*
X149536194Y-115762118D01*
X149506302Y-115816035D01*
X149473173Y-115859539D01*
X149462977Y-115869887D01*
X149395892Y-115921662D01*
X149315766Y-115961554D01*
X149229556Y-115985956D01*
X149174592Y-115994068D01*
X149081139Y-116000673D01*
X148991358Y-115998586D01*
X148908869Y-115988340D01*
X148837286Y-115970470D01*
X148780228Y-115945508D01*
X148741311Y-115913988D01*
X148739936Y-115912012D01*
X148732848Y-115886786D01*
X148728609Y-115839535D01*
X148727200Y-115770071D01*
X148728060Y-115707838D01*
X148732780Y-115660456D01*
X148744470Y-115628353D01*
X148766239Y-115608800D01*
X148801198Y-115599070D01*
X148852456Y-115596433D01*
X148923123Y-115598161D01*
X148971743Y-115601173D01*
X149021939Y-115609366D01*
X149054433Y-115623419D01*
X149071892Y-115644654D01*
X149076983Y-115674394D01*
X149076877Y-115678936D01*
X149068175Y-115713730D01*
X149044165Y-115737147D01*
X149002900Y-115750347D01*
X148942431Y-115754489D01*
X148873956Y-115754489D01*
X148873956Y-115792841D01*
X148874006Y-115801976D01*
X148876227Y-115819227D01*
X148885494Y-115829521D01*
X148906875Y-115836459D01*
X148945436Y-115843641D01*
X148950910Y-115844575D01*
X149047860Y-115854478D01*
X149137852Y-115851559D01*
X149218760Y-115836829D01*
X149288459Y-115811299D01*
X149344824Y-115775978D01*
X149385729Y-115731879D01*
X149409051Y-115680012D01*
X149412663Y-115621388D01*
X149407145Y-115592494D01*
X149380461Y-115536604D01*
X149334273Y-115490945D01*
X149269291Y-115456108D01*
X149186229Y-115432690D01*
X149161555Y-115428241D01*
X149072226Y-115417742D01*
X148992419Y-115418971D01*
X148914326Y-115431906D01*
X148879183Y-115438696D01*
X148833745Y-115439713D01*
X148802430Y-115427182D01*
X148782277Y-115400395D01*
X148775893Y-115372148D01*
X148785379Y-115340924D01*
X148794708Y-115327499D01*
X148828943Y-115303967D01*
X148881565Y-115286095D01*
X148950081Y-115274599D01*
X149032000Y-115270192D01*
X149129150Y-115274179D01*
G37*
X149129150Y-115274179D02*
X149235157Y-115290494D01*
X149328969Y-115318545D01*
X149407765Y-115357452D01*
X149468719Y-115406334D01*
X149494789Y-115439195D01*
X149524297Y-115488394D01*
X149549568Y-115542252D01*
X149567218Y-115593419D01*
X149573858Y-115634544D01*
X149572298Y-115654259D01*
X149559357Y-115705592D01*
X149536194Y-115762118D01*
X149506302Y-115816035D01*
X149473173Y-115859539D01*
X149462977Y-115869887D01*
X149395892Y-115921662D01*
X149315766Y-115961554D01*
X149229556Y-115985956D01*
X149174592Y-115994068D01*
X149081139Y-116000673D01*
X148991358Y-115998586D01*
X148908869Y-115988340D01*
X148837286Y-115970470D01*
X148780228Y-115945508D01*
X148741311Y-115913988D01*
X148739936Y-115912012D01*
X148732848Y-115886786D01*
X148728609Y-115839535D01*
X148727200Y-115770071D01*
X148728060Y-115707838D01*
X148732780Y-115660456D01*
X148744470Y-115628353D01*
X148766239Y-115608800D01*
X148801198Y-115599070D01*
X148852456Y-115596433D01*
X148923123Y-115598161D01*
X148971743Y-115601173D01*
X149021939Y-115609366D01*
X149054433Y-115623419D01*
X149071892Y-115644654D01*
X149076983Y-115674394D01*
X149076877Y-115678936D01*
X149068175Y-115713730D01*
X149044165Y-115737147D01*
X149002900Y-115750347D01*
X148942431Y-115754489D01*
X148873956Y-115754489D01*
X148873956Y-115792841D01*
X148874006Y-115801976D01*
X148876227Y-115819227D01*
X148885494Y-115829521D01*
X148906875Y-115836459D01*
X148945436Y-115843641D01*
X148950910Y-115844575D01*
X149047860Y-115854478D01*
X149137852Y-115851559D01*
X149218760Y-115836829D01*
X149288459Y-115811299D01*
X149344824Y-115775978D01*
X149385729Y-115731879D01*
X149409051Y-115680012D01*
X149412663Y-115621388D01*
X149407145Y-115592494D01*
X149380461Y-115536604D01*
X149334273Y-115490945D01*
X149269291Y-115456108D01*
X149186229Y-115432690D01*
X149161555Y-115428241D01*
X149072226Y-115417742D01*
X148992419Y-115418971D01*
X148914326Y-115431906D01*
X148879183Y-115438696D01*
X148833745Y-115439713D01*
X148802430Y-115427182D01*
X148782277Y-115400395D01*
X148775893Y-115372148D01*
X148785379Y-115340924D01*
X148794708Y-115327499D01*
X148828943Y-115303967D01*
X148881565Y-115286095D01*
X148950081Y-115274599D01*
X149032000Y-115270192D01*
X149129150Y-115274179D01*
G36*
X146183163Y-115913175D02*
G01*
X146180235Y-115936095D01*
X146176158Y-115951897D01*
X146170743Y-115963319D01*
X146163803Y-115973100D01*
X146140406Y-116002845D01*
X145974714Y-116002251D01*
X145939918Y-116001953D01*
X145841435Y-115998522D01*
X145760473Y-115990839D01*
X145693379Y-115978282D01*
X145636496Y-115960227D01*
X145586169Y-115936052D01*
X145582810Y-115934135D01*
X145524998Y-115897417D01*
X145482644Y-115860451D01*
X145449828Y-115816966D01*
X145420628Y-115760689D01*
X145416346Y-115751073D01*
X145393769Y-115687887D01*
X145388034Y-115642333D01*
X145537279Y-115642333D01*
X145542892Y-115667061D01*
X145548618Y-115682939D01*
X145581548Y-115742847D01*
X145628886Y-115788600D01*
X145692652Y-115821736D01*
X145774861Y-115843790D01*
X145777655Y-115844292D01*
X145823940Y-115850255D01*
X145880336Y-115854483D01*
X145935274Y-115856089D01*
X146029156Y-115856089D01*
X146029156Y-115415822D01*
X145941667Y-115416270D01*
X145874747Y-115418746D01*
X145782349Y-115429998D01*
X145703034Y-115449537D01*
X145641060Y-115476511D01*
X145610120Y-115497240D01*
X145582000Y-115527006D01*
X145558660Y-115569434D01*
X145551533Y-115585400D01*
X145539709Y-115617902D01*
X145537279Y-115642333D01*
X145388034Y-115642333D01*
X145386797Y-115632509D01*
X145395399Y-115577483D01*
X145419541Y-115515351D01*
X145420337Y-115513658D01*
X145460788Y-115444236D01*
X145511473Y-115387638D01*
X145574198Y-115343070D01*
X145650774Y-115309741D01*
X145743009Y-115286861D01*
X145852712Y-115273636D01*
X145981691Y-115269275D01*
X145985263Y-115269270D01*
X146045283Y-115269410D01*
X146087214Y-115270446D01*
X146115328Y-115273040D01*
X146133897Y-115277853D01*
X146147194Y-115285544D01*
X146159491Y-115296776D01*
X146187200Y-115324485D01*
X146187200Y-115633920D01*
X146187175Y-115695526D01*
X146186950Y-115774311D01*
X146186332Y-115835021D01*
X146185775Y-115856089D01*
X146185133Y-115880396D01*
X146183163Y-115913175D01*
G37*
X146183163Y-115913175D02*
X146180235Y-115936095D01*
X146176158Y-115951897D01*
X146170743Y-115963319D01*
X146163803Y-115973100D01*
X146140406Y-116002845D01*
X145974714Y-116002251D01*
X145939918Y-116001953D01*
X145841435Y-115998522D01*
X145760473Y-115990839D01*
X145693379Y-115978282D01*
X145636496Y-115960227D01*
X145586169Y-115936052D01*
X145582810Y-115934135D01*
X145524998Y-115897417D01*
X145482644Y-115860451D01*
X145449828Y-115816966D01*
X145420628Y-115760689D01*
X145416346Y-115751073D01*
X145393769Y-115687887D01*
X145388034Y-115642333D01*
X145537279Y-115642333D01*
X145542892Y-115667061D01*
X145548618Y-115682939D01*
X145581548Y-115742847D01*
X145628886Y-115788600D01*
X145692652Y-115821736D01*
X145774861Y-115843790D01*
X145777655Y-115844292D01*
X145823940Y-115850255D01*
X145880336Y-115854483D01*
X145935274Y-115856089D01*
X146029156Y-115856089D01*
X146029156Y-115415822D01*
X145941667Y-115416270D01*
X145874747Y-115418746D01*
X145782349Y-115429998D01*
X145703034Y-115449537D01*
X145641060Y-115476511D01*
X145610120Y-115497240D01*
X145582000Y-115527006D01*
X145558660Y-115569434D01*
X145551533Y-115585400D01*
X145539709Y-115617902D01*
X145537279Y-115642333D01*
X145388034Y-115642333D01*
X145386797Y-115632509D01*
X145395399Y-115577483D01*
X145419541Y-115515351D01*
X145420337Y-115513658D01*
X145460788Y-115444236D01*
X145511473Y-115387638D01*
X145574198Y-115343070D01*
X145650774Y-115309741D01*
X145743009Y-115286861D01*
X145852712Y-115273636D01*
X145981691Y-115269275D01*
X145985263Y-115269270D01*
X146045283Y-115269410D01*
X146087214Y-115270446D01*
X146115328Y-115273040D01*
X146133897Y-115277853D01*
X146147194Y-115285544D01*
X146159491Y-115296776D01*
X146187200Y-115324485D01*
X146187200Y-115633920D01*
X146187175Y-115695526D01*
X146186950Y-115774311D01*
X146186332Y-115835021D01*
X146185775Y-115856089D01*
X146185133Y-115880396D01*
X146183163Y-115913175D01*
G36*
X146988711Y-110962033D02*
G01*
X147084268Y-110979523D01*
X147248558Y-111024564D01*
X147402589Y-111087656D01*
X147548509Y-111169915D01*
X147688466Y-111272457D01*
X147824608Y-111396399D01*
X147868473Y-111441661D01*
X147980758Y-111573865D01*
X148073972Y-111711832D01*
X148150719Y-111859750D01*
X148213603Y-112021803D01*
X148217420Y-112033391D01*
X148267507Y-112219392D01*
X148300899Y-112415521D01*
X148317584Y-112617568D01*
X148317551Y-112821325D01*
X148300791Y-113022581D01*
X148267292Y-113217128D01*
X148217044Y-113400756D01*
X148173190Y-113518053D01*
X148095348Y-113680951D01*
X148001828Y-113834866D01*
X147894822Y-113976671D01*
X147776519Y-114103239D01*
X147649111Y-114211441D01*
X147571606Y-114264120D01*
X147444725Y-114333750D01*
X147307243Y-114392468D01*
X147165716Y-114437587D01*
X147026702Y-114466422D01*
X147012597Y-114468106D01*
X146969153Y-114471434D01*
X146911723Y-114474275D01*
X146846122Y-114476373D01*
X146778167Y-114477468D01*
X146651378Y-114475140D01*
X146503673Y-114462136D01*
X146365779Y-114437133D01*
X146232014Y-114399318D01*
X146208562Y-114390889D01*
X146160612Y-114371408D01*
X146104140Y-114346473D01*
X146042379Y-114317722D01*
X145978563Y-114286790D01*
X145915926Y-114255315D01*
X145857703Y-114224934D01*
X145807127Y-114197283D01*
X145767433Y-114173999D01*
X145741854Y-114156718D01*
X145733625Y-114147079D01*
X145735076Y-114143984D01*
X145746250Y-114124079D01*
X145767134Y-114088420D01*
X145796265Y-114039459D01*
X145832181Y-113979646D01*
X145873420Y-113911433D01*
X145918517Y-113837271D01*
X146099785Y-113540008D01*
X146146315Y-113584539D01*
X146237723Y-113662865D01*
X146351334Y-113737439D01*
X146469122Y-113791474D01*
X146589559Y-113824290D01*
X146711117Y-113835211D01*
X146752585Y-113833868D01*
X146870080Y-113815612D01*
X146980089Y-113776617D01*
X147081430Y-113717670D01*
X147172921Y-113639557D01*
X147253380Y-113543064D01*
X147321627Y-113428978D01*
X147337908Y-113394724D01*
X147383982Y-113271240D01*
X147419106Y-113132918D01*
X147443197Y-112983561D01*
X147456173Y-112826973D01*
X147457949Y-112666956D01*
X147448443Y-112507314D01*
X147427572Y-112351850D01*
X147395252Y-112204366D01*
X147351399Y-112068667D01*
X147313982Y-111982076D01*
X147249185Y-111868688D01*
X147173772Y-111775070D01*
X147087418Y-111700959D01*
X146989795Y-111646094D01*
X146880577Y-111610212D01*
X146759439Y-111593051D01*
X146690038Y-111591880D01*
X146567168Y-111606141D01*
X146451664Y-111641241D01*
X146344953Y-111696682D01*
X146248464Y-111771964D01*
X146232720Y-111786440D01*
X146202150Y-111812962D01*
X146179809Y-111830138D01*
X146169691Y-111834787D01*
X146167706Y-111832597D01*
X146153241Y-111813721D01*
X146129400Y-111780397D01*
X146098029Y-111735380D01*
X146060974Y-111681425D01*
X146020083Y-111621285D01*
X145977202Y-111557718D01*
X145934178Y-111493476D01*
X145892857Y-111431315D01*
X145855086Y-111373991D01*
X145822712Y-111324257D01*
X145797582Y-111284868D01*
X145781542Y-111258580D01*
X145776439Y-111248147D01*
X145781050Y-111243941D01*
X145800267Y-111238933D01*
X145809838Y-111236386D01*
X145837809Y-111225249D01*
X145879448Y-111206802D01*
X145930995Y-111182725D01*
X145988690Y-111154699D01*
X145999957Y-111149154D01*
X146177687Y-111069889D01*
X146347490Y-111010385D01*
X146511430Y-110970245D01*
X146671571Y-110949071D01*
X146829977Y-110946466D01*
X146988711Y-110962033D01*
G37*
X146988711Y-110962033D02*
X147084268Y-110979523D01*
X147248558Y-111024564D01*
X147402589Y-111087656D01*
X147548509Y-111169915D01*
X147688466Y-111272457D01*
X147824608Y-111396399D01*
X147868473Y-111441661D01*
X147980758Y-111573865D01*
X148073972Y-111711832D01*
X148150719Y-111859750D01*
X148213603Y-112021803D01*
X148217420Y-112033391D01*
X148267507Y-112219392D01*
X148300899Y-112415521D01*
X148317584Y-112617568D01*
X148317551Y-112821325D01*
X148300791Y-113022581D01*
X148267292Y-113217128D01*
X148217044Y-113400756D01*
X148173190Y-113518053D01*
X148095348Y-113680951D01*
X148001828Y-113834866D01*
X147894822Y-113976671D01*
X147776519Y-114103239D01*
X147649111Y-114211441D01*
X147571606Y-114264120D01*
X147444725Y-114333750D01*
X147307243Y-114392468D01*
X147165716Y-114437587D01*
X147026702Y-114466422D01*
X147012597Y-114468106D01*
X146969153Y-114471434D01*
X146911723Y-114474275D01*
X146846122Y-114476373D01*
X146778167Y-114477468D01*
X146651378Y-114475140D01*
X146503673Y-114462136D01*
X146365779Y-114437133D01*
X146232014Y-114399318D01*
X146208562Y-114390889D01*
X146160612Y-114371408D01*
X146104140Y-114346473D01*
X146042379Y-114317722D01*
X145978563Y-114286790D01*
X145915926Y-114255315D01*
X145857703Y-114224934D01*
X145807127Y-114197283D01*
X145767433Y-114173999D01*
X145741854Y-114156718D01*
X145733625Y-114147079D01*
X145735076Y-114143984D01*
X145746250Y-114124079D01*
X145767134Y-114088420D01*
X145796265Y-114039459D01*
X145832181Y-113979646D01*
X145873420Y-113911433D01*
X145918517Y-113837271D01*
X146099785Y-113540008D01*
X146146315Y-113584539D01*
X146237723Y-113662865D01*
X146351334Y-113737439D01*
X146469122Y-113791474D01*
X146589559Y-113824290D01*
X146711117Y-113835211D01*
X146752585Y-113833868D01*
X146870080Y-113815612D01*
X146980089Y-113776617D01*
X147081430Y-113717670D01*
X147172921Y-113639557D01*
X147253380Y-113543064D01*
X147321627Y-113428978D01*
X147337908Y-113394724D01*
X147383982Y-113271240D01*
X147419106Y-113132918D01*
X147443197Y-112983561D01*
X147456173Y-112826973D01*
X147457949Y-112666956D01*
X147448443Y-112507314D01*
X147427572Y-112351850D01*
X147395252Y-112204366D01*
X147351399Y-112068667D01*
X147313982Y-111982076D01*
X147249185Y-111868688D01*
X147173772Y-111775070D01*
X147087418Y-111700959D01*
X146989795Y-111646094D01*
X146880577Y-111610212D01*
X146759439Y-111593051D01*
X146690038Y-111591880D01*
X146567168Y-111606141D01*
X146451664Y-111641241D01*
X146344953Y-111696682D01*
X146248464Y-111771964D01*
X146232720Y-111786440D01*
X146202150Y-111812962D01*
X146179809Y-111830138D01*
X146169691Y-111834787D01*
X146167706Y-111832597D01*
X146153241Y-111813721D01*
X146129400Y-111780397D01*
X146098029Y-111735380D01*
X146060974Y-111681425D01*
X146020083Y-111621285D01*
X145977202Y-111557718D01*
X145934178Y-111493476D01*
X145892857Y-111431315D01*
X145855086Y-111373991D01*
X145822712Y-111324257D01*
X145797582Y-111284868D01*
X145781542Y-111258580D01*
X145776439Y-111248147D01*
X145781050Y-111243941D01*
X145800267Y-111238933D01*
X145809838Y-111236386D01*
X145837809Y-111225249D01*
X145879448Y-111206802D01*
X145930995Y-111182725D01*
X145988690Y-111154699D01*
X145999957Y-111149154D01*
X146177687Y-111069889D01*
X146347490Y-111010385D01*
X146511430Y-110970245D01*
X146671571Y-110949071D01*
X146829977Y-110946466D01*
X146988711Y-110962033D01*
G36*
X149986137Y-115273463D02*
G01*
X150020291Y-115296776D01*
X150048000Y-115324485D01*
X150048000Y-115637537D01*
X150047959Y-115721567D01*
X150047701Y-115795789D01*
X150047030Y-115852541D01*
X150045752Y-115894512D01*
X150043673Y-115924389D01*
X150040599Y-115944861D01*
X150036334Y-115958614D01*
X150030684Y-115968337D01*
X150023455Y-115976717D01*
X149991991Y-115998181D01*
X149956826Y-115999947D01*
X149923822Y-115980267D01*
X149918516Y-115974398D01*
X149913066Y-115965314D01*
X149908900Y-115951973D01*
X149905846Y-115931757D01*
X149903732Y-115902049D01*
X149902386Y-115860232D01*
X149901638Y-115803689D01*
X149901314Y-115729802D01*
X149901245Y-115635956D01*
X149901284Y-115560294D01*
X149901539Y-115482385D01*
X149902183Y-115422375D01*
X149903387Y-115377648D01*
X149905324Y-115345585D01*
X149908164Y-115323571D01*
X149912079Y-115308987D01*
X149917242Y-115299218D01*
X149923822Y-115291645D01*
X149953006Y-115272623D01*
X149986137Y-115273463D01*
G37*
X149986137Y-115273463D02*
X150020291Y-115296776D01*
X150048000Y-115324485D01*
X150048000Y-115637537D01*
X150047959Y-115721567D01*
X150047701Y-115795789D01*
X150047030Y-115852541D01*
X150045752Y-115894512D01*
X150043673Y-115924389D01*
X150040599Y-115944861D01*
X150036334Y-115958614D01*
X150030684Y-115968337D01*
X150023455Y-115976717D01*
X149991991Y-115998181D01*
X149956826Y-115999947D01*
X149923822Y-115980267D01*
X149918516Y-115974398D01*
X149913066Y-115965314D01*
X149908900Y-115951973D01*
X149905846Y-115931757D01*
X149903732Y-115902049D01*
X149902386Y-115860232D01*
X149901638Y-115803689D01*
X149901314Y-115729802D01*
X149901245Y-115635956D01*
X149901284Y-115560294D01*
X149901539Y-115482385D01*
X149902183Y-115422375D01*
X149903387Y-115377648D01*
X149905324Y-115345585D01*
X149908164Y-115323571D01*
X149912079Y-115308987D01*
X149917242Y-115299218D01*
X149923822Y-115291645D01*
X149953006Y-115272623D01*
X149986137Y-115273463D01*
G36*
X145727261Y-113677363D02*
G01*
X145723632Y-113752202D01*
X145716022Y-113814401D01*
X145703688Y-113870984D01*
X145659313Y-113997076D01*
X145596400Y-114111679D01*
X145516238Y-114212568D01*
X145419740Y-114298924D01*
X145307822Y-114369932D01*
X145181397Y-114424776D01*
X145041378Y-114462638D01*
X145005149Y-114468351D01*
X144926155Y-114474313D01*
X144837841Y-114474646D01*
X144748075Y-114469659D01*
X144664722Y-114459666D01*
X144595651Y-114444978D01*
X144509187Y-114414749D01*
X144399286Y-114360057D01*
X144301956Y-114292543D01*
X144239867Y-114241556D01*
X144236605Y-114337622D01*
X144233343Y-114433689D01*
X143810450Y-114433689D01*
X143799543Y-114433686D01*
X143705056Y-114433380D01*
X143618331Y-114432616D01*
X143541837Y-114431451D01*
X143478043Y-114429942D01*
X143429418Y-114428147D01*
X143398433Y-114426121D01*
X143387556Y-114423922D01*
X143387578Y-114423463D01*
X143394614Y-114407910D01*
X143410434Y-114385071D01*
X143414734Y-114379638D01*
X143425777Y-114365606D01*
X143435311Y-114352186D01*
X143443461Y-114337722D01*
X143450352Y-114320556D01*
X143456111Y-114299034D01*
X143460862Y-114271498D01*
X143464731Y-114236292D01*
X143467844Y-114191760D01*
X143470325Y-114136246D01*
X143472300Y-114068093D01*
X143473894Y-113985645D01*
X143475234Y-113887246D01*
X143476444Y-113771239D01*
X143476896Y-113720462D01*
X144279378Y-113720462D01*
X144324048Y-113776973D01*
X144336785Y-113792212D01*
X144383604Y-113834844D01*
X144444255Y-113870672D01*
X144454897Y-113875850D01*
X144493676Y-113892745D01*
X144528692Y-113902909D01*
X144568722Y-113908325D01*
X144622541Y-113910978D01*
X144640648Y-113911383D01*
X144716011Y-113908540D01*
X144776743Y-113896620D01*
X144828452Y-113874037D01*
X144876746Y-113839211D01*
X144881803Y-113834798D01*
X144930272Y-113779160D01*
X144958459Y-113715333D01*
X144967752Y-113640282D01*
X144960520Y-113568693D01*
X144935796Y-113505645D01*
X144891249Y-113447758D01*
X144836319Y-113400808D01*
X144763894Y-113360961D01*
X144677340Y-113333263D01*
X144574670Y-113317096D01*
X144453894Y-113311842D01*
X144445007Y-113311857D01*
X144389660Y-113312655D01*
X144342736Y-113314488D01*
X144308953Y-113317111D01*
X144293028Y-113320274D01*
X144288943Y-113326741D01*
X144284572Y-113348875D01*
X144281604Y-113387988D01*
X144279914Y-113445939D01*
X144279378Y-113524586D01*
X144279378Y-113720462D01*
X143476896Y-113720462D01*
X143477649Y-113635968D01*
X143478975Y-113479778D01*
X143480228Y-113337012D01*
X143481651Y-113191942D01*
X143483176Y-113066027D01*
X143484933Y-112957436D01*
X143487051Y-112864334D01*
X143489660Y-112784891D01*
X143492890Y-112717273D01*
X143496869Y-112659649D01*
X143501728Y-112610185D01*
X143507597Y-112567050D01*
X143514604Y-112528410D01*
X143522880Y-112492434D01*
X143532554Y-112457289D01*
X143543756Y-112421142D01*
X143556616Y-112382161D01*
X143572090Y-112339091D01*
X143614994Y-112246871D01*
X143668735Y-112167099D01*
X143737576Y-112092965D01*
X143815185Y-112029405D01*
X143919761Y-111967725D01*
X144039244Y-111920202D01*
X144174508Y-111886567D01*
X144326426Y-111866552D01*
X144495872Y-111859889D01*
X144553890Y-111860287D01*
X144619398Y-111862335D01*
X144680693Y-111866704D01*
X144742097Y-111874035D01*
X144807932Y-111884969D01*
X144882520Y-111900147D01*
X144970184Y-111920209D01*
X145075245Y-111945797D01*
X145103806Y-111952820D01*
X145179054Y-111970776D01*
X145249388Y-111986820D01*
X145310567Y-112000028D01*
X145358354Y-112009474D01*
X145388511Y-112014231D01*
X145416783Y-112017910D01*
X145443060Y-112023187D01*
X145453059Y-112027942D01*
X145449952Y-112036781D01*
X145439194Y-112064072D01*
X145421864Y-112106906D01*
X145399126Y-112162425D01*
X145372147Y-112227772D01*
X145342090Y-112300089D01*
X145335493Y-112315879D01*
X145296907Y-112406484D01*
X145265768Y-112476217D01*
X145241917Y-112525405D01*
X145225198Y-112554374D01*
X145215454Y-112563452D01*
X145207766Y-112561405D01*
X145181415Y-112551760D01*
X145142982Y-112536190D01*
X145097822Y-112516815D01*
X145003293Y-112478814D01*
X144866480Y-112437780D01*
X144725289Y-112412612D01*
X144687314Y-112408611D01*
X144584059Y-112406447D01*
X144496952Y-112419622D01*
X144425129Y-112448756D01*
X144367731Y-112494466D01*
X144323896Y-112557372D01*
X144292762Y-112638092D01*
X144273470Y-112737245D01*
X144266050Y-112796224D01*
X144427936Y-112789445D01*
X144554495Y-112787813D01*
X144705951Y-112794194D01*
X144854396Y-112808777D01*
X144990578Y-112830882D01*
X145055245Y-112845821D01*
X145187490Y-112888741D01*
X145309762Y-112945340D01*
X145419685Y-113014017D01*
X145514883Y-113093170D01*
X145592980Y-113181196D01*
X145651599Y-113276493D01*
X145675595Y-113328864D01*
X145701232Y-113399590D01*
X145717478Y-113470812D01*
X145725822Y-113549712D01*
X145727690Y-113640282D01*
X145727755Y-113643467D01*
X145727261Y-113677363D01*
G37*
X145727261Y-113677363D02*
X145723632Y-113752202D01*
X145716022Y-113814401D01*
X145703688Y-113870984D01*
X145659313Y-113997076D01*
X145596400Y-114111679D01*
X145516238Y-114212568D01*
X145419740Y-114298924D01*
X145307822Y-114369932D01*
X145181397Y-114424776D01*
X145041378Y-114462638D01*
X145005149Y-114468351D01*
X144926155Y-114474313D01*
X144837841Y-114474646D01*
X144748075Y-114469659D01*
X144664722Y-114459666D01*
X144595651Y-114444978D01*
X144509187Y-114414749D01*
X144399286Y-114360057D01*
X144301956Y-114292543D01*
X144239867Y-114241556D01*
X144236605Y-114337622D01*
X144233343Y-114433689D01*
X143810450Y-114433689D01*
X143799543Y-114433686D01*
X143705056Y-114433380D01*
X143618331Y-114432616D01*
X143541837Y-114431451D01*
X143478043Y-114429942D01*
X143429418Y-114428147D01*
X143398433Y-114426121D01*
X143387556Y-114423922D01*
X143387578Y-114423463D01*
X143394614Y-114407910D01*
X143410434Y-114385071D01*
X143414734Y-114379638D01*
X143425777Y-114365606D01*
X143435311Y-114352186D01*
X143443461Y-114337722D01*
X143450352Y-114320556D01*
X143456111Y-114299034D01*
X143460862Y-114271498D01*
X143464731Y-114236292D01*
X143467844Y-114191760D01*
X143470325Y-114136246D01*
X143472300Y-114068093D01*
X143473894Y-113985645D01*
X143475234Y-113887246D01*
X143476444Y-113771239D01*
X143476896Y-113720462D01*
X144279378Y-113720462D01*
X144324048Y-113776973D01*
X144336785Y-113792212D01*
X144383604Y-113834844D01*
X144444255Y-113870672D01*
X144454897Y-113875850D01*
X144493676Y-113892745D01*
X144528692Y-113902909D01*
X144568722Y-113908325D01*
X144622541Y-113910978D01*
X144640648Y-113911383D01*
X144716011Y-113908540D01*
X144776743Y-113896620D01*
X144828452Y-113874037D01*
X144876746Y-113839211D01*
X144881803Y-113834798D01*
X144930272Y-113779160D01*
X144958459Y-113715333D01*
X144967752Y-113640282D01*
X144960520Y-113568693D01*
X144935796Y-113505645D01*
X144891249Y-113447758D01*
X144836319Y-113400808D01*
X144763894Y-113360961D01*
X144677340Y-113333263D01*
X144574670Y-113317096D01*
X144453894Y-113311842D01*
X144445007Y-113311857D01*
X144389660Y-113312655D01*
X144342736Y-113314488D01*
X144308953Y-113317111D01*
X144293028Y-113320274D01*
X144288943Y-113326741D01*
X144284572Y-113348875D01*
X144281604Y-113387988D01*
X144279914Y-113445939D01*
X144279378Y-113524586D01*
X144279378Y-113720462D01*
X143476896Y-113720462D01*
X143477649Y-113635968D01*
X143478975Y-113479778D01*
X143480228Y-113337012D01*
X143481651Y-113191942D01*
X143483176Y-113066027D01*
X143484933Y-112957436D01*
X143487051Y-112864334D01*
X143489660Y-112784891D01*
X143492890Y-112717273D01*
X143496869Y-112659649D01*
X143501728Y-112610185D01*
X143507597Y-112567050D01*
X143514604Y-112528410D01*
X143522880Y-112492434D01*
X143532554Y-112457289D01*
X143543756Y-112421142D01*
X143556616Y-112382161D01*
X143572090Y-112339091D01*
X143614994Y-112246871D01*
X143668735Y-112167099D01*
X143737576Y-112092965D01*
X143815185Y-112029405D01*
X143919761Y-111967725D01*
X144039244Y-111920202D01*
X144174508Y-111886567D01*
X144326426Y-111866552D01*
X144495872Y-111859889D01*
X144553890Y-111860287D01*
X144619398Y-111862335D01*
X144680693Y-111866704D01*
X144742097Y-111874035D01*
X144807932Y-111884969D01*
X144882520Y-111900147D01*
X144970184Y-111920209D01*
X145075245Y-111945797D01*
X145103806Y-111952820D01*
X145179054Y-111970776D01*
X145249388Y-111986820D01*
X145310567Y-112000028D01*
X145358354Y-112009474D01*
X145388511Y-112014231D01*
X145416783Y-112017910D01*
X145443060Y-112023187D01*
X145453059Y-112027942D01*
X145449952Y-112036781D01*
X145439194Y-112064072D01*
X145421864Y-112106906D01*
X145399126Y-112162425D01*
X145372147Y-112227772D01*
X145342090Y-112300089D01*
X145335493Y-112315879D01*
X145296907Y-112406484D01*
X145265768Y-112476217D01*
X145241917Y-112525405D01*
X145225198Y-112554374D01*
X145215454Y-112563452D01*
X145207766Y-112561405D01*
X145181415Y-112551760D01*
X145142982Y-112536190D01*
X145097822Y-112516815D01*
X145003293Y-112478814D01*
X144866480Y-112437780D01*
X144725289Y-112412612D01*
X144687314Y-112408611D01*
X144584059Y-112406447D01*
X144496952Y-112419622D01*
X144425129Y-112448756D01*
X144367731Y-112494466D01*
X144323896Y-112557372D01*
X144292762Y-112638092D01*
X144273470Y-112737245D01*
X144266050Y-112796224D01*
X144427936Y-112789445D01*
X144554495Y-112787813D01*
X144705951Y-112794194D01*
X144854396Y-112808777D01*
X144990578Y-112830882D01*
X145055245Y-112845821D01*
X145187490Y-112888741D01*
X145309762Y-112945340D01*
X145419685Y-113014017D01*
X145514883Y-113093170D01*
X145592980Y-113181196D01*
X145651599Y-113276493D01*
X145675595Y-113328864D01*
X145701232Y-113399590D01*
X145717478Y-113470812D01*
X145725822Y-113549712D01*
X145727690Y-113640282D01*
X145727755Y-113643467D01*
X145727261Y-113677363D01*
G36*
X150840853Y-115269936D02*
G01*
X150907100Y-115275366D01*
X150962400Y-115284964D01*
X151013283Y-115299825D01*
X151084595Y-115332958D01*
X151135752Y-115375640D01*
X151166575Y-115427705D01*
X151176889Y-115488983D01*
X151175952Y-115520232D01*
X151170160Y-115545029D01*
X151155353Y-115566699D01*
X151127380Y-115594049D01*
X151119402Y-115601378D01*
X151095692Y-115622281D01*
X151073298Y-115639251D01*
X151049265Y-115653205D01*
X151020637Y-115665056D01*
X150984460Y-115675720D01*
X150937780Y-115686111D01*
X150877641Y-115697146D01*
X150801090Y-115709738D01*
X150705171Y-115724804D01*
X150686808Y-115727838D01*
X150624478Y-115741458D01*
X150579260Y-115757192D01*
X150552976Y-115774263D01*
X150547447Y-115791897D01*
X150550068Y-115796168D01*
X150568000Y-115811233D01*
X150596126Y-115827867D01*
X150608926Y-115833857D01*
X150630224Y-115841050D01*
X150656610Y-115845827D01*
X150692454Y-115848646D01*
X150742128Y-115849964D01*
X150810000Y-115850237D01*
X150827785Y-115850164D01*
X150895406Y-115849053D01*
X150960345Y-115846828D01*
X151015970Y-115843762D01*
X151055651Y-115840127D01*
X151091162Y-115836059D01*
X151120415Y-115835276D01*
X151139315Y-115839876D01*
X151154429Y-115850551D01*
X151158085Y-115854144D01*
X151174427Y-115885918D01*
X151173107Y-115921572D01*
X151154150Y-115952190D01*
X151133780Y-115963796D01*
X151097796Y-115976491D01*
X151055372Y-115986541D01*
X151051922Y-115987140D01*
X151009252Y-115992356D01*
X150951866Y-115996730D01*
X150886849Y-115999818D01*
X150821289Y-116001177D01*
X150805057Y-116001218D01*
X150706744Y-115998741D01*
X150626692Y-115990735D01*
X150561513Y-115976203D01*
X150507817Y-115954149D01*
X150462216Y-115923576D01*
X150421323Y-115883486D01*
X150401202Y-115857259D01*
X150389576Y-115827712D01*
X150386667Y-115787995D01*
X150386808Y-115776026D01*
X150390681Y-115743345D01*
X150403065Y-115716819D01*
X150428230Y-115685971D01*
X150449442Y-115663831D01*
X150475838Y-115641285D01*
X150505555Y-115622917D01*
X150541785Y-115607661D01*
X150587717Y-115594449D01*
X150646544Y-115582214D01*
X150721456Y-115569889D01*
X150815645Y-115556406D01*
X150860957Y-115549396D01*
X150928911Y-115534837D01*
X150978047Y-115518337D01*
X151007614Y-115500439D01*
X151016864Y-115481685D01*
X151005048Y-115462615D01*
X150971416Y-115443771D01*
X150968370Y-115442557D01*
X150922011Y-115430479D01*
X150859361Y-115422279D01*
X150785927Y-115418119D01*
X150707217Y-115418161D01*
X150628739Y-115422569D01*
X150556000Y-115431505D01*
X150552073Y-115432154D01*
X150503257Y-115439861D01*
X150471005Y-115443473D01*
X150450008Y-115442876D01*
X150434954Y-115437954D01*
X150420534Y-115428596D01*
X150419364Y-115427725D01*
X150394847Y-115397351D01*
X150390054Y-115361850D01*
X150405860Y-115327269D01*
X150410406Y-115322813D01*
X150440020Y-115307673D01*
X150487002Y-115294550D01*
X150547306Y-115283750D01*
X150616888Y-115275581D01*
X150691703Y-115270351D01*
X150767706Y-115268367D01*
X150840853Y-115269936D01*
G37*
X150840853Y-115269936D02*
X150907100Y-115275366D01*
X150962400Y-115284964D01*
X151013283Y-115299825D01*
X151084595Y-115332958D01*
X151135752Y-115375640D01*
X151166575Y-115427705D01*
X151176889Y-115488983D01*
X151175952Y-115520232D01*
X151170160Y-115545029D01*
X151155353Y-115566699D01*
X151127380Y-115594049D01*
X151119402Y-115601378D01*
X151095692Y-115622281D01*
X151073298Y-115639251D01*
X151049265Y-115653205D01*
X151020637Y-115665056D01*
X150984460Y-115675720D01*
X150937780Y-115686111D01*
X150877641Y-115697146D01*
X150801090Y-115709738D01*
X150705171Y-115724804D01*
X150686808Y-115727838D01*
X150624478Y-115741458D01*
X150579260Y-115757192D01*
X150552976Y-115774263D01*
X150547447Y-115791897D01*
X150550068Y-115796168D01*
X150568000Y-115811233D01*
X150596126Y-115827867D01*
X150608926Y-115833857D01*
X150630224Y-115841050D01*
X150656610Y-115845827D01*
X150692454Y-115848646D01*
X150742128Y-115849964D01*
X150810000Y-115850237D01*
X150827785Y-115850164D01*
X150895406Y-115849053D01*
X150960345Y-115846828D01*
X151015970Y-115843762D01*
X151055651Y-115840127D01*
X151091162Y-115836059D01*
X151120415Y-115835276D01*
X151139315Y-115839876D01*
X151154429Y-115850551D01*
X151158085Y-115854144D01*
X151174427Y-115885918D01*
X151173107Y-115921572D01*
X151154150Y-115952190D01*
X151133780Y-115963796D01*
X151097796Y-115976491D01*
X151055372Y-115986541D01*
X151051922Y-115987140D01*
X151009252Y-115992356D01*
X150951866Y-115996730D01*
X150886849Y-115999818D01*
X150821289Y-116001177D01*
X150805057Y-116001218D01*
X150706744Y-115998741D01*
X150626692Y-115990735D01*
X150561513Y-115976203D01*
X150507817Y-115954149D01*
X150462216Y-115923576D01*
X150421323Y-115883486D01*
X150401202Y-115857259D01*
X150389576Y-115827712D01*
X150386667Y-115787995D01*
X150386808Y-115776026D01*
X150390681Y-115743345D01*
X150403065Y-115716819D01*
X150428230Y-115685971D01*
X150449442Y-115663831D01*
X150475838Y-115641285D01*
X150505555Y-115622917D01*
X150541785Y-115607661D01*
X150587717Y-115594449D01*
X150646544Y-115582214D01*
X150721456Y-115569889D01*
X150815645Y-115556406D01*
X150860957Y-115549396D01*
X150928911Y-115534837D01*
X150978047Y-115518337D01*
X151007614Y-115500439D01*
X151016864Y-115481685D01*
X151005048Y-115462615D01*
X150971416Y-115443771D01*
X150968370Y-115442557D01*
X150922011Y-115430479D01*
X150859361Y-115422279D01*
X150785927Y-115418119D01*
X150707217Y-115418161D01*
X150628739Y-115422569D01*
X150556000Y-115431505D01*
X150552073Y-115432154D01*
X150503257Y-115439861D01*
X150471005Y-115443473D01*
X150450008Y-115442876D01*
X150434954Y-115437954D01*
X150420534Y-115428596D01*
X150419364Y-115427725D01*
X150394847Y-115397351D01*
X150390054Y-115361850D01*
X150405860Y-115327269D01*
X150410406Y-115322813D01*
X150440020Y-115307673D01*
X150487002Y-115294550D01*
X150547306Y-115283750D01*
X150616888Y-115275581D01*
X150691703Y-115270351D01*
X150767706Y-115268367D01*
X150840853Y-115269936D01*
D12*
%TO.C,X20*%
X139500000Y-124800000D02*
X139500000Y-125400000D01*
X133500000Y-119400000D02*
X133500000Y-122100000D01*
X135050000Y-119400000D02*
X133500000Y-119400000D01*
X139500000Y-119400000D02*
X139500000Y-122100000D01*
X139500000Y-125400000D02*
X133500000Y-125400000D01*
X137950000Y-119400000D02*
X139500000Y-119400000D01*
X133500000Y-125400000D02*
X133500000Y-124800000D01*
D13*
X137400000Y-117950000D02*
G75*
G03*
X137400000Y-117950000I-100000J0D01*
G01*
D12*
%TO.C,X22*%
X117500000Y-124800000D02*
X117500000Y-125400000D01*
X111500000Y-119400000D02*
X111500000Y-122100000D01*
X117500000Y-125400000D02*
X111500000Y-125400000D01*
X115950000Y-119400000D02*
X117500000Y-119400000D01*
X117500000Y-119400000D02*
X117500000Y-122100000D01*
X111500000Y-125400000D02*
X111500000Y-124800000D01*
X113050000Y-119400000D02*
X111500000Y-119400000D01*
D13*
X115400000Y-117950000D02*
G75*
G03*
X115400000Y-117950000I-100000J0D01*
G01*
D12*
%TO.C,X21*%
X126950000Y-119400000D02*
X128500000Y-119400000D01*
X124050000Y-119400000D02*
X122500000Y-119400000D01*
X128500000Y-119400000D02*
X128500000Y-122100000D01*
X128500000Y-125400000D02*
X122500000Y-125400000D01*
X122500000Y-125400000D02*
X122500000Y-124800000D01*
X128500000Y-124800000D02*
X128500000Y-125400000D01*
X122500000Y-119400000D02*
X122500000Y-122100000D01*
D13*
X126400000Y-117950000D02*
G75*
G03*
X126400000Y-117950000I-100000J0D01*
G01*
%TO.C,X13*%
X157800000Y-108050000D02*
G75*
G03*
X157800000Y-108050000I-100000J0D01*
G01*
D12*
X155500000Y-100600000D02*
X161500000Y-100600000D01*
X159950000Y-106600000D02*
X161500000Y-106600000D01*
X161500000Y-106600000D02*
X161500000Y-103900000D01*
X155500000Y-101200000D02*
X155500000Y-100600000D01*
X157050000Y-106600000D02*
X155500000Y-106600000D01*
X155500000Y-106600000D02*
X155500000Y-103900000D01*
X161500000Y-100600000D02*
X161500000Y-101200000D01*
%TO.C,X15*%
X137950000Y-106600000D02*
X139500000Y-106600000D01*
X139500000Y-106600000D02*
X139500000Y-103900000D01*
X139500000Y-100600000D02*
X139500000Y-101200000D01*
X133500000Y-100600000D02*
X139500000Y-100600000D01*
X135050000Y-106600000D02*
X133500000Y-106600000D01*
X133500000Y-106600000D02*
X133500000Y-103900000D01*
X133500000Y-101200000D02*
X133500000Y-100600000D01*
D13*
X135800000Y-108050000D02*
G75*
G03*
X135800000Y-108050000I-100000J0D01*
G01*
D12*
%TO.C,X14*%
X146050000Y-106600000D02*
X144500000Y-106600000D01*
X144500000Y-100600000D02*
X150500000Y-100600000D01*
X144500000Y-106600000D02*
X144500000Y-103900000D01*
X144500000Y-101200000D02*
X144500000Y-100600000D01*
X150500000Y-106600000D02*
X150500000Y-103900000D01*
X148950000Y-106600000D02*
X150500000Y-106600000D01*
X150500000Y-100600000D02*
X150500000Y-101200000D01*
D13*
X146800000Y-108050000D02*
G75*
G03*
X146800000Y-108050000I-100000J0D01*
G01*
D12*
%TO.C,X18*%
X161500000Y-124800000D02*
X161500000Y-125400000D01*
X157050000Y-119400000D02*
X155500000Y-119400000D01*
X161500000Y-125400000D02*
X155500000Y-125400000D01*
X155500000Y-125400000D02*
X155500000Y-124800000D01*
X161500000Y-119400000D02*
X161500000Y-122100000D01*
X159950000Y-119400000D02*
X161500000Y-119400000D01*
X155500000Y-119400000D02*
X155500000Y-122100000D01*
D13*
X159400000Y-117950000D02*
G75*
G03*
X159400000Y-117950000I-100000J0D01*
G01*
D12*
%TO.C,X19*%
X150500000Y-124800000D02*
X150500000Y-125400000D01*
X150500000Y-119400000D02*
X150500000Y-122100000D01*
X144500000Y-125400000D02*
X144500000Y-124800000D01*
X150500000Y-125400000D02*
X144500000Y-125400000D01*
X144500000Y-119400000D02*
X144500000Y-122100000D01*
X146050000Y-119400000D02*
X144500000Y-119400000D01*
X148950000Y-119400000D02*
X150500000Y-119400000D01*
D13*
X148400000Y-117950000D02*
G75*
G03*
X148400000Y-117950000I-100000J0D01*
G01*
D12*
%TO.C,X17*%
X117500000Y-100600000D02*
X117500000Y-101200000D01*
X111500000Y-106600000D02*
X111500000Y-103900000D01*
X111500000Y-100600000D02*
X117500000Y-100600000D01*
X117500000Y-106600000D02*
X117500000Y-103900000D01*
X111500000Y-101200000D02*
X111500000Y-100600000D01*
X115950000Y-106600000D02*
X117500000Y-106600000D01*
X113050000Y-106600000D02*
X111500000Y-106600000D01*
D13*
X113800000Y-108050000D02*
G75*
G03*
X113800000Y-108050000I-100000J0D01*
G01*
D12*
%TO.C,X16*%
X128500000Y-100600000D02*
X128500000Y-101200000D01*
X122500000Y-101200000D02*
X122500000Y-100600000D01*
X126950000Y-106600000D02*
X128500000Y-106600000D01*
X124050000Y-106600000D02*
X122500000Y-106600000D01*
X128500000Y-106600000D02*
X128500000Y-103900000D01*
X122500000Y-100600000D02*
X128500000Y-100600000D01*
X122500000Y-106600000D02*
X122500000Y-103900000D01*
D13*
X124800000Y-108050000D02*
G75*
G03*
X124800000Y-108050000I-100000J0D01*
G01*
%TD*%
M02*
