%TF.GenerationSoftware,KiCad,Pcbnew,6.0.7-f9a2dced07~116~ubuntu20.04.1*%
%TF.CreationDate,2022-09-20T13:31:56+02:00*%
%TF.ProjectId,MateLightPowerSupplyPcb,4d617465-4c69-4676-9874-506f77657253,rev?*%
%TF.SameCoordinates,Original*%
%TF.FileFunction,Legend,Top*%
%TF.FilePolarity,Positive*%
%FSLAX46Y46*%
G04 Gerber Fmt 4.6, Leading zero omitted, Abs format (unit mm)*
G04 Created by KiCad (PCBNEW 6.0.7-f9a2dced07~116~ubuntu20.04.1) date 2022-09-20 13:31:56*
%MOMM*%
%LPD*%
G01*
G04 APERTURE LIST*
%ADD10C,0.150000*%
%ADD11C,0.010000*%
%ADD12C,0.127000*%
%ADD13C,0.300000*%
%ADD14C,0.100000*%
G04 APERTURE END LIST*
D10*
X126523809Y-114976857D02*
X126523809Y-113776857D01*
X126523809Y-114234000D02*
X126600000Y-114176857D01*
X126752380Y-114176857D01*
X126828571Y-114234000D01*
X126866666Y-114291142D01*
X126904761Y-114405428D01*
X126904761Y-114748285D01*
X126866666Y-114862571D01*
X126828571Y-114919714D01*
X126752380Y-114976857D01*
X126600000Y-114976857D01*
X126523809Y-114919714D01*
X127171428Y-114176857D02*
X127361904Y-114976857D01*
X127552380Y-114176857D02*
X127361904Y-114976857D01*
X127285714Y-115262571D01*
X127247619Y-115319714D01*
X127171428Y-115376857D01*
X122409523Y-116908857D02*
X122409523Y-115708857D01*
X122409523Y-116280285D02*
X122866666Y-116280285D01*
X122866666Y-116908857D02*
X122866666Y-115708857D01*
X123590476Y-116908857D02*
X123590476Y-116280285D01*
X123552380Y-116166000D01*
X123476190Y-116108857D01*
X123323809Y-116108857D01*
X123247619Y-116166000D01*
X123590476Y-116851714D02*
X123514285Y-116908857D01*
X123323809Y-116908857D01*
X123247619Y-116851714D01*
X123209523Y-116737428D01*
X123209523Y-116623142D01*
X123247619Y-116508857D01*
X123323809Y-116451714D01*
X123514285Y-116451714D01*
X123590476Y-116394571D01*
X123971428Y-116108857D02*
X123971428Y-116908857D01*
X123971428Y-116223142D02*
X124009523Y-116166000D01*
X124085714Y-116108857D01*
X124200000Y-116108857D01*
X124276190Y-116166000D01*
X124314285Y-116280285D01*
X124314285Y-116908857D01*
X124657142Y-116851714D02*
X124733333Y-116908857D01*
X124885714Y-116908857D01*
X124961904Y-116851714D01*
X125000000Y-116737428D01*
X125000000Y-116680285D01*
X124961904Y-116566000D01*
X124885714Y-116508857D01*
X124771428Y-116508857D01*
X124695238Y-116451714D01*
X124657142Y-116337428D01*
X124657142Y-116280285D01*
X124695238Y-116166000D01*
X124771428Y-116108857D01*
X124885714Y-116108857D01*
X124961904Y-116166000D01*
X125304761Y-116566000D02*
X125685714Y-116566000D01*
X125228571Y-116908857D02*
X125495238Y-115708857D01*
X125761904Y-116908857D01*
X126371428Y-116851714D02*
X126295238Y-116908857D01*
X126142857Y-116908857D01*
X126066666Y-116851714D01*
X126028571Y-116794571D01*
X125990476Y-116680285D01*
X125990476Y-116337428D01*
X126028571Y-116223142D01*
X126066666Y-116166000D01*
X126142857Y-116108857D01*
X126295238Y-116108857D01*
X126371428Y-116166000D01*
X126714285Y-116908857D02*
X126714285Y-115708857D01*
X127057142Y-116908857D02*
X127057142Y-116280285D01*
X127019047Y-116166000D01*
X126942857Y-116108857D01*
X126828571Y-116108857D01*
X126752380Y-116166000D01*
X126714285Y-116223142D01*
X127323809Y-116108857D02*
X127628571Y-116108857D01*
X127438095Y-115708857D02*
X127438095Y-116737428D01*
X127476190Y-116851714D01*
X127552380Y-116908857D01*
X127628571Y-116908857D01*
X128199999Y-116851714D02*
X128123809Y-116908857D01*
X127971428Y-116908857D01*
X127895238Y-116851714D01*
X127857142Y-116737428D01*
X127857142Y-116280285D01*
X127895238Y-116166000D01*
X127971428Y-116108857D01*
X128123809Y-116108857D01*
X128199999Y-116166000D01*
X128238095Y-116280285D01*
X128238095Y-116394571D01*
X127857142Y-116508857D01*
X128580952Y-116908857D02*
X128580952Y-116108857D01*
X128580952Y-116337428D02*
X128619047Y-116223142D01*
X128657142Y-116166000D01*
X128733333Y-116108857D01*
X128809523Y-116108857D01*
X129076190Y-116908857D02*
X129076190Y-115708857D01*
X129076190Y-116166000D02*
X129152380Y-116108857D01*
X129304761Y-116108857D01*
X129380952Y-116166000D01*
X129419047Y-116223142D01*
X129457142Y-116337428D01*
X129457142Y-116680285D01*
X129419047Y-116794571D01*
X129380952Y-116851714D01*
X129304761Y-116908857D01*
X129152380Y-116908857D01*
X129076190Y-116851714D01*
X130142857Y-116908857D02*
X130142857Y-116280285D01*
X130104761Y-116166000D01*
X130028571Y-116108857D01*
X129876190Y-116108857D01*
X129799999Y-116166000D01*
X130142857Y-116851714D02*
X130066666Y-116908857D01*
X129876190Y-116908857D01*
X129799999Y-116851714D01*
X129761904Y-116737428D01*
X129761904Y-116623142D01*
X129799999Y-116508857D01*
X129876190Y-116451714D01*
X130066666Y-116451714D01*
X130142857Y-116394571D01*
X130523809Y-116908857D02*
X130523809Y-115708857D01*
X130866666Y-116908857D02*
X130866666Y-116280285D01*
X130828571Y-116166000D01*
X130752380Y-116108857D01*
X130638095Y-116108857D01*
X130561904Y-116166000D01*
X130523809Y-116223142D01*
X131247619Y-116108857D02*
X131247619Y-116908857D01*
X131247619Y-116223142D02*
X131285714Y-116166000D01*
X131361904Y-116108857D01*
X131476190Y-116108857D01*
X131552380Y-116166000D01*
X131590476Y-116280285D01*
X131590476Y-116908857D01*
X162909523Y-122361904D02*
X162909523Y-121561904D01*
X162909523Y-121942857D02*
X163366666Y-121942857D01*
X163366666Y-122361904D02*
X163366666Y-121561904D01*
X164090476Y-122361904D02*
X164090476Y-121942857D01*
X164052380Y-121866666D01*
X163976190Y-121828571D01*
X163823809Y-121828571D01*
X163747619Y-121866666D01*
X164090476Y-122323809D02*
X164014285Y-122361904D01*
X163823809Y-122361904D01*
X163747619Y-122323809D01*
X163709523Y-122247619D01*
X163709523Y-122171428D01*
X163747619Y-122095238D01*
X163823809Y-122057142D01*
X164014285Y-122057142D01*
X164090476Y-122019047D01*
X164471428Y-121828571D02*
X164471428Y-122361904D01*
X164471428Y-121904761D02*
X164509523Y-121866666D01*
X164585714Y-121828571D01*
X164700000Y-121828571D01*
X164776190Y-121866666D01*
X164814285Y-121942857D01*
X164814285Y-122361904D01*
X165157142Y-122323809D02*
X165233333Y-122361904D01*
X165385714Y-122361904D01*
X165461904Y-122323809D01*
X165500000Y-122247619D01*
X165500000Y-122209523D01*
X165461904Y-122133333D01*
X165385714Y-122095238D01*
X165271428Y-122095238D01*
X165195238Y-122057142D01*
X165157142Y-121980952D01*
X165157142Y-121942857D01*
X165195238Y-121866666D01*
X165271428Y-121828571D01*
X165385714Y-121828571D01*
X165461904Y-121866666D01*
X165804761Y-122133333D02*
X166185714Y-122133333D01*
X165728571Y-122361904D02*
X165995238Y-121561904D01*
X166261904Y-122361904D01*
X166871428Y-122323809D02*
X166795238Y-122361904D01*
X166642857Y-122361904D01*
X166566666Y-122323809D01*
X166528571Y-122285714D01*
X166490476Y-122209523D01*
X166490476Y-121980952D01*
X166528571Y-121904761D01*
X166566666Y-121866666D01*
X166642857Y-121828571D01*
X166795238Y-121828571D01*
X166871428Y-121866666D01*
X167214285Y-122361904D02*
X167214285Y-121561904D01*
X167557142Y-122361904D02*
X167557142Y-121942857D01*
X167519047Y-121866666D01*
X167442857Y-121828571D01*
X167328571Y-121828571D01*
X167252380Y-121866666D01*
X167214285Y-121904761D01*
X167823809Y-121828571D02*
X168128571Y-121828571D01*
X167938095Y-121561904D02*
X167938095Y-122247619D01*
X167976190Y-122323809D01*
X168052380Y-122361904D01*
X168128571Y-122361904D01*
X168700000Y-122323809D02*
X168623809Y-122361904D01*
X168471428Y-122361904D01*
X168395238Y-122323809D01*
X168357142Y-122247619D01*
X168357142Y-121942857D01*
X168395238Y-121866666D01*
X168471428Y-121828571D01*
X168623809Y-121828571D01*
X168700000Y-121866666D01*
X168738095Y-121942857D01*
X168738095Y-122019047D01*
X168357142Y-122095238D01*
X169080952Y-122361904D02*
X169080952Y-121828571D01*
X169080952Y-121980952D02*
X169119047Y-121904761D01*
X169157142Y-121866666D01*
X169233333Y-121828571D01*
X169309523Y-121828571D01*
X169576190Y-122361904D02*
X169576190Y-121561904D01*
X169576190Y-121866666D02*
X169652380Y-121828571D01*
X169804761Y-121828571D01*
X169880952Y-121866666D01*
X169919047Y-121904761D01*
X169957142Y-121980952D01*
X169957142Y-122209523D01*
X169919047Y-122285714D01*
X169880952Y-122323809D01*
X169804761Y-122361904D01*
X169652380Y-122361904D01*
X169576190Y-122323809D01*
X170642857Y-122361904D02*
X170642857Y-121942857D01*
X170604761Y-121866666D01*
X170528571Y-121828571D01*
X170376190Y-121828571D01*
X170300000Y-121866666D01*
X170642857Y-122323809D02*
X170566666Y-122361904D01*
X170376190Y-122361904D01*
X170300000Y-122323809D01*
X170261904Y-122247619D01*
X170261904Y-122171428D01*
X170300000Y-122095238D01*
X170376190Y-122057142D01*
X170566666Y-122057142D01*
X170642857Y-122019047D01*
X171023809Y-122361904D02*
X171023809Y-121561904D01*
X171366666Y-122361904D02*
X171366666Y-121942857D01*
X171328571Y-121866666D01*
X171252380Y-121828571D01*
X171138095Y-121828571D01*
X171061904Y-121866666D01*
X171023809Y-121904761D01*
X171747619Y-121828571D02*
X171747619Y-122361904D01*
X171747619Y-121904761D02*
X171785714Y-121866666D01*
X171861904Y-121828571D01*
X171976190Y-121828571D01*
X172052380Y-121866666D01*
X172090476Y-121942857D01*
X172090476Y-122361904D01*
X144657142Y-110232380D02*
X144657142Y-109232380D01*
X145000000Y-110232380D02*
X145000000Y-109708571D01*
X144961904Y-109613333D01*
X144885714Y-109565714D01*
X144771428Y-109565714D01*
X144695238Y-109613333D01*
X144657142Y-109660952D01*
X145266666Y-109565714D02*
X145571428Y-109565714D01*
X145380952Y-109232380D02*
X145380952Y-110089523D01*
X145419047Y-110184761D01*
X145495238Y-110232380D01*
X145571428Y-110232380D01*
X145723809Y-109565714D02*
X146028571Y-109565714D01*
X145838095Y-109232380D02*
X145838095Y-110089523D01*
X145876190Y-110184761D01*
X145952380Y-110232380D01*
X146028571Y-110232380D01*
X146295238Y-109565714D02*
X146295238Y-110565714D01*
X146295238Y-109613333D02*
X146371428Y-109565714D01*
X146523809Y-109565714D01*
X146600000Y-109613333D01*
X146638095Y-109660952D01*
X146676190Y-109756190D01*
X146676190Y-110041904D01*
X146638095Y-110137142D01*
X146600000Y-110184761D01*
X146523809Y-110232380D01*
X146371428Y-110232380D01*
X146295238Y-110184761D01*
X146980952Y-110184761D02*
X147057142Y-110232380D01*
X147209523Y-110232380D01*
X147285714Y-110184761D01*
X147323809Y-110089523D01*
X147323809Y-110041904D01*
X147285714Y-109946666D01*
X147209523Y-109899047D01*
X147095238Y-109899047D01*
X147019047Y-109851428D01*
X146980952Y-109756190D01*
X146980952Y-109708571D01*
X147019047Y-109613333D01*
X147095238Y-109565714D01*
X147209523Y-109565714D01*
X147285714Y-109613333D01*
X147666666Y-110137142D02*
X147704761Y-110184761D01*
X147666666Y-110232380D01*
X147628571Y-110184761D01*
X147666666Y-110137142D01*
X147666666Y-110232380D01*
X147666666Y-109613333D02*
X147704761Y-109660952D01*
X147666666Y-109708571D01*
X147628571Y-109660952D01*
X147666666Y-109613333D01*
X147666666Y-109708571D01*
X148619047Y-109184761D02*
X147933333Y-110470476D01*
X149457142Y-109184761D02*
X148771428Y-110470476D01*
X143819047Y-111175714D02*
X143819047Y-111985238D01*
X143780952Y-112080476D01*
X143742857Y-112128095D01*
X143666666Y-112175714D01*
X143552380Y-112175714D01*
X143476190Y-112128095D01*
X143819047Y-111794761D02*
X143742857Y-111842380D01*
X143590476Y-111842380D01*
X143514285Y-111794761D01*
X143476190Y-111747142D01*
X143438095Y-111651904D01*
X143438095Y-111366190D01*
X143476190Y-111270952D01*
X143514285Y-111223333D01*
X143590476Y-111175714D01*
X143742857Y-111175714D01*
X143819047Y-111223333D01*
X144200000Y-111842380D02*
X144200000Y-111175714D01*
X144200000Y-110842380D02*
X144161904Y-110890000D01*
X144200000Y-110937619D01*
X144238095Y-110890000D01*
X144200000Y-110842380D01*
X144200000Y-110937619D01*
X144466666Y-111175714D02*
X144771428Y-111175714D01*
X144580952Y-110842380D02*
X144580952Y-111699523D01*
X144619047Y-111794761D01*
X144695238Y-111842380D01*
X144771428Y-111842380D01*
X145038095Y-111842380D02*
X145038095Y-110842380D01*
X145380952Y-111842380D02*
X145380952Y-111318571D01*
X145342857Y-111223333D01*
X145266666Y-111175714D01*
X145152380Y-111175714D01*
X145076190Y-111223333D01*
X145038095Y-111270952D01*
X146104761Y-111175714D02*
X146104761Y-111842380D01*
X145761904Y-111175714D02*
X145761904Y-111699523D01*
X145800000Y-111794761D01*
X145876190Y-111842380D01*
X145990476Y-111842380D01*
X146066666Y-111794761D01*
X146104761Y-111747142D01*
X146485714Y-111842380D02*
X146485714Y-110842380D01*
X146485714Y-111223333D02*
X146561904Y-111175714D01*
X146714285Y-111175714D01*
X146790476Y-111223333D01*
X146828571Y-111270952D01*
X146866666Y-111366190D01*
X146866666Y-111651904D01*
X146828571Y-111747142D01*
X146790476Y-111794761D01*
X146714285Y-111842380D01*
X146561904Y-111842380D01*
X146485714Y-111794761D01*
X147209523Y-111747142D02*
X147247619Y-111794761D01*
X147209523Y-111842380D01*
X147171428Y-111794761D01*
X147209523Y-111747142D01*
X147209523Y-111842380D01*
X147933333Y-111794761D02*
X147857142Y-111842380D01*
X147704761Y-111842380D01*
X147628571Y-111794761D01*
X147590476Y-111747142D01*
X147552380Y-111651904D01*
X147552380Y-111366190D01*
X147590476Y-111270952D01*
X147628571Y-111223333D01*
X147704761Y-111175714D01*
X147857142Y-111175714D01*
X147933333Y-111223333D01*
X148390476Y-111842380D02*
X148314285Y-111794761D01*
X148276190Y-111747142D01*
X148238095Y-111651904D01*
X148238095Y-111366190D01*
X148276190Y-111270952D01*
X148314285Y-111223333D01*
X148390476Y-111175714D01*
X148504761Y-111175714D01*
X148580952Y-111223333D01*
X148619047Y-111270952D01*
X148657142Y-111366190D01*
X148657142Y-111651904D01*
X148619047Y-111747142D01*
X148580952Y-111794761D01*
X148504761Y-111842380D01*
X148390476Y-111842380D01*
X149000000Y-111842380D02*
X149000000Y-111175714D01*
X149000000Y-111270952D02*
X149038095Y-111223333D01*
X149114285Y-111175714D01*
X149228571Y-111175714D01*
X149304761Y-111223333D01*
X149342857Y-111318571D01*
X149342857Y-111842380D01*
X149342857Y-111318571D02*
X149380952Y-111223333D01*
X149457142Y-111175714D01*
X149571428Y-111175714D01*
X149647619Y-111223333D01*
X149685714Y-111318571D01*
X149685714Y-111842380D01*
X150638095Y-110794761D02*
X149952380Y-112080476D01*
X141990476Y-113452380D02*
X141990476Y-112452380D01*
X141990476Y-112928571D02*
X142447619Y-112928571D01*
X142447619Y-113452380D02*
X142447619Y-112452380D01*
X143171428Y-113452380D02*
X143171428Y-112928571D01*
X143133333Y-112833333D01*
X143057142Y-112785714D01*
X142904761Y-112785714D01*
X142828571Y-112833333D01*
X143171428Y-113404761D02*
X143095238Y-113452380D01*
X142904761Y-113452380D01*
X142828571Y-113404761D01*
X142790476Y-113309523D01*
X142790476Y-113214285D01*
X142828571Y-113119047D01*
X142904761Y-113071428D01*
X143095238Y-113071428D01*
X143171428Y-113023809D01*
X143552380Y-112785714D02*
X143552380Y-113452380D01*
X143552380Y-112880952D02*
X143590476Y-112833333D01*
X143666666Y-112785714D01*
X143780952Y-112785714D01*
X143857142Y-112833333D01*
X143895238Y-112928571D01*
X143895238Y-113452380D01*
X144238095Y-113404761D02*
X144314285Y-113452380D01*
X144466666Y-113452380D01*
X144542857Y-113404761D01*
X144580952Y-113309523D01*
X144580952Y-113261904D01*
X144542857Y-113166666D01*
X144466666Y-113119047D01*
X144352380Y-113119047D01*
X144276190Y-113071428D01*
X144238095Y-112976190D01*
X144238095Y-112928571D01*
X144276190Y-112833333D01*
X144352380Y-112785714D01*
X144466666Y-112785714D01*
X144542857Y-112833333D01*
X144885714Y-113166666D02*
X145266666Y-113166666D01*
X144809523Y-113452380D02*
X145076190Y-112452380D01*
X145342857Y-113452380D01*
X145952380Y-113404761D02*
X145876190Y-113452380D01*
X145723809Y-113452380D01*
X145647619Y-113404761D01*
X145609523Y-113357142D01*
X145571428Y-113261904D01*
X145571428Y-112976190D01*
X145609523Y-112880952D01*
X145647619Y-112833333D01*
X145723809Y-112785714D01*
X145876190Y-112785714D01*
X145952380Y-112833333D01*
X146295238Y-113452380D02*
X146295238Y-112452380D01*
X146638095Y-113452380D02*
X146638095Y-112928571D01*
X146600000Y-112833333D01*
X146523809Y-112785714D01*
X146409523Y-112785714D01*
X146333333Y-112833333D01*
X146295238Y-112880952D01*
X146904761Y-112785714D02*
X147209523Y-112785714D01*
X147019047Y-112452380D02*
X147019047Y-113309523D01*
X147057142Y-113404761D01*
X147133333Y-113452380D01*
X147209523Y-113452380D01*
X147780952Y-113404761D02*
X147704761Y-113452380D01*
X147552380Y-113452380D01*
X147476190Y-113404761D01*
X147438095Y-113309523D01*
X147438095Y-112928571D01*
X147476190Y-112833333D01*
X147552380Y-112785714D01*
X147704761Y-112785714D01*
X147780952Y-112833333D01*
X147819047Y-112928571D01*
X147819047Y-113023809D01*
X147438095Y-113119047D01*
X148161904Y-113452380D02*
X148161904Y-112785714D01*
X148161904Y-112976190D02*
X148200000Y-112880952D01*
X148238095Y-112833333D01*
X148314285Y-112785714D01*
X148390476Y-112785714D01*
X148657142Y-113452380D02*
X148657142Y-112452380D01*
X148657142Y-112833333D02*
X148733333Y-112785714D01*
X148885714Y-112785714D01*
X148961904Y-112833333D01*
X149000000Y-112880952D01*
X149038095Y-112976190D01*
X149038095Y-113261904D01*
X149000000Y-113357142D01*
X148961904Y-113404761D01*
X148885714Y-113452380D01*
X148733333Y-113452380D01*
X148657142Y-113404761D01*
X149723809Y-113452380D02*
X149723809Y-112928571D01*
X149685714Y-112833333D01*
X149609523Y-112785714D01*
X149457142Y-112785714D01*
X149380952Y-112833333D01*
X149723809Y-113404761D02*
X149647619Y-113452380D01*
X149457142Y-113452380D01*
X149380952Y-113404761D01*
X149342857Y-113309523D01*
X149342857Y-113214285D01*
X149380952Y-113119047D01*
X149457142Y-113071428D01*
X149647619Y-113071428D01*
X149723809Y-113023809D01*
X150104761Y-113452380D02*
X150104761Y-112452380D01*
X150447619Y-113452380D02*
X150447619Y-112928571D01*
X150409523Y-112833333D01*
X150333333Y-112785714D01*
X150219047Y-112785714D01*
X150142857Y-112833333D01*
X150104761Y-112880952D01*
X150828571Y-112785714D02*
X150828571Y-113452380D01*
X150828571Y-112880952D02*
X150866666Y-112833333D01*
X150942857Y-112785714D01*
X151057142Y-112785714D01*
X151133333Y-112833333D01*
X151171428Y-112928571D01*
X151171428Y-113452380D01*
X152123809Y-112404761D02*
X151438095Y-113690476D01*
X140980952Y-115062380D02*
X140980952Y-114062380D01*
X141247619Y-114776666D01*
X141514285Y-114062380D01*
X141514285Y-115062380D01*
X142238095Y-115062380D02*
X142238095Y-114538571D01*
X142200000Y-114443333D01*
X142123809Y-114395714D01*
X141971428Y-114395714D01*
X141895238Y-114443333D01*
X142238095Y-115014761D02*
X142161904Y-115062380D01*
X141971428Y-115062380D01*
X141895238Y-115014761D01*
X141857142Y-114919523D01*
X141857142Y-114824285D01*
X141895238Y-114729047D01*
X141971428Y-114681428D01*
X142161904Y-114681428D01*
X142238095Y-114633809D01*
X142504761Y-114395714D02*
X142809523Y-114395714D01*
X142619047Y-114062380D02*
X142619047Y-114919523D01*
X142657142Y-115014761D01*
X142733333Y-115062380D01*
X142809523Y-115062380D01*
X143380952Y-115014761D02*
X143304761Y-115062380D01*
X143152380Y-115062380D01*
X143076190Y-115014761D01*
X143038095Y-114919523D01*
X143038095Y-114538571D01*
X143076190Y-114443333D01*
X143152380Y-114395714D01*
X143304761Y-114395714D01*
X143380952Y-114443333D01*
X143419047Y-114538571D01*
X143419047Y-114633809D01*
X143038095Y-114729047D01*
X144142857Y-115062380D02*
X143761904Y-115062380D01*
X143761904Y-114062380D01*
X144409523Y-115062380D02*
X144409523Y-114395714D01*
X144409523Y-114062380D02*
X144371428Y-114110000D01*
X144409523Y-114157619D01*
X144447619Y-114110000D01*
X144409523Y-114062380D01*
X144409523Y-114157619D01*
X145133333Y-114395714D02*
X145133333Y-115205238D01*
X145095238Y-115300476D01*
X145057142Y-115348095D01*
X144980952Y-115395714D01*
X144866666Y-115395714D01*
X144790476Y-115348095D01*
X145133333Y-115014761D02*
X145057142Y-115062380D01*
X144904761Y-115062380D01*
X144828571Y-115014761D01*
X144790476Y-114967142D01*
X144752380Y-114871904D01*
X144752380Y-114586190D01*
X144790476Y-114490952D01*
X144828571Y-114443333D01*
X144904761Y-114395714D01*
X145057142Y-114395714D01*
X145133333Y-114443333D01*
X145514285Y-115062380D02*
X145514285Y-114062380D01*
X145857142Y-115062380D02*
X145857142Y-114538571D01*
X145819047Y-114443333D01*
X145742857Y-114395714D01*
X145628571Y-114395714D01*
X145552380Y-114443333D01*
X145514285Y-114490952D01*
X146123809Y-114395714D02*
X146428571Y-114395714D01*
X146238095Y-114062380D02*
X146238095Y-114919523D01*
X146276190Y-115014761D01*
X146352380Y-115062380D01*
X146428571Y-115062380D01*
X146657142Y-115014761D02*
X146771428Y-115062380D01*
X146961904Y-115062380D01*
X147038095Y-115014761D01*
X147076190Y-114967142D01*
X147114285Y-114871904D01*
X147114285Y-114776666D01*
X147076190Y-114681428D01*
X147038095Y-114633809D01*
X146961904Y-114586190D01*
X146809523Y-114538571D01*
X146733333Y-114490952D01*
X146695238Y-114443333D01*
X146657142Y-114348095D01*
X146657142Y-114252857D01*
X146695238Y-114157619D01*
X146733333Y-114110000D01*
X146809523Y-114062380D01*
X147000000Y-114062380D01*
X147114285Y-114110000D01*
X147800000Y-115014761D02*
X147723809Y-115062380D01*
X147571428Y-115062380D01*
X147495238Y-115014761D01*
X147457142Y-114967142D01*
X147419047Y-114871904D01*
X147419047Y-114586190D01*
X147457142Y-114490952D01*
X147495238Y-114443333D01*
X147571428Y-114395714D01*
X147723809Y-114395714D01*
X147800000Y-114443333D01*
X148142857Y-115062380D02*
X148142857Y-114395714D01*
X148142857Y-114586190D02*
X148180952Y-114490952D01*
X148219047Y-114443333D01*
X148295238Y-114395714D01*
X148371428Y-114395714D01*
X148942857Y-115014761D02*
X148866666Y-115062380D01*
X148714285Y-115062380D01*
X148638095Y-115014761D01*
X148600000Y-114919523D01*
X148600000Y-114538571D01*
X148638095Y-114443333D01*
X148714285Y-114395714D01*
X148866666Y-114395714D01*
X148942857Y-114443333D01*
X148980952Y-114538571D01*
X148980952Y-114633809D01*
X148600000Y-114729047D01*
X149247619Y-114395714D02*
X149400000Y-115062380D01*
X149552380Y-114586190D01*
X149704761Y-115062380D01*
X149857142Y-114395714D01*
X150619047Y-114967142D02*
X150580952Y-115014761D01*
X150466666Y-115062380D01*
X150390476Y-115062380D01*
X150276190Y-115014761D01*
X150200000Y-114919523D01*
X150161904Y-114824285D01*
X150123809Y-114633809D01*
X150123809Y-114490952D01*
X150161904Y-114300476D01*
X150200000Y-114205238D01*
X150276190Y-114110000D01*
X150390476Y-114062380D01*
X150466666Y-114062380D01*
X150580952Y-114110000D01*
X150619047Y-114157619D01*
X151304761Y-115062380D02*
X151304761Y-114538571D01*
X151266666Y-114443333D01*
X151190476Y-114395714D01*
X151038095Y-114395714D01*
X150961904Y-114443333D01*
X151304761Y-115014761D02*
X151228571Y-115062380D01*
X151038095Y-115062380D01*
X150961904Y-115014761D01*
X150923809Y-114919523D01*
X150923809Y-114824285D01*
X150961904Y-114729047D01*
X151038095Y-114681428D01*
X151228571Y-114681428D01*
X151304761Y-114633809D01*
X151685714Y-114395714D02*
X151685714Y-115395714D01*
X151685714Y-114443333D02*
X151761904Y-114395714D01*
X151914285Y-114395714D01*
X151990476Y-114443333D01*
X152028571Y-114490952D01*
X152066666Y-114586190D01*
X152066666Y-114871904D01*
X152028571Y-114967142D01*
X151990476Y-115014761D01*
X151914285Y-115062380D01*
X151761904Y-115062380D01*
X151685714Y-115014761D01*
X152409523Y-114681428D02*
X153019047Y-114681428D01*
X143438095Y-116672380D02*
X143438095Y-115672380D01*
X143742857Y-115672380D01*
X143819047Y-115720000D01*
X143857142Y-115767619D01*
X143895238Y-115862857D01*
X143895238Y-116005714D01*
X143857142Y-116100952D01*
X143819047Y-116148571D01*
X143742857Y-116196190D01*
X143438095Y-116196190D01*
X144352380Y-116672380D02*
X144276190Y-116624761D01*
X144238095Y-116577142D01*
X144200000Y-116481904D01*
X144200000Y-116196190D01*
X144238095Y-116100952D01*
X144276190Y-116053333D01*
X144352380Y-116005714D01*
X144466666Y-116005714D01*
X144542857Y-116053333D01*
X144580952Y-116100952D01*
X144619047Y-116196190D01*
X144619047Y-116481904D01*
X144580952Y-116577142D01*
X144542857Y-116624761D01*
X144466666Y-116672380D01*
X144352380Y-116672380D01*
X144885714Y-116005714D02*
X145038095Y-116672380D01*
X145190476Y-116196190D01*
X145342857Y-116672380D01*
X145495238Y-116005714D01*
X146104761Y-116624761D02*
X146028571Y-116672380D01*
X145876190Y-116672380D01*
X145800000Y-116624761D01*
X145761904Y-116529523D01*
X145761904Y-116148571D01*
X145800000Y-116053333D01*
X145876190Y-116005714D01*
X146028571Y-116005714D01*
X146104761Y-116053333D01*
X146142857Y-116148571D01*
X146142857Y-116243809D01*
X145761904Y-116339047D01*
X146485714Y-116672380D02*
X146485714Y-116005714D01*
X146485714Y-116196190D02*
X146523809Y-116100952D01*
X146561904Y-116053333D01*
X146638095Y-116005714D01*
X146714285Y-116005714D01*
X146942857Y-116624761D02*
X147057142Y-116672380D01*
X147247619Y-116672380D01*
X147323809Y-116624761D01*
X147361904Y-116577142D01*
X147400000Y-116481904D01*
X147400000Y-116386666D01*
X147361904Y-116291428D01*
X147323809Y-116243809D01*
X147247619Y-116196190D01*
X147095238Y-116148571D01*
X147019047Y-116100952D01*
X146980952Y-116053333D01*
X146942857Y-115958095D01*
X146942857Y-115862857D01*
X146980952Y-115767619D01*
X147019047Y-115720000D01*
X147095238Y-115672380D01*
X147285714Y-115672380D01*
X147400000Y-115720000D01*
X148085714Y-116005714D02*
X148085714Y-116672380D01*
X147742857Y-116005714D02*
X147742857Y-116529523D01*
X147780952Y-116624761D01*
X147857142Y-116672380D01*
X147971428Y-116672380D01*
X148047619Y-116624761D01*
X148085714Y-116577142D01*
X148466666Y-116005714D02*
X148466666Y-117005714D01*
X148466666Y-116053333D02*
X148542857Y-116005714D01*
X148695238Y-116005714D01*
X148771428Y-116053333D01*
X148809523Y-116100952D01*
X148847619Y-116196190D01*
X148847619Y-116481904D01*
X148809523Y-116577142D01*
X148771428Y-116624761D01*
X148695238Y-116672380D01*
X148542857Y-116672380D01*
X148466666Y-116624761D01*
X149190476Y-116005714D02*
X149190476Y-117005714D01*
X149190476Y-116053333D02*
X149266666Y-116005714D01*
X149419047Y-116005714D01*
X149495238Y-116053333D01*
X149533333Y-116100952D01*
X149571428Y-116196190D01*
X149571428Y-116481904D01*
X149533333Y-116577142D01*
X149495238Y-116624761D01*
X149419047Y-116672380D01*
X149266666Y-116672380D01*
X149190476Y-116624761D01*
X150028571Y-116672380D02*
X149952380Y-116624761D01*
X149914285Y-116529523D01*
X149914285Y-115672380D01*
X150257142Y-116005714D02*
X150447619Y-116672380D01*
X150638095Y-116005714D02*
X150447619Y-116672380D01*
X150371428Y-116910476D01*
X150333333Y-116958095D01*
X150257142Y-117005714D01*
X120580952Y-110276857D02*
X120580952Y-109076857D01*
X120847619Y-109934000D01*
X121114285Y-109076857D01*
X121114285Y-110276857D01*
X121838095Y-110276857D02*
X121838095Y-109648285D01*
X121800000Y-109534000D01*
X121723809Y-109476857D01*
X121571428Y-109476857D01*
X121495238Y-109534000D01*
X121838095Y-110219714D02*
X121761904Y-110276857D01*
X121571428Y-110276857D01*
X121495238Y-110219714D01*
X121457142Y-110105428D01*
X121457142Y-109991142D01*
X121495238Y-109876857D01*
X121571428Y-109819714D01*
X121761904Y-109819714D01*
X121838095Y-109762571D01*
X122104761Y-109476857D02*
X122409523Y-109476857D01*
X122219047Y-109076857D02*
X122219047Y-110105428D01*
X122257142Y-110219714D01*
X122333333Y-110276857D01*
X122409523Y-110276857D01*
X122980952Y-110219714D02*
X122904761Y-110276857D01*
X122752380Y-110276857D01*
X122676190Y-110219714D01*
X122638095Y-110105428D01*
X122638095Y-109648285D01*
X122676190Y-109534000D01*
X122752380Y-109476857D01*
X122904761Y-109476857D01*
X122980952Y-109534000D01*
X123019047Y-109648285D01*
X123019047Y-109762571D01*
X122638095Y-109876857D01*
X123742857Y-110276857D02*
X123361904Y-110276857D01*
X123361904Y-109076857D01*
X124009523Y-110276857D02*
X124009523Y-109476857D01*
X124009523Y-109076857D02*
X123971428Y-109134000D01*
X124009523Y-109191142D01*
X124047619Y-109134000D01*
X124009523Y-109076857D01*
X124009523Y-109191142D01*
X124733333Y-109476857D02*
X124733333Y-110448285D01*
X124695238Y-110562571D01*
X124657142Y-110619714D01*
X124580952Y-110676857D01*
X124466666Y-110676857D01*
X124390476Y-110619714D01*
X124733333Y-110219714D02*
X124657142Y-110276857D01*
X124504761Y-110276857D01*
X124428571Y-110219714D01*
X124390476Y-110162571D01*
X124352380Y-110048285D01*
X124352380Y-109705428D01*
X124390476Y-109591142D01*
X124428571Y-109534000D01*
X124504761Y-109476857D01*
X124657142Y-109476857D01*
X124733333Y-109534000D01*
X125114285Y-110276857D02*
X125114285Y-109076857D01*
X125457142Y-110276857D02*
X125457142Y-109648285D01*
X125419047Y-109534000D01*
X125342857Y-109476857D01*
X125228571Y-109476857D01*
X125152380Y-109534000D01*
X125114285Y-109591142D01*
X125723809Y-109476857D02*
X126028571Y-109476857D01*
X125838095Y-109076857D02*
X125838095Y-110105428D01*
X125876190Y-110219714D01*
X125952380Y-110276857D01*
X126028571Y-110276857D01*
X126295238Y-110276857D02*
X126295238Y-109076857D01*
X126600000Y-109076857D01*
X126676190Y-109134000D01*
X126714285Y-109191142D01*
X126752380Y-109305428D01*
X126752380Y-109476857D01*
X126714285Y-109591142D01*
X126676190Y-109648285D01*
X126600000Y-109705428D01*
X126295238Y-109705428D01*
X127209523Y-110276857D02*
X127133333Y-110219714D01*
X127095238Y-110162571D01*
X127057142Y-110048285D01*
X127057142Y-109705428D01*
X127095238Y-109591142D01*
X127133333Y-109534000D01*
X127209523Y-109476857D01*
X127323809Y-109476857D01*
X127400000Y-109534000D01*
X127438095Y-109591142D01*
X127476190Y-109705428D01*
X127476190Y-110048285D01*
X127438095Y-110162571D01*
X127400000Y-110219714D01*
X127323809Y-110276857D01*
X127209523Y-110276857D01*
X127742857Y-109476857D02*
X127895238Y-110276857D01*
X128047619Y-109705428D01*
X128200000Y-110276857D01*
X128352380Y-109476857D01*
X128961904Y-110219714D02*
X128885714Y-110276857D01*
X128733333Y-110276857D01*
X128657142Y-110219714D01*
X128619047Y-110105428D01*
X128619047Y-109648285D01*
X128657142Y-109534000D01*
X128733333Y-109476857D01*
X128885714Y-109476857D01*
X128961904Y-109534000D01*
X129000000Y-109648285D01*
X129000000Y-109762571D01*
X128619047Y-109876857D01*
X129342857Y-110276857D02*
X129342857Y-109476857D01*
X129342857Y-109705428D02*
X129380952Y-109591142D01*
X129419047Y-109534000D01*
X129495238Y-109476857D01*
X129571428Y-109476857D01*
X129800000Y-110219714D02*
X129914285Y-110276857D01*
X130104761Y-110276857D01*
X130180952Y-110219714D01*
X130219047Y-110162571D01*
X130257142Y-110048285D01*
X130257142Y-109934000D01*
X130219047Y-109819714D01*
X130180952Y-109762571D01*
X130104761Y-109705428D01*
X129952380Y-109648285D01*
X129876190Y-109591142D01*
X129838095Y-109534000D01*
X129800000Y-109419714D01*
X129800000Y-109305428D01*
X129838095Y-109191142D01*
X129876190Y-109134000D01*
X129952380Y-109076857D01*
X130142857Y-109076857D01*
X130257142Y-109134000D01*
X130942857Y-109476857D02*
X130942857Y-110276857D01*
X130600000Y-109476857D02*
X130600000Y-110105428D01*
X130638095Y-110219714D01*
X130714285Y-110276857D01*
X130828571Y-110276857D01*
X130904761Y-110219714D01*
X130942857Y-110162571D01*
X131323809Y-109476857D02*
X131323809Y-110676857D01*
X131323809Y-109534000D02*
X131400000Y-109476857D01*
X131552380Y-109476857D01*
X131628571Y-109534000D01*
X131666666Y-109591142D01*
X131704761Y-109705428D01*
X131704761Y-110048285D01*
X131666666Y-110162571D01*
X131628571Y-110219714D01*
X131552380Y-110276857D01*
X131400000Y-110276857D01*
X131323809Y-110219714D01*
X132047619Y-109476857D02*
X132047619Y-110676857D01*
X132047619Y-109534000D02*
X132123809Y-109476857D01*
X132276190Y-109476857D01*
X132352380Y-109534000D01*
X132390476Y-109591142D01*
X132428571Y-109705428D01*
X132428571Y-110048285D01*
X132390476Y-110162571D01*
X132352380Y-110219714D01*
X132276190Y-110276857D01*
X132123809Y-110276857D01*
X132047619Y-110219714D01*
X132885714Y-110276857D02*
X132809523Y-110219714D01*
X132771428Y-110105428D01*
X132771428Y-109076857D01*
X133114285Y-109476857D02*
X133304761Y-110276857D01*
X133495238Y-109476857D02*
X133304761Y-110276857D01*
X133228571Y-110562571D01*
X133190476Y-110619714D01*
X133114285Y-110676857D01*
X125285714Y-111408857D02*
X125476190Y-112208857D01*
X125666666Y-111408857D01*
X126123809Y-111008857D02*
X126200000Y-111008857D01*
X126276190Y-111066000D01*
X126314285Y-111123142D01*
X126352380Y-111237428D01*
X126390476Y-111466000D01*
X126390476Y-111751714D01*
X126352380Y-111980285D01*
X126314285Y-112094571D01*
X126276190Y-112151714D01*
X126200000Y-112208857D01*
X126123809Y-112208857D01*
X126047619Y-112151714D01*
X126009523Y-112094571D01*
X125971428Y-111980285D01*
X125933333Y-111751714D01*
X125933333Y-111466000D01*
X125971428Y-111237428D01*
X126009523Y-111123142D01*
X126047619Y-111066000D01*
X126123809Y-111008857D01*
X126733333Y-112094571D02*
X126771428Y-112151714D01*
X126733333Y-112208857D01*
X126695238Y-112151714D01*
X126733333Y-112094571D01*
X126733333Y-112208857D01*
X127076190Y-111123142D02*
X127114285Y-111066000D01*
X127190476Y-111008857D01*
X127380952Y-111008857D01*
X127457142Y-111066000D01*
X127495238Y-111123142D01*
X127533333Y-111237428D01*
X127533333Y-111351714D01*
X127495238Y-111523142D01*
X127038095Y-112208857D01*
X127533333Y-112208857D01*
X127876190Y-112094571D02*
X127914285Y-112151714D01*
X127876190Y-112208857D01*
X127838095Y-112151714D01*
X127876190Y-112094571D01*
X127876190Y-112208857D01*
X128409523Y-111008857D02*
X128485714Y-111008857D01*
X128561904Y-111066000D01*
X128600000Y-111123142D01*
X128638095Y-111237428D01*
X128676190Y-111466000D01*
X128676190Y-111751714D01*
X128638095Y-111980285D01*
X128600000Y-112094571D01*
X128561904Y-112151714D01*
X128485714Y-112208857D01*
X128409523Y-112208857D01*
X128333333Y-112151714D01*
X128295238Y-112094571D01*
X128257142Y-111980285D01*
X128219047Y-111751714D01*
X128219047Y-111466000D01*
X128257142Y-111237428D01*
X128295238Y-111123142D01*
X128333333Y-111066000D01*
X128409523Y-111008857D01*
%TO.C,X10*%
X130188214Y-123452380D02*
X130854880Y-124452380D01*
X130854880Y-123452380D02*
X130188214Y-124452380D01*
X131759642Y-124452380D02*
X131188214Y-124452380D01*
X131473928Y-124452380D02*
X131473928Y-123452380D01*
X131378690Y-123595238D01*
X131283452Y-123690476D01*
X131188214Y-123738095D01*
X132378690Y-123452380D02*
X132473928Y-123452380D01*
X132569166Y-123500000D01*
X132616785Y-123547619D01*
X132664404Y-123642857D01*
X132712023Y-123833333D01*
X132712023Y-124071428D01*
X132664404Y-124261904D01*
X132616785Y-124357142D01*
X132569166Y-124404761D01*
X132473928Y-124452380D01*
X132378690Y-124452380D01*
X132283452Y-124404761D01*
X132235833Y-124357142D01*
X132188214Y-124261904D01*
X132140595Y-124071428D01*
X132140595Y-123833333D01*
X132188214Y-123642857D01*
X132235833Y-123547619D01*
X132283452Y-123500000D01*
X132378690Y-123452380D01*
%TO.C,X6*%
X142140595Y-101452380D02*
X142807261Y-102452380D01*
X142807261Y-101452380D02*
X142140595Y-102452380D01*
X143616785Y-101452380D02*
X143426309Y-101452380D01*
X143331071Y-101500000D01*
X143283452Y-101547619D01*
X143188214Y-101690476D01*
X143140595Y-101880952D01*
X143140595Y-102261904D01*
X143188214Y-102357142D01*
X143235833Y-102404761D01*
X143331071Y-102452380D01*
X143521547Y-102452380D01*
X143616785Y-102404761D01*
X143664404Y-102357142D01*
X143712023Y-102261904D01*
X143712023Y-102023809D01*
X143664404Y-101928571D01*
X143616785Y-101880952D01*
X143521547Y-101833333D01*
X143331071Y-101833333D01*
X143235833Y-101880952D01*
X143188214Y-101928571D01*
X143140595Y-102023809D01*
%TO.C,X5*%
X131140595Y-101452380D02*
X131807261Y-102452380D01*
X131807261Y-101452380D02*
X131140595Y-102452380D01*
X132664404Y-101452380D02*
X132188214Y-101452380D01*
X132140595Y-101928571D01*
X132188214Y-101880952D01*
X132283452Y-101833333D01*
X132521547Y-101833333D01*
X132616785Y-101880952D01*
X132664404Y-101928571D01*
X132712023Y-102023809D01*
X132712023Y-102261904D01*
X132664404Y-102357142D01*
X132616785Y-102404761D01*
X132521547Y-102452380D01*
X132283452Y-102452380D01*
X132188214Y-102404761D01*
X132140595Y-102357142D01*
%TO.C,X1*%
X109240357Y-108452380D02*
X109907023Y-109452380D01*
X109907023Y-108452380D02*
X109240357Y-109452380D01*
X110811785Y-109452380D02*
X110240357Y-109452380D01*
X110526071Y-109452380D02*
X110526071Y-108452380D01*
X110430833Y-108595238D01*
X110335595Y-108690476D01*
X110240357Y-108738095D01*
%TO.C,X2*%
X162240595Y-108452380D02*
X162907261Y-109452380D01*
X162907261Y-108452380D02*
X162240595Y-109452380D01*
X163240595Y-108547619D02*
X163288214Y-108500000D01*
X163383452Y-108452380D01*
X163621547Y-108452380D01*
X163716785Y-108500000D01*
X163764404Y-108547619D01*
X163812023Y-108642857D01*
X163812023Y-108738095D01*
X163764404Y-108880952D01*
X163192976Y-109452380D01*
X163812023Y-109452380D01*
%TO.C,X3*%
X109140595Y-101452380D02*
X109807261Y-102452380D01*
X109807261Y-101452380D02*
X109140595Y-102452380D01*
X110092976Y-101452380D02*
X110712023Y-101452380D01*
X110378690Y-101833333D01*
X110521547Y-101833333D01*
X110616785Y-101880952D01*
X110664404Y-101928571D01*
X110712023Y-102023809D01*
X110712023Y-102261904D01*
X110664404Y-102357142D01*
X110616785Y-102404761D01*
X110521547Y-102452380D01*
X110235833Y-102452380D01*
X110140595Y-102404761D01*
X110092976Y-102357142D01*
%TO.C,X7*%
X153140595Y-101452380D02*
X153807261Y-102452380D01*
X153807261Y-101452380D02*
X153140595Y-102452380D01*
X154092976Y-101452380D02*
X154759642Y-101452380D01*
X154331071Y-102452380D01*
%TO.C,X8*%
X109140595Y-123452380D02*
X109807261Y-124452380D01*
X109807261Y-123452380D02*
X109140595Y-124452380D01*
X110331071Y-123880952D02*
X110235833Y-123833333D01*
X110188214Y-123785714D01*
X110140595Y-123690476D01*
X110140595Y-123642857D01*
X110188214Y-123547619D01*
X110235833Y-123500000D01*
X110331071Y-123452380D01*
X110521547Y-123452380D01*
X110616785Y-123500000D01*
X110664404Y-123547619D01*
X110712023Y-123642857D01*
X110712023Y-123690476D01*
X110664404Y-123785714D01*
X110616785Y-123833333D01*
X110521547Y-123880952D01*
X110331071Y-123880952D01*
X110235833Y-123928571D01*
X110188214Y-123976190D01*
X110140595Y-124071428D01*
X110140595Y-124261904D01*
X110188214Y-124357142D01*
X110235833Y-124404761D01*
X110331071Y-124452380D01*
X110521547Y-124452380D01*
X110616785Y-124404761D01*
X110664404Y-124357142D01*
X110712023Y-124261904D01*
X110712023Y-124071428D01*
X110664404Y-123976190D01*
X110616785Y-123928571D01*
X110521547Y-123880952D01*
%TO.C,X4*%
X120140595Y-101452380D02*
X120807261Y-102452380D01*
X120807261Y-101452380D02*
X120140595Y-102452380D01*
X121616785Y-101785714D02*
X121616785Y-102452380D01*
X121378690Y-101404761D02*
X121140595Y-102119047D01*
X121759642Y-102119047D01*
%TO.C,X12*%
X152188214Y-123452380D02*
X152854880Y-124452380D01*
X152854880Y-123452380D02*
X152188214Y-124452380D01*
X153759642Y-124452380D02*
X153188214Y-124452380D01*
X153473928Y-124452380D02*
X153473928Y-123452380D01*
X153378690Y-123595238D01*
X153283452Y-123690476D01*
X153188214Y-123738095D01*
X154140595Y-123547619D02*
X154188214Y-123500000D01*
X154283452Y-123452380D01*
X154521547Y-123452380D01*
X154616785Y-123500000D01*
X154664404Y-123547619D01*
X154712023Y-123642857D01*
X154712023Y-123738095D01*
X154664404Y-123880952D01*
X154092976Y-124452380D01*
X154712023Y-124452380D01*
%TO.C,X11*%
X141188214Y-123452380D02*
X141854880Y-124452380D01*
X141854880Y-123452380D02*
X141188214Y-124452380D01*
X142759642Y-124452380D02*
X142188214Y-124452380D01*
X142473928Y-124452380D02*
X142473928Y-123452380D01*
X142378690Y-123595238D01*
X142283452Y-123690476D01*
X142188214Y-123738095D01*
X143712023Y-124452380D02*
X143140595Y-124452380D01*
X143426309Y-124452380D02*
X143426309Y-123452380D01*
X143331071Y-123595238D01*
X143235833Y-123690476D01*
X143140595Y-123738095D01*
%TO.C,X9*%
X120140595Y-123452380D02*
X120807261Y-124452380D01*
X120807261Y-123452380D02*
X120140595Y-124452380D01*
X121235833Y-124452380D02*
X121426309Y-124452380D01*
X121521547Y-124404761D01*
X121569166Y-124357142D01*
X121664404Y-124214285D01*
X121712023Y-124023809D01*
X121712023Y-123642857D01*
X121664404Y-123547619D01*
X121616785Y-123500000D01*
X121521547Y-123452380D01*
X121331071Y-123452380D01*
X121235833Y-123500000D01*
X121188214Y-123547619D01*
X121140595Y-123642857D01*
X121140595Y-123880952D01*
X121188214Y-123976190D01*
X121235833Y-124023809D01*
X121331071Y-124071428D01*
X121521547Y-124071428D01*
X121616785Y-124023809D01*
X121664404Y-123976190D01*
X121712023Y-123880952D01*
%TO.C,REF\u002A\u002A*%
G36*
X105285388Y-121610501D02*
G01*
X105319029Y-121542530D01*
X105369018Y-121493664D01*
X105435356Y-121463899D01*
X105449601Y-121460448D01*
X105535210Y-121452345D01*
X105610762Y-121466055D01*
X105674363Y-121500692D01*
X105724123Y-121555372D01*
X105747568Y-121599842D01*
X105757634Y-121639121D01*
X105764156Y-121695116D01*
X105766951Y-121759621D01*
X105765836Y-121824429D01*
X105760626Y-121881334D01*
X105754541Y-121911727D01*
X105734014Y-121953306D01*
X105698463Y-121997468D01*
X105655619Y-122036087D01*
X105613211Y-122061034D01*
X105612177Y-122061430D01*
X105559553Y-122072331D01*
X105497188Y-122072601D01*
X105437924Y-122062676D01*
X105415040Y-122054722D01*
X105356102Y-122021300D01*
X105313890Y-121977511D01*
X105286156Y-121919538D01*
X105270651Y-121843565D01*
X105267143Y-121803771D01*
X105267590Y-121753766D01*
X105402376Y-121753766D01*
X105406917Y-121826732D01*
X105419986Y-121882334D01*
X105440756Y-121917861D01*
X105455552Y-121928020D01*
X105493464Y-121935104D01*
X105538527Y-121933007D01*
X105577487Y-121922812D01*
X105587704Y-121917204D01*
X105614659Y-121884538D01*
X105632451Y-121834545D01*
X105640024Y-121773705D01*
X105636325Y-121708497D01*
X105628057Y-121669253D01*
X105604320Y-121623805D01*
X105566849Y-121595396D01*
X105521720Y-121585573D01*
X105475011Y-121595887D01*
X105439132Y-121621112D01*
X105420277Y-121641925D01*
X105409272Y-121662439D01*
X105404026Y-121690203D01*
X105402449Y-121732762D01*
X105402376Y-121753766D01*
X105267590Y-121753766D01*
X105268094Y-121697580D01*
X105285388Y-121610501D01*
G37*
D11*
X105285388Y-121610501D02*
X105319029Y-121542530D01*
X105369018Y-121493664D01*
X105435356Y-121463899D01*
X105449601Y-121460448D01*
X105535210Y-121452345D01*
X105610762Y-121466055D01*
X105674363Y-121500692D01*
X105724123Y-121555372D01*
X105747568Y-121599842D01*
X105757634Y-121639121D01*
X105764156Y-121695116D01*
X105766951Y-121759621D01*
X105765836Y-121824429D01*
X105760626Y-121881334D01*
X105754541Y-121911727D01*
X105734014Y-121953306D01*
X105698463Y-121997468D01*
X105655619Y-122036087D01*
X105613211Y-122061034D01*
X105612177Y-122061430D01*
X105559553Y-122072331D01*
X105497188Y-122072601D01*
X105437924Y-122062676D01*
X105415040Y-122054722D01*
X105356102Y-122021300D01*
X105313890Y-121977511D01*
X105286156Y-121919538D01*
X105270651Y-121843565D01*
X105267143Y-121803771D01*
X105267590Y-121753766D01*
X105402376Y-121753766D01*
X105406917Y-121826732D01*
X105419986Y-121882334D01*
X105440756Y-121917861D01*
X105455552Y-121928020D01*
X105493464Y-121935104D01*
X105538527Y-121933007D01*
X105577487Y-121922812D01*
X105587704Y-121917204D01*
X105614659Y-121884538D01*
X105632451Y-121834545D01*
X105640024Y-121773705D01*
X105636325Y-121708497D01*
X105628057Y-121669253D01*
X105604320Y-121623805D01*
X105566849Y-121595396D01*
X105521720Y-121585573D01*
X105475011Y-121595887D01*
X105439132Y-121621112D01*
X105420277Y-121641925D01*
X105409272Y-121662439D01*
X105404026Y-121690203D01*
X105402449Y-121732762D01*
X105402376Y-121753766D01*
X105267590Y-121753766D01*
X105268094Y-121697580D01*
X105285388Y-121610501D01*
G36*
X104006644Y-122403020D02*
G01*
X104025461Y-122408660D01*
X104031527Y-122421053D01*
X104031782Y-122426647D01*
X104032871Y-122442230D01*
X104040368Y-122444676D01*
X104060619Y-122433993D01*
X104072649Y-122426694D01*
X104110600Y-122411063D01*
X104155928Y-122403334D01*
X104203456Y-122402740D01*
X104248005Y-122408513D01*
X104284398Y-122419884D01*
X104307457Y-122436088D01*
X104312004Y-122456355D01*
X104309709Y-122461843D01*
X104292980Y-122484626D01*
X104267037Y-122512647D01*
X104262345Y-122517177D01*
X104237617Y-122538005D01*
X104216282Y-122544735D01*
X104186445Y-122540038D01*
X104174492Y-122536917D01*
X104137295Y-122529421D01*
X104111141Y-122532792D01*
X104089054Y-122544681D01*
X104068822Y-122560635D01*
X104053921Y-122580700D01*
X104043566Y-122608702D01*
X104036971Y-122648467D01*
X104033351Y-122703823D01*
X104031922Y-122778594D01*
X104031782Y-122823740D01*
X104031782Y-123017822D01*
X103906040Y-123017822D01*
X103906040Y-122401683D01*
X103968911Y-122401683D01*
X104006644Y-122403020D01*
G37*
X104006644Y-122403020D02*
X104025461Y-122408660D01*
X104031527Y-122421053D01*
X104031782Y-122426647D01*
X104032871Y-122442230D01*
X104040368Y-122444676D01*
X104060619Y-122433993D01*
X104072649Y-122426694D01*
X104110600Y-122411063D01*
X104155928Y-122403334D01*
X104203456Y-122402740D01*
X104248005Y-122408513D01*
X104284398Y-122419884D01*
X104307457Y-122436088D01*
X104312004Y-122456355D01*
X104309709Y-122461843D01*
X104292980Y-122484626D01*
X104267037Y-122512647D01*
X104262345Y-122517177D01*
X104237617Y-122538005D01*
X104216282Y-122544735D01*
X104186445Y-122540038D01*
X104174492Y-122536917D01*
X104137295Y-122529421D01*
X104111141Y-122532792D01*
X104089054Y-122544681D01*
X104068822Y-122560635D01*
X104053921Y-122580700D01*
X104043566Y-122608702D01*
X104036971Y-122648467D01*
X104033351Y-122703823D01*
X104031922Y-122778594D01*
X104031782Y-122823740D01*
X104031782Y-123017822D01*
X103906040Y-123017822D01*
X103906040Y-122401683D01*
X103968911Y-122401683D01*
X104006644Y-122403020D01*
G36*
X105993367Y-121654342D02*
G01*
X105994555Y-121746563D01*
X105998897Y-121816610D01*
X106007558Y-121867381D01*
X106021704Y-121901772D01*
X106042500Y-121922679D01*
X106071110Y-121933000D01*
X106106535Y-121935636D01*
X106143636Y-121932682D01*
X106171818Y-121921889D01*
X106192243Y-121900360D01*
X106206079Y-121865199D01*
X106214491Y-121813510D01*
X106218643Y-121742394D01*
X106219703Y-121654342D01*
X106219703Y-121458614D01*
X106358020Y-121458614D01*
X106358020Y-122062179D01*
X106288862Y-122062179D01*
X106247170Y-122060489D01*
X106225701Y-122054556D01*
X106219703Y-122043293D01*
X106216091Y-122033261D01*
X106201714Y-122035383D01*
X106172736Y-122049580D01*
X106106319Y-122071480D01*
X106035875Y-122069928D01*
X105968377Y-122046147D01*
X105936233Y-122027362D01*
X105911715Y-122007022D01*
X105893804Y-121981573D01*
X105881479Y-121947458D01*
X105873723Y-121901121D01*
X105869516Y-121839007D01*
X105867840Y-121757561D01*
X105867624Y-121694578D01*
X105867624Y-121458614D01*
X105993367Y-121458614D01*
X105993367Y-121654342D01*
G37*
X105993367Y-121654342D02*
X105994555Y-121746563D01*
X105998897Y-121816610D01*
X106007558Y-121867381D01*
X106021704Y-121901772D01*
X106042500Y-121922679D01*
X106071110Y-121933000D01*
X106106535Y-121935636D01*
X106143636Y-121932682D01*
X106171818Y-121921889D01*
X106192243Y-121900360D01*
X106206079Y-121865199D01*
X106214491Y-121813510D01*
X106218643Y-121742394D01*
X106219703Y-121654342D01*
X106219703Y-121458614D01*
X106358020Y-121458614D01*
X106358020Y-122062179D01*
X106288862Y-122062179D01*
X106247170Y-122060489D01*
X106225701Y-122054556D01*
X106219703Y-122043293D01*
X106216091Y-122033261D01*
X106201714Y-122035383D01*
X106172736Y-122049580D01*
X106106319Y-122071480D01*
X106035875Y-122069928D01*
X105968377Y-122046147D01*
X105936233Y-122027362D01*
X105911715Y-122007022D01*
X105893804Y-121981573D01*
X105881479Y-121947458D01*
X105873723Y-121901121D01*
X105869516Y-121839007D01*
X105867840Y-121757561D01*
X105867624Y-121694578D01*
X105867624Y-121458614D01*
X105993367Y-121458614D01*
X105993367Y-121654342D01*
G36*
X104245988Y-121469002D02*
G01*
X104277283Y-121483950D01*
X104307591Y-121505541D01*
X104330682Y-121530391D01*
X104347500Y-121562087D01*
X104358994Y-121604214D01*
X104366109Y-121660358D01*
X104369793Y-121734106D01*
X104370992Y-121829044D01*
X104371011Y-121838985D01*
X104371287Y-122062179D01*
X104232970Y-122062179D01*
X104232970Y-121856418D01*
X104232872Y-121780189D01*
X104232191Y-121724939D01*
X104230349Y-121686501D01*
X104226767Y-121660706D01*
X104220868Y-121643384D01*
X104212073Y-121630368D01*
X104199820Y-121617507D01*
X104156953Y-121589873D01*
X104110157Y-121584745D01*
X104065576Y-121602217D01*
X104050072Y-121615221D01*
X104038690Y-121627447D01*
X104030519Y-121640540D01*
X104025026Y-121658615D01*
X104021680Y-121685787D01*
X104019949Y-121726170D01*
X104019303Y-121783879D01*
X104019208Y-121854132D01*
X104019208Y-122062179D01*
X103880891Y-122062179D01*
X103880891Y-121458614D01*
X103950050Y-121458614D01*
X103991572Y-121460256D01*
X104012994Y-121466087D01*
X104019205Y-121477461D01*
X104019208Y-121477798D01*
X104022090Y-121488938D01*
X104034801Y-121487674D01*
X104060074Y-121475434D01*
X104117395Y-121457424D01*
X104182963Y-121455421D01*
X104245988Y-121469002D01*
G37*
X104245988Y-121469002D02*
X104277283Y-121483950D01*
X104307591Y-121505541D01*
X104330682Y-121530391D01*
X104347500Y-121562087D01*
X104358994Y-121604214D01*
X104366109Y-121660358D01*
X104369793Y-121734106D01*
X104370992Y-121829044D01*
X104371011Y-121838985D01*
X104371287Y-122062179D01*
X104232970Y-122062179D01*
X104232970Y-121856418D01*
X104232872Y-121780189D01*
X104232191Y-121724939D01*
X104230349Y-121686501D01*
X104226767Y-121660706D01*
X104220868Y-121643384D01*
X104212073Y-121630368D01*
X104199820Y-121617507D01*
X104156953Y-121589873D01*
X104110157Y-121584745D01*
X104065576Y-121602217D01*
X104050072Y-121615221D01*
X104038690Y-121627447D01*
X104030519Y-121640540D01*
X104025026Y-121658615D01*
X104021680Y-121685787D01*
X104019949Y-121726170D01*
X104019303Y-121783879D01*
X104019208Y-121854132D01*
X104019208Y-122062179D01*
X103880891Y-122062179D01*
X103880891Y-121458614D01*
X103950050Y-121458614D01*
X103991572Y-121460256D01*
X104012994Y-121466087D01*
X104019205Y-121477461D01*
X104019208Y-121477798D01*
X104022090Y-121488938D01*
X104034801Y-121487674D01*
X104060074Y-121475434D01*
X104117395Y-121457424D01*
X104182963Y-121455421D01*
X104245988Y-121469002D01*
G36*
X107428698Y-121564191D02*
G01*
X107474701Y-121508779D01*
X107532821Y-121471009D01*
X107601180Y-121452896D01*
X107677898Y-121456457D01*
X107710096Y-121464279D01*
X107771825Y-121492921D01*
X107824610Y-121536667D01*
X107861141Y-121589117D01*
X107866160Y-121600893D01*
X107873045Y-121631740D01*
X107877864Y-121677371D01*
X107879505Y-121723492D01*
X107879505Y-121810693D01*
X107697178Y-121810693D01*
X107621979Y-121810978D01*
X107569003Y-121812704D01*
X107535325Y-121817181D01*
X107518020Y-121825720D01*
X107514163Y-121839630D01*
X107520829Y-121860222D01*
X107532770Y-121884315D01*
X107566080Y-121924525D01*
X107612368Y-121944558D01*
X107668944Y-121943905D01*
X107733031Y-121922101D01*
X107788417Y-121895193D01*
X107834375Y-121931532D01*
X107880333Y-121967872D01*
X107837096Y-122007819D01*
X107779374Y-122045563D01*
X107708386Y-122068320D01*
X107632029Y-122074688D01*
X107558199Y-122063268D01*
X107546287Y-122059393D01*
X107481399Y-122025506D01*
X107433130Y-121974986D01*
X107400465Y-121906325D01*
X107382385Y-121818014D01*
X107382175Y-121816121D01*
X107380556Y-121719878D01*
X107387100Y-121685542D01*
X107514852Y-121685542D01*
X107526584Y-121690822D01*
X107558438Y-121694867D01*
X107605397Y-121697176D01*
X107635154Y-121697525D01*
X107690648Y-121697306D01*
X107725346Y-121695916D01*
X107743601Y-121692251D01*
X107749766Y-121685210D01*
X107748195Y-121673690D01*
X107746878Y-121669233D01*
X107724382Y-121627355D01*
X107689003Y-121593604D01*
X107657780Y-121578773D01*
X107616301Y-121579668D01*
X107574269Y-121598164D01*
X107539012Y-121628786D01*
X107517854Y-121666062D01*
X107514852Y-121685542D01*
X107387100Y-121685542D01*
X107396690Y-121635229D01*
X107428698Y-121564191D01*
G37*
X107428698Y-121564191D02*
X107474701Y-121508779D01*
X107532821Y-121471009D01*
X107601180Y-121452896D01*
X107677898Y-121456457D01*
X107710096Y-121464279D01*
X107771825Y-121492921D01*
X107824610Y-121536667D01*
X107861141Y-121589117D01*
X107866160Y-121600893D01*
X107873045Y-121631740D01*
X107877864Y-121677371D01*
X107879505Y-121723492D01*
X107879505Y-121810693D01*
X107697178Y-121810693D01*
X107621979Y-121810978D01*
X107569003Y-121812704D01*
X107535325Y-121817181D01*
X107518020Y-121825720D01*
X107514163Y-121839630D01*
X107520829Y-121860222D01*
X107532770Y-121884315D01*
X107566080Y-121924525D01*
X107612368Y-121944558D01*
X107668944Y-121943905D01*
X107733031Y-121922101D01*
X107788417Y-121895193D01*
X107834375Y-121931532D01*
X107880333Y-121967872D01*
X107837096Y-122007819D01*
X107779374Y-122045563D01*
X107708386Y-122068320D01*
X107632029Y-122074688D01*
X107558199Y-122063268D01*
X107546287Y-122059393D01*
X107481399Y-122025506D01*
X107433130Y-121974986D01*
X107400465Y-121906325D01*
X107382385Y-121818014D01*
X107382175Y-121816121D01*
X107380556Y-121719878D01*
X107387100Y-121685542D01*
X107514852Y-121685542D01*
X107526584Y-121690822D01*
X107558438Y-121694867D01*
X107605397Y-121697176D01*
X107635154Y-121697525D01*
X107690648Y-121697306D01*
X107725346Y-121695916D01*
X107743601Y-121692251D01*
X107749766Y-121685210D01*
X107748195Y-121673690D01*
X107746878Y-121669233D01*
X107724382Y-121627355D01*
X107689003Y-121593604D01*
X107657780Y-121578773D01*
X107616301Y-121579668D01*
X107574269Y-121598164D01*
X107539012Y-121628786D01*
X107517854Y-121666062D01*
X107514852Y-121685542D01*
X107387100Y-121685542D01*
X107396690Y-121635229D01*
X107428698Y-121564191D01*
G36*
X106764055Y-122530949D02*
G01*
X106800470Y-122471263D01*
X106852297Y-122430549D01*
X106919990Y-122408179D01*
X106956662Y-122403871D01*
X107032581Y-122404970D01*
X107092685Y-122420597D01*
X107143021Y-122452848D01*
X107167393Y-122476940D01*
X107207345Y-122533895D01*
X107230242Y-122599965D01*
X107238108Y-122681182D01*
X107238148Y-122687748D01*
X107238218Y-122753763D01*
X106858264Y-122753763D01*
X106866363Y-122788342D01*
X106880987Y-122819659D01*
X106906581Y-122852291D01*
X106911935Y-122857500D01*
X106957943Y-122885694D01*
X107010410Y-122890475D01*
X107070803Y-122871926D01*
X107081040Y-122866931D01*
X107112439Y-122851745D01*
X107133470Y-122843094D01*
X107137139Y-122842293D01*
X107149948Y-122850063D01*
X107174378Y-122869072D01*
X107186779Y-122879460D01*
X107212476Y-122903321D01*
X107220915Y-122919077D01*
X107215058Y-122933571D01*
X107211928Y-122937534D01*
X107190725Y-122954879D01*
X107155738Y-122975959D01*
X107131337Y-122988265D01*
X107062072Y-123009946D01*
X106985388Y-123016971D01*
X106912765Y-123008647D01*
X106892426Y-123002686D01*
X106829476Y-122968952D01*
X106782815Y-122917045D01*
X106752173Y-122846459D01*
X106737282Y-122756692D01*
X106735647Y-122709753D01*
X106740421Y-122641413D01*
X106860990Y-122641413D01*
X106872652Y-122646465D01*
X106903998Y-122650429D01*
X106949571Y-122652768D01*
X106980446Y-122653169D01*
X107035981Y-122652783D01*
X107071033Y-122650975D01*
X107090262Y-122646773D01*
X107098330Y-122639203D01*
X107099901Y-122628218D01*
X107089121Y-122594381D01*
X107061980Y-122560940D01*
X107026277Y-122535272D01*
X106990560Y-122524772D01*
X106942048Y-122534086D01*
X106900053Y-122561013D01*
X106870936Y-122599827D01*
X106860990Y-122641413D01*
X106740421Y-122641413D01*
X106742599Y-122610236D01*
X106764055Y-122530949D01*
G37*
X106764055Y-122530949D02*
X106800470Y-122471263D01*
X106852297Y-122430549D01*
X106919990Y-122408179D01*
X106956662Y-122403871D01*
X107032581Y-122404970D01*
X107092685Y-122420597D01*
X107143021Y-122452848D01*
X107167393Y-122476940D01*
X107207345Y-122533895D01*
X107230242Y-122599965D01*
X107238108Y-122681182D01*
X107238148Y-122687748D01*
X107238218Y-122753763D01*
X106858264Y-122753763D01*
X106866363Y-122788342D01*
X106880987Y-122819659D01*
X106906581Y-122852291D01*
X106911935Y-122857500D01*
X106957943Y-122885694D01*
X107010410Y-122890475D01*
X107070803Y-122871926D01*
X107081040Y-122866931D01*
X107112439Y-122851745D01*
X107133470Y-122843094D01*
X107137139Y-122842293D01*
X107149948Y-122850063D01*
X107174378Y-122869072D01*
X107186779Y-122879460D01*
X107212476Y-122903321D01*
X107220915Y-122919077D01*
X107215058Y-122933571D01*
X107211928Y-122937534D01*
X107190725Y-122954879D01*
X107155738Y-122975959D01*
X107131337Y-122988265D01*
X107062072Y-123009946D01*
X106985388Y-123016971D01*
X106912765Y-123008647D01*
X106892426Y-123002686D01*
X106829476Y-122968952D01*
X106782815Y-122917045D01*
X106752173Y-122846459D01*
X106737282Y-122756692D01*
X106735647Y-122709753D01*
X106740421Y-122641413D01*
X106860990Y-122641413D01*
X106872652Y-122646465D01*
X106903998Y-122650429D01*
X106949571Y-122652768D01*
X106980446Y-122653169D01*
X107035981Y-122652783D01*
X107071033Y-122650975D01*
X107090262Y-122646773D01*
X107098330Y-122639203D01*
X107099901Y-122628218D01*
X107089121Y-122594381D01*
X107061980Y-122560940D01*
X107026277Y-122535272D01*
X106990560Y-122524772D01*
X106942048Y-122534086D01*
X106900053Y-122561013D01*
X106870936Y-122599827D01*
X106860990Y-122641413D01*
X106740421Y-122641413D01*
X106742599Y-122610236D01*
X106764055Y-122530949D01*
G36*
X107217226Y-121463880D02*
G01*
X107290080Y-121494830D01*
X107313027Y-121509895D01*
X107342354Y-121533048D01*
X107360764Y-121551253D01*
X107363961Y-121557183D01*
X107354935Y-121570340D01*
X107331837Y-121592667D01*
X107313344Y-121608250D01*
X107262728Y-121648926D01*
X107222760Y-121615295D01*
X107191874Y-121593584D01*
X107161759Y-121586090D01*
X107127292Y-121587920D01*
X107072561Y-121601528D01*
X107034886Y-121629772D01*
X107011991Y-121675433D01*
X107001597Y-121741289D01*
X107001595Y-121741331D01*
X107002494Y-121814939D01*
X107016463Y-121868946D01*
X107044328Y-121905716D01*
X107063325Y-121918168D01*
X107113776Y-121933673D01*
X107167663Y-121933683D01*
X107214546Y-121918638D01*
X107225644Y-121911287D01*
X107253476Y-121892511D01*
X107275236Y-121889434D01*
X107298704Y-121903409D01*
X107324649Y-121928510D01*
X107365716Y-121970880D01*
X107320121Y-122008464D01*
X107249674Y-122050882D01*
X107170233Y-122071785D01*
X107087215Y-122070272D01*
X107032694Y-122056411D01*
X106968970Y-122022135D01*
X106918005Y-121968212D01*
X106894851Y-121930149D01*
X106876099Y-121875536D01*
X106866715Y-121806369D01*
X106866643Y-121731407D01*
X106875824Y-121659409D01*
X106894199Y-121599137D01*
X106897093Y-121592958D01*
X106939952Y-121532351D01*
X106997979Y-121488224D01*
X107066591Y-121461493D01*
X107141201Y-121453073D01*
X107217226Y-121463880D01*
G37*
X107217226Y-121463880D02*
X107290080Y-121494830D01*
X107313027Y-121509895D01*
X107342354Y-121533048D01*
X107360764Y-121551253D01*
X107363961Y-121557183D01*
X107354935Y-121570340D01*
X107331837Y-121592667D01*
X107313344Y-121608250D01*
X107262728Y-121648926D01*
X107222760Y-121615295D01*
X107191874Y-121593584D01*
X107161759Y-121586090D01*
X107127292Y-121587920D01*
X107072561Y-121601528D01*
X107034886Y-121629772D01*
X107011991Y-121675433D01*
X107001597Y-121741289D01*
X107001595Y-121741331D01*
X107002494Y-121814939D01*
X107016463Y-121868946D01*
X107044328Y-121905716D01*
X107063325Y-121918168D01*
X107113776Y-121933673D01*
X107167663Y-121933683D01*
X107214546Y-121918638D01*
X107225644Y-121911287D01*
X107253476Y-121892511D01*
X107275236Y-121889434D01*
X107298704Y-121903409D01*
X107324649Y-121928510D01*
X107365716Y-121970880D01*
X107320121Y-122008464D01*
X107249674Y-122050882D01*
X107170233Y-122071785D01*
X107087215Y-122070272D01*
X107032694Y-122056411D01*
X106968970Y-122022135D01*
X106918005Y-121968212D01*
X106894851Y-121930149D01*
X106876099Y-121875536D01*
X106866715Y-121806369D01*
X106866643Y-121731407D01*
X106875824Y-121659409D01*
X106894199Y-121599137D01*
X106897093Y-121592958D01*
X106939952Y-121532351D01*
X106997979Y-121488224D01*
X107066591Y-121461493D01*
X107141201Y-121453073D01*
X107217226Y-121463880D01*
G36*
X105376964Y-117290018D02*
G01*
X105433812Y-117591570D01*
X105853338Y-117764512D01*
X106104984Y-117593395D01*
X106175458Y-117545750D01*
X106239163Y-117503210D01*
X106293126Y-117467715D01*
X106334373Y-117441210D01*
X106359934Y-117425636D01*
X106366895Y-117422278D01*
X106379435Y-117430914D01*
X106406231Y-117454792D01*
X106444280Y-117490859D01*
X106490579Y-117536067D01*
X106542123Y-117587364D01*
X106595909Y-117641701D01*
X106648935Y-117696028D01*
X106698195Y-117747295D01*
X106740687Y-117792451D01*
X106773407Y-117828446D01*
X106793351Y-117852230D01*
X106798119Y-117860190D01*
X106791257Y-117874865D01*
X106772020Y-117907014D01*
X106742430Y-117953492D01*
X106704510Y-118011156D01*
X106660282Y-118076860D01*
X106634654Y-118114336D01*
X106587941Y-118182768D01*
X106546432Y-118244520D01*
X106512140Y-118296519D01*
X106487080Y-118335692D01*
X106473264Y-118358965D01*
X106471188Y-118363855D01*
X106475895Y-118377755D01*
X106488723Y-118410150D01*
X106507738Y-118456485D01*
X106531003Y-118512206D01*
X106556584Y-118572758D01*
X106582545Y-118633586D01*
X106606950Y-118690136D01*
X106627863Y-118737852D01*
X106643349Y-118772181D01*
X106651472Y-118788568D01*
X106651952Y-118789212D01*
X106664707Y-118792341D01*
X106698677Y-118799321D01*
X106750340Y-118809467D01*
X106816176Y-118822092D01*
X106892664Y-118836509D01*
X106937290Y-118844823D01*
X107019021Y-118860384D01*
X107092843Y-118875192D01*
X107155021Y-118888436D01*
X107201822Y-118899305D01*
X107229509Y-118906989D01*
X107235074Y-118909427D01*
X107240526Y-118925930D01*
X107244924Y-118963200D01*
X107248272Y-119016880D01*
X107250574Y-119082612D01*
X107251832Y-119156037D01*
X107252048Y-119232796D01*
X107251227Y-119308532D01*
X107249371Y-119378886D01*
X107246482Y-119439500D01*
X107242565Y-119486016D01*
X107237622Y-119514075D01*
X107234657Y-119519916D01*
X107216934Y-119526917D01*
X107179381Y-119536927D01*
X107126964Y-119548769D01*
X107064652Y-119561267D01*
X107042900Y-119565310D01*
X106938024Y-119584520D01*
X106855180Y-119599991D01*
X106791630Y-119612337D01*
X106744637Y-119622173D01*
X106711463Y-119630114D01*
X106689371Y-119636776D01*
X106675624Y-119642773D01*
X106667484Y-119648719D01*
X106666345Y-119649894D01*
X106654977Y-119668826D01*
X106637635Y-119705669D01*
X106616050Y-119755913D01*
X106591954Y-119815046D01*
X106567079Y-119878556D01*
X106543157Y-119941932D01*
X106521919Y-120000662D01*
X106505097Y-120050235D01*
X106494422Y-120086139D01*
X106491627Y-120103862D01*
X106491860Y-120104483D01*
X106501331Y-120118970D01*
X106522818Y-120150844D01*
X106554063Y-120196789D01*
X106592807Y-120253485D01*
X106636793Y-120317617D01*
X106649319Y-120335842D01*
X106693984Y-120401914D01*
X106733288Y-120462200D01*
X106765088Y-120513235D01*
X106787245Y-120551560D01*
X106797617Y-120573711D01*
X106798119Y-120576432D01*
X106789405Y-120590736D01*
X106765325Y-120619072D01*
X106728976Y-120658396D01*
X106683453Y-120705661D01*
X106631852Y-120757823D01*
X106577267Y-120811835D01*
X106522794Y-120864653D01*
X106471529Y-120913231D01*
X106426567Y-120954523D01*
X106391004Y-120985485D01*
X106367935Y-121003070D01*
X106361554Y-121005941D01*
X106346699Y-120999178D01*
X106316286Y-120980939D01*
X106275268Y-120954297D01*
X106243709Y-120932852D01*
X106186525Y-120893503D01*
X106118806Y-120847171D01*
X106050880Y-120800913D01*
X106014361Y-120776155D01*
X105890752Y-120692547D01*
X105786991Y-120748650D01*
X105739720Y-120773228D01*
X105699523Y-120792331D01*
X105672326Y-120803227D01*
X105665402Y-120804743D01*
X105657077Y-120793549D01*
X105640654Y-120761917D01*
X105617357Y-120712765D01*
X105588414Y-120649010D01*
X105555050Y-120573571D01*
X105518491Y-120489364D01*
X105479964Y-120399308D01*
X105440694Y-120306321D01*
X105401908Y-120213320D01*
X105364830Y-120123223D01*
X105330689Y-120038948D01*
X105300708Y-119963413D01*
X105276116Y-119899534D01*
X105258136Y-119850231D01*
X105247997Y-119818421D01*
X105246366Y-119807496D01*
X105259291Y-119793561D01*
X105287589Y-119770940D01*
X105325346Y-119744333D01*
X105328515Y-119742228D01*
X105426100Y-119664114D01*
X105504786Y-119572982D01*
X105563891Y-119471745D01*
X105602732Y-119363318D01*
X105620628Y-119250614D01*
X105616897Y-119136548D01*
X105590857Y-119024034D01*
X105541825Y-118915985D01*
X105527400Y-118892345D01*
X105452369Y-118796887D01*
X105363730Y-118720232D01*
X105264549Y-118662780D01*
X105157895Y-118624929D01*
X105046836Y-118607078D01*
X104934439Y-118609625D01*
X104823773Y-118632970D01*
X104717906Y-118677510D01*
X104619905Y-118743645D01*
X104589590Y-118770487D01*
X104512438Y-118854512D01*
X104456218Y-118942966D01*
X104417653Y-119042115D01*
X104396174Y-119140303D01*
X104390872Y-119250697D01*
X104408552Y-119361640D01*
X104447419Y-119469381D01*
X104505677Y-119570169D01*
X104581531Y-119660256D01*
X104673183Y-119735892D01*
X104685228Y-119743864D01*
X104723389Y-119769974D01*
X104752399Y-119792595D01*
X104766268Y-119807039D01*
X104766469Y-119807496D01*
X104763492Y-119823121D01*
X104751689Y-119858582D01*
X104732286Y-119910962D01*
X104706512Y-119977345D01*
X104675591Y-120054814D01*
X104640751Y-120140450D01*
X104603217Y-120231337D01*
X104564217Y-120324559D01*
X104524977Y-120417197D01*
X104486724Y-120506335D01*
X104450683Y-120589055D01*
X104418083Y-120662441D01*
X104390148Y-120723575D01*
X104368105Y-120769541D01*
X104353182Y-120797421D01*
X104347172Y-120804743D01*
X104328809Y-120799041D01*
X104294448Y-120783749D01*
X104250016Y-120761599D01*
X104225583Y-120748650D01*
X104121822Y-120692547D01*
X103998213Y-120776155D01*
X103935114Y-120818987D01*
X103866030Y-120866122D01*
X103801293Y-120910503D01*
X103768866Y-120932852D01*
X103723259Y-120963477D01*
X103684640Y-120987747D01*
X103658048Y-121002587D01*
X103649410Y-121005724D01*
X103636839Y-120997261D01*
X103609016Y-120973636D01*
X103568639Y-120937302D01*
X103518405Y-120890711D01*
X103461012Y-120836317D01*
X103424714Y-120801392D01*
X103361210Y-120738996D01*
X103306327Y-120683188D01*
X103262286Y-120636354D01*
X103231305Y-120600882D01*
X103215602Y-120579161D01*
X103214095Y-120574752D01*
X103221086Y-120557985D01*
X103240406Y-120524082D01*
X103269909Y-120476476D01*
X103307455Y-120418599D01*
X103350900Y-120353884D01*
X103363255Y-120335842D01*
X103408273Y-120270267D01*
X103448660Y-120211228D01*
X103482160Y-120162042D01*
X103506514Y-120126028D01*
X103519464Y-120106502D01*
X103520715Y-120104483D01*
X103518844Y-120088922D01*
X103508913Y-120054709D01*
X103492653Y-120006355D01*
X103471795Y-119948371D01*
X103448073Y-119885270D01*
X103423216Y-119821563D01*
X103398958Y-119761761D01*
X103377029Y-119710376D01*
X103359162Y-119671919D01*
X103347087Y-119650902D01*
X103346229Y-119649894D01*
X103338846Y-119643888D01*
X103326375Y-119637948D01*
X103306080Y-119631460D01*
X103275222Y-119623809D01*
X103231066Y-119614380D01*
X103170874Y-119602559D01*
X103091907Y-119587729D01*
X102991430Y-119569277D01*
X102969675Y-119565310D01*
X102905198Y-119552853D01*
X102848989Y-119540666D01*
X102806013Y-119529926D01*
X102781240Y-119521809D01*
X102777918Y-119519916D01*
X102772444Y-119503138D01*
X102767994Y-119465645D01*
X102764572Y-119411794D01*
X102762181Y-119345944D01*
X102760823Y-119272453D01*
X102760501Y-119195680D01*
X102761219Y-119119983D01*
X102762979Y-119049720D01*
X102765784Y-118989250D01*
X102769638Y-118942930D01*
X102774543Y-118915119D01*
X102777500Y-118909427D01*
X102793963Y-118903686D01*
X102831449Y-118894345D01*
X102886225Y-118882215D01*
X102954555Y-118868107D01*
X103032706Y-118852830D01*
X103075284Y-118844823D01*
X103156071Y-118829721D01*
X103228113Y-118816040D01*
X103287889Y-118804467D01*
X103331879Y-118795687D01*
X103356561Y-118790387D01*
X103360623Y-118789212D01*
X103367489Y-118775965D01*
X103382002Y-118744057D01*
X103402229Y-118698047D01*
X103426234Y-118642492D01*
X103452082Y-118581953D01*
X103477840Y-118520986D01*
X103501573Y-118464151D01*
X103521346Y-118416006D01*
X103535224Y-118381110D01*
X103541274Y-118364021D01*
X103541386Y-118363274D01*
X103534528Y-118349793D01*
X103515302Y-118318770D01*
X103485728Y-118273289D01*
X103447827Y-118216432D01*
X103403620Y-118151283D01*
X103377921Y-118113862D01*
X103331093Y-118045247D01*
X103289501Y-117982952D01*
X103255175Y-117930129D01*
X103230143Y-117889927D01*
X103216435Y-117865500D01*
X103214456Y-117860024D01*
X103222966Y-117847278D01*
X103246493Y-117820063D01*
X103282032Y-117781428D01*
X103326577Y-117734423D01*
X103377123Y-117682095D01*
X103430664Y-117627495D01*
X103484195Y-117573670D01*
X103534711Y-117523670D01*
X103579206Y-117480543D01*
X103614675Y-117447339D01*
X103638113Y-117427106D01*
X103645954Y-117422278D01*
X103658720Y-117429067D01*
X103689256Y-117448142D01*
X103734590Y-117477561D01*
X103791756Y-117515381D01*
X103857784Y-117559661D01*
X103907590Y-117593395D01*
X104159236Y-117764512D01*
X104368999Y-117678041D01*
X104578763Y-117591570D01*
X104635611Y-117290018D01*
X104692460Y-116988466D01*
X105320115Y-116988466D01*
X105376964Y-117290018D01*
G37*
X105376964Y-117290018D02*
X105433812Y-117591570D01*
X105853338Y-117764512D01*
X106104984Y-117593395D01*
X106175458Y-117545750D01*
X106239163Y-117503210D01*
X106293126Y-117467715D01*
X106334373Y-117441210D01*
X106359934Y-117425636D01*
X106366895Y-117422278D01*
X106379435Y-117430914D01*
X106406231Y-117454792D01*
X106444280Y-117490859D01*
X106490579Y-117536067D01*
X106542123Y-117587364D01*
X106595909Y-117641701D01*
X106648935Y-117696028D01*
X106698195Y-117747295D01*
X106740687Y-117792451D01*
X106773407Y-117828446D01*
X106793351Y-117852230D01*
X106798119Y-117860190D01*
X106791257Y-117874865D01*
X106772020Y-117907014D01*
X106742430Y-117953492D01*
X106704510Y-118011156D01*
X106660282Y-118076860D01*
X106634654Y-118114336D01*
X106587941Y-118182768D01*
X106546432Y-118244520D01*
X106512140Y-118296519D01*
X106487080Y-118335692D01*
X106473264Y-118358965D01*
X106471188Y-118363855D01*
X106475895Y-118377755D01*
X106488723Y-118410150D01*
X106507738Y-118456485D01*
X106531003Y-118512206D01*
X106556584Y-118572758D01*
X106582545Y-118633586D01*
X106606950Y-118690136D01*
X106627863Y-118737852D01*
X106643349Y-118772181D01*
X106651472Y-118788568D01*
X106651952Y-118789212D01*
X106664707Y-118792341D01*
X106698677Y-118799321D01*
X106750340Y-118809467D01*
X106816176Y-118822092D01*
X106892664Y-118836509D01*
X106937290Y-118844823D01*
X107019021Y-118860384D01*
X107092843Y-118875192D01*
X107155021Y-118888436D01*
X107201822Y-118899305D01*
X107229509Y-118906989D01*
X107235074Y-118909427D01*
X107240526Y-118925930D01*
X107244924Y-118963200D01*
X107248272Y-119016880D01*
X107250574Y-119082612D01*
X107251832Y-119156037D01*
X107252048Y-119232796D01*
X107251227Y-119308532D01*
X107249371Y-119378886D01*
X107246482Y-119439500D01*
X107242565Y-119486016D01*
X107237622Y-119514075D01*
X107234657Y-119519916D01*
X107216934Y-119526917D01*
X107179381Y-119536927D01*
X107126964Y-119548769D01*
X107064652Y-119561267D01*
X107042900Y-119565310D01*
X106938024Y-119584520D01*
X106855180Y-119599991D01*
X106791630Y-119612337D01*
X106744637Y-119622173D01*
X106711463Y-119630114D01*
X106689371Y-119636776D01*
X106675624Y-119642773D01*
X106667484Y-119648719D01*
X106666345Y-119649894D01*
X106654977Y-119668826D01*
X106637635Y-119705669D01*
X106616050Y-119755913D01*
X106591954Y-119815046D01*
X106567079Y-119878556D01*
X106543157Y-119941932D01*
X106521919Y-120000662D01*
X106505097Y-120050235D01*
X106494422Y-120086139D01*
X106491627Y-120103862D01*
X106491860Y-120104483D01*
X106501331Y-120118970D01*
X106522818Y-120150844D01*
X106554063Y-120196789D01*
X106592807Y-120253485D01*
X106636793Y-120317617D01*
X106649319Y-120335842D01*
X106693984Y-120401914D01*
X106733288Y-120462200D01*
X106765088Y-120513235D01*
X106787245Y-120551560D01*
X106797617Y-120573711D01*
X106798119Y-120576432D01*
X106789405Y-120590736D01*
X106765325Y-120619072D01*
X106728976Y-120658396D01*
X106683453Y-120705661D01*
X106631852Y-120757823D01*
X106577267Y-120811835D01*
X106522794Y-120864653D01*
X106471529Y-120913231D01*
X106426567Y-120954523D01*
X106391004Y-120985485D01*
X106367935Y-121003070D01*
X106361554Y-121005941D01*
X106346699Y-120999178D01*
X106316286Y-120980939D01*
X106275268Y-120954297D01*
X106243709Y-120932852D01*
X106186525Y-120893503D01*
X106118806Y-120847171D01*
X106050880Y-120800913D01*
X106014361Y-120776155D01*
X105890752Y-120692547D01*
X105786991Y-120748650D01*
X105739720Y-120773228D01*
X105699523Y-120792331D01*
X105672326Y-120803227D01*
X105665402Y-120804743D01*
X105657077Y-120793549D01*
X105640654Y-120761917D01*
X105617357Y-120712765D01*
X105588414Y-120649010D01*
X105555050Y-120573571D01*
X105518491Y-120489364D01*
X105479964Y-120399308D01*
X105440694Y-120306321D01*
X105401908Y-120213320D01*
X105364830Y-120123223D01*
X105330689Y-120038948D01*
X105300708Y-119963413D01*
X105276116Y-119899534D01*
X105258136Y-119850231D01*
X105247997Y-119818421D01*
X105246366Y-119807496D01*
X105259291Y-119793561D01*
X105287589Y-119770940D01*
X105325346Y-119744333D01*
X105328515Y-119742228D01*
X105426100Y-119664114D01*
X105504786Y-119572982D01*
X105563891Y-119471745D01*
X105602732Y-119363318D01*
X105620628Y-119250614D01*
X105616897Y-119136548D01*
X105590857Y-119024034D01*
X105541825Y-118915985D01*
X105527400Y-118892345D01*
X105452369Y-118796887D01*
X105363730Y-118720232D01*
X105264549Y-118662780D01*
X105157895Y-118624929D01*
X105046836Y-118607078D01*
X104934439Y-118609625D01*
X104823773Y-118632970D01*
X104717906Y-118677510D01*
X104619905Y-118743645D01*
X104589590Y-118770487D01*
X104512438Y-118854512D01*
X104456218Y-118942966D01*
X104417653Y-119042115D01*
X104396174Y-119140303D01*
X104390872Y-119250697D01*
X104408552Y-119361640D01*
X104447419Y-119469381D01*
X104505677Y-119570169D01*
X104581531Y-119660256D01*
X104673183Y-119735892D01*
X104685228Y-119743864D01*
X104723389Y-119769974D01*
X104752399Y-119792595D01*
X104766268Y-119807039D01*
X104766469Y-119807496D01*
X104763492Y-119823121D01*
X104751689Y-119858582D01*
X104732286Y-119910962D01*
X104706512Y-119977345D01*
X104675591Y-120054814D01*
X104640751Y-120140450D01*
X104603217Y-120231337D01*
X104564217Y-120324559D01*
X104524977Y-120417197D01*
X104486724Y-120506335D01*
X104450683Y-120589055D01*
X104418083Y-120662441D01*
X104390148Y-120723575D01*
X104368105Y-120769541D01*
X104353182Y-120797421D01*
X104347172Y-120804743D01*
X104328809Y-120799041D01*
X104294448Y-120783749D01*
X104250016Y-120761599D01*
X104225583Y-120748650D01*
X104121822Y-120692547D01*
X103998213Y-120776155D01*
X103935114Y-120818987D01*
X103866030Y-120866122D01*
X103801293Y-120910503D01*
X103768866Y-120932852D01*
X103723259Y-120963477D01*
X103684640Y-120987747D01*
X103658048Y-121002587D01*
X103649410Y-121005724D01*
X103636839Y-120997261D01*
X103609016Y-120973636D01*
X103568639Y-120937302D01*
X103518405Y-120890711D01*
X103461012Y-120836317D01*
X103424714Y-120801392D01*
X103361210Y-120738996D01*
X103306327Y-120683188D01*
X103262286Y-120636354D01*
X103231305Y-120600882D01*
X103215602Y-120579161D01*
X103214095Y-120574752D01*
X103221086Y-120557985D01*
X103240406Y-120524082D01*
X103269909Y-120476476D01*
X103307455Y-120418599D01*
X103350900Y-120353884D01*
X103363255Y-120335842D01*
X103408273Y-120270267D01*
X103448660Y-120211228D01*
X103482160Y-120162042D01*
X103506514Y-120126028D01*
X103519464Y-120106502D01*
X103520715Y-120104483D01*
X103518844Y-120088922D01*
X103508913Y-120054709D01*
X103492653Y-120006355D01*
X103471795Y-119948371D01*
X103448073Y-119885270D01*
X103423216Y-119821563D01*
X103398958Y-119761761D01*
X103377029Y-119710376D01*
X103359162Y-119671919D01*
X103347087Y-119650902D01*
X103346229Y-119649894D01*
X103338846Y-119643888D01*
X103326375Y-119637948D01*
X103306080Y-119631460D01*
X103275222Y-119623809D01*
X103231066Y-119614380D01*
X103170874Y-119602559D01*
X103091907Y-119587729D01*
X102991430Y-119569277D01*
X102969675Y-119565310D01*
X102905198Y-119552853D01*
X102848989Y-119540666D01*
X102806013Y-119529926D01*
X102781240Y-119521809D01*
X102777918Y-119519916D01*
X102772444Y-119503138D01*
X102767994Y-119465645D01*
X102764572Y-119411794D01*
X102762181Y-119345944D01*
X102760823Y-119272453D01*
X102760501Y-119195680D01*
X102761219Y-119119983D01*
X102762979Y-119049720D01*
X102765784Y-118989250D01*
X102769638Y-118942930D01*
X102774543Y-118915119D01*
X102777500Y-118909427D01*
X102793963Y-118903686D01*
X102831449Y-118894345D01*
X102886225Y-118882215D01*
X102954555Y-118868107D01*
X103032706Y-118852830D01*
X103075284Y-118844823D01*
X103156071Y-118829721D01*
X103228113Y-118816040D01*
X103287889Y-118804467D01*
X103331879Y-118795687D01*
X103356561Y-118790387D01*
X103360623Y-118789212D01*
X103367489Y-118775965D01*
X103382002Y-118744057D01*
X103402229Y-118698047D01*
X103426234Y-118642492D01*
X103452082Y-118581953D01*
X103477840Y-118520986D01*
X103501573Y-118464151D01*
X103521346Y-118416006D01*
X103535224Y-118381110D01*
X103541274Y-118364021D01*
X103541386Y-118363274D01*
X103534528Y-118349793D01*
X103515302Y-118318770D01*
X103485728Y-118273289D01*
X103447827Y-118216432D01*
X103403620Y-118151283D01*
X103377921Y-118113862D01*
X103331093Y-118045247D01*
X103289501Y-117982952D01*
X103255175Y-117930129D01*
X103230143Y-117889927D01*
X103216435Y-117865500D01*
X103214456Y-117860024D01*
X103222966Y-117847278D01*
X103246493Y-117820063D01*
X103282032Y-117781428D01*
X103326577Y-117734423D01*
X103377123Y-117682095D01*
X103430664Y-117627495D01*
X103484195Y-117573670D01*
X103534711Y-117523670D01*
X103579206Y-117480543D01*
X103614675Y-117447339D01*
X103638113Y-117427106D01*
X103645954Y-117422278D01*
X103658720Y-117429067D01*
X103689256Y-117448142D01*
X103734590Y-117477561D01*
X103791756Y-117515381D01*
X103857784Y-117559661D01*
X103907590Y-117593395D01*
X104159236Y-117764512D01*
X104368999Y-117678041D01*
X104578763Y-117591570D01*
X104635611Y-117290018D01*
X104692460Y-116988466D01*
X105320115Y-116988466D01*
X105376964Y-117290018D01*
G36*
X105736663Y-122735244D02*
G01*
X105767624Y-122696580D01*
X105786376Y-122679864D01*
X105804733Y-122668878D01*
X105828619Y-122662180D01*
X105863957Y-122658326D01*
X105916669Y-122655873D01*
X105937577Y-122655168D01*
X106068812Y-122650879D01*
X106068620Y-122611158D01*
X106063537Y-122569405D01*
X106045162Y-122544158D01*
X106008039Y-122528030D01*
X106007043Y-122527742D01*
X105954410Y-122521400D01*
X105902906Y-122529684D01*
X105864630Y-122549827D01*
X105849272Y-122559773D01*
X105832730Y-122558397D01*
X105807275Y-122543987D01*
X105792328Y-122533817D01*
X105763091Y-122512088D01*
X105744980Y-122495800D01*
X105742074Y-122491137D01*
X105754040Y-122467005D01*
X105789396Y-122438185D01*
X105804753Y-122428461D01*
X105848901Y-122411714D01*
X105908398Y-122402227D01*
X105974487Y-122400095D01*
X106038411Y-122405417D01*
X106091411Y-122418290D01*
X106106731Y-122425110D01*
X106136428Y-122442974D01*
X106159220Y-122463093D01*
X106176083Y-122488962D01*
X106187998Y-122524073D01*
X106195942Y-122571920D01*
X106200894Y-122635996D01*
X106203831Y-122719794D01*
X106204947Y-122775768D01*
X106209052Y-123017822D01*
X106138932Y-123017822D01*
X106096393Y-123016038D01*
X106074476Y-123009942D01*
X106068812Y-122999706D01*
X106065821Y-122988637D01*
X106052451Y-122990754D01*
X106034233Y-122999629D01*
X105988624Y-123013233D01*
X105930007Y-123016899D01*
X105868354Y-123010903D01*
X105813638Y-122995521D01*
X105808730Y-122993386D01*
X105758723Y-122958255D01*
X105725756Y-122909419D01*
X105710587Y-122852333D01*
X105711746Y-122831824D01*
X105835508Y-122831824D01*
X105846413Y-122859425D01*
X105878745Y-122879204D01*
X105930910Y-122889819D01*
X105958787Y-122891228D01*
X106005247Y-122887620D01*
X106036129Y-122873597D01*
X106043664Y-122866931D01*
X106064076Y-122830666D01*
X106068812Y-122797773D01*
X106068812Y-122753763D01*
X106007513Y-122753763D01*
X105936256Y-122757395D01*
X105886276Y-122768818D01*
X105854696Y-122788824D01*
X105847626Y-122797743D01*
X105835508Y-122831824D01*
X105711746Y-122831824D01*
X105713971Y-122792456D01*
X105736663Y-122735244D01*
G37*
X105736663Y-122735244D02*
X105767624Y-122696580D01*
X105786376Y-122679864D01*
X105804733Y-122668878D01*
X105828619Y-122662180D01*
X105863957Y-122658326D01*
X105916669Y-122655873D01*
X105937577Y-122655168D01*
X106068812Y-122650879D01*
X106068620Y-122611158D01*
X106063537Y-122569405D01*
X106045162Y-122544158D01*
X106008039Y-122528030D01*
X106007043Y-122527742D01*
X105954410Y-122521400D01*
X105902906Y-122529684D01*
X105864630Y-122549827D01*
X105849272Y-122559773D01*
X105832730Y-122558397D01*
X105807275Y-122543987D01*
X105792328Y-122533817D01*
X105763091Y-122512088D01*
X105744980Y-122495800D01*
X105742074Y-122491137D01*
X105754040Y-122467005D01*
X105789396Y-122438185D01*
X105804753Y-122428461D01*
X105848901Y-122411714D01*
X105908398Y-122402227D01*
X105974487Y-122400095D01*
X106038411Y-122405417D01*
X106091411Y-122418290D01*
X106106731Y-122425110D01*
X106136428Y-122442974D01*
X106159220Y-122463093D01*
X106176083Y-122488962D01*
X106187998Y-122524073D01*
X106195942Y-122571920D01*
X106200894Y-122635996D01*
X106203831Y-122719794D01*
X106204947Y-122775768D01*
X106209052Y-123017822D01*
X106138932Y-123017822D01*
X106096393Y-123016038D01*
X106074476Y-123009942D01*
X106068812Y-122999706D01*
X106065821Y-122988637D01*
X106052451Y-122990754D01*
X106034233Y-122999629D01*
X105988624Y-123013233D01*
X105930007Y-123016899D01*
X105868354Y-123010903D01*
X105813638Y-122995521D01*
X105808730Y-122993386D01*
X105758723Y-122958255D01*
X105725756Y-122909419D01*
X105710587Y-122852333D01*
X105711746Y-122831824D01*
X105835508Y-122831824D01*
X105846413Y-122859425D01*
X105878745Y-122879204D01*
X105930910Y-122889819D01*
X105958787Y-122891228D01*
X106005247Y-122887620D01*
X106036129Y-122873597D01*
X106043664Y-122866931D01*
X106064076Y-122830666D01*
X106068812Y-122797773D01*
X106068812Y-122753763D01*
X106007513Y-122753763D01*
X105936256Y-122757395D01*
X105886276Y-122768818D01*
X105854696Y-122788824D01*
X105847626Y-122797743D01*
X105835508Y-122831824D01*
X105711746Y-122831824D01*
X105713971Y-122792456D01*
X105736663Y-122735244D01*
G36*
X103333962Y-121560025D02*
G01*
X103366193Y-121520639D01*
X103425783Y-121477931D01*
X103495832Y-121455109D01*
X103570339Y-121453046D01*
X103643301Y-121472614D01*
X103655832Y-121478514D01*
X103699201Y-121510283D01*
X103740210Y-121556646D01*
X103770832Y-121607696D01*
X103779541Y-121631166D01*
X103787488Y-121673091D01*
X103792226Y-121723757D01*
X103792801Y-121744679D01*
X103792871Y-121810693D01*
X103412917Y-121810693D01*
X103421017Y-121845273D01*
X103440896Y-121886170D01*
X103475653Y-121921514D01*
X103517002Y-121944282D01*
X103543351Y-121949010D01*
X103579084Y-121943273D01*
X103621718Y-121928882D01*
X103636201Y-121922262D01*
X103689760Y-121895513D01*
X103735467Y-121930376D01*
X103761842Y-121953955D01*
X103775876Y-121973417D01*
X103776586Y-121979129D01*
X103764049Y-121992973D01*
X103736572Y-122014012D01*
X103711634Y-122030425D01*
X103644336Y-122059930D01*
X103568890Y-122073284D01*
X103494112Y-122069812D01*
X103434505Y-122051663D01*
X103373059Y-122012784D01*
X103329392Y-121961595D01*
X103302074Y-121895367D01*
X103289678Y-121811371D01*
X103288579Y-121772936D01*
X103292978Y-121684861D01*
X103293518Y-121682299D01*
X103419418Y-121682299D01*
X103422885Y-121690558D01*
X103437137Y-121695113D01*
X103466530Y-121697065D01*
X103515425Y-121697517D01*
X103534252Y-121697525D01*
X103591533Y-121696843D01*
X103627859Y-121694364D01*
X103647396Y-121689443D01*
X103654310Y-121681434D01*
X103654555Y-121678862D01*
X103646664Y-121658423D01*
X103626915Y-121629789D01*
X103618425Y-121619763D01*
X103586906Y-121591408D01*
X103554051Y-121580259D01*
X103536349Y-121579327D01*
X103488461Y-121590981D01*
X103448301Y-121622285D01*
X103422827Y-121667752D01*
X103422375Y-121669233D01*
X103419418Y-121682299D01*
X103293518Y-121682299D01*
X103307608Y-121615510D01*
X103333962Y-121560025D01*
G37*
X103333962Y-121560025D02*
X103366193Y-121520639D01*
X103425783Y-121477931D01*
X103495832Y-121455109D01*
X103570339Y-121453046D01*
X103643301Y-121472614D01*
X103655832Y-121478514D01*
X103699201Y-121510283D01*
X103740210Y-121556646D01*
X103770832Y-121607696D01*
X103779541Y-121631166D01*
X103787488Y-121673091D01*
X103792226Y-121723757D01*
X103792801Y-121744679D01*
X103792871Y-121810693D01*
X103412917Y-121810693D01*
X103421017Y-121845273D01*
X103440896Y-121886170D01*
X103475653Y-121921514D01*
X103517002Y-121944282D01*
X103543351Y-121949010D01*
X103579084Y-121943273D01*
X103621718Y-121928882D01*
X103636201Y-121922262D01*
X103689760Y-121895513D01*
X103735467Y-121930376D01*
X103761842Y-121953955D01*
X103775876Y-121973417D01*
X103776586Y-121979129D01*
X103764049Y-121992973D01*
X103736572Y-122014012D01*
X103711634Y-122030425D01*
X103644336Y-122059930D01*
X103568890Y-122073284D01*
X103494112Y-122069812D01*
X103434505Y-122051663D01*
X103373059Y-122012784D01*
X103329392Y-121961595D01*
X103302074Y-121895367D01*
X103289678Y-121811371D01*
X103288579Y-121772936D01*
X103292978Y-121684861D01*
X103293518Y-121682299D01*
X103419418Y-121682299D01*
X103422885Y-121690558D01*
X103437137Y-121695113D01*
X103466530Y-121697065D01*
X103515425Y-121697517D01*
X103534252Y-121697525D01*
X103591533Y-121696843D01*
X103627859Y-121694364D01*
X103647396Y-121689443D01*
X103654310Y-121681434D01*
X103654555Y-121678862D01*
X103646664Y-121658423D01*
X103626915Y-121629789D01*
X103618425Y-121619763D01*
X103586906Y-121591408D01*
X103554051Y-121580259D01*
X103536349Y-121579327D01*
X103488461Y-121590981D01*
X103448301Y-121622285D01*
X103422827Y-121667752D01*
X103422375Y-121669233D01*
X103419418Y-121682299D01*
X103293518Y-121682299D01*
X103307608Y-121615510D01*
X103333962Y-121560025D01*
G36*
X102793218Y-121458614D02*
G01*
X102834740Y-121460256D01*
X102856162Y-121466087D01*
X102862374Y-121477461D01*
X102862376Y-121477798D01*
X102865258Y-121488938D01*
X102877970Y-121487673D01*
X102903243Y-121475433D01*
X102962131Y-121456707D01*
X103028385Y-121454739D01*
X103091241Y-121469184D01*
X103117753Y-121482282D01*
X103150447Y-121505106D01*
X103174275Y-121529996D01*
X103190594Y-121561249D01*
X103200760Y-121603166D01*
X103206128Y-121660044D01*
X103208056Y-121736184D01*
X103208169Y-121768917D01*
X103207839Y-121840656D01*
X103206473Y-121891927D01*
X103203500Y-121927404D01*
X103198351Y-121951763D01*
X103190457Y-121969680D01*
X103182243Y-121981902D01*
X103129813Y-122033905D01*
X103068070Y-122065184D01*
X103001464Y-122074592D01*
X102934442Y-122060980D01*
X102913208Y-122051354D01*
X102862376Y-122024859D01*
X102862376Y-122440052D01*
X102899475Y-122420868D01*
X102948357Y-122406025D01*
X103008439Y-122402222D01*
X103068436Y-122409243D01*
X103113744Y-122425013D01*
X103151325Y-122455047D01*
X103183436Y-122498024D01*
X103185850Y-122502436D01*
X103196033Y-122523221D01*
X103203470Y-122544170D01*
X103208589Y-122569548D01*
X103211819Y-122603618D01*
X103213587Y-122650641D01*
X103214323Y-122714882D01*
X103214456Y-122787176D01*
X103214456Y-123017822D01*
X103076139Y-123017822D01*
X103076139Y-122592533D01*
X103037451Y-122559979D01*
X102997262Y-122533940D01*
X102959203Y-122529205D01*
X102920934Y-122541389D01*
X102900538Y-122553320D01*
X102885358Y-122570313D01*
X102874562Y-122595995D01*
X102867317Y-122633991D01*
X102862792Y-122687926D01*
X102860156Y-122761425D01*
X102859228Y-122810347D01*
X102856089Y-123011535D01*
X102790074Y-123015336D01*
X102724060Y-123019136D01*
X102724060Y-121770650D01*
X102862376Y-121770650D01*
X102865903Y-121840254D01*
X102877785Y-121888569D01*
X102899980Y-121918631D01*
X102934441Y-121933471D01*
X102969258Y-121936436D01*
X103008671Y-121933028D01*
X103034829Y-121919617D01*
X103051186Y-121901896D01*
X103064063Y-121882835D01*
X103071728Y-121861601D01*
X103075139Y-121831849D01*
X103075251Y-121787236D01*
X103074103Y-121749880D01*
X103071468Y-121693604D01*
X103067544Y-121656658D01*
X103060937Y-121633223D01*
X103050251Y-121617480D01*
X103040167Y-121608380D01*
X102998030Y-121588537D01*
X102948160Y-121585332D01*
X102919524Y-121592168D01*
X102891172Y-121616464D01*
X102872391Y-121663728D01*
X102863288Y-121733624D01*
X102862376Y-121770650D01*
X102724060Y-121770650D01*
X102724060Y-121458614D01*
X102793218Y-121458614D01*
G37*
X102793218Y-121458614D02*
X102834740Y-121460256D01*
X102856162Y-121466087D01*
X102862374Y-121477461D01*
X102862376Y-121477798D01*
X102865258Y-121488938D01*
X102877970Y-121487673D01*
X102903243Y-121475433D01*
X102962131Y-121456707D01*
X103028385Y-121454739D01*
X103091241Y-121469184D01*
X103117753Y-121482282D01*
X103150447Y-121505106D01*
X103174275Y-121529996D01*
X103190594Y-121561249D01*
X103200760Y-121603166D01*
X103206128Y-121660044D01*
X103208056Y-121736184D01*
X103208169Y-121768917D01*
X103207839Y-121840656D01*
X103206473Y-121891927D01*
X103203500Y-121927404D01*
X103198351Y-121951763D01*
X103190457Y-121969680D01*
X103182243Y-121981902D01*
X103129813Y-122033905D01*
X103068070Y-122065184D01*
X103001464Y-122074592D01*
X102934442Y-122060980D01*
X102913208Y-122051354D01*
X102862376Y-122024859D01*
X102862376Y-122440052D01*
X102899475Y-122420868D01*
X102948357Y-122406025D01*
X103008439Y-122402222D01*
X103068436Y-122409243D01*
X103113744Y-122425013D01*
X103151325Y-122455047D01*
X103183436Y-122498024D01*
X103185850Y-122502436D01*
X103196033Y-122523221D01*
X103203470Y-122544170D01*
X103208589Y-122569548D01*
X103211819Y-122603618D01*
X103213587Y-122650641D01*
X103214323Y-122714882D01*
X103214456Y-122787176D01*
X103214456Y-123017822D01*
X103076139Y-123017822D01*
X103076139Y-122592533D01*
X103037451Y-122559979D01*
X102997262Y-122533940D01*
X102959203Y-122529205D01*
X102920934Y-122541389D01*
X102900538Y-122553320D01*
X102885358Y-122570313D01*
X102874562Y-122595995D01*
X102867317Y-122633991D01*
X102862792Y-122687926D01*
X102860156Y-122761425D01*
X102859228Y-122810347D01*
X102856089Y-123011535D01*
X102790074Y-123015336D01*
X102724060Y-123019136D01*
X102724060Y-121770650D01*
X102862376Y-121770650D01*
X102865903Y-121840254D01*
X102877785Y-121888569D01*
X102899980Y-121918631D01*
X102934441Y-121933471D01*
X102969258Y-121936436D01*
X103008671Y-121933028D01*
X103034829Y-121919617D01*
X103051186Y-121901896D01*
X103064063Y-121882835D01*
X103071728Y-121861601D01*
X103075139Y-121831849D01*
X103075251Y-121787236D01*
X103074103Y-121749880D01*
X103071468Y-121693604D01*
X103067544Y-121656658D01*
X103060937Y-121633223D01*
X103050251Y-121617480D01*
X103040167Y-121608380D01*
X102998030Y-121588537D01*
X102948160Y-121585332D01*
X102919524Y-121592168D01*
X102891172Y-121616464D01*
X102872391Y-121663728D01*
X102863288Y-121733624D01*
X102862376Y-121770650D01*
X102724060Y-121770650D01*
X102724060Y-121458614D01*
X102793218Y-121458614D01*
G36*
X106799460Y-121458030D02*
G01*
X106842711Y-121471245D01*
X106870558Y-121487941D01*
X106879629Y-121501145D01*
X106877132Y-121516797D01*
X106860931Y-121541385D01*
X106847232Y-121558800D01*
X106818992Y-121590283D01*
X106797775Y-121603529D01*
X106779688Y-121602664D01*
X106726035Y-121589010D01*
X106686630Y-121589630D01*
X106654632Y-121605104D01*
X106643890Y-121614161D01*
X106609505Y-121646027D01*
X106609505Y-122062179D01*
X106471188Y-122062179D01*
X106471188Y-121458614D01*
X106540347Y-121458614D01*
X106581869Y-121460256D01*
X106603291Y-121466087D01*
X106609502Y-121477461D01*
X106609505Y-121477798D01*
X106612439Y-121489713D01*
X106625704Y-121488159D01*
X106644084Y-121479563D01*
X106682046Y-121463568D01*
X106712872Y-121453945D01*
X106752536Y-121451478D01*
X106799460Y-121458030D01*
G37*
X106799460Y-121458030D02*
X106842711Y-121471245D01*
X106870558Y-121487941D01*
X106879629Y-121501145D01*
X106877132Y-121516797D01*
X106860931Y-121541385D01*
X106847232Y-121558800D01*
X106818992Y-121590283D01*
X106797775Y-121603529D01*
X106779688Y-121602664D01*
X106726035Y-121589010D01*
X106686630Y-121589630D01*
X106654632Y-121605104D01*
X106643890Y-121614161D01*
X106609505Y-121646027D01*
X106609505Y-122062179D01*
X106471188Y-122062179D01*
X106471188Y-121458614D01*
X106540347Y-121458614D01*
X106581869Y-121460256D01*
X106603291Y-121466087D01*
X106609502Y-121477461D01*
X106609505Y-121477798D01*
X106612439Y-121489713D01*
X106625704Y-121488159D01*
X106644084Y-121479563D01*
X106682046Y-121463568D01*
X106712872Y-121453945D01*
X106752536Y-121451478D01*
X106799460Y-121458030D01*
G36*
X105014017Y-121456452D02*
G01*
X105061634Y-121465482D01*
X105111034Y-121484370D01*
X105116312Y-121486777D01*
X105153774Y-121506476D01*
X105179717Y-121524781D01*
X105188103Y-121536508D01*
X105180117Y-121555632D01*
X105160720Y-121583850D01*
X105152110Y-121594384D01*
X105116628Y-121635847D01*
X105070885Y-121608858D01*
X105027350Y-121590878D01*
X104977050Y-121581267D01*
X104928812Y-121580660D01*
X104891467Y-121589691D01*
X104882505Y-121595327D01*
X104865437Y-121621171D01*
X104863363Y-121650941D01*
X104876134Y-121674197D01*
X104883688Y-121678708D01*
X104906325Y-121684309D01*
X104946115Y-121690892D01*
X104995166Y-121697183D01*
X105004215Y-121698170D01*
X105082996Y-121711798D01*
X105140136Y-121734946D01*
X105178030Y-121769752D01*
X105199079Y-121818354D01*
X105205635Y-121877718D01*
X105196577Y-121945198D01*
X105167164Y-121998188D01*
X105117278Y-122036783D01*
X105046800Y-122061081D01*
X104968565Y-122070667D01*
X104904766Y-122070552D01*
X104853016Y-122061845D01*
X104817673Y-122049825D01*
X104773017Y-122028880D01*
X104731747Y-122004574D01*
X104717079Y-121993876D01*
X104679357Y-121963084D01*
X104724852Y-121917049D01*
X104770347Y-121871013D01*
X104822072Y-121905243D01*
X104873952Y-121930952D01*
X104929351Y-121944399D01*
X104982605Y-121945818D01*
X105028049Y-121935443D01*
X105060016Y-121913507D01*
X105070338Y-121894998D01*
X105068789Y-121865314D01*
X105043140Y-121842615D01*
X104993460Y-121826940D01*
X104939031Y-121819695D01*
X104855264Y-121805873D01*
X104793033Y-121779796D01*
X104751507Y-121740699D01*
X104729853Y-121687820D01*
X104726853Y-121625126D01*
X104741671Y-121559642D01*
X104775454Y-121510144D01*
X104828505Y-121476408D01*
X104901126Y-121458207D01*
X104954928Y-121454639D01*
X105014017Y-121456452D01*
G37*
X105014017Y-121456452D02*
X105061634Y-121465482D01*
X105111034Y-121484370D01*
X105116312Y-121486777D01*
X105153774Y-121506476D01*
X105179717Y-121524781D01*
X105188103Y-121536508D01*
X105180117Y-121555632D01*
X105160720Y-121583850D01*
X105152110Y-121594384D01*
X105116628Y-121635847D01*
X105070885Y-121608858D01*
X105027350Y-121590878D01*
X104977050Y-121581267D01*
X104928812Y-121580660D01*
X104891467Y-121589691D01*
X104882505Y-121595327D01*
X104865437Y-121621171D01*
X104863363Y-121650941D01*
X104876134Y-121674197D01*
X104883688Y-121678708D01*
X104906325Y-121684309D01*
X104946115Y-121690892D01*
X104995166Y-121697183D01*
X105004215Y-121698170D01*
X105082996Y-121711798D01*
X105140136Y-121734946D01*
X105178030Y-121769752D01*
X105199079Y-121818354D01*
X105205635Y-121877718D01*
X105196577Y-121945198D01*
X105167164Y-121998188D01*
X105117278Y-122036783D01*
X105046800Y-122061081D01*
X104968565Y-122070667D01*
X104904766Y-122070552D01*
X104853016Y-122061845D01*
X104817673Y-122049825D01*
X104773017Y-122028880D01*
X104731747Y-122004574D01*
X104717079Y-121993876D01*
X104679357Y-121963084D01*
X104724852Y-121917049D01*
X104770347Y-121871013D01*
X104822072Y-121905243D01*
X104873952Y-121930952D01*
X104929351Y-121944399D01*
X104982605Y-121945818D01*
X105028049Y-121935443D01*
X105060016Y-121913507D01*
X105070338Y-121894998D01*
X105068789Y-121865314D01*
X105043140Y-121842615D01*
X104993460Y-121826940D01*
X104939031Y-121819695D01*
X104855264Y-121805873D01*
X104793033Y-121779796D01*
X104751507Y-121740699D01*
X104729853Y-121687820D01*
X104726853Y-121625126D01*
X104741671Y-121559642D01*
X104775454Y-121510144D01*
X104828505Y-121476408D01*
X104901126Y-121458207D01*
X104954928Y-121454639D01*
X105014017Y-121456452D01*
G36*
X104310336Y-122662563D02*
G01*
X104316486Y-122580981D01*
X104329267Y-122519730D01*
X104350529Y-122474449D01*
X104382122Y-122440779D01*
X104412793Y-122421014D01*
X104455646Y-122407120D01*
X104508944Y-122402354D01*
X104563520Y-122406236D01*
X104610208Y-122418282D01*
X104634876Y-122432693D01*
X104660495Y-122455878D01*
X104660495Y-122162773D01*
X104798812Y-122162773D01*
X104798812Y-123017822D01*
X104729654Y-123017822D01*
X104689512Y-123016645D01*
X104668606Y-123011772D01*
X104661078Y-123001186D01*
X104660495Y-122994029D01*
X104659226Y-122979676D01*
X104651221Y-122976923D01*
X104630185Y-122985771D01*
X104613827Y-122994029D01*
X104551023Y-123013597D01*
X104482752Y-123014729D01*
X104427248Y-123000135D01*
X104375562Y-122964877D01*
X104336162Y-122912835D01*
X104314587Y-122851450D01*
X104314038Y-122848018D01*
X104310833Y-122810571D01*
X104309239Y-122756813D01*
X104309367Y-122716155D01*
X104446721Y-122716155D01*
X104449903Y-122770194D01*
X104457141Y-122814735D01*
X104466940Y-122839888D01*
X104504011Y-122874260D01*
X104548026Y-122886582D01*
X104593416Y-122876618D01*
X104632203Y-122846895D01*
X104646892Y-122826905D01*
X104655481Y-122803050D01*
X104659504Y-122768230D01*
X104660495Y-122715930D01*
X104658722Y-122664139D01*
X104654037Y-122618634D01*
X104647397Y-122588181D01*
X104646290Y-122585452D01*
X104619509Y-122553000D01*
X104580421Y-122535183D01*
X104536685Y-122532306D01*
X104495962Y-122544674D01*
X104465913Y-122572593D01*
X104462796Y-122578148D01*
X104453039Y-122612022D01*
X104447723Y-122660728D01*
X104446721Y-122716155D01*
X104309367Y-122716155D01*
X104309432Y-122695540D01*
X104310336Y-122662563D01*
G37*
X104310336Y-122662563D02*
X104316486Y-122580981D01*
X104329267Y-122519730D01*
X104350529Y-122474449D01*
X104382122Y-122440779D01*
X104412793Y-122421014D01*
X104455646Y-122407120D01*
X104508944Y-122402354D01*
X104563520Y-122406236D01*
X104610208Y-122418282D01*
X104634876Y-122432693D01*
X104660495Y-122455878D01*
X104660495Y-122162773D01*
X104798812Y-122162773D01*
X104798812Y-123017822D01*
X104729654Y-123017822D01*
X104689512Y-123016645D01*
X104668606Y-123011772D01*
X104661078Y-123001186D01*
X104660495Y-122994029D01*
X104659226Y-122979676D01*
X104651221Y-122976923D01*
X104630185Y-122985771D01*
X104613827Y-122994029D01*
X104551023Y-123013597D01*
X104482752Y-123014729D01*
X104427248Y-123000135D01*
X104375562Y-122964877D01*
X104336162Y-122912835D01*
X104314587Y-122851450D01*
X104314038Y-122848018D01*
X104310833Y-122810571D01*
X104309239Y-122756813D01*
X104309367Y-122716155D01*
X104446721Y-122716155D01*
X104449903Y-122770194D01*
X104457141Y-122814735D01*
X104466940Y-122839888D01*
X104504011Y-122874260D01*
X104548026Y-122886582D01*
X104593416Y-122876618D01*
X104632203Y-122846895D01*
X104646892Y-122826905D01*
X104655481Y-122803050D01*
X104659504Y-122768230D01*
X104660495Y-122715930D01*
X104658722Y-122664139D01*
X104654037Y-122618634D01*
X104647397Y-122588181D01*
X104646290Y-122585452D01*
X104619509Y-122553000D01*
X104580421Y-122535183D01*
X104536685Y-122532306D01*
X104495962Y-122544674D01*
X104465913Y-122572593D01*
X104462796Y-122578148D01*
X104453039Y-122612022D01*
X104447723Y-122660728D01*
X104446721Y-122716155D01*
X104309367Y-122716155D01*
X104309432Y-122695540D01*
X104310336Y-122662563D01*
G36*
X106635255Y-122401486D02*
G01*
X106683595Y-122411015D01*
X106711114Y-122425125D01*
X106740064Y-122448568D01*
X106698876Y-122500571D01*
X106673482Y-122532064D01*
X106656238Y-122547428D01*
X106639102Y-122549776D01*
X106614027Y-122542217D01*
X106602257Y-122537941D01*
X106554270Y-122531631D01*
X106510324Y-122545156D01*
X106478060Y-122575710D01*
X106472819Y-122585452D01*
X106467112Y-122611258D01*
X106462706Y-122658817D01*
X106459811Y-122724758D01*
X106458631Y-122805710D01*
X106458614Y-122817226D01*
X106458614Y-123017822D01*
X106320297Y-123017822D01*
X106320297Y-122401683D01*
X106389456Y-122401683D01*
X106429333Y-122402725D01*
X106450107Y-122407358D01*
X106457789Y-122417849D01*
X106458614Y-122427745D01*
X106458614Y-122453806D01*
X106491745Y-122427745D01*
X106529735Y-122409965D01*
X106580770Y-122401174D01*
X106635255Y-122401486D01*
G37*
X106635255Y-122401486D02*
X106683595Y-122411015D01*
X106711114Y-122425125D01*
X106740064Y-122448568D01*
X106698876Y-122500571D01*
X106673482Y-122532064D01*
X106656238Y-122547428D01*
X106639102Y-122549776D01*
X106614027Y-122542217D01*
X106602257Y-122537941D01*
X106554270Y-122531631D01*
X106510324Y-122545156D01*
X106478060Y-122575710D01*
X106472819Y-122585452D01*
X106467112Y-122611258D01*
X106462706Y-122658817D01*
X106459811Y-122724758D01*
X106458631Y-122805710D01*
X106458614Y-122817226D01*
X106458614Y-123017822D01*
X106320297Y-123017822D01*
X106320297Y-122401683D01*
X106389456Y-122401683D01*
X106429333Y-122402725D01*
X106450107Y-122407358D01*
X106457789Y-122417849D01*
X106458614Y-122427745D01*
X106458614Y-122453806D01*
X106491745Y-122427745D01*
X106529735Y-122409965D01*
X106580770Y-122401174D01*
X106635255Y-122401486D01*
G36*
X103319290Y-122723845D02*
G01*
X103363052Y-122681647D01*
X103369101Y-122677808D01*
X103395093Y-122665309D01*
X103427265Y-122657740D01*
X103472240Y-122654061D01*
X103525669Y-122653216D01*
X103641980Y-122653169D01*
X103641980Y-122604411D01*
X103637047Y-122566581D01*
X103624457Y-122541236D01*
X103622983Y-122539887D01*
X103594966Y-122528800D01*
X103552674Y-122524503D01*
X103505936Y-122526615D01*
X103464582Y-122534756D01*
X103440043Y-122546965D01*
X103426747Y-122556746D01*
X103412706Y-122558613D01*
X103393329Y-122550600D01*
X103364024Y-122530739D01*
X103320197Y-122497063D01*
X103316175Y-122493909D01*
X103318236Y-122482236D01*
X103335432Y-122462822D01*
X103361567Y-122441248D01*
X103390448Y-122423096D01*
X103399522Y-122418809D01*
X103432620Y-122410256D01*
X103481120Y-122404155D01*
X103535305Y-122401708D01*
X103537839Y-122401703D01*
X103615790Y-122406555D01*
X103674945Y-122422339D01*
X103719977Y-122450948D01*
X103751754Y-122488419D01*
X103761634Y-122504411D01*
X103768927Y-122521163D01*
X103774026Y-122542592D01*
X103777321Y-122572616D01*
X103779203Y-122615154D01*
X103780063Y-122674122D01*
X103780293Y-122753440D01*
X103780297Y-122774484D01*
X103780297Y-123017822D01*
X103719941Y-123017822D01*
X103681443Y-123015126D01*
X103652977Y-123008295D01*
X103645845Y-123004083D01*
X103626348Y-122996813D01*
X103606434Y-123004083D01*
X103573647Y-123013160D01*
X103526022Y-123016813D01*
X103473236Y-123015228D01*
X103424964Y-123008589D01*
X103396782Y-123000072D01*
X103342247Y-122965063D01*
X103308165Y-122916479D01*
X103292843Y-122851882D01*
X103292701Y-122850223D01*
X103294045Y-122821566D01*
X103415644Y-122821566D01*
X103426274Y-122854161D01*
X103443590Y-122872505D01*
X103478348Y-122886379D01*
X103524227Y-122891917D01*
X103571012Y-122889191D01*
X103608486Y-122878274D01*
X103618985Y-122871269D01*
X103637332Y-122838904D01*
X103641980Y-122802111D01*
X103641980Y-122753763D01*
X103572418Y-122753763D01*
X103506333Y-122758850D01*
X103456236Y-122773263D01*
X103425071Y-122795729D01*
X103415644Y-122821566D01*
X103294045Y-122821566D01*
X103296013Y-122779647D01*
X103319290Y-122723845D01*
G37*
X103319290Y-122723845D02*
X103363052Y-122681647D01*
X103369101Y-122677808D01*
X103395093Y-122665309D01*
X103427265Y-122657740D01*
X103472240Y-122654061D01*
X103525669Y-122653216D01*
X103641980Y-122653169D01*
X103641980Y-122604411D01*
X103637047Y-122566581D01*
X103624457Y-122541236D01*
X103622983Y-122539887D01*
X103594966Y-122528800D01*
X103552674Y-122524503D01*
X103505936Y-122526615D01*
X103464582Y-122534756D01*
X103440043Y-122546965D01*
X103426747Y-122556746D01*
X103412706Y-122558613D01*
X103393329Y-122550600D01*
X103364024Y-122530739D01*
X103320197Y-122497063D01*
X103316175Y-122493909D01*
X103318236Y-122482236D01*
X103335432Y-122462822D01*
X103361567Y-122441248D01*
X103390448Y-122423096D01*
X103399522Y-122418809D01*
X103432620Y-122410256D01*
X103481120Y-122404155D01*
X103535305Y-122401708D01*
X103537839Y-122401703D01*
X103615790Y-122406555D01*
X103674945Y-122422339D01*
X103719977Y-122450948D01*
X103751754Y-122488419D01*
X103761634Y-122504411D01*
X103768927Y-122521163D01*
X103774026Y-122542592D01*
X103777321Y-122572616D01*
X103779203Y-122615154D01*
X103780063Y-122674122D01*
X103780293Y-122753440D01*
X103780297Y-122774484D01*
X103780297Y-123017822D01*
X103719941Y-123017822D01*
X103681443Y-123015126D01*
X103652977Y-123008295D01*
X103645845Y-123004083D01*
X103626348Y-122996813D01*
X103606434Y-123004083D01*
X103573647Y-123013160D01*
X103526022Y-123016813D01*
X103473236Y-123015228D01*
X103424964Y-123008589D01*
X103396782Y-123000072D01*
X103342247Y-122965063D01*
X103308165Y-122916479D01*
X103292843Y-122851882D01*
X103292701Y-122850223D01*
X103294045Y-122821566D01*
X103415644Y-122821566D01*
X103426274Y-122854161D01*
X103443590Y-122872505D01*
X103478348Y-122886379D01*
X103524227Y-122891917D01*
X103571012Y-122889191D01*
X103608486Y-122878274D01*
X103618985Y-122871269D01*
X103637332Y-122838904D01*
X103641980Y-122802111D01*
X103641980Y-122753763D01*
X103572418Y-122753763D01*
X103506333Y-122758850D01*
X103456236Y-122773263D01*
X103425071Y-122795729D01*
X103415644Y-122821566D01*
X103294045Y-122821566D01*
X103296013Y-122779647D01*
X103319290Y-122723845D01*
G36*
X105281524Y-122404237D02*
G01*
X105331255Y-122407971D01*
X105461291Y-122797773D01*
X105481678Y-122728614D01*
X105493946Y-122685874D01*
X105510085Y-122628115D01*
X105527512Y-122564625D01*
X105536726Y-122530570D01*
X105571388Y-122401683D01*
X105714391Y-122401683D01*
X105671646Y-122536857D01*
X105650596Y-122603342D01*
X105625167Y-122683539D01*
X105598610Y-122767193D01*
X105574902Y-122841782D01*
X105520902Y-123011535D01*
X105462598Y-123015328D01*
X105404295Y-123019122D01*
X105372679Y-122914734D01*
X105353182Y-122849889D01*
X105331904Y-122778400D01*
X105313308Y-122715263D01*
X105312574Y-122712750D01*
X105298684Y-122669969D01*
X105286429Y-122640779D01*
X105277846Y-122629741D01*
X105276082Y-122631018D01*
X105269891Y-122648130D01*
X105258128Y-122684787D01*
X105242225Y-122736378D01*
X105223614Y-122798294D01*
X105213543Y-122832352D01*
X105159007Y-123017822D01*
X105043264Y-123017822D01*
X104950737Y-122725471D01*
X104924744Y-122643462D01*
X104901066Y-122568987D01*
X104880820Y-122505544D01*
X104865126Y-122456632D01*
X104855102Y-122425749D01*
X104852055Y-122416726D01*
X104854467Y-122407487D01*
X104873408Y-122403441D01*
X104912823Y-122403846D01*
X104918993Y-122404152D01*
X104992086Y-122407971D01*
X105039957Y-122584010D01*
X105057553Y-122648211D01*
X105073277Y-122704649D01*
X105085746Y-122748422D01*
X105093574Y-122774630D01*
X105095020Y-122778903D01*
X105101014Y-122773990D01*
X105113101Y-122748532D01*
X105129893Y-122705997D01*
X105150003Y-122649850D01*
X105167003Y-122599130D01*
X105231794Y-122400504D01*
X105281524Y-122404237D01*
G37*
X105281524Y-122404237D02*
X105331255Y-122407971D01*
X105461291Y-122797773D01*
X105481678Y-122728614D01*
X105493946Y-122685874D01*
X105510085Y-122628115D01*
X105527512Y-122564625D01*
X105536726Y-122530570D01*
X105571388Y-122401683D01*
X105714391Y-122401683D01*
X105671646Y-122536857D01*
X105650596Y-122603342D01*
X105625167Y-122683539D01*
X105598610Y-122767193D01*
X105574902Y-122841782D01*
X105520902Y-123011535D01*
X105462598Y-123015328D01*
X105404295Y-123019122D01*
X105372679Y-122914734D01*
X105353182Y-122849889D01*
X105331904Y-122778400D01*
X105313308Y-122715263D01*
X105312574Y-122712750D01*
X105298684Y-122669969D01*
X105286429Y-122640779D01*
X105277846Y-122629741D01*
X105276082Y-122631018D01*
X105269891Y-122648130D01*
X105258128Y-122684787D01*
X105242225Y-122736378D01*
X105223614Y-122798294D01*
X105213543Y-122832352D01*
X105159007Y-123017822D01*
X105043264Y-123017822D01*
X104950737Y-122725471D01*
X104924744Y-122643462D01*
X104901066Y-122568987D01*
X104880820Y-122505544D01*
X104865126Y-122456632D01*
X104855102Y-122425749D01*
X104852055Y-122416726D01*
X104854467Y-122407487D01*
X104873408Y-122403441D01*
X104912823Y-122403846D01*
X104918993Y-122404152D01*
X104992086Y-122407971D01*
X105039957Y-122584010D01*
X105057553Y-122648211D01*
X105073277Y-122704649D01*
X105085746Y-122748422D01*
X105093574Y-122774630D01*
X105095020Y-122778903D01*
X105101014Y-122773990D01*
X105113101Y-122748532D01*
X105129893Y-122705997D01*
X105150003Y-122649850D01*
X105167003Y-122599130D01*
X105231794Y-122400504D01*
X105281524Y-122404237D01*
G36*
X102136052Y-121658056D02*
G01*
X102143638Y-121614007D01*
X102157319Y-121579248D01*
X102178135Y-121548551D01*
X102185853Y-121539436D01*
X102234111Y-121494021D01*
X102285872Y-121467493D01*
X102349172Y-121456379D01*
X102380039Y-121455471D01*
X102461739Y-121465148D01*
X102527521Y-121494231D01*
X102577460Y-121542793D01*
X102611626Y-121610908D01*
X102630093Y-121698651D01*
X102631417Y-121712351D01*
X102632454Y-121808939D01*
X102619007Y-121893602D01*
X102591892Y-121962221D01*
X102577373Y-121984294D01*
X102526799Y-122031011D01*
X102462391Y-122061268D01*
X102390334Y-122073824D01*
X102316815Y-122067439D01*
X102260928Y-122047772D01*
X102212868Y-122014629D01*
X102173588Y-121971175D01*
X102172908Y-121970158D01*
X102156956Y-121943338D01*
X102146590Y-121916368D01*
X102140312Y-121882332D01*
X102136627Y-121834310D01*
X102135003Y-121794931D01*
X102134328Y-121759219D01*
X102260045Y-121759219D01*
X102261274Y-121794770D01*
X102265734Y-121842094D01*
X102273603Y-121872465D01*
X102287793Y-121894072D01*
X102301083Y-121906694D01*
X102348198Y-121933122D01*
X102397495Y-121936653D01*
X102443407Y-121917639D01*
X102466362Y-121896331D01*
X102482904Y-121874859D01*
X102492579Y-121854313D01*
X102496826Y-121827574D01*
X102497080Y-121787523D01*
X102495772Y-121750638D01*
X102492957Y-121697947D01*
X102488495Y-121663772D01*
X102480452Y-121641480D01*
X102466897Y-121624442D01*
X102456155Y-121614703D01*
X102411223Y-121589123D01*
X102362751Y-121587847D01*
X102322106Y-121602999D01*
X102287433Y-121634642D01*
X102266776Y-121686620D01*
X102260045Y-121759219D01*
X102134328Y-121759219D01*
X102133521Y-121716621D01*
X102136052Y-121658056D01*
G37*
X102136052Y-121658056D02*
X102143638Y-121614007D01*
X102157319Y-121579248D01*
X102178135Y-121548551D01*
X102185853Y-121539436D01*
X102234111Y-121494021D01*
X102285872Y-121467493D01*
X102349172Y-121456379D01*
X102380039Y-121455471D01*
X102461739Y-121465148D01*
X102527521Y-121494231D01*
X102577460Y-121542793D01*
X102611626Y-121610908D01*
X102630093Y-121698651D01*
X102631417Y-121712351D01*
X102632454Y-121808939D01*
X102619007Y-121893602D01*
X102591892Y-121962221D01*
X102577373Y-121984294D01*
X102526799Y-122031011D01*
X102462391Y-122061268D01*
X102390334Y-122073824D01*
X102316815Y-122067439D01*
X102260928Y-122047772D01*
X102212868Y-122014629D01*
X102173588Y-121971175D01*
X102172908Y-121970158D01*
X102156956Y-121943338D01*
X102146590Y-121916368D01*
X102140312Y-121882332D01*
X102136627Y-121834310D01*
X102135003Y-121794931D01*
X102134328Y-121759219D01*
X102260045Y-121759219D01*
X102261274Y-121794770D01*
X102265734Y-121842094D01*
X102273603Y-121872465D01*
X102287793Y-121894072D01*
X102301083Y-121906694D01*
X102348198Y-121933122D01*
X102397495Y-121936653D01*
X102443407Y-121917639D01*
X102466362Y-121896331D01*
X102482904Y-121874859D01*
X102492579Y-121854313D01*
X102496826Y-121827574D01*
X102497080Y-121787523D01*
X102495772Y-121750638D01*
X102492957Y-121697947D01*
X102488495Y-121663772D01*
X102480452Y-121641480D01*
X102466897Y-121624442D01*
X102456155Y-121614703D01*
X102411223Y-121589123D01*
X102362751Y-121587847D01*
X102322106Y-121602999D01*
X102287433Y-121634642D01*
X102266776Y-121686620D01*
X102260045Y-121759219D01*
X102134328Y-121759219D01*
X102133521Y-121716621D01*
X102136052Y-121658056D01*
D10*
X166890625Y-120135525D02*
X166933485Y-120128907D01*
X169901865Y-117389873D02*
X169673935Y-117536353D01*
X170431415Y-117148333D02*
X170396865Y-117157063D01*
X169318905Y-120658584D02*
X169460335Y-120656793D01*
X169072545Y-119124513D02*
X169337125Y-118944943D01*
X170455405Y-117142263D02*
X170431415Y-117148333D01*
X169946405Y-117364093D02*
X169901865Y-117389873D01*
X166000595Y-119093483D02*
X165993545Y-119126303D01*
X170741545Y-117145393D02*
X170727915Y-117140303D01*
X165744195Y-119013513D02*
X165445045Y-119129883D01*
X167301865Y-118574763D02*
X167029295Y-118632163D01*
X166443905Y-120096681D02*
X166464685Y-120104872D01*
X170835985Y-117286953D02*
X170834795Y-117271703D01*
X168703295Y-117187123D02*
X168701115Y-117161893D01*
X168474075Y-117007273D02*
X168433865Y-117013563D01*
X164882755Y-119391873D02*
X164817655Y-119426433D01*
X167257115Y-120042535D02*
X167476665Y-119963650D01*
X165563205Y-120115343D02*
X165821725Y-119994250D01*
X170786235Y-117506943D02*
X170796165Y-117483823D01*
X168521595Y-119459093D02*
X168730525Y-119338333D01*
X169615775Y-120653484D02*
X169745825Y-120648438D01*
X170752335Y-117149413D02*
X170741545Y-117145393D01*
X170225475Y-120590604D02*
X170269475Y-120581543D01*
X167783805Y-118492733D02*
X167490445Y-118539773D01*
X167851185Y-119867514D02*
X167866695Y-119970921D01*
X166124945Y-119821018D02*
X166166185Y-119882759D01*
X166747725Y-120148872D02*
X166855195Y-120140952D01*
X166315695Y-119736003D02*
X166425615Y-119673723D01*
X170388725Y-120552247D02*
X170398335Y-120549697D01*
X165993545Y-119126303D02*
X165976125Y-119300303D01*
X167906085Y-117226823D02*
X167740725Y-117318843D01*
X164818355Y-120415366D02*
X165055125Y-120328452D01*
X165989365Y-119481063D02*
X165997665Y-119517303D01*
X168952095Y-118384273D02*
X168624685Y-118401573D01*
X168891935Y-118163573D02*
X168849875Y-118203943D01*
X167029295Y-118632163D02*
X166688415Y-118715063D01*
X163912761Y-120093263D02*
X163837077Y-120202421D01*
X168051865Y-120346572D02*
X168178545Y-120465767D01*
X169588865Y-118759873D02*
X169766275Y-118619843D01*
X166204155Y-118693413D02*
X166133455Y-118789493D01*
X168495985Y-117822103D02*
X168564405Y-117706813D01*
X166074655Y-119866917D02*
X166256025Y-119769749D01*
X170727915Y-117140303D02*
X170685055Y-117130643D01*
X169337125Y-118944943D02*
X169588865Y-118759873D01*
X164459201Y-120525771D02*
X164601616Y-120485732D01*
X163805122Y-120409831D02*
X163817003Y-120444445D01*
X166746415Y-119470863D02*
X167113225Y-119207633D01*
X169207455Y-118378743D02*
X169061305Y-118381943D01*
X165997665Y-119517303D02*
X166003845Y-119544543D01*
X163941461Y-120555393D02*
X164020291Y-120573949D01*
X166701825Y-118166173D02*
X166521865Y-118344243D01*
X170824115Y-118458713D02*
X170676805Y-118447533D01*
X169271755Y-120659018D02*
X169318905Y-120658584D01*
X170390025Y-118032013D02*
X170490885Y-117920953D01*
X170613875Y-117124623D02*
X170528975Y-117129663D01*
X169061305Y-118381943D02*
X168952095Y-118384273D01*
X168564405Y-117706813D02*
X168612955Y-117604063D01*
X166003845Y-119544543D02*
X166029515Y-119624733D01*
X168371045Y-117995233D02*
X168401415Y-117955393D01*
X167863165Y-119685383D02*
X167859095Y-119707143D01*
X167113225Y-119207633D02*
X167425405Y-118952373D01*
X167277125Y-117647413D02*
X166955085Y-117927303D01*
X170782825Y-117166713D02*
X170752335Y-117149413D01*
X167657395Y-119890354D02*
X167716905Y-119864313D01*
X168658095Y-117477273D02*
X168692975Y-117326233D01*
X169394265Y-117739313D02*
X169347335Y-117775283D01*
X164950245Y-119355953D02*
X164882755Y-119391873D01*
X168500915Y-117003033D02*
X168474075Y-117007273D01*
X170396865Y-117157063D02*
X170203835Y-117230633D01*
X164193468Y-119834202D02*
X164070150Y-119935277D01*
X168034235Y-119265953D02*
X168015795Y-119299483D01*
X163817003Y-120444445D02*
X163842882Y-120487956D01*
X166364365Y-118806313D02*
X166129075Y-118879833D01*
X166133455Y-118789493D02*
X166068575Y-118898103D01*
X163798069Y-120375054D02*
X163802735Y-120398004D01*
X167956765Y-119412923D02*
X167913575Y-119510963D01*
X166688415Y-118715063D02*
X166364365Y-118806313D01*
X166029515Y-119624733D02*
X166073145Y-119727273D01*
X166166185Y-119882759D02*
X166181415Y-119902236D01*
X167921385Y-118489853D02*
X168115445Y-118289493D01*
X166361115Y-118512483D02*
X166261075Y-118624193D01*
X165445045Y-119129883D02*
X165156905Y-119255743D01*
X169441135Y-117703283D02*
X169394265Y-117739313D01*
X168182895Y-119020833D02*
X168092185Y-119166833D01*
X167851405Y-119773438D02*
X167851185Y-119867514D01*
X166891395Y-117986553D02*
X166843585Y-118030983D01*
X170528975Y-117129663D02*
X170455405Y-117142263D01*
X167393185Y-118557823D02*
X167301865Y-118574763D01*
X170833935Y-117261063D02*
X170827305Y-117229553D01*
X168651525Y-117036083D02*
X168583935Y-117005313D01*
X168612955Y-117604063D02*
X168640135Y-117532713D01*
X167476665Y-119963650D02*
X167657395Y-119890354D01*
X167425405Y-118952373D02*
X167626625Y-118772843D01*
X168807775Y-118244243D02*
X168610835Y-118450783D01*
X165156905Y-119255743D02*
X164950245Y-119355953D01*
X164031196Y-119971246D02*
X164000000Y-120000000D01*
X165055125Y-120328452D02*
X165305555Y-120227595D01*
X166955085Y-117927303D02*
X166891395Y-117986553D01*
X168692975Y-117326233D02*
X168703295Y-117187123D01*
X169347335Y-117775283D02*
X169114755Y-117965063D01*
X164252171Y-120567438D02*
X164371854Y-120546171D01*
X170269475Y-120581543D02*
X170318085Y-120570477D01*
X167974615Y-119745493D02*
X168244795Y-119609593D01*
X166855195Y-120140952D02*
X166890625Y-120135525D01*
X168849875Y-118203943D02*
X168807775Y-118244243D01*
X163802735Y-120398004D02*
X163805122Y-120409831D01*
X167891335Y-120058595D02*
X167902075Y-120086914D01*
X170055185Y-120619196D02*
X170189185Y-120597549D01*
X168283585Y-118869523D02*
X168182895Y-119020833D01*
X168640135Y-117532713D02*
X168648005Y-117508583D01*
X168115445Y-118289493D02*
X168275165Y-118111063D01*
X166026865Y-118996743D02*
X166005805Y-119069013D01*
X170189185Y-120597549D02*
X170210835Y-120593425D01*
X168303545Y-120542047D02*
X168348255Y-120559842D01*
X165305555Y-120227595D02*
X165563205Y-120115343D01*
X164626357Y-119537603D02*
X164394261Y-119687393D01*
X168092185Y-119166833D02*
X168034235Y-119265953D01*
X168121045Y-117123263D02*
X167906085Y-117226823D01*
X166229395Y-118662763D02*
X166204155Y-118693413D01*
X170037765Y-118382873D02*
X170227265Y-118200843D01*
X168624685Y-118401573D02*
X168196555Y-118439623D01*
X168610835Y-118450783D02*
X168426055Y-118672913D01*
X168426055Y-118672913D02*
X168390085Y-118721073D01*
X168868275Y-119254713D02*
X169072545Y-119124513D01*
X170318085Y-120570477D02*
X170359865Y-120559950D01*
X168426165Y-117922913D02*
X168495985Y-117822103D01*
X167913575Y-119510963D02*
X167883305Y-119599723D01*
X167867185Y-119663793D02*
X167863165Y-119685383D01*
X166933485Y-120128907D02*
X167060875Y-120100099D01*
X169745825Y-120648438D02*
X169830185Y-120643447D01*
X170685055Y-117130643D02*
X170613875Y-117124623D01*
X166261075Y-118624193D02*
X166229395Y-118662763D01*
X169941085Y-118398813D02*
X169207455Y-118378743D01*
X168699545Y-117143993D02*
X168687125Y-117091093D01*
X166129075Y-118879833D02*
X166051165Y-118905873D01*
X170227265Y-118200843D02*
X170390025Y-118032013D01*
X167914615Y-120120010D02*
X167961805Y-120215713D01*
X164020291Y-120573949D02*
X164122884Y-120578831D01*
X167615405Y-117396703D02*
X167277125Y-117647413D01*
X167687225Y-117352103D02*
X167615405Y-117396703D01*
X170676805Y-118447533D02*
X169941085Y-118398813D01*
X169460335Y-120656793D02*
X169615775Y-120653484D01*
X164411296Y-120537002D02*
X164459201Y-120525771D01*
X168390085Y-118721073D02*
X168362735Y-118757643D01*
X169830185Y-120643447D02*
X169858295Y-120641168D01*
X168196555Y-118439623D02*
X167783805Y-118492733D01*
X169114755Y-117965063D02*
X168891935Y-118163573D01*
X164070150Y-119935277D02*
X164031196Y-119971246D01*
X168362735Y-118757643D02*
X168283585Y-118869523D01*
X170625485Y-117760463D02*
X170699055Y-117661353D01*
X167866695Y-119970921D02*
X167891335Y-120058595D01*
X167859095Y-119707143D02*
X167851405Y-119773438D01*
X164000000Y-120000000D02*
X163912761Y-120093263D01*
X163837077Y-120202421D02*
X163801324Y-120302735D01*
X165821725Y-119994250D02*
X166074655Y-119866917D01*
X166529025Y-120124838D02*
X166628735Y-120143772D01*
X164122884Y-120578831D02*
X164252171Y-120567438D01*
X169858295Y-120641168D02*
X169893665Y-120638293D01*
X170750545Y-117578993D02*
X170778265Y-117525343D01*
X168399475Y-120580242D02*
X168562225Y-120618924D01*
X170523595Y-117883193D02*
X170549645Y-117853023D01*
X168730525Y-119338333D02*
X168799325Y-119296603D01*
X168015795Y-119299483D02*
X168000375Y-119327483D01*
X166464685Y-120104872D02*
X166529025Y-120124838D01*
X168348255Y-120559842D02*
X168399475Y-120580242D01*
X168799325Y-119296603D02*
X168868275Y-119254713D01*
X166073145Y-119727273D02*
X166124945Y-119821018D01*
X169990885Y-117338323D02*
X169946405Y-117364093D01*
X170699055Y-117661353D02*
X170750545Y-117578993D01*
X169893665Y-120638293D02*
X170055185Y-120619196D01*
X166425615Y-119673723D02*
X166746415Y-119470863D01*
X168802735Y-120648818D02*
X169046825Y-120658963D01*
X166181415Y-119902236D02*
X166200625Y-119926759D01*
X166051165Y-118905873D02*
X165974015Y-118931593D01*
X170778265Y-117525343D02*
X170786235Y-117506943D01*
X170359865Y-120559950D02*
X170388725Y-120552247D01*
X166521865Y-118344243D02*
X166361115Y-118512483D01*
X170834795Y-117271703D02*
X170833935Y-117261063D01*
X165974015Y-118931593D02*
X165744195Y-119013513D01*
X170827305Y-117229553D02*
X170810705Y-117194713D01*
X170490885Y-117920953D02*
X170523595Y-117883193D01*
X168244795Y-119609593D02*
X168521595Y-119459093D01*
X167490445Y-118539773D02*
X167393185Y-118557823D01*
X166256025Y-119769749D02*
X166315695Y-119736003D01*
X170203835Y-117230633D02*
X169990885Y-117338323D01*
X168275165Y-118111063D02*
X168371045Y-117995233D01*
X168000375Y-119327483D02*
X167956765Y-119412923D01*
X170549645Y-117853023D02*
X170625485Y-117760463D01*
X167961805Y-120215713D02*
X168051865Y-120346572D01*
X168648005Y-117508583D02*
X168658095Y-117477273D01*
X167060875Y-120100099D02*
X167257115Y-120042535D01*
X168687125Y-117091093D02*
X168651525Y-117036083D01*
X167740725Y-117318843D02*
X167687225Y-117352103D01*
X169766275Y-118619843D02*
X169823895Y-118571393D01*
X170810705Y-117194713D02*
X170782825Y-117166713D01*
X169673935Y-117536353D02*
X169441135Y-117703283D01*
X167750265Y-118656843D02*
X167921385Y-118489853D01*
X169823895Y-118571393D02*
X169878365Y-118525493D01*
X168401415Y-117955393D02*
X168426165Y-117922913D01*
X169878365Y-118525493D02*
X170037765Y-118382873D01*
X164371854Y-120546171D02*
X164411296Y-120537002D01*
X167716905Y-119864313D02*
X167781845Y-119835829D01*
X167692165Y-118711373D02*
X167750265Y-118656843D01*
X167626625Y-118772843D02*
X167692165Y-118711373D01*
X168178545Y-120465767D02*
X168303545Y-120542047D01*
X163801324Y-120302735D02*
X163798069Y-120375054D01*
X164601616Y-120485732D02*
X164818355Y-120415366D01*
X170210835Y-120593425D02*
X170225475Y-120590604D01*
X166068575Y-118898103D02*
X166026865Y-118996743D01*
X165976125Y-119300303D02*
X165989365Y-119481063D01*
X169215505Y-120659506D02*
X169271755Y-120659018D01*
X170827255Y-117377603D02*
X170835985Y-117286953D01*
X166417375Y-120086210D02*
X166443905Y-120096681D01*
X166628735Y-120143772D02*
X166747725Y-120148872D01*
X168701115Y-117161893D02*
X168699545Y-117143993D01*
X163883355Y-120525825D02*
X163941461Y-120555393D01*
X168583935Y-117005313D02*
X168500915Y-117003033D01*
X167902075Y-120086914D02*
X167914615Y-120120010D01*
X168562225Y-120618924D02*
X168802735Y-120648818D01*
X170796165Y-117483823D02*
X170827255Y-117377603D01*
X166301705Y-120020617D02*
X166417375Y-120086210D01*
X167781845Y-119835829D02*
X167974615Y-119745493D01*
X166200625Y-119926759D02*
X166301705Y-120020617D01*
X166843585Y-118030983D02*
X166701825Y-118166173D01*
X169046825Y-120658963D02*
X169215505Y-120659506D01*
X167883305Y-119599723D02*
X167867185Y-119663793D01*
X164394261Y-119687393D02*
X164193468Y-119834202D01*
X168433865Y-117013563D02*
X168315805Y-117047913D01*
X168315805Y-117047913D02*
X168121045Y-117123263D01*
X166005805Y-119069013D02*
X166000595Y-119093483D01*
X163842882Y-120487956D02*
X163883355Y-120525825D01*
X164817655Y-119426433D02*
X164626357Y-119537603D01*
D12*
%TO.C,X10*%
X133500000Y-125400000D02*
X139500000Y-125400000D01*
X133500000Y-124800000D02*
X133500000Y-125400000D01*
X133500000Y-119400000D02*
X133500000Y-122100000D01*
X135050000Y-119400000D02*
X133500000Y-119400000D01*
X137950000Y-119400000D02*
X139500000Y-119400000D01*
X139500000Y-125400000D02*
X139500000Y-124800000D01*
X139500000Y-119400000D02*
X139500000Y-122100000D01*
D13*
X135800000Y-117950000D02*
G75*
G03*
X135800000Y-117950000I-100000J0D01*
G01*
D12*
%TO.C,X6*%
X150500000Y-100600000D02*
X144500000Y-100600000D01*
X144500000Y-106600000D02*
X144500000Y-103900000D01*
X148950000Y-106600000D02*
X150500000Y-106600000D01*
X150500000Y-101200000D02*
X150500000Y-100600000D01*
X146050000Y-106600000D02*
X144500000Y-106600000D01*
X150500000Y-106600000D02*
X150500000Y-103900000D01*
X144500000Y-100600000D02*
X144500000Y-101200000D01*
D13*
X148400000Y-108050000D02*
G75*
G03*
X148400000Y-108050000I-100000J0D01*
G01*
D12*
%TO.C,X5*%
X135050000Y-106600000D02*
X133500000Y-106600000D01*
X139500000Y-101200000D02*
X139500000Y-100600000D01*
X133500000Y-106600000D02*
X133500000Y-103900000D01*
X139500000Y-106600000D02*
X139500000Y-103900000D01*
X133500000Y-100600000D02*
X133500000Y-101200000D01*
X139500000Y-100600000D02*
X133500000Y-100600000D01*
X137950000Y-106600000D02*
X139500000Y-106600000D01*
D13*
X137400000Y-108050000D02*
G75*
G03*
X137400000Y-108050000I-100000J0D01*
G01*
D14*
%TO.C,X1*%
X107800000Y-115000000D02*
X107800000Y-111000000D01*
X107800000Y-111000000D02*
X108900000Y-109900000D01*
X119200000Y-116100000D02*
X108900000Y-116100000D01*
X108900000Y-109900000D02*
X119200000Y-109900000D01*
X119200000Y-109900000D02*
X119200000Y-116100000D01*
X108900000Y-116100000D02*
X107800000Y-115000000D01*
%TO.C,X2*%
X153800000Y-109900000D02*
X164100000Y-109900000D01*
X164100000Y-116100000D02*
X153800000Y-116100000D01*
X153800000Y-116100000D02*
X153800000Y-109900000D01*
X165200000Y-111000000D02*
X165200000Y-115000000D01*
X165200000Y-115000000D02*
X164100000Y-116100000D01*
X164100000Y-109900000D02*
X165200000Y-111000000D01*
D12*
%TO.C,X3*%
X115950000Y-106600000D02*
X117500000Y-106600000D01*
X117500000Y-100600000D02*
X111500000Y-100600000D01*
X111500000Y-100600000D02*
X111500000Y-101200000D01*
X117500000Y-106600000D02*
X117500000Y-103900000D01*
X113050000Y-106600000D02*
X111500000Y-106600000D01*
X111500000Y-106600000D02*
X111500000Y-103900000D01*
X117500000Y-101200000D02*
X117500000Y-100600000D01*
D13*
X115400000Y-108050000D02*
G75*
G03*
X115400000Y-108050000I-100000J0D01*
G01*
D12*
%TO.C,X7*%
X161500000Y-106600000D02*
X161500000Y-103900000D01*
X161500000Y-101200000D02*
X161500000Y-100600000D01*
X155500000Y-106600000D02*
X155500000Y-103900000D01*
X157050000Y-106600000D02*
X155500000Y-106600000D01*
X159950000Y-106600000D02*
X161500000Y-106600000D01*
X155500000Y-100600000D02*
X155500000Y-101200000D01*
X161500000Y-100600000D02*
X155500000Y-100600000D01*
D13*
X159400000Y-108050000D02*
G75*
G03*
X159400000Y-108050000I-100000J0D01*
G01*
D12*
%TO.C,X8*%
X117500000Y-125400000D02*
X117500000Y-124800000D01*
X115950000Y-119400000D02*
X117500000Y-119400000D01*
X111500000Y-124800000D02*
X111500000Y-125400000D01*
X111500000Y-125400000D02*
X117500000Y-125400000D01*
X117500000Y-119400000D02*
X117500000Y-122100000D01*
X113050000Y-119400000D02*
X111500000Y-119400000D01*
X111500000Y-119400000D02*
X111500000Y-122100000D01*
D13*
X113800000Y-117950000D02*
G75*
G03*
X113800000Y-117950000I-100000J0D01*
G01*
D12*
%TO.C,X4*%
X128500000Y-101200000D02*
X128500000Y-100600000D01*
X124050000Y-106600000D02*
X122500000Y-106600000D01*
X122500000Y-100600000D02*
X122500000Y-101200000D01*
X128500000Y-100600000D02*
X122500000Y-100600000D01*
X128500000Y-106600000D02*
X128500000Y-103900000D01*
X126950000Y-106600000D02*
X128500000Y-106600000D01*
X122500000Y-106600000D02*
X122500000Y-103900000D01*
D13*
X126400000Y-108050000D02*
G75*
G03*
X126400000Y-108050000I-100000J0D01*
G01*
D12*
%TO.C,X12*%
X155500000Y-124800000D02*
X155500000Y-125400000D01*
X157050000Y-119400000D02*
X155500000Y-119400000D01*
X161500000Y-119400000D02*
X161500000Y-122100000D01*
X155500000Y-125400000D02*
X161500000Y-125400000D01*
X155500000Y-119400000D02*
X155500000Y-122100000D01*
X161500000Y-125400000D02*
X161500000Y-124800000D01*
X159950000Y-119400000D02*
X161500000Y-119400000D01*
D13*
X157800000Y-117950000D02*
G75*
G03*
X157800000Y-117950000I-100000J0D01*
G01*
D12*
%TO.C,X11*%
X150500000Y-125400000D02*
X150500000Y-124800000D01*
X144500000Y-125400000D02*
X150500000Y-125400000D01*
X144500000Y-119400000D02*
X144500000Y-122100000D01*
X144500000Y-124800000D02*
X144500000Y-125400000D01*
X148950000Y-119400000D02*
X150500000Y-119400000D01*
X146050000Y-119400000D02*
X144500000Y-119400000D01*
X150500000Y-119400000D02*
X150500000Y-122100000D01*
D13*
X146800000Y-117950000D02*
G75*
G03*
X146800000Y-117950000I-100000J0D01*
G01*
D12*
%TO.C,X9*%
X128500000Y-119400000D02*
X128500000Y-122100000D01*
X124050000Y-119400000D02*
X122500000Y-119400000D01*
X126950000Y-119400000D02*
X128500000Y-119400000D01*
X122500000Y-125400000D02*
X128500000Y-125400000D01*
X128500000Y-125400000D02*
X128500000Y-124800000D01*
X122500000Y-119400000D02*
X122500000Y-122100000D01*
X122500000Y-124800000D02*
X122500000Y-125400000D01*
D13*
X124800000Y-117950000D02*
G75*
G03*
X124800000Y-117950000I-100000J0D01*
G01*
%TD*%
M02*
